%TF.GenerationSoftware,KiCad,Pcbnew,7.0.7-7.0.7~ubuntu22.04.1*%
%TF.CreationDate,2023-09-16T20:13:10-03:00*%
%TF.ProjectId,EQfixture,45516669-7874-4757-9265-2e6b69636164,rev?*%
%TF.SameCoordinates,Original*%
%TF.FileFunction,Drillmap*%
%TF.FilePolarity,Positive*%
%FSLAX45Y45*%
G04 Gerber Fmt 4.5, Leading zero omitted, Abs format (unit mm)*
G04 Created by KiCad (PCBNEW 7.0.7-7.0.7~ubuntu22.04.1) date 2023-09-16 20:13:10*
%MOMM*%
%LPD*%
G01*
G04 APERTURE LIST*
%ADD10C,0.200000*%
G04 APERTURE END LIST*
D10*
X21618849Y-3428977D02*
G75*
G03*
X21521526Y-3331661I-97309J7D01*
G01*
X8417526Y-14470293D02*
X21521526Y-14470293D01*
X21521526Y-3331661D02*
X8417526Y-3331661D01*
X7841526Y-4171660D02*
G75*
G03*
X8320209Y-3692977I0J478683D01*
G01*
X22097526Y-13630292D02*
G75*
G03*
X21618842Y-14108977I4J-478688D01*
G01*
X8320209Y-3428977D02*
X8320209Y-3692977D01*
X22097526Y-13630293D02*
X22361526Y-13630293D01*
X22361526Y-13630292D02*
G75*
G03*
X22458842Y-13532977I4J97312D01*
G01*
X7480209Y-4268977D02*
X7480209Y-13532977D01*
X7841526Y-4171661D02*
X7577526Y-4171661D01*
X7577526Y-4171659D02*
G75*
G03*
X7480209Y-4268977I4J-97321D01*
G01*
X22361526Y-4171661D02*
X22097526Y-4171661D01*
X8320217Y-14372977D02*
G75*
G03*
X8417526Y-14470293I97323J7D01*
G01*
X8320209Y-14108977D02*
X8320209Y-14372977D01*
X22458842Y-13532977D02*
X22458842Y-4269877D01*
X22458849Y-4269877D02*
G75*
G03*
X22361526Y-4171656I-97309J907D01*
G01*
X21618842Y-14372977D02*
X21618842Y-14108977D01*
X8417526Y-3331659D02*
G75*
G03*
X8320209Y-3428977I4J-97321D01*
G01*
X21618842Y-3692977D02*
X21618842Y-3428977D01*
X21618849Y-3692977D02*
G75*
G03*
X22097526Y-4171661I478691J7D01*
G01*
X7480217Y-13532977D02*
G75*
G03*
X7577526Y-13630293I97323J7D01*
G01*
X7577526Y-13630293D02*
X7841526Y-13630293D01*
X8320217Y-14108977D02*
G75*
G03*
X7841526Y-13630293I-478677J7D01*
G01*
X21521526Y-14470292D02*
G75*
G03*
X21618842Y-14372977I4J97312D01*
G01*
X7730986Y-14791777D02*
X7730986Y-14591777D01*
X7730986Y-14591777D02*
X7778605Y-14591777D01*
X7778605Y-14591777D02*
X7807176Y-14601301D01*
X7807176Y-14601301D02*
X7826224Y-14620349D01*
X7826224Y-14620349D02*
X7835748Y-14639396D01*
X7835748Y-14639396D02*
X7845272Y-14677491D01*
X7845272Y-14677491D02*
X7845272Y-14706063D01*
X7845272Y-14706063D02*
X7835748Y-14744158D01*
X7835748Y-14744158D02*
X7826224Y-14763206D01*
X7826224Y-14763206D02*
X7807176Y-14782253D01*
X7807176Y-14782253D02*
X7778605Y-14791777D01*
X7778605Y-14791777D02*
X7730986Y-14791777D01*
X7930986Y-14791777D02*
X7930986Y-14658444D01*
X7930986Y-14696539D02*
X7940510Y-14677491D01*
X7940510Y-14677491D02*
X7950034Y-14667968D01*
X7950034Y-14667968D02*
X7969081Y-14658444D01*
X7969081Y-14658444D02*
X7988129Y-14658444D01*
X8054795Y-14791777D02*
X8054795Y-14658444D01*
X8054795Y-14591777D02*
X8045272Y-14601301D01*
X8045272Y-14601301D02*
X8054795Y-14610825D01*
X8054795Y-14610825D02*
X8064319Y-14601301D01*
X8064319Y-14601301D02*
X8054795Y-14591777D01*
X8054795Y-14591777D02*
X8054795Y-14610825D01*
X8178605Y-14791777D02*
X8159557Y-14782253D01*
X8159557Y-14782253D02*
X8150034Y-14763206D01*
X8150034Y-14763206D02*
X8150034Y-14591777D01*
X8283367Y-14791777D02*
X8264319Y-14782253D01*
X8264319Y-14782253D02*
X8254795Y-14763206D01*
X8254795Y-14763206D02*
X8254795Y-14591777D01*
X8511938Y-14791777D02*
X8511938Y-14591777D01*
X8511938Y-14591777D02*
X8578605Y-14734634D01*
X8578605Y-14734634D02*
X8645272Y-14591777D01*
X8645272Y-14591777D02*
X8645272Y-14791777D01*
X8826224Y-14791777D02*
X8826224Y-14687015D01*
X8826224Y-14687015D02*
X8816700Y-14667968D01*
X8816700Y-14667968D02*
X8797653Y-14658444D01*
X8797653Y-14658444D02*
X8759557Y-14658444D01*
X8759557Y-14658444D02*
X8740510Y-14667968D01*
X8826224Y-14782253D02*
X8807177Y-14791777D01*
X8807177Y-14791777D02*
X8759557Y-14791777D01*
X8759557Y-14791777D02*
X8740510Y-14782253D01*
X8740510Y-14782253D02*
X8730986Y-14763206D01*
X8730986Y-14763206D02*
X8730986Y-14744158D01*
X8730986Y-14744158D02*
X8740510Y-14725111D01*
X8740510Y-14725111D02*
X8759557Y-14715587D01*
X8759557Y-14715587D02*
X8807177Y-14715587D01*
X8807177Y-14715587D02*
X8826224Y-14706063D01*
X8921462Y-14658444D02*
X8921462Y-14858444D01*
X8921462Y-14667968D02*
X8940510Y-14658444D01*
X8940510Y-14658444D02*
X8978605Y-14658444D01*
X8978605Y-14658444D02*
X8997653Y-14667968D01*
X8997653Y-14667968D02*
X9007177Y-14677491D01*
X9007177Y-14677491D02*
X9016700Y-14696539D01*
X9016700Y-14696539D02*
X9016700Y-14753682D01*
X9016700Y-14753682D02*
X9007177Y-14772730D01*
X9007177Y-14772730D02*
X8997653Y-14782253D01*
X8997653Y-14782253D02*
X8978605Y-14791777D01*
X8978605Y-14791777D02*
X8940510Y-14791777D01*
X8940510Y-14791777D02*
X8921462Y-14782253D01*
X9102415Y-14772730D02*
X9111938Y-14782253D01*
X9111938Y-14782253D02*
X9102415Y-14791777D01*
X9102415Y-14791777D02*
X9092891Y-14782253D01*
X9092891Y-14782253D02*
X9102415Y-14772730D01*
X9102415Y-14772730D02*
X9102415Y-14791777D01*
X9102415Y-14667968D02*
X9111938Y-14677491D01*
X9111938Y-14677491D02*
X9102415Y-14687015D01*
X9102415Y-14687015D02*
X9092891Y-14677491D01*
X9092891Y-14677491D02*
X9102415Y-14667968D01*
X9102415Y-14667968D02*
X9102415Y-14687015D01*
M02*
