G04 #@! TF.GenerationSoftware,KiCad,Pcbnew,7.0.7-7.0.7~ubuntu22.04.1*
G04 #@! TF.CreationDate,2023-09-16T20:12:51-03:00*
G04 #@! TF.ProjectId,EQfixture,45516669-7874-4757-9265-2e6b69636164,rev?*
G04 #@! TF.SameCoordinates,Original*
G04 #@! TF.FileFunction,Legend,Top*
G04 #@! TF.FilePolarity,Positive*
%FSLAX46Y46*%
G04 Gerber Fmt 4.6, Leading zero omitted, Abs format (unit mm)*
G04 Created by KiCad (PCBNEW 7.0.7-7.0.7~ubuntu22.04.1) date 2023-09-16 20:12:51*
%MOMM*%
%LPD*%
G01*
G04 APERTURE LIST*
G04 Aperture macros list*
%AMRoundRect*
0 Rectangle with rounded corners*
0 $1 Rounding radius*
0 $2 $3 $4 $5 $6 $7 $8 $9 X,Y pos of 4 corners*
0 Add a 4 corners polygon primitive as box body*
4,1,4,$2,$3,$4,$5,$6,$7,$8,$9,$2,$3,0*
0 Add four circle primitives for the rounded corners*
1,1,$1+$1,$2,$3*
1,1,$1+$1,$4,$5*
1,1,$1+$1,$6,$7*
1,1,$1+$1,$8,$9*
0 Add four rect primitives between the rounded corners*
20,1,$1+$1,$2,$3,$4,$5,0*
20,1,$1+$1,$4,$5,$6,$7,0*
20,1,$1+$1,$6,$7,$8,$9,0*
20,1,$1+$1,$8,$9,$2,$3,0*%
G04 Aperture macros list end*
%ADD10C,0.300000*%
%ADD11C,0.150000*%
%ADD12C,0.100000*%
%ADD13C,6.400000*%
%ADD14RoundRect,0.278871X-0.571129X-0.571129X0.571129X-0.571129X0.571129X0.571129X-0.571129X0.571129X0*%
%ADD15R,1.700000X1.700000*%
%ADD16O,1.700000X1.700000*%
G04 APERTURE END LIST*
D10*
G36*
X131510244Y-92470000D02*
G01*
X131510244Y-89515638D01*
X133435122Y-89515638D01*
X133435122Y-90031479D01*
X132089099Y-90031479D01*
X132089099Y-90641109D01*
X133287843Y-90641109D01*
X133287843Y-91156950D01*
X132089099Y-91156950D01*
X132089099Y-91954159D01*
X133536971Y-91954159D01*
X133536971Y-92470000D01*
X131510244Y-92470000D01*
G37*
G36*
X135227808Y-89469121D02*
G01*
X135263909Y-89470255D01*
X135299776Y-89472144D01*
X135335407Y-89474788D01*
X135370804Y-89478189D01*
X135405967Y-89482345D01*
X135440894Y-89487256D01*
X135475587Y-89492923D01*
X135510046Y-89499346D01*
X135544269Y-89506525D01*
X135578258Y-89514459D01*
X135612012Y-89523148D01*
X135645532Y-89532594D01*
X135678817Y-89542795D01*
X135711867Y-89553751D01*
X135744682Y-89565464D01*
X135777208Y-89577934D01*
X135809208Y-89591166D01*
X135840681Y-89605160D01*
X135871627Y-89619914D01*
X135902047Y-89635431D01*
X135931940Y-89651708D01*
X135961306Y-89668747D01*
X135990146Y-89686547D01*
X136018459Y-89705108D01*
X136046246Y-89724431D01*
X136073505Y-89744516D01*
X136100239Y-89765361D01*
X136126445Y-89786968D01*
X136152125Y-89809336D01*
X136177278Y-89832466D01*
X136201905Y-89856357D01*
X136226047Y-89880892D01*
X136249566Y-89906137D01*
X136272461Y-89932091D01*
X136294732Y-89958756D01*
X136316379Y-89986130D01*
X136337402Y-90014214D01*
X136357801Y-90043008D01*
X136377576Y-90072512D01*
X136396727Y-90102725D01*
X136415255Y-90133649D01*
X136433158Y-90165282D01*
X136450437Y-90197625D01*
X136467092Y-90230678D01*
X136483124Y-90264441D01*
X136498531Y-90298913D01*
X136513314Y-90334096D01*
X136527333Y-90369888D01*
X136540448Y-90406373D01*
X136552658Y-90443550D01*
X136563964Y-90481420D01*
X136574365Y-90519983D01*
X136583862Y-90559238D01*
X136592455Y-90599186D01*
X136600143Y-90639827D01*
X136606926Y-90681160D01*
X136612805Y-90723186D01*
X136617780Y-90765905D01*
X136621850Y-90809316D01*
X136625015Y-90853420D01*
X136627276Y-90898217D01*
X136628633Y-90943706D01*
X136629085Y-90989888D01*
X136628768Y-91028937D01*
X136627815Y-91067500D01*
X136626226Y-91105576D01*
X136624002Y-91143165D01*
X136621143Y-91180268D01*
X136617648Y-91216885D01*
X136613518Y-91253015D01*
X136608752Y-91288658D01*
X136603351Y-91323815D01*
X136597315Y-91358485D01*
X136590643Y-91392668D01*
X136583336Y-91426365D01*
X136575393Y-91459575D01*
X136566815Y-91492299D01*
X136557601Y-91524536D01*
X136547752Y-91556287D01*
X136537331Y-91587454D01*
X136526400Y-91618122D01*
X136514960Y-91648293D01*
X136503010Y-91677966D01*
X136490551Y-91707140D01*
X136477582Y-91735817D01*
X136464104Y-91763996D01*
X136450116Y-91791676D01*
X136435619Y-91818859D01*
X136420613Y-91845543D01*
X136405097Y-91871730D01*
X136389071Y-91897418D01*
X136372536Y-91922608D01*
X136355491Y-91947301D01*
X136337937Y-91971495D01*
X136319874Y-91995191D01*
X136301453Y-92018367D01*
X136282642Y-92040998D01*
X136253696Y-92073926D01*
X136223875Y-92105630D01*
X136193178Y-92136111D01*
X136161605Y-92165368D01*
X136129156Y-92193401D01*
X136095831Y-92220211D01*
X136061630Y-92245797D01*
X136026553Y-92270159D01*
X135990601Y-92293298D01*
X135978422Y-92300739D01*
X135941611Y-92322227D01*
X135904543Y-92342453D01*
X135867217Y-92361417D01*
X135829633Y-92379118D01*
X135791791Y-92395557D01*
X135753692Y-92410734D01*
X135715336Y-92424649D01*
X135676721Y-92437301D01*
X135637850Y-92448692D01*
X135598720Y-92458820D01*
X135572491Y-92464870D01*
X135580459Y-92494912D01*
X135593893Y-92521199D01*
X135613358Y-92547486D01*
X135634841Y-92570017D01*
X135651625Y-92585038D01*
X135674856Y-92603578D01*
X135700126Y-92621188D01*
X135727435Y-92637867D01*
X135756783Y-92653617D01*
X135788171Y-92668436D01*
X135821598Y-92682325D01*
X135835540Y-92687620D01*
X135864472Y-92698004D01*
X135894479Y-92707907D01*
X135925563Y-92717330D01*
X135957723Y-92726271D01*
X135990959Y-92734732D01*
X136025271Y-92742712D01*
X136060660Y-92750211D01*
X136097124Y-92757229D01*
X136134803Y-92763995D01*
X136163948Y-92768815D01*
X136193853Y-92773415D01*
X136224518Y-92777796D01*
X136255943Y-92781959D01*
X136288128Y-92785902D01*
X136321073Y-92789627D01*
X136354778Y-92793132D01*
X136389243Y-92796419D01*
X136424467Y-92799486D01*
X136436378Y-92800460D01*
X136306685Y-93315568D01*
X136271338Y-93312458D01*
X136236463Y-93309082D01*
X136202061Y-93305440D01*
X136168130Y-93301532D01*
X136134672Y-93297357D01*
X136101687Y-93292917D01*
X136069173Y-93288210D01*
X136037132Y-93283237D01*
X136005563Y-93277997D01*
X135974467Y-93272492D01*
X135943842Y-93266720D01*
X135913690Y-93260682D01*
X135884011Y-93254378D01*
X135854803Y-93247808D01*
X135826068Y-93240972D01*
X135770014Y-93226500D01*
X135715849Y-93210964D01*
X135663574Y-93194363D01*
X135613187Y-93176698D01*
X135564690Y-93157967D01*
X135518081Y-93138172D01*
X135473362Y-93117312D01*
X135430532Y-93095388D01*
X135409825Y-93084026D01*
X135369823Y-93060338D01*
X135331698Y-93035071D01*
X135295451Y-93008223D01*
X135261081Y-92979795D01*
X135228589Y-92949788D01*
X135197975Y-92918200D01*
X135169238Y-92885033D01*
X135142379Y-92850286D01*
X135117398Y-92813958D01*
X135094294Y-92776051D01*
X135073068Y-92736564D01*
X135053719Y-92695497D01*
X135036248Y-92652850D01*
X135020655Y-92608623D01*
X135006939Y-92562816D01*
X134995101Y-92515429D01*
X134964034Y-92512071D01*
X134933116Y-92508044D01*
X134902348Y-92503347D01*
X134871728Y-92497981D01*
X134841256Y-92491944D01*
X134810934Y-92485238D01*
X134780760Y-92477862D01*
X134750736Y-92469816D01*
X134720860Y-92461101D01*
X134691133Y-92451716D01*
X134661555Y-92441661D01*
X134632125Y-92430936D01*
X134602845Y-92419541D01*
X134573713Y-92407477D01*
X134544730Y-92394743D01*
X134515896Y-92381339D01*
X134487451Y-92367286D01*
X134459453Y-92352603D01*
X134431901Y-92337290D01*
X134404796Y-92321347D01*
X134378138Y-92304775D01*
X134351925Y-92287573D01*
X134326160Y-92269741D01*
X134300840Y-92251280D01*
X134275968Y-92232189D01*
X134251542Y-92212468D01*
X134227562Y-92192118D01*
X134204029Y-92171138D01*
X134180942Y-92149528D01*
X134158302Y-92127289D01*
X134136108Y-92104419D01*
X134114361Y-92080921D01*
X134093212Y-92056706D01*
X134072630Y-92031874D01*
X134052614Y-92006423D01*
X134033165Y-91980354D01*
X134014283Y-91953666D01*
X133995968Y-91926361D01*
X133978219Y-91898437D01*
X133961038Y-91869895D01*
X133944422Y-91840735D01*
X133928374Y-91810956D01*
X133912892Y-91780559D01*
X133897977Y-91749544D01*
X133883629Y-91717911D01*
X133869847Y-91685659D01*
X133856632Y-91652790D01*
X133843984Y-91619302D01*
X133832094Y-91585195D01*
X133820972Y-91550471D01*
X133810616Y-91515128D01*
X133801028Y-91479167D01*
X133792207Y-91442588D01*
X133784152Y-91405391D01*
X133776865Y-91367575D01*
X133770345Y-91329141D01*
X133764592Y-91290089D01*
X133759606Y-91250419D01*
X133755387Y-91210130D01*
X133751935Y-91169223D01*
X133749250Y-91127698D01*
X133747333Y-91085555D01*
X133746182Y-91042793D01*
X133745799Y-90999413D01*
X133745863Y-90992819D01*
X134345170Y-90992819D01*
X134345679Y-91035709D01*
X134347206Y-91077827D01*
X134349749Y-91119172D01*
X134353311Y-91159743D01*
X134357889Y-91199543D01*
X134363486Y-91238569D01*
X134370100Y-91276823D01*
X134377731Y-91314303D01*
X134386380Y-91351011D01*
X134396046Y-91386947D01*
X134403056Y-91410474D01*
X134414354Y-91445012D01*
X134426541Y-91478558D01*
X134439616Y-91511112D01*
X134453580Y-91542674D01*
X134468433Y-91573245D01*
X134484174Y-91602824D01*
X134500804Y-91631411D01*
X134518323Y-91659006D01*
X134536731Y-91685610D01*
X134556027Y-91711222D01*
X134569385Y-91727745D01*
X134590262Y-91751554D01*
X134611949Y-91774345D01*
X134634449Y-91796119D01*
X134657759Y-91816875D01*
X134681881Y-91836614D01*
X134706815Y-91855335D01*
X134732560Y-91873038D01*
X134759116Y-91889724D01*
X134786484Y-91905393D01*
X134814663Y-91920044D01*
X134833900Y-91929246D01*
X134863400Y-91942079D01*
X134893646Y-91953649D01*
X134924640Y-91963957D01*
X134956381Y-91973003D01*
X134988868Y-91980787D01*
X135022103Y-91987309D01*
X135056085Y-91992568D01*
X135090813Y-91996565D01*
X135126289Y-91999300D01*
X135162512Y-92000773D01*
X135187076Y-92001053D01*
X135223011Y-92000422D01*
X135258276Y-91998529D01*
X135292872Y-91995373D01*
X135326798Y-91990955D01*
X135360054Y-91985275D01*
X135392640Y-91978333D01*
X135424557Y-91970128D01*
X135455804Y-91960662D01*
X135486381Y-91949933D01*
X135516288Y-91937941D01*
X135535854Y-91929246D01*
X135564568Y-91915273D01*
X135592458Y-91900283D01*
X135619523Y-91884275D01*
X135645764Y-91867250D01*
X135671180Y-91849207D01*
X135695772Y-91830147D01*
X135719540Y-91810069D01*
X135742484Y-91788974D01*
X135764603Y-91766861D01*
X135785898Y-91743731D01*
X135799637Y-91727745D01*
X135819656Y-91702795D01*
X135838775Y-91676852D01*
X135856991Y-91649918D01*
X135874306Y-91621992D01*
X135890720Y-91593074D01*
X135906231Y-91563165D01*
X135920842Y-91532264D01*
X135934550Y-91500371D01*
X135947357Y-91467486D01*
X135959263Y-91433609D01*
X135966699Y-91410474D01*
X135977044Y-91375054D01*
X135986371Y-91338861D01*
X135994681Y-91301896D01*
X136001973Y-91264157D01*
X136008247Y-91225646D01*
X136013505Y-91186362D01*
X136017744Y-91146305D01*
X136020966Y-91105476D01*
X136023171Y-91063873D01*
X136024358Y-91021498D01*
X136024584Y-90992819D01*
X136024076Y-90949928D01*
X136022549Y-90907811D01*
X136020005Y-90866466D01*
X136016444Y-90825894D01*
X136011865Y-90786095D01*
X136006269Y-90747068D01*
X135999655Y-90708815D01*
X135992024Y-90671334D01*
X135983375Y-90634626D01*
X135973708Y-90598691D01*
X135966699Y-90575163D01*
X135955394Y-90540632D01*
X135943188Y-90507106D01*
X135930081Y-90474584D01*
X135916072Y-90443066D01*
X135901161Y-90412554D01*
X135885349Y-90383046D01*
X135868635Y-90354542D01*
X135851019Y-90327043D01*
X135832502Y-90300549D01*
X135813083Y-90275060D01*
X135799637Y-90258625D01*
X135778891Y-90234685D01*
X135757322Y-90211776D01*
X135734928Y-90189897D01*
X135711709Y-90169049D01*
X135687667Y-90149231D01*
X135662800Y-90130443D01*
X135637108Y-90112686D01*
X135610593Y-90095959D01*
X135583253Y-90080263D01*
X135555088Y-90065597D01*
X135535854Y-90056392D01*
X135506394Y-90043559D01*
X135476263Y-90031988D01*
X135445463Y-90021680D01*
X135413992Y-90012634D01*
X135381853Y-90004850D01*
X135349043Y-89998329D01*
X135315564Y-89993069D01*
X135281414Y-89989072D01*
X135246595Y-89986337D01*
X135211107Y-89984865D01*
X135187076Y-89984584D01*
X135150355Y-89985215D01*
X135114381Y-89987109D01*
X135079154Y-89990264D01*
X135044674Y-89994682D01*
X135010942Y-90000362D01*
X134977956Y-90007305D01*
X134945717Y-90015509D01*
X134914226Y-90024976D01*
X134883481Y-90035705D01*
X134853484Y-90047696D01*
X134833900Y-90056392D01*
X134805180Y-90070384D01*
X134777271Y-90085432D01*
X134750174Y-90101536D01*
X134723888Y-90118697D01*
X134698414Y-90136913D01*
X134673751Y-90156186D01*
X134649899Y-90176515D01*
X134626859Y-90197900D01*
X134604630Y-90220341D01*
X134583213Y-90243839D01*
X134569385Y-90260090D01*
X134549497Y-90285290D01*
X134530496Y-90311430D01*
X134512385Y-90338510D01*
X134495162Y-90366530D01*
X134478828Y-90395491D01*
X134463383Y-90425392D01*
X134448827Y-90456233D01*
X134435159Y-90488015D01*
X134422380Y-90520736D01*
X134410489Y-90554398D01*
X134403056Y-90577362D01*
X134392711Y-90612389D01*
X134383384Y-90648227D01*
X134375074Y-90684877D01*
X134367782Y-90722339D01*
X134361507Y-90760612D01*
X134356250Y-90799696D01*
X134352010Y-90839592D01*
X134348788Y-90880299D01*
X134346584Y-90921818D01*
X134345397Y-90964148D01*
X134345170Y-90992819D01*
X133745863Y-90992819D01*
X133746251Y-90952871D01*
X133747607Y-90907032D01*
X133749869Y-90861898D01*
X133753034Y-90817468D01*
X133757104Y-90773742D01*
X133762079Y-90730719D01*
X133767958Y-90688402D01*
X133774741Y-90646788D01*
X133782429Y-90605878D01*
X133791022Y-90565672D01*
X133800518Y-90526171D01*
X133810920Y-90487373D01*
X133822226Y-90449280D01*
X133834436Y-90411891D01*
X133847550Y-90375206D01*
X133861570Y-90339225D01*
X133876370Y-90303859D01*
X133891829Y-90269204D01*
X133907946Y-90235258D01*
X133924722Y-90202021D01*
X133942155Y-90169495D01*
X133960248Y-90137679D01*
X133978998Y-90106572D01*
X133998407Y-90076175D01*
X134018474Y-90046488D01*
X134039199Y-90017511D01*
X134060583Y-89989244D01*
X134082625Y-89961687D01*
X134105325Y-89934839D01*
X134128684Y-89908701D01*
X134152700Y-89883273D01*
X134177376Y-89858555D01*
X134202620Y-89834487D01*
X134228346Y-89811191D01*
X134254553Y-89788668D01*
X134281240Y-89766918D01*
X134308408Y-89745941D01*
X134336057Y-89725736D01*
X134364187Y-89706305D01*
X134392798Y-89687646D01*
X134421889Y-89669760D01*
X134451462Y-89652647D01*
X134481515Y-89636306D01*
X134512049Y-89620739D01*
X134543064Y-89605944D01*
X134574560Y-89591922D01*
X134606537Y-89578673D01*
X134638995Y-89566196D01*
X134671807Y-89554395D01*
X134704849Y-89543356D01*
X134738119Y-89533078D01*
X134771618Y-89523561D01*
X134805347Y-89514805D01*
X134839304Y-89506811D01*
X134873491Y-89499578D01*
X134907906Y-89493107D01*
X134942550Y-89487396D01*
X134977424Y-89482448D01*
X135012526Y-89478260D01*
X135047857Y-89474834D01*
X135083417Y-89472169D01*
X135119207Y-89470266D01*
X135155225Y-89469124D01*
X135191472Y-89468743D01*
X135227808Y-89469121D01*
G37*
G36*
X138015576Y-89515868D02*
G01*
X138054732Y-89516557D01*
X138093308Y-89517705D01*
X138131305Y-89519313D01*
X138168722Y-89521380D01*
X138205559Y-89523907D01*
X138241817Y-89526893D01*
X138277496Y-89530338D01*
X138312594Y-89534243D01*
X138347113Y-89538607D01*
X138381053Y-89543431D01*
X138414413Y-89548714D01*
X138447193Y-89554456D01*
X138479394Y-89560658D01*
X138511015Y-89567319D01*
X138542056Y-89574439D01*
X138572518Y-89582019D01*
X138602401Y-89590059D01*
X138631703Y-89598557D01*
X138660426Y-89607515D01*
X138688570Y-89616933D01*
X138743118Y-89637146D01*
X138795348Y-89659196D01*
X138845259Y-89683084D01*
X138892852Y-89708810D01*
X138938127Y-89736373D01*
X138959895Y-89750844D01*
X139001509Y-89781215D01*
X139040438Y-89813527D01*
X139076682Y-89847779D01*
X139110242Y-89883971D01*
X139141116Y-89922105D01*
X139169306Y-89962179D01*
X139194812Y-90004193D01*
X139217632Y-90048148D01*
X139237768Y-90094044D01*
X139255219Y-90141880D01*
X139269985Y-90191657D01*
X139282066Y-90243375D01*
X139291463Y-90297033D01*
X139298175Y-90352632D01*
X139302202Y-90410171D01*
X139303209Y-90439668D01*
X139303545Y-90469651D01*
X139302987Y-90507085D01*
X139301315Y-90543733D01*
X139298528Y-90579596D01*
X139294626Y-90614674D01*
X139289609Y-90648965D01*
X139283477Y-90682471D01*
X139276231Y-90715191D01*
X139267870Y-90747126D01*
X139258394Y-90778275D01*
X139247803Y-90808638D01*
X139236097Y-90838215D01*
X139223276Y-90867007D01*
X139209341Y-90895013D01*
X139194291Y-90922234D01*
X139178126Y-90948668D01*
X139160846Y-90974317D01*
X139142451Y-90999181D01*
X139122941Y-91023258D01*
X139102317Y-91046551D01*
X139080578Y-91069057D01*
X139057723Y-91090778D01*
X139033754Y-91111713D01*
X139008671Y-91131862D01*
X138982472Y-91151226D01*
X138955159Y-91169803D01*
X138926730Y-91187596D01*
X138897187Y-91204602D01*
X138866529Y-91220823D01*
X138834756Y-91236259D01*
X138801869Y-91250908D01*
X138767866Y-91264772D01*
X138732749Y-91277850D01*
X138752123Y-91301038D01*
X138773607Y-91327553D01*
X138792315Y-91351160D01*
X138812373Y-91376897D01*
X138833783Y-91404764D01*
X138856543Y-91434760D01*
X138874500Y-91458655D01*
X138893217Y-91483747D01*
X138912345Y-91509631D01*
X138931539Y-91535902D01*
X138950797Y-91562560D01*
X138970119Y-91589603D01*
X138989505Y-91617033D01*
X139008956Y-91644850D01*
X139028471Y-91673053D01*
X139048051Y-91701642D01*
X139067695Y-91730618D01*
X139087404Y-91759980D01*
X139100579Y-91779769D01*
X139120422Y-91809659D01*
X139140112Y-91839704D01*
X139159646Y-91869903D01*
X139179026Y-91900257D01*
X139198252Y-91930766D01*
X139217323Y-91961429D01*
X139236239Y-91992246D01*
X139255001Y-92023218D01*
X139273609Y-92054345D01*
X139292061Y-92085626D01*
X139304277Y-92106566D01*
X139322511Y-92138272D01*
X139340668Y-92170468D01*
X139358747Y-92203153D01*
X139376749Y-92236328D01*
X139394673Y-92269992D01*
X139412521Y-92304145D01*
X139430291Y-92338788D01*
X139447984Y-92373920D01*
X139465599Y-92409542D01*
X139483137Y-92445653D01*
X139494787Y-92470000D01*
X138848520Y-92470000D01*
X138832251Y-92440133D01*
X138815865Y-92410434D01*
X138799364Y-92380902D01*
X138782746Y-92351538D01*
X138766013Y-92322341D01*
X138749164Y-92293312D01*
X138732199Y-92264450D01*
X138715118Y-92235755D01*
X138697921Y-92207228D01*
X138680608Y-92178869D01*
X138669002Y-92160055D01*
X138651672Y-92131968D01*
X138634303Y-92104036D01*
X138616896Y-92076258D01*
X138599450Y-92048635D01*
X138581965Y-92021166D01*
X138564442Y-91993852D01*
X138546880Y-91966692D01*
X138529279Y-91939687D01*
X138511640Y-91912837D01*
X138493962Y-91886141D01*
X138482156Y-91868429D01*
X138464446Y-91842062D01*
X138446762Y-91815991D01*
X138429103Y-91790216D01*
X138411470Y-91764737D01*
X138393863Y-91739554D01*
X138376282Y-91714668D01*
X138358727Y-91690078D01*
X138341197Y-91665784D01*
X138323693Y-91641787D01*
X138306215Y-91618085D01*
X138294577Y-91602449D01*
X138271817Y-91571686D01*
X138249698Y-91542045D01*
X138228220Y-91513525D01*
X138207383Y-91486128D01*
X138187187Y-91459853D01*
X138167632Y-91434700D01*
X138148719Y-91410669D01*
X138130446Y-91387759D01*
X138100794Y-91389691D01*
X138069498Y-91390990D01*
X138039588Y-91391423D01*
X138008332Y-91391423D01*
X137978313Y-91391423D01*
X137958988Y-91391423D01*
X137725247Y-91391423D01*
X137725247Y-92470000D01*
X137146392Y-92470000D01*
X137146392Y-90875582D01*
X137725247Y-90875582D01*
X137934075Y-90875582D01*
X137969783Y-90875415D01*
X138004640Y-90874912D01*
X138038648Y-90874075D01*
X138071805Y-90872903D01*
X138104112Y-90871396D01*
X138135569Y-90869554D01*
X138166177Y-90867378D01*
X138195934Y-90864866D01*
X138234287Y-90860996D01*
X138271130Y-90856531D01*
X138306610Y-90851139D01*
X138340510Y-90844853D01*
X138372830Y-90837675D01*
X138403571Y-90829603D01*
X138432731Y-90820639D01*
X138466960Y-90808178D01*
X138498719Y-90794321D01*
X138510732Y-90788387D01*
X138539108Y-90772488D01*
X138565157Y-90755014D01*
X138588882Y-90735966D01*
X138610280Y-90715344D01*
X138632889Y-90688519D01*
X138652149Y-90659427D01*
X138665870Y-90632902D01*
X138677265Y-90604158D01*
X138686334Y-90573196D01*
X138693079Y-90540015D01*
X138697497Y-90504617D01*
X138699358Y-90474701D01*
X138699776Y-90451332D01*
X138698613Y-90415168D01*
X138695125Y-90380864D01*
X138689311Y-90348421D01*
X138681172Y-90317838D01*
X138670707Y-90289116D01*
X138657916Y-90262254D01*
X138652149Y-90252030D01*
X138633044Y-90222690D01*
X138610899Y-90195667D01*
X138590122Y-90174920D01*
X138567235Y-90155782D01*
X138542237Y-90138255D01*
X138515129Y-90122337D01*
X138486016Y-90107887D01*
X138455008Y-90094760D01*
X138422103Y-90082957D01*
X138387302Y-90072477D01*
X138358096Y-90065047D01*
X138327676Y-90058464D01*
X138296043Y-90052728D01*
X138263585Y-90047748D01*
X138230326Y-90043432D01*
X138196266Y-90039779D01*
X138161404Y-90036791D01*
X138125741Y-90034467D01*
X138089276Y-90032807D01*
X138052010Y-90031811D01*
X138013942Y-90031479D01*
X137983391Y-90031833D01*
X137953561Y-90032896D01*
X137914909Y-90035414D01*
X137877540Y-90039193D01*
X137841453Y-90044230D01*
X137806649Y-90050527D01*
X137773126Y-90058083D01*
X137740886Y-90066899D01*
X137725247Y-90071779D01*
X137725247Y-90875582D01*
X137146392Y-90875582D01*
X137146392Y-89565464D01*
X137186822Y-89559880D01*
X137227330Y-89554670D01*
X137267914Y-89549834D01*
X137308577Y-89545371D01*
X137349316Y-89541281D01*
X137390133Y-89537565D01*
X137431027Y-89534223D01*
X137471998Y-89531254D01*
X137513046Y-89528659D01*
X137554172Y-89526437D01*
X137581632Y-89525163D01*
X137622574Y-89523461D01*
X137662691Y-89521926D01*
X137701983Y-89520559D01*
X137740451Y-89519359D01*
X137778095Y-89518326D01*
X137814915Y-89517461D01*
X137850910Y-89516764D01*
X137886081Y-89516233D01*
X137920428Y-89515871D01*
X137953950Y-89515675D01*
X137975840Y-89515638D01*
X138015576Y-89515868D01*
G37*
G36*
X139834040Y-92470000D02*
G01*
X139834040Y-89515638D01*
X141758918Y-89515638D01*
X141758918Y-90031479D01*
X140412896Y-90031479D01*
X140412896Y-90641109D01*
X141611639Y-90641109D01*
X141611639Y-91156950D01*
X140412896Y-91156950D01*
X140412896Y-91954159D01*
X141860767Y-91954159D01*
X141860767Y-92470000D01*
X139834040Y-92470000D01*
G37*
G36*
X144188646Y-91954159D02*
G01*
X144188646Y-92470000D01*
X142293077Y-92470000D01*
X142293077Y-89515638D01*
X142871933Y-89515638D01*
X142871933Y-91954159D01*
X144188646Y-91954159D01*
G37*
G36*
X144535226Y-92470000D02*
G01*
X144535226Y-89515638D01*
X146460104Y-89515638D01*
X146460104Y-90031479D01*
X145114082Y-90031479D01*
X145114082Y-90641109D01*
X146312826Y-90641109D01*
X146312826Y-91156950D01*
X145114082Y-91156950D01*
X145114082Y-91954159D01*
X146561953Y-91954159D01*
X146561953Y-92470000D01*
X144535226Y-92470000D01*
G37*
G36*
X148818025Y-92470000D02*
G01*
X148797857Y-92426583D01*
X148777747Y-92383071D01*
X148757695Y-92339463D01*
X148737699Y-92295759D01*
X148717761Y-92251959D01*
X148697880Y-92208063D01*
X148678056Y-92164072D01*
X148658290Y-92119984D01*
X148638581Y-92075801D01*
X148618929Y-92031522D01*
X148599334Y-91987146D01*
X148579796Y-91942675D01*
X148560316Y-91898108D01*
X148540893Y-91853446D01*
X148521527Y-91808687D01*
X148502219Y-91763832D01*
X148482967Y-91718882D01*
X148463773Y-91673836D01*
X148444636Y-91628693D01*
X148425557Y-91583455D01*
X148406535Y-91538121D01*
X148387570Y-91492691D01*
X148368662Y-91447166D01*
X148349811Y-91401544D01*
X148331018Y-91355826D01*
X148312282Y-91310013D01*
X148293603Y-91264104D01*
X148274981Y-91218098D01*
X148256417Y-91171997D01*
X148237910Y-91125800D01*
X148219460Y-91079508D01*
X148201067Y-91033119D01*
X148182732Y-90986607D01*
X148164454Y-90940037D01*
X148146233Y-90893407D01*
X148128069Y-90846720D01*
X148109963Y-90799973D01*
X148091914Y-90753168D01*
X148073922Y-90706304D01*
X148055987Y-90659381D01*
X148038110Y-90612400D01*
X148020289Y-90565360D01*
X148002526Y-90518262D01*
X147984821Y-90471105D01*
X147967172Y-90423889D01*
X147949581Y-90376614D01*
X147932047Y-90329281D01*
X147914570Y-90281889D01*
X147897151Y-90234438D01*
X147879789Y-90186929D01*
X147862484Y-90139361D01*
X147845236Y-90091734D01*
X147828045Y-90044049D01*
X147810912Y-89996305D01*
X147793836Y-89948502D01*
X147776817Y-89900641D01*
X147759856Y-89852721D01*
X147742952Y-89804742D01*
X147726105Y-89756705D01*
X147709315Y-89708609D01*
X147692582Y-89660454D01*
X147675907Y-89612241D01*
X147659289Y-89563969D01*
X147642728Y-89515638D01*
X148279469Y-89515638D01*
X148292747Y-89554367D01*
X148306019Y-89593067D01*
X148319285Y-89631738D01*
X148332546Y-89670381D01*
X148345801Y-89708995D01*
X148359050Y-89747581D01*
X148372294Y-89786138D01*
X148385532Y-89824666D01*
X148398764Y-89863166D01*
X148411990Y-89901637D01*
X148425211Y-89940080D01*
X148438425Y-89978493D01*
X148451635Y-90016879D01*
X148464838Y-90055235D01*
X148478036Y-90093563D01*
X148491228Y-90131863D01*
X148504417Y-90170019D01*
X148517606Y-90208101D01*
X148530795Y-90246108D01*
X148543984Y-90284041D01*
X148557173Y-90321900D01*
X148570362Y-90359684D01*
X148583551Y-90397394D01*
X148596741Y-90435029D01*
X148609930Y-90472590D01*
X148623119Y-90510077D01*
X148636308Y-90547489D01*
X148649497Y-90584826D01*
X148662686Y-90622090D01*
X148675875Y-90659278D01*
X148689064Y-90696393D01*
X148702254Y-90733433D01*
X148715443Y-90770273D01*
X148728632Y-90806969D01*
X148741821Y-90843522D01*
X148755010Y-90879933D01*
X148768199Y-90916200D01*
X148781388Y-90952324D01*
X148794577Y-90988305D01*
X148807766Y-91024143D01*
X148820956Y-91059838D01*
X148834145Y-91095389D01*
X148847334Y-91130798D01*
X148860523Y-91166063D01*
X148873712Y-91201186D01*
X148886901Y-91236165D01*
X148900090Y-91271001D01*
X148913279Y-91305694D01*
X148926363Y-91339849D01*
X148939234Y-91373254D01*
X148951894Y-91405909D01*
X148964341Y-91437814D01*
X148976577Y-91468969D01*
X148988602Y-91499375D01*
X149000414Y-91529030D01*
X149012015Y-91557936D01*
X149023403Y-91586091D01*
X149034580Y-91613497D01*
X149050949Y-91653200D01*
X149066840Y-91691215D01*
X149082256Y-91727543D01*
X149097194Y-91762184D01*
X149111740Y-91727562D01*
X149126801Y-91691292D01*
X149142377Y-91653374D01*
X149158469Y-91613806D01*
X149169482Y-91586512D01*
X149180725Y-91558485D01*
X149192197Y-91529726D01*
X149203898Y-91500233D01*
X149215828Y-91470008D01*
X149227986Y-91439050D01*
X149240374Y-91407360D01*
X149252991Y-91374937D01*
X149265836Y-91341781D01*
X149278911Y-91307892D01*
X149292106Y-91273457D01*
X149305312Y-91238844D01*
X149318530Y-91204054D01*
X149331759Y-91169086D01*
X149345000Y-91133941D01*
X149358252Y-91098618D01*
X149371515Y-91063118D01*
X149384790Y-91027440D01*
X149398077Y-90991585D01*
X149411374Y-90955553D01*
X149424684Y-90919343D01*
X149438005Y-90882955D01*
X149451337Y-90846390D01*
X149464680Y-90809648D01*
X149478036Y-90772728D01*
X149491402Y-90735631D01*
X149504857Y-90698325D01*
X149518296Y-90660961D01*
X149531717Y-90623541D01*
X149545120Y-90586063D01*
X149558507Y-90548528D01*
X149571876Y-90510935D01*
X149585229Y-90473286D01*
X149598564Y-90435579D01*
X149611882Y-90397815D01*
X149625182Y-90359993D01*
X149638466Y-90322115D01*
X149651732Y-90284179D01*
X149664982Y-90246186D01*
X149678214Y-90208135D01*
X149691428Y-90170028D01*
X149704626Y-90131863D01*
X149717804Y-90093563D01*
X149730959Y-90055235D01*
X149744090Y-90016879D01*
X149757199Y-89978493D01*
X149770286Y-89940080D01*
X149783349Y-89901637D01*
X149796389Y-89863166D01*
X149809406Y-89824666D01*
X149822401Y-89786138D01*
X149835372Y-89747581D01*
X149848321Y-89708995D01*
X149861247Y-89670381D01*
X149874150Y-89631738D01*
X149887030Y-89593067D01*
X149899887Y-89554367D01*
X149912721Y-89515638D01*
X150532609Y-89515638D01*
X150515825Y-89563969D01*
X150498995Y-89612241D01*
X150482120Y-89660454D01*
X150465198Y-89708609D01*
X150448231Y-89756705D01*
X150431218Y-89804742D01*
X150414159Y-89852721D01*
X150397055Y-89900641D01*
X150379904Y-89948502D01*
X150362708Y-89996305D01*
X150345466Y-90044049D01*
X150328178Y-90091734D01*
X150310845Y-90139361D01*
X150293465Y-90186929D01*
X150276040Y-90234438D01*
X150258569Y-90281889D01*
X150241052Y-90329281D01*
X150223490Y-90376614D01*
X150205881Y-90423889D01*
X150188227Y-90471105D01*
X150170527Y-90518262D01*
X150152781Y-90565360D01*
X150134990Y-90612400D01*
X150117152Y-90659381D01*
X150099269Y-90706304D01*
X150081340Y-90753168D01*
X150063365Y-90799973D01*
X150045345Y-90846720D01*
X150027279Y-90893407D01*
X150009166Y-90940037D01*
X149991009Y-90986607D01*
X149972805Y-91033119D01*
X149954547Y-91079508D01*
X149936228Y-91125800D01*
X149917848Y-91171997D01*
X149899406Y-91218098D01*
X149880902Y-91264104D01*
X149862337Y-91310013D01*
X149843711Y-91355826D01*
X149825023Y-91401544D01*
X149806273Y-91447166D01*
X149787462Y-91492691D01*
X149768589Y-91538121D01*
X149749655Y-91583455D01*
X149730659Y-91628693D01*
X149711601Y-91673836D01*
X149692482Y-91718882D01*
X149673302Y-91763832D01*
X149654060Y-91808687D01*
X149634756Y-91853446D01*
X149615391Y-91898108D01*
X149595965Y-91942675D01*
X149576477Y-91987146D01*
X149556927Y-92031522D01*
X149537316Y-92075801D01*
X149517643Y-92119984D01*
X149497909Y-92164072D01*
X149478113Y-92208063D01*
X149458255Y-92251959D01*
X149438337Y-92295759D01*
X149418356Y-92339463D01*
X149398314Y-92383071D01*
X149378211Y-92426583D01*
X149358046Y-92470000D01*
X148818025Y-92470000D01*
G37*
G36*
X150861605Y-90130397D02*
G01*
X150894680Y-90117125D01*
X150927596Y-90103504D01*
X150960351Y-90089533D01*
X150992946Y-90075214D01*
X151025381Y-90060545D01*
X151057655Y-90045527D01*
X151089769Y-90030159D01*
X151121723Y-90014443D01*
X151153517Y-89998377D01*
X151185150Y-89981962D01*
X151216623Y-89965198D01*
X151247936Y-89948085D01*
X151279088Y-89930623D01*
X151310080Y-89912811D01*
X151340912Y-89894650D01*
X151371584Y-89876140D01*
X151402066Y-89857215D01*
X151432148Y-89837810D01*
X151461829Y-89817923D01*
X151491110Y-89797555D01*
X151519990Y-89776707D01*
X151548469Y-89755378D01*
X151576547Y-89733568D01*
X151604225Y-89711277D01*
X151631502Y-89688505D01*
X151658378Y-89665252D01*
X151684854Y-89641518D01*
X151710928Y-89617304D01*
X151736603Y-89592609D01*
X151761876Y-89567433D01*
X151786749Y-89541776D01*
X151811221Y-89515638D01*
X152203230Y-89515638D01*
X152203230Y-92470000D01*
X151645624Y-92470000D01*
X151645624Y-90266685D01*
X151618973Y-90286069D01*
X151594226Y-90302453D01*
X151566434Y-90319614D01*
X151535597Y-90337555D01*
X151501714Y-90356274D01*
X151474303Y-90370824D01*
X151445179Y-90385812D01*
X151414342Y-90401238D01*
X151392833Y-90411765D01*
X151360064Y-90427496D01*
X151327153Y-90442814D01*
X151294101Y-90457721D01*
X151260907Y-90472215D01*
X151227572Y-90486297D01*
X151194094Y-90499967D01*
X151160475Y-90513225D01*
X151126715Y-90526071D01*
X151092813Y-90538504D01*
X151058769Y-90550525D01*
X151035994Y-90558311D01*
X150861605Y-90130397D01*
G37*
G36*
X153821095Y-92167383D02*
G01*
X153819424Y-92205141D01*
X153814409Y-92241113D01*
X153806051Y-92275300D01*
X153794351Y-92307700D01*
X153779307Y-92338314D01*
X153760920Y-92367143D01*
X153739190Y-92394185D01*
X153714117Y-92419441D01*
X153686903Y-92442282D01*
X153658384Y-92462077D01*
X153628559Y-92478827D01*
X153597430Y-92492531D01*
X153564995Y-92503190D01*
X153531255Y-92510803D01*
X153496210Y-92515371D01*
X153459860Y-92516894D01*
X153422342Y-92515371D01*
X153386358Y-92510803D01*
X153351908Y-92503190D01*
X153318993Y-92492531D01*
X153287611Y-92478827D01*
X153257764Y-92462077D01*
X153229451Y-92442282D01*
X153202672Y-92419441D01*
X153178286Y-92394185D01*
X153157151Y-92367143D01*
X153139268Y-92338314D01*
X153124637Y-92307700D01*
X153113256Y-92275300D01*
X153105128Y-92241113D01*
X153100251Y-92205141D01*
X153098625Y-92167383D01*
X153100251Y-92129590D01*
X153105128Y-92093514D01*
X153113256Y-92059156D01*
X153124637Y-92026516D01*
X153139268Y-91995592D01*
X153157151Y-91966386D01*
X153178286Y-91938897D01*
X153202672Y-91913126D01*
X153229451Y-91889770D01*
X153257764Y-91869528D01*
X153287611Y-91852401D01*
X153318993Y-91838387D01*
X153351908Y-91827488D01*
X153386358Y-91819703D01*
X153422342Y-91815032D01*
X153459860Y-91813475D01*
X153496382Y-91815032D01*
X153531576Y-91819703D01*
X153565442Y-91827488D01*
X153597979Y-91838387D01*
X153629189Y-91852401D01*
X153659071Y-91869528D01*
X153687624Y-91889770D01*
X153714849Y-91913126D01*
X153739751Y-91938897D01*
X153761332Y-91966386D01*
X153779593Y-91995592D01*
X153794534Y-92026516D01*
X153806154Y-92059156D01*
X153814455Y-92093514D01*
X153819435Y-92129590D01*
X153821095Y-92167383D01*
G37*
G36*
X154639553Y-92470000D02*
G01*
X154643271Y-92426462D01*
X154647464Y-92382862D01*
X154652132Y-92339199D01*
X154657276Y-92295473D01*
X154662894Y-92251684D01*
X154668988Y-92207832D01*
X154675557Y-92163916D01*
X154682601Y-92119938D01*
X154690120Y-92075897D01*
X154698114Y-92031793D01*
X154706583Y-91987627D01*
X154715528Y-91943397D01*
X154724947Y-91899104D01*
X154734842Y-91854748D01*
X154745212Y-91810329D01*
X154756057Y-91765847D01*
X154767385Y-91721411D01*
X154779023Y-91677130D01*
X154790970Y-91633003D01*
X154803226Y-91589031D01*
X154815791Y-91545213D01*
X154828666Y-91501550D01*
X154841849Y-91458041D01*
X154855341Y-91414687D01*
X154869143Y-91371488D01*
X154883254Y-91328443D01*
X154897674Y-91285552D01*
X154912403Y-91242817D01*
X154927441Y-91200235D01*
X154942788Y-91157809D01*
X154958444Y-91115536D01*
X154974410Y-91073419D01*
X154990719Y-91031453D01*
X155007222Y-90989819D01*
X155023921Y-90948517D01*
X155040813Y-90907547D01*
X155057901Y-90866910D01*
X155075183Y-90826604D01*
X155092660Y-90786630D01*
X155110331Y-90746988D01*
X155128197Y-90707679D01*
X155146258Y-90668701D01*
X155164513Y-90630055D01*
X155182963Y-90591741D01*
X155201607Y-90553760D01*
X155220446Y-90516110D01*
X155239480Y-90478793D01*
X155258709Y-90441807D01*
X155278003Y-90405502D01*
X155297051Y-90370228D01*
X155315853Y-90335985D01*
X155334409Y-90302772D01*
X155352718Y-90270589D01*
X155370782Y-90239436D01*
X155388599Y-90209314D01*
X155406170Y-90180223D01*
X155423495Y-90152162D01*
X155440574Y-90125131D01*
X155457407Y-90099130D01*
X155473993Y-90074160D01*
X155498412Y-90038637D01*
X155522276Y-90005433D01*
X155537878Y-89984584D01*
X154215303Y-89984584D01*
X154215303Y-89515638D01*
X156216385Y-89515638D01*
X156216385Y-89934026D01*
X156189277Y-89965054D01*
X156161808Y-89997962D01*
X156143295Y-90020946D01*
X156124622Y-90044765D01*
X156105788Y-90069421D01*
X156086795Y-90094911D01*
X156067641Y-90121238D01*
X156048327Y-90148401D01*
X156028852Y-90176399D01*
X156009217Y-90205233D01*
X155989422Y-90234903D01*
X155969467Y-90265408D01*
X155949351Y-90296750D01*
X155929075Y-90328927D01*
X155908639Y-90361939D01*
X155888277Y-90395551D01*
X155868041Y-90429705D01*
X155847931Y-90464404D01*
X155827947Y-90499647D01*
X155808089Y-90535433D01*
X155788357Y-90571763D01*
X155768751Y-90608637D01*
X155749270Y-90646055D01*
X155729916Y-90684017D01*
X155710688Y-90722522D01*
X155691585Y-90761571D01*
X155672609Y-90801164D01*
X155653758Y-90841301D01*
X155635033Y-90881982D01*
X155616435Y-90923207D01*
X155597962Y-90964975D01*
X155579709Y-91007113D01*
X155561772Y-91049628D01*
X155544149Y-91092521D01*
X155526841Y-91135792D01*
X155509848Y-91179441D01*
X155493170Y-91223468D01*
X155476807Y-91267872D01*
X155460758Y-91312655D01*
X155445025Y-91357815D01*
X155429606Y-91403353D01*
X155414502Y-91449269D01*
X155399713Y-91495562D01*
X155385239Y-91542234D01*
X155371079Y-91589283D01*
X155357235Y-91636710D01*
X155343705Y-91684515D01*
X155330733Y-91732577D01*
X155318380Y-91780777D01*
X155306645Y-91829114D01*
X155295528Y-91877588D01*
X155285029Y-91926200D01*
X155275149Y-91974950D01*
X155265887Y-92023837D01*
X155257243Y-92072861D01*
X155249217Y-92122022D01*
X155241810Y-92171321D01*
X155235021Y-92220757D01*
X155228850Y-92270331D01*
X155223297Y-92320042D01*
X155218363Y-92369890D01*
X155214046Y-92419876D01*
X155210348Y-92470000D01*
X154639553Y-92470000D01*
G37*
G36*
X159792100Y-89515638D02*
G01*
X159792100Y-90031479D01*
X158893042Y-90031479D01*
X158893042Y-92470000D01*
X158310523Y-92470000D01*
X158310523Y-90031479D01*
X157411465Y-90031479D01*
X157411465Y-89515638D01*
X159792100Y-89515638D01*
G37*
G36*
X160863650Y-90173293D02*
G01*
X160919506Y-90176685D01*
X160973765Y-90182338D01*
X161026427Y-90190252D01*
X161077492Y-90200427D01*
X161126960Y-90212864D01*
X161174830Y-90227561D01*
X161221104Y-90244520D01*
X161265780Y-90263740D01*
X161308860Y-90285221D01*
X161350342Y-90308963D01*
X161390227Y-90334966D01*
X161428515Y-90363230D01*
X161465205Y-90393756D01*
X161500299Y-90426543D01*
X161533796Y-90461591D01*
X161565561Y-90498860D01*
X161595276Y-90538310D01*
X161622942Y-90579941D01*
X161648559Y-90623753D01*
X161672127Y-90669746D01*
X161693645Y-90717920D01*
X161713114Y-90768275D01*
X161730533Y-90820811D01*
X161745903Y-90875528D01*
X161759224Y-90932426D01*
X161765116Y-90961693D01*
X161770496Y-90991505D01*
X161775363Y-91021862D01*
X161779718Y-91052765D01*
X161783560Y-91084213D01*
X161786890Y-91116206D01*
X161789708Y-91148745D01*
X161792014Y-91181828D01*
X161793807Y-91215457D01*
X161795088Y-91249632D01*
X161795856Y-91284351D01*
X161796113Y-91319616D01*
X161795853Y-91350132D01*
X161795166Y-91380128D01*
X161794050Y-91412271D01*
X161793914Y-91415603D01*
X161792330Y-91446148D01*
X161790050Y-91478432D01*
X161787440Y-91508588D01*
X161785122Y-91532107D01*
X160333586Y-91532107D01*
X160338264Y-91575246D01*
X160345427Y-91616737D01*
X160355077Y-91656579D01*
X160367212Y-91694773D01*
X160381833Y-91731318D01*
X160398939Y-91766214D01*
X160418532Y-91799461D01*
X160440611Y-91831060D01*
X160465175Y-91861010D01*
X160492225Y-91889312D01*
X160511639Y-91907264D01*
X160542891Y-91932406D01*
X160576743Y-91955075D01*
X160613198Y-91975270D01*
X160652255Y-91992993D01*
X160679738Y-92003435D01*
X160708377Y-92012777D01*
X160738173Y-92021020D01*
X160769125Y-92028164D01*
X160801233Y-92034209D01*
X160834498Y-92039155D01*
X160868919Y-92043002D01*
X160904496Y-92045750D01*
X160941230Y-92047398D01*
X160979120Y-92047948D01*
X161012922Y-92047561D01*
X161046182Y-92046402D01*
X161078902Y-92044470D01*
X161111080Y-92041765D01*
X161142718Y-92038288D01*
X161173814Y-92034037D01*
X161204370Y-92029014D01*
X161234385Y-92023218D01*
X161263858Y-92016649D01*
X161292791Y-92009308D01*
X161311779Y-92003984D01*
X161339902Y-91995417D01*
X161376419Y-91983413D01*
X161411813Y-91970744D01*
X161446085Y-91957412D01*
X161479235Y-91943416D01*
X161511264Y-91928756D01*
X161542170Y-91913431D01*
X161571954Y-91897443D01*
X161579225Y-91893342D01*
X161654696Y-92365219D01*
X161628244Y-92378723D01*
X161600179Y-92391666D01*
X161570502Y-92404048D01*
X161539211Y-92415869D01*
X161520607Y-92422372D01*
X161491807Y-92431835D01*
X161461462Y-92440988D01*
X161429571Y-92449832D01*
X161396134Y-92458367D01*
X161367090Y-92465244D01*
X161349148Y-92469267D01*
X161318776Y-92475499D01*
X161287653Y-92481374D01*
X161255779Y-92486891D01*
X161223153Y-92492050D01*
X161189776Y-92496851D01*
X161155648Y-92501295D01*
X161141786Y-92502972D01*
X161107103Y-92506983D01*
X161072205Y-92510314D01*
X161037093Y-92512965D01*
X161001766Y-92514936D01*
X160966224Y-92516228D01*
X160930468Y-92516840D01*
X160916106Y-92516894D01*
X160879400Y-92516554D01*
X160843291Y-92515532D01*
X160807776Y-92513829D01*
X160772857Y-92511444D01*
X160738533Y-92508379D01*
X160704805Y-92504632D01*
X160671672Y-92500205D01*
X160639134Y-92495095D01*
X160607192Y-92489305D01*
X160575845Y-92482834D01*
X160545093Y-92475681D01*
X160514937Y-92467847D01*
X160485376Y-92459332D01*
X160456410Y-92450136D01*
X160428040Y-92440258D01*
X160400265Y-92429699D01*
X160373088Y-92418439D01*
X160333450Y-92400541D01*
X160295164Y-92381431D01*
X160258231Y-92361111D01*
X160222650Y-92339580D01*
X160188421Y-92316838D01*
X160155545Y-92292885D01*
X160124021Y-92267722D01*
X160093850Y-92241348D01*
X160065031Y-92213763D01*
X160037564Y-92184968D01*
X160011424Y-92155091D01*
X159986585Y-92124260D01*
X159963047Y-92092477D01*
X159940810Y-92059740D01*
X159919873Y-92026050D01*
X159900238Y-91991408D01*
X159881903Y-91955812D01*
X159864869Y-91919262D01*
X159849136Y-91881760D01*
X159834704Y-91843305D01*
X159825806Y-91817138D01*
X159813497Y-91777092D01*
X159802398Y-91736364D01*
X159792511Y-91694952D01*
X159783834Y-91652858D01*
X159776368Y-91610082D01*
X159770112Y-91566622D01*
X159766615Y-91537270D01*
X159763655Y-91507615D01*
X159761234Y-91477656D01*
X159759350Y-91447394D01*
X159758005Y-91416828D01*
X159757198Y-91385959D01*
X159756929Y-91354787D01*
X159757272Y-91318428D01*
X159758303Y-91282624D01*
X159760020Y-91247376D01*
X159762424Y-91212683D01*
X159765516Y-91178545D01*
X159769294Y-91144963D01*
X159773759Y-91111936D01*
X159778911Y-91079464D01*
X159781894Y-91063161D01*
X160339448Y-91063161D01*
X161238506Y-91063161D01*
X161237139Y-91032396D01*
X161233036Y-91000369D01*
X161226199Y-90967080D01*
X161218162Y-90937542D01*
X161209930Y-90912219D01*
X161198587Y-90882217D01*
X161185441Y-90853761D01*
X161170491Y-90826850D01*
X161153739Y-90801485D01*
X161135183Y-90777666D01*
X161128597Y-90770069D01*
X161107663Y-90748439D01*
X161084977Y-90728613D01*
X161060539Y-90710589D01*
X161034350Y-90694369D01*
X161006409Y-90679952D01*
X160996706Y-90675547D01*
X160966498Y-90663844D01*
X160934126Y-90654561D01*
X160899591Y-90647701D01*
X160869158Y-90643833D01*
X160837223Y-90641647D01*
X160810593Y-90641109D01*
X160775817Y-90642039D01*
X160742472Y-90644830D01*
X160710558Y-90649481D01*
X160680075Y-90655993D01*
X160651024Y-90664365D01*
X160623403Y-90674597D01*
X160612756Y-90679211D01*
X160582059Y-90694349D01*
X160553165Y-90711188D01*
X160526074Y-90729726D01*
X160500786Y-90749965D01*
X160477301Y-90771904D01*
X160469874Y-90779595D01*
X160449068Y-90803620D01*
X160430066Y-90828985D01*
X160412867Y-90855690D01*
X160397471Y-90883734D01*
X160383878Y-90913117D01*
X160379748Y-90923210D01*
X160368508Y-90952688D01*
X160358969Y-90980671D01*
X160349988Y-91011431D01*
X160343321Y-91040157D01*
X160339448Y-91063161D01*
X159781894Y-91063161D01*
X159784750Y-91047547D01*
X159791276Y-91016186D01*
X159798488Y-90985380D01*
X159806388Y-90955129D01*
X159814975Y-90925433D01*
X159824248Y-90896293D01*
X159834209Y-90867708D01*
X159844856Y-90839678D01*
X159856165Y-90812218D01*
X159867926Y-90785342D01*
X159886415Y-90746123D01*
X159905922Y-90708217D01*
X159926446Y-90671625D01*
X159947988Y-90636346D01*
X159970547Y-90602382D01*
X159994124Y-90569731D01*
X160018718Y-90538394D01*
X160044330Y-90508371D01*
X160070960Y-90479661D01*
X160080062Y-90470383D01*
X160108051Y-90443275D01*
X160136786Y-90417455D01*
X160166268Y-90392923D01*
X160196497Y-90369679D01*
X160227474Y-90347723D01*
X160259197Y-90327055D01*
X160291668Y-90307675D01*
X160324885Y-90289583D01*
X160358850Y-90272778D01*
X160393561Y-90257262D01*
X160417117Y-90247634D01*
X160452909Y-90234146D01*
X160488842Y-90221985D01*
X160524917Y-90211151D01*
X160561133Y-90201644D01*
X160597491Y-90193463D01*
X160633991Y-90186608D01*
X160670632Y-90181081D01*
X160707415Y-90176880D01*
X160744340Y-90174005D01*
X160781407Y-90172458D01*
X160806196Y-90172163D01*
X160863650Y-90173293D01*
G37*
G36*
X162853440Y-92047948D02*
G01*
X162889399Y-92047568D01*
X162923361Y-92046428D01*
X162955327Y-92044528D01*
X162985297Y-92041869D01*
X163022151Y-92037140D01*
X163055455Y-92031061D01*
X163085211Y-92023630D01*
X163117415Y-92012443D01*
X163134075Y-92004717D01*
X163162711Y-91986419D01*
X163185423Y-91963947D01*
X163202210Y-91937303D01*
X163213072Y-91906485D01*
X163218009Y-91871495D01*
X163218339Y-91858904D01*
X163216067Y-91829641D01*
X163207343Y-91796462D01*
X163192076Y-91765396D01*
X163174355Y-91741121D01*
X163152090Y-91718312D01*
X163125282Y-91696971D01*
X163099957Y-91680221D01*
X163070511Y-91662945D01*
X163036943Y-91645142D01*
X163009062Y-91631444D01*
X162978862Y-91617450D01*
X162946345Y-91603159D01*
X162911509Y-91588573D01*
X162874354Y-91573690D01*
X162834881Y-91558511D01*
X162807278Y-91548227D01*
X162772622Y-91535484D01*
X162738630Y-91522536D01*
X162705303Y-91509381D01*
X162672639Y-91496020D01*
X162640639Y-91482453D01*
X162609304Y-91468680D01*
X162578632Y-91454701D01*
X162548625Y-91440516D01*
X162519613Y-91425735D01*
X162491564Y-91410337D01*
X162464475Y-91394320D01*
X162438349Y-91377684D01*
X162413184Y-91360431D01*
X162388982Y-91342559D01*
X162365740Y-91324069D01*
X162343461Y-91304961D01*
X162317089Y-91279656D01*
X162292470Y-91252740D01*
X162269605Y-91224214D01*
X162252575Y-91200235D01*
X162236666Y-91175225D01*
X162221880Y-91149184D01*
X162208216Y-91122113D01*
X162204975Y-91115184D01*
X162193125Y-91086585D01*
X162182856Y-91056475D01*
X162174166Y-91024853D01*
X162167056Y-90991720D01*
X162161527Y-90957075D01*
X162157577Y-90920920D01*
X162155207Y-90883253D01*
X162154417Y-90844075D01*
X162155321Y-90805486D01*
X162158035Y-90767940D01*
X162162557Y-90731435D01*
X162168888Y-90695972D01*
X162177028Y-90661551D01*
X162186977Y-90628172D01*
X162198735Y-90595834D01*
X162212302Y-90564539D01*
X162227678Y-90534285D01*
X162244863Y-90505073D01*
X162263857Y-90476903D01*
X162284659Y-90449775D01*
X162307271Y-90423689D01*
X162331691Y-90398645D01*
X162357921Y-90374642D01*
X162385959Y-90351681D01*
X162415529Y-90329943D01*
X162446352Y-90309607D01*
X162478429Y-90290673D01*
X162511759Y-90273142D01*
X162546344Y-90257013D01*
X162582181Y-90242287D01*
X162619273Y-90228964D01*
X162657618Y-90217042D01*
X162697217Y-90206524D01*
X162738069Y-90197408D01*
X162780176Y-90189694D01*
X162823535Y-90183383D01*
X162868149Y-90178474D01*
X162914016Y-90174968D01*
X162961137Y-90172864D01*
X163009511Y-90172163D01*
X163046176Y-90172446D01*
X163082532Y-90173296D01*
X163118579Y-90174713D01*
X163154316Y-90176697D01*
X163189745Y-90179247D01*
X163224865Y-90182364D01*
X163259675Y-90186047D01*
X163294176Y-90190298D01*
X163328368Y-90195115D01*
X163362251Y-90200499D01*
X163384668Y-90204403D01*
X163417716Y-90210493D01*
X163449540Y-90216673D01*
X163480141Y-90222944D01*
X163509518Y-90229304D01*
X163546784Y-90237925D01*
X163581875Y-90246706D01*
X163614791Y-90255648D01*
X163645531Y-90264750D01*
X163674096Y-90274012D01*
X163570781Y-90743691D01*
X163543350Y-90732769D01*
X163515277Y-90722350D01*
X163486563Y-90712436D01*
X163457208Y-90703025D01*
X163427212Y-90694117D01*
X163396575Y-90685714D01*
X163365297Y-90677814D01*
X163333377Y-90670418D01*
X163300668Y-90663549D01*
X163266653Y-90657595D01*
X163231333Y-90652558D01*
X163194708Y-90648436D01*
X163156778Y-90645231D01*
X163127474Y-90643427D01*
X163097436Y-90642139D01*
X163066663Y-90641367D01*
X163035157Y-90641109D01*
X162998566Y-90641842D01*
X162963899Y-90644040D01*
X162931155Y-90647704D01*
X162900334Y-90652833D01*
X162871437Y-90659427D01*
X162838021Y-90669731D01*
X162807610Y-90682325D01*
X162796287Y-90688004D01*
X162770956Y-90703785D01*
X162746227Y-90725698D01*
X162727680Y-90750857D01*
X162715315Y-90779262D01*
X162709132Y-90810912D01*
X162708360Y-90827955D01*
X162710351Y-90859817D01*
X162716325Y-90888909D01*
X162725212Y-90912951D01*
X162741561Y-90939467D01*
X162763065Y-90963049D01*
X162785296Y-90981828D01*
X162812048Y-91000137D01*
X162839914Y-91016703D01*
X162867453Y-91031424D01*
X162897937Y-91046356D01*
X162902533Y-91048506D01*
X162931521Y-91061274D01*
X162962983Y-91074300D01*
X162991090Y-91085352D01*
X163020914Y-91096583D01*
X163052456Y-91107992D01*
X163085715Y-91119581D01*
X163119454Y-91132207D01*
X163152253Y-91144808D01*
X163184111Y-91157384D01*
X163215030Y-91169933D01*
X163245008Y-91182457D01*
X163274046Y-91194955D01*
X163302144Y-91207427D01*
X163329301Y-91219873D01*
X163364049Y-91236428D01*
X163397124Y-91252937D01*
X163428678Y-91269721D01*
X163458857Y-91287101D01*
X163487662Y-91305076D01*
X163515094Y-91323646D01*
X163541151Y-91342811D01*
X163565835Y-91362572D01*
X163589145Y-91382928D01*
X163611081Y-91403879D01*
X163631792Y-91425335D01*
X163651061Y-91447568D01*
X163673118Y-91476455D01*
X163692921Y-91506559D01*
X163710470Y-91537879D01*
X163725765Y-91570415D01*
X163736378Y-91597320D01*
X163745651Y-91625267D01*
X163753688Y-91654518D01*
X163760489Y-91685075D01*
X163766053Y-91716938D01*
X163770381Y-91750105D01*
X163773472Y-91784578D01*
X163775327Y-91820356D01*
X163775945Y-91857438D01*
X163774998Y-91897575D01*
X163772155Y-91936470D01*
X163767419Y-91974123D01*
X163760787Y-92010533D01*
X163752260Y-92045701D01*
X163741839Y-92079627D01*
X163729523Y-92112311D01*
X163715312Y-92143752D01*
X163699206Y-92173951D01*
X163681206Y-92202908D01*
X163661310Y-92230623D01*
X163639520Y-92257096D01*
X163615835Y-92282327D01*
X163590256Y-92306315D01*
X163562781Y-92329061D01*
X163533412Y-92350565D01*
X163502403Y-92370706D01*
X163469825Y-92389548D01*
X163435679Y-92407091D01*
X163399964Y-92423334D01*
X163362680Y-92438278D01*
X163323829Y-92451922D01*
X163283408Y-92464266D01*
X163241420Y-92475312D01*
X163197862Y-92485058D01*
X163152737Y-92493504D01*
X163106042Y-92500651D01*
X163057780Y-92506499D01*
X163007948Y-92511047D01*
X162956548Y-92514295D01*
X162903580Y-92516244D01*
X162849043Y-92516894D01*
X162812673Y-92516682D01*
X162777202Y-92516047D01*
X162742629Y-92514988D01*
X162708955Y-92513505D01*
X162676180Y-92511599D01*
X162644303Y-92509269D01*
X162613325Y-92506516D01*
X162583246Y-92503339D01*
X162554066Y-92499738D01*
X162511980Y-92493543D01*
X162471917Y-92486394D01*
X162433876Y-92478293D01*
X162397857Y-92469238D01*
X162374968Y-92462672D01*
X162342088Y-92452484D01*
X162310766Y-92442528D01*
X162281002Y-92432804D01*
X162252797Y-92423311D01*
X162217615Y-92411015D01*
X162185203Y-92399131D01*
X162155562Y-92387659D01*
X162122406Y-92373899D01*
X162104591Y-92365952D01*
X162203510Y-91897739D01*
X162238578Y-91912691D01*
X162274172Y-91927139D01*
X162310293Y-91941084D01*
X162346941Y-91954525D01*
X162374773Y-91964275D01*
X162402901Y-91973742D01*
X162431325Y-91982925D01*
X162460045Y-91991825D01*
X162489061Y-92000442D01*
X162498799Y-92003251D01*
X162528436Y-92011239D01*
X162558820Y-92018441D01*
X162589951Y-92024858D01*
X162621829Y-92030488D01*
X162654454Y-92035333D01*
X162687826Y-92039393D01*
X162721945Y-92042666D01*
X162756811Y-92045154D01*
X162792424Y-92046857D01*
X162828785Y-92047773D01*
X162853440Y-92047948D01*
G37*
G36*
X164171618Y-89659986D02*
G01*
X164729225Y-89558136D01*
X164729225Y-90219057D01*
X165513977Y-90219057D01*
X165513977Y-90688004D01*
X164729225Y-90688004D01*
X164729225Y-91572407D01*
X164729531Y-91604501D01*
X164730450Y-91635387D01*
X164731981Y-91665066D01*
X164735427Y-91707319D01*
X164740250Y-91746854D01*
X164746452Y-91783671D01*
X164754032Y-91817771D01*
X164762990Y-91849153D01*
X164773326Y-91877817D01*
X164789251Y-91911809D01*
X164807627Y-91940969D01*
X164828990Y-91966043D01*
X164853880Y-91987773D01*
X164882296Y-92006159D01*
X164914239Y-92021203D01*
X164949707Y-92032904D01*
X164978623Y-92039486D01*
X165009522Y-92044187D01*
X165042405Y-92047008D01*
X165077271Y-92047948D01*
X165110690Y-92047444D01*
X165143171Y-92045933D01*
X165174712Y-92043414D01*
X165205315Y-92039888D01*
X165234979Y-92035354D01*
X165270739Y-92028270D01*
X165305032Y-92019612D01*
X165318339Y-92015708D01*
X165350882Y-92005472D01*
X165382567Y-91994914D01*
X165413393Y-91984034D01*
X165443360Y-91972832D01*
X165472469Y-91961308D01*
X165500719Y-91949462D01*
X165511779Y-91944633D01*
X165606301Y-92390865D01*
X165578766Y-92402142D01*
X165550018Y-92413259D01*
X165520057Y-92424215D01*
X165488881Y-92435012D01*
X165456492Y-92445648D01*
X165422890Y-92456123D01*
X165388074Y-92466439D01*
X165352044Y-92476594D01*
X165314801Y-92486039D01*
X165285832Y-92492297D01*
X165255974Y-92497846D01*
X165225227Y-92502687D01*
X165193592Y-92506819D01*
X165161067Y-92510243D01*
X165127655Y-92512959D01*
X165093353Y-92514966D01*
X165058163Y-92516264D01*
X165022084Y-92516855D01*
X165009860Y-92516894D01*
X164980030Y-92516642D01*
X164936423Y-92515320D01*
X164894180Y-92512864D01*
X164853304Y-92509275D01*
X164813792Y-92504552D01*
X164775646Y-92498696D01*
X164738865Y-92491707D01*
X164703449Y-92483584D01*
X164669399Y-92474327D01*
X164636714Y-92463937D01*
X164605394Y-92452414D01*
X164575343Y-92439802D01*
X164546464Y-92426147D01*
X164518756Y-92411449D01*
X164492222Y-92395708D01*
X164466859Y-92378923D01*
X164442668Y-92361095D01*
X164419649Y-92342224D01*
X164397803Y-92322309D01*
X164377128Y-92301351D01*
X164357626Y-92279350D01*
X164345275Y-92264103D01*
X164327780Y-92240453D01*
X164311289Y-92215940D01*
X164295803Y-92190564D01*
X164281322Y-92164326D01*
X164267845Y-92137224D01*
X164255373Y-92109259D01*
X164243905Y-92080432D01*
X164233442Y-92050741D01*
X164223984Y-92020188D01*
X164215531Y-91988771D01*
X164210453Y-91967348D01*
X164203513Y-91934381D01*
X164197255Y-91900604D01*
X164191681Y-91866014D01*
X164186788Y-91830614D01*
X164182579Y-91794402D01*
X164179052Y-91757378D01*
X164176207Y-91719543D01*
X164174046Y-91680897D01*
X164172567Y-91641439D01*
X164171770Y-91601169D01*
X164171618Y-91573872D01*
X164171618Y-89659986D01*
G37*
G36*
X168489588Y-91479351D02*
G01*
X168489169Y-91519628D01*
X168487913Y-91559404D01*
X168485820Y-91598677D01*
X168482890Y-91637448D01*
X168479123Y-91675717D01*
X168474518Y-91713483D01*
X168469076Y-91750747D01*
X168462797Y-91787509D01*
X168455681Y-91823768D01*
X168447728Y-91859525D01*
X168441960Y-91883084D01*
X168432393Y-91917856D01*
X168421550Y-91951829D01*
X168409432Y-91985003D01*
X168396039Y-92017379D01*
X168381371Y-92048957D01*
X168365427Y-92079736D01*
X168348209Y-92109716D01*
X168329716Y-92138898D01*
X168309947Y-92167281D01*
X168288903Y-92194866D01*
X168274166Y-92212812D01*
X168251057Y-92238930D01*
X168226518Y-92263980D01*
X168200550Y-92287960D01*
X168173152Y-92310871D01*
X168144325Y-92332714D01*
X168114067Y-92353487D01*
X168082380Y-92373191D01*
X168049264Y-92391827D01*
X168014717Y-92409393D01*
X167978741Y-92425890D01*
X167953963Y-92436294D01*
X167915411Y-92450698D01*
X167875043Y-92463685D01*
X167832859Y-92475256D01*
X167803727Y-92482183D01*
X167773789Y-92488479D01*
X167743043Y-92494147D01*
X167711489Y-92499184D01*
X167679129Y-92503592D01*
X167645962Y-92507370D01*
X167611987Y-92510519D01*
X167577206Y-92513037D01*
X167541617Y-92514926D01*
X167505221Y-92516186D01*
X167468018Y-92516815D01*
X167449113Y-92516894D01*
X167414048Y-92516588D01*
X167379561Y-92515669D01*
X167345653Y-92514138D01*
X167312322Y-92511994D01*
X167279570Y-92509238D01*
X167247395Y-92505869D01*
X167215799Y-92501888D01*
X167184781Y-92497294D01*
X167154342Y-92492087D01*
X167124480Y-92486268D01*
X167095197Y-92479837D01*
X167066492Y-92472793D01*
X167024518Y-92461079D01*
X166983845Y-92447986D01*
X166957452Y-92438492D01*
X166919143Y-92423455D01*
X166882250Y-92408018D01*
X166846775Y-92392182D01*
X166812716Y-92375947D01*
X166780073Y-92359312D01*
X166748848Y-92342279D01*
X166719039Y-92324846D01*
X166690648Y-92307013D01*
X166663673Y-92288782D01*
X166638114Y-92270151D01*
X166621863Y-92257508D01*
X166830690Y-91802484D01*
X166862747Y-91822130D01*
X166895537Y-91841135D01*
X166929059Y-91859499D01*
X166963314Y-91877222D01*
X166998302Y-91894304D01*
X167025024Y-91906694D01*
X167052158Y-91918724D01*
X167079704Y-91930394D01*
X167107662Y-91941702D01*
X167136008Y-91952309D01*
X167164445Y-91961872D01*
X167192972Y-91970392D01*
X167221590Y-91977869D01*
X167250297Y-91984303D01*
X167288714Y-91991258D01*
X167327291Y-91996358D01*
X167366028Y-91999604D01*
X167404926Y-92000995D01*
X167414675Y-92001053D01*
X167446626Y-92000564D01*
X167477449Y-91999095D01*
X167507145Y-91996648D01*
X167549574Y-91991142D01*
X167589465Y-91983433D01*
X167626819Y-91973522D01*
X167661636Y-91961409D01*
X167693915Y-91947092D01*
X167723657Y-91930574D01*
X167750862Y-91911853D01*
X167775530Y-91890929D01*
X167790565Y-91875757D01*
X167811254Y-91850471D01*
X167829909Y-91821875D01*
X167846528Y-91789969D01*
X167861113Y-91754753D01*
X167873662Y-91716227D01*
X167884177Y-91674391D01*
X167890056Y-91644661D01*
X167895030Y-91613460D01*
X167899100Y-91580788D01*
X167902266Y-91546644D01*
X167904527Y-91511030D01*
X167905884Y-91473944D01*
X167906336Y-91435387D01*
X167906336Y-89515638D01*
X168489588Y-89515638D01*
X168489588Y-91479351D01*
G37*
G36*
X169647299Y-92470000D02*
G01*
X169089692Y-92470000D01*
X169089692Y-90219057D01*
X169647299Y-90219057D01*
X169647299Y-92470000D01*
G37*
G36*
X169702254Y-89611625D02*
G01*
X169700685Y-89648044D01*
X169695980Y-89682563D01*
X169688137Y-89715181D01*
X169677158Y-89745898D01*
X169663041Y-89774715D01*
X169645788Y-89801631D01*
X169625397Y-89826647D01*
X169601870Y-89849762D01*
X169576396Y-89870370D01*
X169549800Y-89888230D01*
X169522082Y-89903343D01*
X169493243Y-89915708D01*
X169463281Y-89925325D01*
X169432197Y-89932194D01*
X169399992Y-89936316D01*
X169366664Y-89937690D01*
X169332294Y-89936316D01*
X169299161Y-89932194D01*
X169267265Y-89925325D01*
X169236605Y-89915708D01*
X169207181Y-89903343D01*
X169178994Y-89888230D01*
X169152043Y-89870370D01*
X169126329Y-89849762D01*
X169102973Y-89826647D01*
X169082732Y-89801631D01*
X169065604Y-89774715D01*
X169051591Y-89745898D01*
X169040691Y-89715181D01*
X169032906Y-89682563D01*
X169028235Y-89648044D01*
X169026678Y-89611625D01*
X169028235Y-89574188D01*
X169032906Y-89538811D01*
X169040691Y-89505494D01*
X169051591Y-89474239D01*
X169065604Y-89445044D01*
X169082732Y-89417910D01*
X169102973Y-89392837D01*
X169126329Y-89369825D01*
X169152043Y-89349045D01*
X169178994Y-89331036D01*
X169207181Y-89315798D01*
X169236605Y-89303330D01*
X169267265Y-89293633D01*
X169299161Y-89286706D01*
X169332294Y-89282550D01*
X169366664Y-89281165D01*
X169399992Y-89282550D01*
X169432197Y-89286706D01*
X169463281Y-89293633D01*
X169493243Y-89303330D01*
X169522082Y-89315798D01*
X169549800Y-89331036D01*
X169576396Y-89349045D01*
X169601870Y-89369825D01*
X169625397Y-89392837D01*
X169645788Y-89417910D01*
X169663041Y-89445044D01*
X169677158Y-89474239D01*
X169688137Y-89505494D01*
X169695980Y-89538811D01*
X169700685Y-89574188D01*
X169702254Y-89611625D01*
G37*
G36*
X171268633Y-90172314D02*
G01*
X171299739Y-90172770D01*
X171330640Y-90173528D01*
X171361334Y-90174590D01*
X171391822Y-90175955D01*
X171422105Y-90177624D01*
X171452181Y-90179596D01*
X171482051Y-90181871D01*
X171511715Y-90184450D01*
X171541173Y-90187333D01*
X171570425Y-90190518D01*
X171613917Y-90195866D01*
X171656944Y-90201896D01*
X171699508Y-90208608D01*
X171713593Y-90210997D01*
X171755458Y-90218212D01*
X171796420Y-90225569D01*
X171836481Y-90233067D01*
X171875641Y-90240707D01*
X171913899Y-90248489D01*
X171951255Y-90256412D01*
X171987710Y-90264477D01*
X172023263Y-90272684D01*
X172057914Y-90281032D01*
X172091664Y-90289522D01*
X172113663Y-90295261D01*
X172113663Y-92226001D01*
X172113394Y-92259380D01*
X172112587Y-92292198D01*
X172111242Y-92324456D01*
X172109358Y-92356152D01*
X172106937Y-92387287D01*
X172103977Y-92417861D01*
X172100480Y-92447875D01*
X172096444Y-92477327D01*
X172086758Y-92534548D01*
X172074920Y-92589526D01*
X172060930Y-92642259D01*
X172044787Y-92692749D01*
X172026491Y-92740995D01*
X172006044Y-92786996D01*
X171983444Y-92830754D01*
X171958691Y-92872267D01*
X171931786Y-92911537D01*
X171902729Y-92948563D01*
X171871519Y-92983345D01*
X171838157Y-93015882D01*
X171802603Y-93046316D01*
X171764816Y-93074787D01*
X171724796Y-93101294D01*
X171682544Y-93125837D01*
X171638059Y-93148417D01*
X171591342Y-93169034D01*
X171542392Y-93187687D01*
X171491210Y-93204377D01*
X171437795Y-93219103D01*
X171382148Y-93231865D01*
X171324268Y-93242665D01*
X171294491Y-93247328D01*
X171264156Y-93251500D01*
X171233263Y-93255182D01*
X171201811Y-93258372D01*
X171169801Y-93261072D01*
X171137234Y-93263281D01*
X171104108Y-93264999D01*
X171070424Y-93266226D01*
X171036182Y-93266963D01*
X171001381Y-93267208D01*
X170963010Y-93266860D01*
X170924831Y-93265817D01*
X170886846Y-93264078D01*
X170849054Y-93261644D01*
X170811455Y-93258514D01*
X170774049Y-93254689D01*
X170736837Y-93250168D01*
X170699818Y-93244952D01*
X170662992Y-93239040D01*
X170626359Y-93232432D01*
X170602044Y-93227641D01*
X170565791Y-93220076D01*
X170529848Y-93211944D01*
X170494213Y-93203246D01*
X170458887Y-93193981D01*
X170423871Y-93184149D01*
X170389164Y-93173751D01*
X170354765Y-93162786D01*
X170320676Y-93151254D01*
X170286896Y-93139155D01*
X170253426Y-93126490D01*
X170231284Y-93117732D01*
X170334598Y-92647320D01*
X170363932Y-92661011D01*
X170393408Y-92674059D01*
X170423026Y-92686462D01*
X170452785Y-92698222D01*
X170482686Y-92709337D01*
X170512729Y-92719808D01*
X170542913Y-92729636D01*
X170573239Y-92738819D01*
X170603706Y-92747359D01*
X170634316Y-92755254D01*
X170654801Y-92760160D01*
X170685807Y-92766969D01*
X170717277Y-92773109D01*
X170749211Y-92778578D01*
X170781608Y-92783378D01*
X170814470Y-92787509D01*
X170847794Y-92790969D01*
X170881583Y-92793760D01*
X170915835Y-92795881D01*
X170950551Y-92797332D01*
X170985731Y-92798113D01*
X171009441Y-92798262D01*
X171046301Y-92797890D01*
X171081775Y-92796774D01*
X171115864Y-92794913D01*
X171148568Y-92792308D01*
X171179886Y-92788960D01*
X171209820Y-92784867D01*
X171252122Y-92777332D01*
X171291307Y-92768123D01*
X171327375Y-92757239D01*
X171360327Y-92744681D01*
X171390161Y-92730449D01*
X171416878Y-92714542D01*
X171432958Y-92703007D01*
X171461810Y-92677751D01*
X171486814Y-92649610D01*
X171507971Y-92618583D01*
X171525282Y-92584672D01*
X171538746Y-92547875D01*
X171546319Y-92518384D01*
X171551729Y-92487270D01*
X171554975Y-92454533D01*
X171556057Y-92420174D01*
X171556057Y-92387934D01*
X171528259Y-92397963D01*
X171495596Y-92408166D01*
X171461404Y-92417972D01*
X171428542Y-92426892D01*
X171399393Y-92434517D01*
X171383866Y-92438492D01*
X171351603Y-92445877D01*
X171318195Y-92452277D01*
X171283642Y-92457692D01*
X171247944Y-92462123D01*
X171211102Y-92465569D01*
X171173114Y-92468030D01*
X171133982Y-92469507D01*
X171103882Y-92469969D01*
X171093705Y-92470000D01*
X171053622Y-92469362D01*
X171014158Y-92467449D01*
X170975312Y-92464261D01*
X170937084Y-92459799D01*
X170899475Y-92454061D01*
X170862483Y-92447047D01*
X170826110Y-92438759D01*
X170790355Y-92429196D01*
X170755219Y-92418357D01*
X170720700Y-92406244D01*
X170698032Y-92397459D01*
X170664823Y-92383122D01*
X170632515Y-92367586D01*
X170601110Y-92350853D01*
X170570606Y-92332922D01*
X170541003Y-92313793D01*
X170512302Y-92293466D01*
X170484503Y-92271942D01*
X170457605Y-92249219D01*
X170431609Y-92225299D01*
X170406514Y-92200181D01*
X170390286Y-92182770D01*
X170366876Y-92155649D01*
X170344459Y-92127317D01*
X170323033Y-92097775D01*
X170302599Y-92067022D01*
X170283156Y-92035058D01*
X170264706Y-92001883D01*
X170247247Y-91967498D01*
X170230780Y-91931902D01*
X170215304Y-91895095D01*
X170200821Y-91857078D01*
X170191716Y-91831060D01*
X170179014Y-91790933D01*
X170167562Y-91749684D01*
X170157359Y-91707316D01*
X170151251Y-91678447D01*
X170145698Y-91649081D01*
X170140701Y-91619217D01*
X170136259Y-91588854D01*
X170132372Y-91557994D01*
X170129040Y-91526635D01*
X170126264Y-91494779D01*
X170124043Y-91462424D01*
X170122377Y-91429571D01*
X170121266Y-91396221D01*
X170120711Y-91362372D01*
X170120642Y-91345261D01*
X170120655Y-91343796D01*
X170691437Y-91343796D01*
X170691964Y-91386285D01*
X170693544Y-91427292D01*
X170696177Y-91466817D01*
X170699863Y-91504859D01*
X170704603Y-91541418D01*
X170710396Y-91576494D01*
X170717243Y-91610088D01*
X170725143Y-91642199D01*
X170734096Y-91672828D01*
X170744102Y-91701974D01*
X170755162Y-91729637D01*
X170773726Y-91768353D01*
X170794660Y-91803732D01*
X170817964Y-91835775D01*
X170826259Y-91845715D01*
X170852352Y-91873475D01*
X170879797Y-91898506D01*
X170908594Y-91920805D01*
X170938744Y-91940374D01*
X170970247Y-91957213D01*
X171003101Y-91971320D01*
X171037309Y-91982698D01*
X171072868Y-91991345D01*
X171109780Y-91997261D01*
X171148044Y-92000446D01*
X171174305Y-92001053D01*
X171203935Y-92000630D01*
X171240328Y-91998909D01*
X171276006Y-91995864D01*
X171310968Y-91991496D01*
X171345214Y-91985803D01*
X171378745Y-91978787D01*
X171398520Y-91973942D01*
X171429994Y-91965399D01*
X171458927Y-91956712D01*
X171490294Y-91946099D01*
X171518003Y-91935279D01*
X171545708Y-91922397D01*
X171556057Y-91916789D01*
X171556057Y-90673349D01*
X171526265Y-90666627D01*
X171494290Y-90660870D01*
X171464692Y-90656232D01*
X171441018Y-90652833D01*
X171410124Y-90648849D01*
X171376241Y-90645689D01*
X171345722Y-90643685D01*
X171313129Y-90642254D01*
X171278460Y-90641395D01*
X171241716Y-90641109D01*
X171208864Y-90641862D01*
X171176984Y-90644120D01*
X171146078Y-90647884D01*
X171116145Y-90653153D01*
X171087185Y-90659928D01*
X171045570Y-90672913D01*
X171006144Y-90689286D01*
X170968908Y-90709046D01*
X170933861Y-90732194D01*
X170901005Y-90758728D01*
X170870337Y-90788651D01*
X170841860Y-90821961D01*
X170832854Y-90833817D01*
X170815729Y-90858306D01*
X170799709Y-90883780D01*
X170784794Y-90910238D01*
X170770984Y-90937681D01*
X170758278Y-90966109D01*
X170746678Y-90995521D01*
X170736182Y-91025917D01*
X170726791Y-91057299D01*
X170718505Y-91089665D01*
X170711324Y-91123015D01*
X170705247Y-91157351D01*
X170700276Y-91192670D01*
X170696409Y-91228975D01*
X170693647Y-91266264D01*
X170691989Y-91304538D01*
X170691437Y-91343796D01*
X170120655Y-91343796D01*
X170120936Y-91313356D01*
X170121821Y-91281754D01*
X170123295Y-91250456D01*
X170125358Y-91219461D01*
X170128012Y-91188769D01*
X170131255Y-91158381D01*
X170135087Y-91128296D01*
X170139509Y-91098515D01*
X170144521Y-91069037D01*
X170150122Y-91039862D01*
X170156313Y-91010991D01*
X170163094Y-90982423D01*
X170174370Y-90940140D01*
X170186973Y-90898540D01*
X170196113Y-90871186D01*
X170210869Y-90830936D01*
X170226836Y-90791794D01*
X170244013Y-90753759D01*
X170262402Y-90716832D01*
X170282001Y-90681013D01*
X170302810Y-90646301D01*
X170324831Y-90612697D01*
X170348062Y-90580201D01*
X170372504Y-90548812D01*
X170398157Y-90518532D01*
X170415931Y-90498960D01*
X170443681Y-90470577D01*
X170472526Y-90443404D01*
X170502465Y-90417442D01*
X170533500Y-90392691D01*
X170565629Y-90369151D01*
X170598853Y-90346821D01*
X170633172Y-90325702D01*
X170668585Y-90305794D01*
X170705093Y-90287097D01*
X170742697Y-90269610D01*
X170768374Y-90258625D01*
X170807731Y-90243173D01*
X170848041Y-90229241D01*
X170889304Y-90216829D01*
X170931520Y-90205937D01*
X170960194Y-90199520D01*
X170989291Y-90193778D01*
X171018812Y-90188712D01*
X171048757Y-90184322D01*
X171079125Y-90180606D01*
X171109917Y-90177567D01*
X171141132Y-90175202D01*
X171172771Y-90173514D01*
X171204834Y-90172501D01*
X171237320Y-90172163D01*
X171268633Y-90172314D01*
G37*
D11*
X208773095Y-130039819D02*
X208773095Y-129039819D01*
X208773095Y-129516009D02*
X209344523Y-129516009D01*
X209344523Y-130039819D02*
X209344523Y-129039819D01*
X210249285Y-129373152D02*
X210249285Y-130039819D01*
X210011190Y-128992200D02*
X209773095Y-129706485D01*
X209773095Y-129706485D02*
X210392142Y-129706485D01*
X208773095Y-40039819D02*
X208773095Y-39039819D01*
X208773095Y-39516009D02*
X209344523Y-39516009D01*
X209344523Y-40039819D02*
X209344523Y-39039819D01*
X209725476Y-39039819D02*
X210344523Y-39039819D01*
X210344523Y-39039819D02*
X210011190Y-39420771D01*
X210011190Y-39420771D02*
X210154047Y-39420771D01*
X210154047Y-39420771D02*
X210249285Y-39468390D01*
X210249285Y-39468390D02*
X210296904Y-39516009D01*
X210296904Y-39516009D02*
X210344523Y-39611247D01*
X210344523Y-39611247D02*
X210344523Y-39849342D01*
X210344523Y-39849342D02*
X210296904Y-39944580D01*
X210296904Y-39944580D02*
X210249285Y-39992200D01*
X210249285Y-39992200D02*
X210154047Y-40039819D01*
X210154047Y-40039819D02*
X209868333Y-40039819D01*
X209868333Y-40039819D02*
X209773095Y-39992200D01*
X209773095Y-39992200D02*
X209725476Y-39944580D01*
X88773095Y-40039819D02*
X88773095Y-39039819D01*
X88773095Y-39516009D02*
X89344523Y-39516009D01*
X89344523Y-40039819D02*
X89344523Y-39039819D01*
X89773095Y-39135057D02*
X89820714Y-39087438D01*
X89820714Y-39087438D02*
X89915952Y-39039819D01*
X89915952Y-39039819D02*
X90154047Y-39039819D01*
X90154047Y-39039819D02*
X90249285Y-39087438D01*
X90249285Y-39087438D02*
X90296904Y-39135057D01*
X90296904Y-39135057D02*
X90344523Y-39230295D01*
X90344523Y-39230295D02*
X90344523Y-39325533D01*
X90344523Y-39325533D02*
X90296904Y-39468390D01*
X90296904Y-39468390D02*
X89725476Y-40039819D01*
X89725476Y-40039819D02*
X90344523Y-40039819D01*
X88773095Y-130039819D02*
X88773095Y-129039819D01*
X88773095Y-129516009D02*
X89344523Y-129516009D01*
X89344523Y-130039819D02*
X89344523Y-129039819D01*
X90344523Y-130039819D02*
X89773095Y-130039819D01*
X90058809Y-130039819D02*
X90058809Y-129039819D01*
X90058809Y-129039819D02*
X89963571Y-129182676D01*
X89963571Y-129182676D02*
X89868333Y-129277914D01*
X89868333Y-129277914D02*
X89773095Y-129325533D01*
D12*
X148441419Y-38970094D02*
X148441419Y-38398666D01*
X149441419Y-38684380D02*
X148441419Y-38684380D01*
X149441419Y-38065332D02*
X148441419Y-38065332D01*
X148441419Y-38065332D02*
X148441419Y-37684380D01*
X148441419Y-37684380D02*
X148489038Y-37589142D01*
X148489038Y-37589142D02*
X148536657Y-37541523D01*
X148536657Y-37541523D02*
X148631895Y-37493904D01*
X148631895Y-37493904D02*
X148774752Y-37493904D01*
X148774752Y-37493904D02*
X148869990Y-37541523D01*
X148869990Y-37541523D02*
X148917609Y-37589142D01*
X148917609Y-37589142D02*
X148965228Y-37684380D01*
X148965228Y-37684380D02*
X148965228Y-38065332D01*
X148536657Y-37112951D02*
X148489038Y-37065332D01*
X148489038Y-37065332D02*
X148441419Y-36970094D01*
X148441419Y-36970094D02*
X148441419Y-36731999D01*
X148441419Y-36731999D02*
X148489038Y-36636761D01*
X148489038Y-36636761D02*
X148536657Y-36589142D01*
X148536657Y-36589142D02*
X148631895Y-36541523D01*
X148631895Y-36541523D02*
X148727133Y-36541523D01*
X148727133Y-36541523D02*
X148869990Y-36589142D01*
X148869990Y-36589142D02*
X149441419Y-37160570D01*
X149441419Y-37160570D02*
X149441419Y-36541523D01*
X149441419Y-35589142D02*
X149441419Y-36160570D01*
X149441419Y-35874856D02*
X148441419Y-35874856D01*
X148441419Y-35874856D02*
X148584276Y-35970094D01*
X148584276Y-35970094D02*
X148679514Y-36065332D01*
X148679514Y-36065332D02*
X148727133Y-36160570D01*
X135741419Y-38970094D02*
X135741419Y-38398666D01*
X136741419Y-38684380D02*
X135741419Y-38684380D01*
X136741419Y-38065332D02*
X135741419Y-38065332D01*
X135741419Y-38065332D02*
X135741419Y-37684380D01*
X135741419Y-37684380D02*
X135789038Y-37589142D01*
X135789038Y-37589142D02*
X135836657Y-37541523D01*
X135836657Y-37541523D02*
X135931895Y-37493904D01*
X135931895Y-37493904D02*
X136074752Y-37493904D01*
X136074752Y-37493904D02*
X136169990Y-37541523D01*
X136169990Y-37541523D02*
X136217609Y-37589142D01*
X136217609Y-37589142D02*
X136265228Y-37684380D01*
X136265228Y-37684380D02*
X136265228Y-38065332D01*
X136741419Y-36541523D02*
X136741419Y-37112951D01*
X136741419Y-36827237D02*
X135741419Y-36827237D01*
X135741419Y-36827237D02*
X135884276Y-36922475D01*
X135884276Y-36922475D02*
X135979514Y-37017713D01*
X135979514Y-37017713D02*
X136027133Y-37112951D01*
X136169990Y-35970094D02*
X136122371Y-36065332D01*
X136122371Y-36065332D02*
X136074752Y-36112951D01*
X136074752Y-36112951D02*
X135979514Y-36160570D01*
X135979514Y-36160570D02*
X135931895Y-36160570D01*
X135931895Y-36160570D02*
X135836657Y-36112951D01*
X135836657Y-36112951D02*
X135789038Y-36065332D01*
X135789038Y-36065332D02*
X135741419Y-35970094D01*
X135741419Y-35970094D02*
X135741419Y-35779618D01*
X135741419Y-35779618D02*
X135789038Y-35684380D01*
X135789038Y-35684380D02*
X135836657Y-35636761D01*
X135836657Y-35636761D02*
X135931895Y-35589142D01*
X135931895Y-35589142D02*
X135979514Y-35589142D01*
X135979514Y-35589142D02*
X136074752Y-35636761D01*
X136074752Y-35636761D02*
X136122371Y-35684380D01*
X136122371Y-35684380D02*
X136169990Y-35779618D01*
X136169990Y-35779618D02*
X136169990Y-35970094D01*
X136169990Y-35970094D02*
X136217609Y-36065332D01*
X136217609Y-36065332D02*
X136265228Y-36112951D01*
X136265228Y-36112951D02*
X136360466Y-36160570D01*
X136360466Y-36160570D02*
X136550942Y-36160570D01*
X136550942Y-36160570D02*
X136646180Y-36112951D01*
X136646180Y-36112951D02*
X136693800Y-36065332D01*
X136693800Y-36065332D02*
X136741419Y-35970094D01*
X136741419Y-35970094D02*
X136741419Y-35779618D01*
X136741419Y-35779618D02*
X136693800Y-35684380D01*
X136693800Y-35684380D02*
X136646180Y-35636761D01*
X136646180Y-35636761D02*
X136550942Y-35589142D01*
X136550942Y-35589142D02*
X136360466Y-35589142D01*
X136360466Y-35589142D02*
X136265228Y-35636761D01*
X136265228Y-35636761D02*
X136217609Y-35684380D01*
X136217609Y-35684380D02*
X136169990Y-35779618D01*
X139933245Y-55632739D02*
X140504673Y-55632739D01*
X140218959Y-56632739D02*
X140218959Y-55632739D01*
X140838007Y-56632739D02*
X140838007Y-55632739D01*
X140838007Y-55632739D02*
X141218959Y-55632739D01*
X141218959Y-55632739D02*
X141314197Y-55680358D01*
X141314197Y-55680358D02*
X141361816Y-55727977D01*
X141361816Y-55727977D02*
X141409435Y-55823215D01*
X141409435Y-55823215D02*
X141409435Y-55966072D01*
X141409435Y-55966072D02*
X141361816Y-56061310D01*
X141361816Y-56061310D02*
X141314197Y-56108929D01*
X141314197Y-56108929D02*
X141218959Y-56156548D01*
X141218959Y-56156548D02*
X140838007Y-56156548D01*
X142361816Y-56632739D02*
X141790388Y-56632739D01*
X142076102Y-56632739D02*
X142076102Y-55632739D01*
X142076102Y-55632739D02*
X141980864Y-55775596D01*
X141980864Y-55775596D02*
X141885626Y-55870834D01*
X141885626Y-55870834D02*
X141790388Y-55918453D01*
X142695150Y-55632739D02*
X143314197Y-55632739D01*
X143314197Y-55632739D02*
X142980864Y-56013691D01*
X142980864Y-56013691D02*
X143123721Y-56013691D01*
X143123721Y-56013691D02*
X143218959Y-56061310D01*
X143218959Y-56061310D02*
X143266578Y-56108929D01*
X143266578Y-56108929D02*
X143314197Y-56204167D01*
X143314197Y-56204167D02*
X143314197Y-56442262D01*
X143314197Y-56442262D02*
X143266578Y-56537500D01*
X143266578Y-56537500D02*
X143218959Y-56585120D01*
X143218959Y-56585120D02*
X143123721Y-56632739D01*
X143123721Y-56632739D02*
X142838007Y-56632739D01*
X142838007Y-56632739D02*
X142742769Y-56585120D01*
X142742769Y-56585120D02*
X142695150Y-56537500D01*
X135741419Y-48622094D02*
X135741419Y-48050666D01*
X136741419Y-48336380D02*
X135741419Y-48336380D01*
X136741419Y-47717332D02*
X135741419Y-47717332D01*
X135741419Y-47717332D02*
X135741419Y-47336380D01*
X135741419Y-47336380D02*
X135789038Y-47241142D01*
X135789038Y-47241142D02*
X135836657Y-47193523D01*
X135836657Y-47193523D02*
X135931895Y-47145904D01*
X135931895Y-47145904D02*
X136074752Y-47145904D01*
X136074752Y-47145904D02*
X136169990Y-47193523D01*
X136169990Y-47193523D02*
X136217609Y-47241142D01*
X136217609Y-47241142D02*
X136265228Y-47336380D01*
X136265228Y-47336380D02*
X136265228Y-47717332D01*
X135741419Y-46812570D02*
X135741419Y-46193523D01*
X135741419Y-46193523D02*
X136122371Y-46526856D01*
X136122371Y-46526856D02*
X136122371Y-46383999D01*
X136122371Y-46383999D02*
X136169990Y-46288761D01*
X136169990Y-46288761D02*
X136217609Y-46241142D01*
X136217609Y-46241142D02*
X136312847Y-46193523D01*
X136312847Y-46193523D02*
X136550942Y-46193523D01*
X136550942Y-46193523D02*
X136646180Y-46241142D01*
X136646180Y-46241142D02*
X136693800Y-46288761D01*
X136693800Y-46288761D02*
X136741419Y-46383999D01*
X136741419Y-46383999D02*
X136741419Y-46669713D01*
X136741419Y-46669713D02*
X136693800Y-46764951D01*
X136693800Y-46764951D02*
X136646180Y-46812570D01*
X136741419Y-45241142D02*
X136741419Y-45812570D01*
X136741419Y-45526856D02*
X135741419Y-45526856D01*
X135741419Y-45526856D02*
X135884276Y-45622094D01*
X135884276Y-45622094D02*
X135979514Y-45717332D01*
X135979514Y-45717332D02*
X136027133Y-45812570D01*
X152281905Y-60687419D02*
X152853333Y-60687419D01*
X152567619Y-61687419D02*
X152567619Y-60687419D01*
X153186667Y-61687419D02*
X153186667Y-60687419D01*
X153186667Y-60687419D02*
X153567619Y-60687419D01*
X153567619Y-60687419D02*
X153662857Y-60735038D01*
X153662857Y-60735038D02*
X153710476Y-60782657D01*
X153710476Y-60782657D02*
X153758095Y-60877895D01*
X153758095Y-60877895D02*
X153758095Y-61020752D01*
X153758095Y-61020752D02*
X153710476Y-61115990D01*
X153710476Y-61115990D02*
X153662857Y-61163609D01*
X153662857Y-61163609D02*
X153567619Y-61211228D01*
X153567619Y-61211228D02*
X153186667Y-61211228D01*
X154091429Y-60687419D02*
X154710476Y-60687419D01*
X154710476Y-60687419D02*
X154377143Y-61068371D01*
X154377143Y-61068371D02*
X154520000Y-61068371D01*
X154520000Y-61068371D02*
X154615238Y-61115990D01*
X154615238Y-61115990D02*
X154662857Y-61163609D01*
X154662857Y-61163609D02*
X154710476Y-61258847D01*
X154710476Y-61258847D02*
X154710476Y-61496942D01*
X154710476Y-61496942D02*
X154662857Y-61592180D01*
X154662857Y-61592180D02*
X154615238Y-61639800D01*
X154615238Y-61639800D02*
X154520000Y-61687419D01*
X154520000Y-61687419D02*
X154234286Y-61687419D01*
X154234286Y-61687419D02*
X154139048Y-61639800D01*
X154139048Y-61639800D02*
X154091429Y-61592180D01*
X155281905Y-61115990D02*
X155186667Y-61068371D01*
X155186667Y-61068371D02*
X155139048Y-61020752D01*
X155139048Y-61020752D02*
X155091429Y-60925514D01*
X155091429Y-60925514D02*
X155091429Y-60877895D01*
X155091429Y-60877895D02*
X155139048Y-60782657D01*
X155139048Y-60782657D02*
X155186667Y-60735038D01*
X155186667Y-60735038D02*
X155281905Y-60687419D01*
X155281905Y-60687419D02*
X155472381Y-60687419D01*
X155472381Y-60687419D02*
X155567619Y-60735038D01*
X155567619Y-60735038D02*
X155615238Y-60782657D01*
X155615238Y-60782657D02*
X155662857Y-60877895D01*
X155662857Y-60877895D02*
X155662857Y-60925514D01*
X155662857Y-60925514D02*
X155615238Y-61020752D01*
X155615238Y-61020752D02*
X155567619Y-61068371D01*
X155567619Y-61068371D02*
X155472381Y-61115990D01*
X155472381Y-61115990D02*
X155281905Y-61115990D01*
X155281905Y-61115990D02*
X155186667Y-61163609D01*
X155186667Y-61163609D02*
X155139048Y-61211228D01*
X155139048Y-61211228D02*
X155091429Y-61306466D01*
X155091429Y-61306466D02*
X155091429Y-61496942D01*
X155091429Y-61496942D02*
X155139048Y-61592180D01*
X155139048Y-61592180D02*
X155186667Y-61639800D01*
X155186667Y-61639800D02*
X155281905Y-61687419D01*
X155281905Y-61687419D02*
X155472381Y-61687419D01*
X155472381Y-61687419D02*
X155567619Y-61639800D01*
X155567619Y-61639800D02*
X155615238Y-61592180D01*
X155615238Y-61592180D02*
X155662857Y-61496942D01*
X155662857Y-61496942D02*
X155662857Y-61306466D01*
X155662857Y-61306466D02*
X155615238Y-61211228D01*
X155615238Y-61211228D02*
X155567619Y-61163609D01*
X155567619Y-61163609D02*
X155472381Y-61115990D01*
X106023419Y-129933904D02*
X106023419Y-129362476D01*
X107023419Y-129648190D02*
X106023419Y-129648190D01*
X107023419Y-129029142D02*
X106023419Y-129029142D01*
X106023419Y-129029142D02*
X106023419Y-128648190D01*
X106023419Y-128648190D02*
X106071038Y-128552952D01*
X106071038Y-128552952D02*
X106118657Y-128505333D01*
X106118657Y-128505333D02*
X106213895Y-128457714D01*
X106213895Y-128457714D02*
X106356752Y-128457714D01*
X106356752Y-128457714D02*
X106451990Y-128505333D01*
X106451990Y-128505333D02*
X106499609Y-128552952D01*
X106499609Y-128552952D02*
X106547228Y-128648190D01*
X106547228Y-128648190D02*
X106547228Y-129029142D01*
X106023419Y-127600571D02*
X106023419Y-127791047D01*
X106023419Y-127791047D02*
X106071038Y-127886285D01*
X106071038Y-127886285D02*
X106118657Y-127933904D01*
X106118657Y-127933904D02*
X106261514Y-128029142D01*
X106261514Y-128029142D02*
X106451990Y-128076761D01*
X106451990Y-128076761D02*
X106832942Y-128076761D01*
X106832942Y-128076761D02*
X106928180Y-128029142D01*
X106928180Y-128029142D02*
X106975800Y-127981523D01*
X106975800Y-127981523D02*
X107023419Y-127886285D01*
X107023419Y-127886285D02*
X107023419Y-127695809D01*
X107023419Y-127695809D02*
X106975800Y-127600571D01*
X106975800Y-127600571D02*
X106928180Y-127552952D01*
X106928180Y-127552952D02*
X106832942Y-127505333D01*
X106832942Y-127505333D02*
X106594847Y-127505333D01*
X106594847Y-127505333D02*
X106499609Y-127552952D01*
X106499609Y-127552952D02*
X106451990Y-127600571D01*
X106451990Y-127600571D02*
X106404371Y-127695809D01*
X106404371Y-127695809D02*
X106404371Y-127886285D01*
X106404371Y-127886285D02*
X106451990Y-127981523D01*
X106451990Y-127981523D02*
X106499609Y-128029142D01*
X106499609Y-128029142D02*
X106594847Y-128076761D01*
X139933245Y-60712739D02*
X140504673Y-60712739D01*
X140218959Y-61712739D02*
X140218959Y-60712739D01*
X140838007Y-61712739D02*
X140838007Y-60712739D01*
X140838007Y-60712739D02*
X141218959Y-60712739D01*
X141218959Y-60712739D02*
X141314197Y-60760358D01*
X141314197Y-60760358D02*
X141361816Y-60807977D01*
X141361816Y-60807977D02*
X141409435Y-60903215D01*
X141409435Y-60903215D02*
X141409435Y-61046072D01*
X141409435Y-61046072D02*
X141361816Y-61141310D01*
X141361816Y-61141310D02*
X141314197Y-61188929D01*
X141314197Y-61188929D02*
X141218959Y-61236548D01*
X141218959Y-61236548D02*
X140838007Y-61236548D01*
X142361816Y-61712739D02*
X141790388Y-61712739D01*
X142076102Y-61712739D02*
X142076102Y-60712739D01*
X142076102Y-60712739D02*
X141980864Y-60855596D01*
X141980864Y-60855596D02*
X141885626Y-60950834D01*
X141885626Y-60950834D02*
X141790388Y-60998453D01*
X142742769Y-60807977D02*
X142790388Y-60760358D01*
X142790388Y-60760358D02*
X142885626Y-60712739D01*
X142885626Y-60712739D02*
X143123721Y-60712739D01*
X143123721Y-60712739D02*
X143218959Y-60760358D01*
X143218959Y-60760358D02*
X143266578Y-60807977D01*
X143266578Y-60807977D02*
X143314197Y-60903215D01*
X143314197Y-60903215D02*
X143314197Y-60998453D01*
X143314197Y-60998453D02*
X143266578Y-61141310D01*
X143266578Y-61141310D02*
X142695150Y-61712739D01*
X142695150Y-61712739D02*
X143314197Y-61712739D01*
X130661419Y-48622094D02*
X130661419Y-48050666D01*
X131661419Y-48336380D02*
X130661419Y-48336380D01*
X131661419Y-47717332D02*
X130661419Y-47717332D01*
X130661419Y-47717332D02*
X130661419Y-47336380D01*
X130661419Y-47336380D02*
X130709038Y-47241142D01*
X130709038Y-47241142D02*
X130756657Y-47193523D01*
X130756657Y-47193523D02*
X130851895Y-47145904D01*
X130851895Y-47145904D02*
X130994752Y-47145904D01*
X130994752Y-47145904D02*
X131089990Y-47193523D01*
X131089990Y-47193523D02*
X131137609Y-47241142D01*
X131137609Y-47241142D02*
X131185228Y-47336380D01*
X131185228Y-47336380D02*
X131185228Y-47717332D01*
X130661419Y-46812570D02*
X130661419Y-46193523D01*
X130661419Y-46193523D02*
X131042371Y-46526856D01*
X131042371Y-46526856D02*
X131042371Y-46383999D01*
X131042371Y-46383999D02*
X131089990Y-46288761D01*
X131089990Y-46288761D02*
X131137609Y-46241142D01*
X131137609Y-46241142D02*
X131232847Y-46193523D01*
X131232847Y-46193523D02*
X131470942Y-46193523D01*
X131470942Y-46193523D02*
X131566180Y-46241142D01*
X131566180Y-46241142D02*
X131613800Y-46288761D01*
X131613800Y-46288761D02*
X131661419Y-46383999D01*
X131661419Y-46383999D02*
X131661419Y-46669713D01*
X131661419Y-46669713D02*
X131613800Y-46764951D01*
X131613800Y-46764951D02*
X131566180Y-46812570D01*
X130661419Y-45860189D02*
X130661419Y-45241142D01*
X130661419Y-45241142D02*
X131042371Y-45574475D01*
X131042371Y-45574475D02*
X131042371Y-45431618D01*
X131042371Y-45431618D02*
X131089990Y-45336380D01*
X131089990Y-45336380D02*
X131137609Y-45288761D01*
X131137609Y-45288761D02*
X131232847Y-45241142D01*
X131232847Y-45241142D02*
X131470942Y-45241142D01*
X131470942Y-45241142D02*
X131566180Y-45288761D01*
X131566180Y-45288761D02*
X131613800Y-45336380D01*
X131613800Y-45336380D02*
X131661419Y-45431618D01*
X131661419Y-45431618D02*
X131661419Y-45717332D01*
X131661419Y-45717332D02*
X131613800Y-45812570D01*
X131613800Y-45812570D02*
X131566180Y-45860189D01*
X138281419Y-38970094D02*
X138281419Y-38398666D01*
X139281419Y-38684380D02*
X138281419Y-38684380D01*
X139281419Y-38065332D02*
X138281419Y-38065332D01*
X138281419Y-38065332D02*
X138281419Y-37684380D01*
X138281419Y-37684380D02*
X138329038Y-37589142D01*
X138329038Y-37589142D02*
X138376657Y-37541523D01*
X138376657Y-37541523D02*
X138471895Y-37493904D01*
X138471895Y-37493904D02*
X138614752Y-37493904D01*
X138614752Y-37493904D02*
X138709990Y-37541523D01*
X138709990Y-37541523D02*
X138757609Y-37589142D01*
X138757609Y-37589142D02*
X138805228Y-37684380D01*
X138805228Y-37684380D02*
X138805228Y-38065332D01*
X139281419Y-36541523D02*
X139281419Y-37112951D01*
X139281419Y-36827237D02*
X138281419Y-36827237D01*
X138281419Y-36827237D02*
X138424276Y-36922475D01*
X138424276Y-36922475D02*
X138519514Y-37017713D01*
X138519514Y-37017713D02*
X138567133Y-37112951D01*
X139281419Y-36065332D02*
X139281419Y-35874856D01*
X139281419Y-35874856D02*
X139233800Y-35779618D01*
X139233800Y-35779618D02*
X139186180Y-35731999D01*
X139186180Y-35731999D02*
X139043323Y-35636761D01*
X139043323Y-35636761D02*
X138852847Y-35589142D01*
X138852847Y-35589142D02*
X138471895Y-35589142D01*
X138471895Y-35589142D02*
X138376657Y-35636761D01*
X138376657Y-35636761D02*
X138329038Y-35684380D01*
X138329038Y-35684380D02*
X138281419Y-35779618D01*
X138281419Y-35779618D02*
X138281419Y-35970094D01*
X138281419Y-35970094D02*
X138329038Y-36065332D01*
X138329038Y-36065332D02*
X138376657Y-36112951D01*
X138376657Y-36112951D02*
X138471895Y-36160570D01*
X138471895Y-36160570D02*
X138709990Y-36160570D01*
X138709990Y-36160570D02*
X138805228Y-36112951D01*
X138805228Y-36112951D02*
X138852847Y-36065332D01*
X138852847Y-36065332D02*
X138900466Y-35970094D01*
X138900466Y-35970094D02*
X138900466Y-35779618D01*
X138900466Y-35779618D02*
X138852847Y-35684380D01*
X138852847Y-35684380D02*
X138805228Y-35636761D01*
X138805228Y-35636761D02*
X138709990Y-35589142D01*
X139933245Y-65792739D02*
X140504673Y-65792739D01*
X140218959Y-66792739D02*
X140218959Y-65792739D01*
X140838007Y-66792739D02*
X140838007Y-65792739D01*
X140838007Y-65792739D02*
X141218959Y-65792739D01*
X141218959Y-65792739D02*
X141314197Y-65840358D01*
X141314197Y-65840358D02*
X141361816Y-65887977D01*
X141361816Y-65887977D02*
X141409435Y-65983215D01*
X141409435Y-65983215D02*
X141409435Y-66126072D01*
X141409435Y-66126072D02*
X141361816Y-66221310D01*
X141361816Y-66221310D02*
X141314197Y-66268929D01*
X141314197Y-66268929D02*
X141218959Y-66316548D01*
X141218959Y-66316548D02*
X140838007Y-66316548D01*
X142361816Y-66792739D02*
X141790388Y-66792739D01*
X142076102Y-66792739D02*
X142076102Y-65792739D01*
X142076102Y-65792739D02*
X141980864Y-65935596D01*
X141980864Y-65935596D02*
X141885626Y-66030834D01*
X141885626Y-66030834D02*
X141790388Y-66078453D01*
X142980864Y-65792739D02*
X143076102Y-65792739D01*
X143076102Y-65792739D02*
X143171340Y-65840358D01*
X143171340Y-65840358D02*
X143218959Y-65887977D01*
X143218959Y-65887977D02*
X143266578Y-65983215D01*
X143266578Y-65983215D02*
X143314197Y-66173691D01*
X143314197Y-66173691D02*
X143314197Y-66411786D01*
X143314197Y-66411786D02*
X143266578Y-66602262D01*
X143266578Y-66602262D02*
X143218959Y-66697500D01*
X143218959Y-66697500D02*
X143171340Y-66745120D01*
X143171340Y-66745120D02*
X143076102Y-66792739D01*
X143076102Y-66792739D02*
X142980864Y-66792739D01*
X142980864Y-66792739D02*
X142885626Y-66745120D01*
X142885626Y-66745120D02*
X142838007Y-66697500D01*
X142838007Y-66697500D02*
X142790388Y-66602262D01*
X142790388Y-66602262D02*
X142742769Y-66411786D01*
X142742769Y-66411786D02*
X142742769Y-66173691D01*
X142742769Y-66173691D02*
X142790388Y-65983215D01*
X142790388Y-65983215D02*
X142838007Y-65887977D01*
X142838007Y-65887977D02*
X142885626Y-65840358D01*
X142885626Y-65840358D02*
X142980864Y-65792739D01*
X129087419Y-129781904D02*
X129087419Y-129210476D01*
X130087419Y-129496190D02*
X129087419Y-129496190D01*
X130087419Y-128877142D02*
X129087419Y-128877142D01*
X129087419Y-128877142D02*
X129087419Y-128496190D01*
X129087419Y-128496190D02*
X129135038Y-128400952D01*
X129135038Y-128400952D02*
X129182657Y-128353333D01*
X129182657Y-128353333D02*
X129277895Y-128305714D01*
X129277895Y-128305714D02*
X129420752Y-128305714D01*
X129420752Y-128305714D02*
X129515990Y-128353333D01*
X129515990Y-128353333D02*
X129563609Y-128400952D01*
X129563609Y-128400952D02*
X129611228Y-128496190D01*
X129611228Y-128496190D02*
X129611228Y-128877142D01*
X130087419Y-127353333D02*
X130087419Y-127924761D01*
X130087419Y-127639047D02*
X129087419Y-127639047D01*
X129087419Y-127639047D02*
X129230276Y-127734285D01*
X129230276Y-127734285D02*
X129325514Y-127829523D01*
X129325514Y-127829523D02*
X129373133Y-127924761D01*
X139933245Y-58172739D02*
X140504673Y-58172739D01*
X140218959Y-59172739D02*
X140218959Y-58172739D01*
X140838007Y-59172739D02*
X140838007Y-58172739D01*
X140838007Y-58172739D02*
X141218959Y-58172739D01*
X141218959Y-58172739D02*
X141314197Y-58220358D01*
X141314197Y-58220358D02*
X141361816Y-58267977D01*
X141361816Y-58267977D02*
X141409435Y-58363215D01*
X141409435Y-58363215D02*
X141409435Y-58506072D01*
X141409435Y-58506072D02*
X141361816Y-58601310D01*
X141361816Y-58601310D02*
X141314197Y-58648929D01*
X141314197Y-58648929D02*
X141218959Y-58696548D01*
X141218959Y-58696548D02*
X140838007Y-58696548D01*
X141742769Y-58172739D02*
X142361816Y-58172739D01*
X142361816Y-58172739D02*
X142028483Y-58553691D01*
X142028483Y-58553691D02*
X142171340Y-58553691D01*
X142171340Y-58553691D02*
X142266578Y-58601310D01*
X142266578Y-58601310D02*
X142314197Y-58648929D01*
X142314197Y-58648929D02*
X142361816Y-58744167D01*
X142361816Y-58744167D02*
X142361816Y-58982262D01*
X142361816Y-58982262D02*
X142314197Y-59077500D01*
X142314197Y-59077500D02*
X142266578Y-59125120D01*
X142266578Y-59125120D02*
X142171340Y-59172739D01*
X142171340Y-59172739D02*
X141885626Y-59172739D01*
X141885626Y-59172739D02*
X141790388Y-59125120D01*
X141790388Y-59125120D02*
X141742769Y-59077500D01*
X142838007Y-59172739D02*
X143028483Y-59172739D01*
X143028483Y-59172739D02*
X143123721Y-59125120D01*
X143123721Y-59125120D02*
X143171340Y-59077500D01*
X143171340Y-59077500D02*
X143266578Y-58934643D01*
X143266578Y-58934643D02*
X143314197Y-58744167D01*
X143314197Y-58744167D02*
X143314197Y-58363215D01*
X143314197Y-58363215D02*
X143266578Y-58267977D01*
X143266578Y-58267977D02*
X143218959Y-58220358D01*
X143218959Y-58220358D02*
X143123721Y-58172739D01*
X143123721Y-58172739D02*
X142933245Y-58172739D01*
X142933245Y-58172739D02*
X142838007Y-58220358D01*
X142838007Y-58220358D02*
X142790388Y-58267977D01*
X142790388Y-58267977D02*
X142742769Y-58363215D01*
X142742769Y-58363215D02*
X142742769Y-58601310D01*
X142742769Y-58601310D02*
X142790388Y-58696548D01*
X142790388Y-58696548D02*
X142838007Y-58744167D01*
X142838007Y-58744167D02*
X142933245Y-58791786D01*
X142933245Y-58791786D02*
X143123721Y-58791786D01*
X143123721Y-58791786D02*
X143218959Y-58744167D01*
X143218959Y-58744167D02*
X143266578Y-58696548D01*
X143266578Y-58696548D02*
X143314197Y-58601310D01*
X140821419Y-48622094D02*
X140821419Y-48050666D01*
X141821419Y-48336380D02*
X140821419Y-48336380D01*
X141821419Y-47717332D02*
X140821419Y-47717332D01*
X140821419Y-47717332D02*
X140821419Y-47336380D01*
X140821419Y-47336380D02*
X140869038Y-47241142D01*
X140869038Y-47241142D02*
X140916657Y-47193523D01*
X140916657Y-47193523D02*
X141011895Y-47145904D01*
X141011895Y-47145904D02*
X141154752Y-47145904D01*
X141154752Y-47145904D02*
X141249990Y-47193523D01*
X141249990Y-47193523D02*
X141297609Y-47241142D01*
X141297609Y-47241142D02*
X141345228Y-47336380D01*
X141345228Y-47336380D02*
X141345228Y-47717332D01*
X140916657Y-46764951D02*
X140869038Y-46717332D01*
X140869038Y-46717332D02*
X140821419Y-46622094D01*
X140821419Y-46622094D02*
X140821419Y-46383999D01*
X140821419Y-46383999D02*
X140869038Y-46288761D01*
X140869038Y-46288761D02*
X140916657Y-46241142D01*
X140916657Y-46241142D02*
X141011895Y-46193523D01*
X141011895Y-46193523D02*
X141107133Y-46193523D01*
X141107133Y-46193523D02*
X141249990Y-46241142D01*
X141249990Y-46241142D02*
X141821419Y-46812570D01*
X141821419Y-46812570D02*
X141821419Y-46193523D01*
X141821419Y-45717332D02*
X141821419Y-45526856D01*
X141821419Y-45526856D02*
X141773800Y-45431618D01*
X141773800Y-45431618D02*
X141726180Y-45383999D01*
X141726180Y-45383999D02*
X141583323Y-45288761D01*
X141583323Y-45288761D02*
X141392847Y-45241142D01*
X141392847Y-45241142D02*
X141011895Y-45241142D01*
X141011895Y-45241142D02*
X140916657Y-45288761D01*
X140916657Y-45288761D02*
X140869038Y-45336380D01*
X140869038Y-45336380D02*
X140821419Y-45431618D01*
X140821419Y-45431618D02*
X140821419Y-45622094D01*
X140821419Y-45622094D02*
X140869038Y-45717332D01*
X140869038Y-45717332D02*
X140916657Y-45764951D01*
X140916657Y-45764951D02*
X141011895Y-45812570D01*
X141011895Y-45812570D02*
X141249990Y-45812570D01*
X141249990Y-45812570D02*
X141345228Y-45764951D01*
X141345228Y-45764951D02*
X141392847Y-45717332D01*
X141392847Y-45717332D02*
X141440466Y-45622094D01*
X141440466Y-45622094D02*
X141440466Y-45431618D01*
X141440466Y-45431618D02*
X141392847Y-45336380D01*
X141392847Y-45336380D02*
X141345228Y-45288761D01*
X141345228Y-45288761D02*
X141249990Y-45241142D01*
X197747419Y-60661904D02*
X197747419Y-60090476D01*
X198747419Y-60376190D02*
X197747419Y-60376190D01*
X198747419Y-59757142D02*
X197747419Y-59757142D01*
X197747419Y-59757142D02*
X197747419Y-59376190D01*
X197747419Y-59376190D02*
X197795038Y-59280952D01*
X197795038Y-59280952D02*
X197842657Y-59233333D01*
X197842657Y-59233333D02*
X197937895Y-59185714D01*
X197937895Y-59185714D02*
X198080752Y-59185714D01*
X198080752Y-59185714D02*
X198175990Y-59233333D01*
X198175990Y-59233333D02*
X198223609Y-59280952D01*
X198223609Y-59280952D02*
X198271228Y-59376190D01*
X198271228Y-59376190D02*
X198271228Y-59757142D01*
X198175990Y-58614285D02*
X198128371Y-58709523D01*
X198128371Y-58709523D02*
X198080752Y-58757142D01*
X198080752Y-58757142D02*
X197985514Y-58804761D01*
X197985514Y-58804761D02*
X197937895Y-58804761D01*
X197937895Y-58804761D02*
X197842657Y-58757142D01*
X197842657Y-58757142D02*
X197795038Y-58709523D01*
X197795038Y-58709523D02*
X197747419Y-58614285D01*
X197747419Y-58614285D02*
X197747419Y-58423809D01*
X197747419Y-58423809D02*
X197795038Y-58328571D01*
X197795038Y-58328571D02*
X197842657Y-58280952D01*
X197842657Y-58280952D02*
X197937895Y-58233333D01*
X197937895Y-58233333D02*
X197985514Y-58233333D01*
X197985514Y-58233333D02*
X198080752Y-58280952D01*
X198080752Y-58280952D02*
X198128371Y-58328571D01*
X198128371Y-58328571D02*
X198175990Y-58423809D01*
X198175990Y-58423809D02*
X198175990Y-58614285D01*
X198175990Y-58614285D02*
X198223609Y-58709523D01*
X198223609Y-58709523D02*
X198271228Y-58757142D01*
X198271228Y-58757142D02*
X198366466Y-58804761D01*
X198366466Y-58804761D02*
X198556942Y-58804761D01*
X198556942Y-58804761D02*
X198652180Y-58757142D01*
X198652180Y-58757142D02*
X198699800Y-58709523D01*
X198699800Y-58709523D02*
X198747419Y-58614285D01*
X198747419Y-58614285D02*
X198747419Y-58423809D01*
X198747419Y-58423809D02*
X198699800Y-58328571D01*
X198699800Y-58328571D02*
X198652180Y-58280952D01*
X198652180Y-58280952D02*
X198556942Y-58233333D01*
X198556942Y-58233333D02*
X198366466Y-58233333D01*
X198366466Y-58233333D02*
X198271228Y-58280952D01*
X198271228Y-58280952D02*
X198223609Y-58328571D01*
X198223609Y-58328571D02*
X198175990Y-58423809D01*
X181371905Y-110949919D02*
X181943333Y-110949919D01*
X181657619Y-111949919D02*
X181657619Y-110949919D01*
X182276667Y-111949919D02*
X182276667Y-110949919D01*
X182276667Y-110949919D02*
X182657619Y-110949919D01*
X182657619Y-110949919D02*
X182752857Y-110997538D01*
X182752857Y-110997538D02*
X182800476Y-111045157D01*
X182800476Y-111045157D02*
X182848095Y-111140395D01*
X182848095Y-111140395D02*
X182848095Y-111283252D01*
X182848095Y-111283252D02*
X182800476Y-111378490D01*
X182800476Y-111378490D02*
X182752857Y-111426109D01*
X182752857Y-111426109D02*
X182657619Y-111473728D01*
X182657619Y-111473728D02*
X182276667Y-111473728D01*
X183181429Y-110949919D02*
X183800476Y-110949919D01*
X183800476Y-110949919D02*
X183467143Y-111330871D01*
X183467143Y-111330871D02*
X183610000Y-111330871D01*
X183610000Y-111330871D02*
X183705238Y-111378490D01*
X183705238Y-111378490D02*
X183752857Y-111426109D01*
X183752857Y-111426109D02*
X183800476Y-111521347D01*
X183800476Y-111521347D02*
X183800476Y-111759442D01*
X183800476Y-111759442D02*
X183752857Y-111854680D01*
X183752857Y-111854680D02*
X183705238Y-111902300D01*
X183705238Y-111902300D02*
X183610000Y-111949919D01*
X183610000Y-111949919D02*
X183324286Y-111949919D01*
X183324286Y-111949919D02*
X183229048Y-111902300D01*
X183229048Y-111902300D02*
X183181429Y-111854680D01*
X184705238Y-110949919D02*
X184229048Y-110949919D01*
X184229048Y-110949919D02*
X184181429Y-111426109D01*
X184181429Y-111426109D02*
X184229048Y-111378490D01*
X184229048Y-111378490D02*
X184324286Y-111330871D01*
X184324286Y-111330871D02*
X184562381Y-111330871D01*
X184562381Y-111330871D02*
X184657619Y-111378490D01*
X184657619Y-111378490D02*
X184705238Y-111426109D01*
X184705238Y-111426109D02*
X184752857Y-111521347D01*
X184752857Y-111521347D02*
X184752857Y-111759442D01*
X184752857Y-111759442D02*
X184705238Y-111854680D01*
X184705238Y-111854680D02*
X184657619Y-111902300D01*
X184657619Y-111902300D02*
X184562381Y-111949919D01*
X184562381Y-111949919D02*
X184324286Y-111949919D01*
X184324286Y-111949919D02*
X184229048Y-111902300D01*
X184229048Y-111902300D02*
X184181429Y-111854680D01*
X152325905Y-65767419D02*
X152897333Y-65767419D01*
X152611619Y-66767419D02*
X152611619Y-65767419D01*
X153230667Y-66767419D02*
X153230667Y-65767419D01*
X153230667Y-65767419D02*
X153611619Y-65767419D01*
X153611619Y-65767419D02*
X153706857Y-65815038D01*
X153706857Y-65815038D02*
X153754476Y-65862657D01*
X153754476Y-65862657D02*
X153802095Y-65957895D01*
X153802095Y-65957895D02*
X153802095Y-66100752D01*
X153802095Y-66100752D02*
X153754476Y-66195990D01*
X153754476Y-66195990D02*
X153706857Y-66243609D01*
X153706857Y-66243609D02*
X153611619Y-66291228D01*
X153611619Y-66291228D02*
X153230667Y-66291228D01*
X154135429Y-65767419D02*
X154754476Y-65767419D01*
X154754476Y-65767419D02*
X154421143Y-66148371D01*
X154421143Y-66148371D02*
X154564000Y-66148371D01*
X154564000Y-66148371D02*
X154659238Y-66195990D01*
X154659238Y-66195990D02*
X154706857Y-66243609D01*
X154706857Y-66243609D02*
X154754476Y-66338847D01*
X154754476Y-66338847D02*
X154754476Y-66576942D01*
X154754476Y-66576942D02*
X154706857Y-66672180D01*
X154706857Y-66672180D02*
X154659238Y-66719800D01*
X154659238Y-66719800D02*
X154564000Y-66767419D01*
X154564000Y-66767419D02*
X154278286Y-66767419D01*
X154278286Y-66767419D02*
X154183048Y-66719800D01*
X154183048Y-66719800D02*
X154135429Y-66672180D01*
X155087810Y-65767419D02*
X155754476Y-65767419D01*
X155754476Y-65767419D02*
X155325905Y-66767419D01*
X128121419Y-38970094D02*
X128121419Y-38398666D01*
X129121419Y-38684380D02*
X128121419Y-38684380D01*
X129121419Y-38065332D02*
X128121419Y-38065332D01*
X128121419Y-38065332D02*
X128121419Y-37684380D01*
X128121419Y-37684380D02*
X128169038Y-37589142D01*
X128169038Y-37589142D02*
X128216657Y-37541523D01*
X128216657Y-37541523D02*
X128311895Y-37493904D01*
X128311895Y-37493904D02*
X128454752Y-37493904D01*
X128454752Y-37493904D02*
X128549990Y-37541523D01*
X128549990Y-37541523D02*
X128597609Y-37589142D01*
X128597609Y-37589142D02*
X128645228Y-37684380D01*
X128645228Y-37684380D02*
X128645228Y-38065332D01*
X129121419Y-36541523D02*
X129121419Y-37112951D01*
X129121419Y-36827237D02*
X128121419Y-36827237D01*
X128121419Y-36827237D02*
X128264276Y-36922475D01*
X128264276Y-36922475D02*
X128359514Y-37017713D01*
X128359514Y-37017713D02*
X128407133Y-37112951D01*
X128121419Y-35636761D02*
X128121419Y-36112951D01*
X128121419Y-36112951D02*
X128597609Y-36160570D01*
X128597609Y-36160570D02*
X128549990Y-36112951D01*
X128549990Y-36112951D02*
X128502371Y-36017713D01*
X128502371Y-36017713D02*
X128502371Y-35779618D01*
X128502371Y-35779618D02*
X128549990Y-35684380D01*
X128549990Y-35684380D02*
X128597609Y-35636761D01*
X128597609Y-35636761D02*
X128692847Y-35589142D01*
X128692847Y-35589142D02*
X128930942Y-35589142D01*
X128930942Y-35589142D02*
X129026180Y-35636761D01*
X129026180Y-35636761D02*
X129073800Y-35684380D01*
X129073800Y-35684380D02*
X129121419Y-35779618D01*
X129121419Y-35779618D02*
X129121419Y-36017713D01*
X129121419Y-36017713D02*
X129073800Y-36112951D01*
X129073800Y-36112951D02*
X129026180Y-36160570D01*
X128121419Y-48622094D02*
X128121419Y-48050666D01*
X129121419Y-48336380D02*
X128121419Y-48336380D01*
X129121419Y-47717332D02*
X128121419Y-47717332D01*
X128121419Y-47717332D02*
X128121419Y-47336380D01*
X128121419Y-47336380D02*
X128169038Y-47241142D01*
X128169038Y-47241142D02*
X128216657Y-47193523D01*
X128216657Y-47193523D02*
X128311895Y-47145904D01*
X128311895Y-47145904D02*
X128454752Y-47145904D01*
X128454752Y-47145904D02*
X128549990Y-47193523D01*
X128549990Y-47193523D02*
X128597609Y-47241142D01*
X128597609Y-47241142D02*
X128645228Y-47336380D01*
X128645228Y-47336380D02*
X128645228Y-47717332D01*
X128121419Y-46812570D02*
X128121419Y-46193523D01*
X128121419Y-46193523D02*
X128502371Y-46526856D01*
X128502371Y-46526856D02*
X128502371Y-46383999D01*
X128502371Y-46383999D02*
X128549990Y-46288761D01*
X128549990Y-46288761D02*
X128597609Y-46241142D01*
X128597609Y-46241142D02*
X128692847Y-46193523D01*
X128692847Y-46193523D02*
X128930942Y-46193523D01*
X128930942Y-46193523D02*
X129026180Y-46241142D01*
X129026180Y-46241142D02*
X129073800Y-46288761D01*
X129073800Y-46288761D02*
X129121419Y-46383999D01*
X129121419Y-46383999D02*
X129121419Y-46669713D01*
X129121419Y-46669713D02*
X129073800Y-46764951D01*
X129073800Y-46764951D02*
X129026180Y-46812570D01*
X128454752Y-45336380D02*
X129121419Y-45336380D01*
X128073800Y-45574475D02*
X128788085Y-45812570D01*
X128788085Y-45812570D02*
X128788085Y-45193523D01*
X150981419Y-38970094D02*
X150981419Y-38398666D01*
X151981419Y-38684380D02*
X150981419Y-38684380D01*
X151981419Y-38065332D02*
X150981419Y-38065332D01*
X150981419Y-38065332D02*
X150981419Y-37684380D01*
X150981419Y-37684380D02*
X151029038Y-37589142D01*
X151029038Y-37589142D02*
X151076657Y-37541523D01*
X151076657Y-37541523D02*
X151171895Y-37493904D01*
X151171895Y-37493904D02*
X151314752Y-37493904D01*
X151314752Y-37493904D02*
X151409990Y-37541523D01*
X151409990Y-37541523D02*
X151457609Y-37589142D01*
X151457609Y-37589142D02*
X151505228Y-37684380D01*
X151505228Y-37684380D02*
X151505228Y-38065332D01*
X151076657Y-37112951D02*
X151029038Y-37065332D01*
X151029038Y-37065332D02*
X150981419Y-36970094D01*
X150981419Y-36970094D02*
X150981419Y-36731999D01*
X150981419Y-36731999D02*
X151029038Y-36636761D01*
X151029038Y-36636761D02*
X151076657Y-36589142D01*
X151076657Y-36589142D02*
X151171895Y-36541523D01*
X151171895Y-36541523D02*
X151267133Y-36541523D01*
X151267133Y-36541523D02*
X151409990Y-36589142D01*
X151409990Y-36589142D02*
X151981419Y-37160570D01*
X151981419Y-37160570D02*
X151981419Y-36541523D01*
X150981419Y-35922475D02*
X150981419Y-35827237D01*
X150981419Y-35827237D02*
X151029038Y-35731999D01*
X151029038Y-35731999D02*
X151076657Y-35684380D01*
X151076657Y-35684380D02*
X151171895Y-35636761D01*
X151171895Y-35636761D02*
X151362371Y-35589142D01*
X151362371Y-35589142D02*
X151600466Y-35589142D01*
X151600466Y-35589142D02*
X151790942Y-35636761D01*
X151790942Y-35636761D02*
X151886180Y-35684380D01*
X151886180Y-35684380D02*
X151933800Y-35731999D01*
X151933800Y-35731999D02*
X151981419Y-35827237D01*
X151981419Y-35827237D02*
X151981419Y-35922475D01*
X151981419Y-35922475D02*
X151933800Y-36017713D01*
X151933800Y-36017713D02*
X151886180Y-36065332D01*
X151886180Y-36065332D02*
X151790942Y-36112951D01*
X151790942Y-36112951D02*
X151600466Y-36160570D01*
X151600466Y-36160570D02*
X151362371Y-36160570D01*
X151362371Y-36160570D02*
X151171895Y-36112951D01*
X151171895Y-36112951D02*
X151076657Y-36065332D01*
X151076657Y-36065332D02*
X151029038Y-36017713D01*
X151029038Y-36017713D02*
X150981419Y-35922475D01*
X145901419Y-38970094D02*
X145901419Y-38398666D01*
X146901419Y-38684380D02*
X145901419Y-38684380D01*
X146901419Y-38065332D02*
X145901419Y-38065332D01*
X145901419Y-38065332D02*
X145901419Y-37684380D01*
X145901419Y-37684380D02*
X145949038Y-37589142D01*
X145949038Y-37589142D02*
X145996657Y-37541523D01*
X145996657Y-37541523D02*
X146091895Y-37493904D01*
X146091895Y-37493904D02*
X146234752Y-37493904D01*
X146234752Y-37493904D02*
X146329990Y-37541523D01*
X146329990Y-37541523D02*
X146377609Y-37589142D01*
X146377609Y-37589142D02*
X146425228Y-37684380D01*
X146425228Y-37684380D02*
X146425228Y-38065332D01*
X145996657Y-37112951D02*
X145949038Y-37065332D01*
X145949038Y-37065332D02*
X145901419Y-36970094D01*
X145901419Y-36970094D02*
X145901419Y-36731999D01*
X145901419Y-36731999D02*
X145949038Y-36636761D01*
X145949038Y-36636761D02*
X145996657Y-36589142D01*
X145996657Y-36589142D02*
X146091895Y-36541523D01*
X146091895Y-36541523D02*
X146187133Y-36541523D01*
X146187133Y-36541523D02*
X146329990Y-36589142D01*
X146329990Y-36589142D02*
X146901419Y-37160570D01*
X146901419Y-37160570D02*
X146901419Y-36541523D01*
X145996657Y-36160570D02*
X145949038Y-36112951D01*
X145949038Y-36112951D02*
X145901419Y-36017713D01*
X145901419Y-36017713D02*
X145901419Y-35779618D01*
X145901419Y-35779618D02*
X145949038Y-35684380D01*
X145949038Y-35684380D02*
X145996657Y-35636761D01*
X145996657Y-35636761D02*
X146091895Y-35589142D01*
X146091895Y-35589142D02*
X146187133Y-35589142D01*
X146187133Y-35589142D02*
X146329990Y-35636761D01*
X146329990Y-35636761D02*
X146901419Y-36208189D01*
X146901419Y-36208189D02*
X146901419Y-35589142D01*
X143361419Y-48622094D02*
X143361419Y-48050666D01*
X144361419Y-48336380D02*
X143361419Y-48336380D01*
X144361419Y-47717332D02*
X143361419Y-47717332D01*
X143361419Y-47717332D02*
X143361419Y-47336380D01*
X143361419Y-47336380D02*
X143409038Y-47241142D01*
X143409038Y-47241142D02*
X143456657Y-47193523D01*
X143456657Y-47193523D02*
X143551895Y-47145904D01*
X143551895Y-47145904D02*
X143694752Y-47145904D01*
X143694752Y-47145904D02*
X143789990Y-47193523D01*
X143789990Y-47193523D02*
X143837609Y-47241142D01*
X143837609Y-47241142D02*
X143885228Y-47336380D01*
X143885228Y-47336380D02*
X143885228Y-47717332D01*
X143456657Y-46764951D02*
X143409038Y-46717332D01*
X143409038Y-46717332D02*
X143361419Y-46622094D01*
X143361419Y-46622094D02*
X143361419Y-46383999D01*
X143361419Y-46383999D02*
X143409038Y-46288761D01*
X143409038Y-46288761D02*
X143456657Y-46241142D01*
X143456657Y-46241142D02*
X143551895Y-46193523D01*
X143551895Y-46193523D02*
X143647133Y-46193523D01*
X143647133Y-46193523D02*
X143789990Y-46241142D01*
X143789990Y-46241142D02*
X144361419Y-46812570D01*
X144361419Y-46812570D02*
X144361419Y-46193523D01*
X143789990Y-45622094D02*
X143742371Y-45717332D01*
X143742371Y-45717332D02*
X143694752Y-45764951D01*
X143694752Y-45764951D02*
X143599514Y-45812570D01*
X143599514Y-45812570D02*
X143551895Y-45812570D01*
X143551895Y-45812570D02*
X143456657Y-45764951D01*
X143456657Y-45764951D02*
X143409038Y-45717332D01*
X143409038Y-45717332D02*
X143361419Y-45622094D01*
X143361419Y-45622094D02*
X143361419Y-45431618D01*
X143361419Y-45431618D02*
X143409038Y-45336380D01*
X143409038Y-45336380D02*
X143456657Y-45288761D01*
X143456657Y-45288761D02*
X143551895Y-45241142D01*
X143551895Y-45241142D02*
X143599514Y-45241142D01*
X143599514Y-45241142D02*
X143694752Y-45288761D01*
X143694752Y-45288761D02*
X143742371Y-45336380D01*
X143742371Y-45336380D02*
X143789990Y-45431618D01*
X143789990Y-45431618D02*
X143789990Y-45622094D01*
X143789990Y-45622094D02*
X143837609Y-45717332D01*
X143837609Y-45717332D02*
X143885228Y-45764951D01*
X143885228Y-45764951D02*
X143980466Y-45812570D01*
X143980466Y-45812570D02*
X144170942Y-45812570D01*
X144170942Y-45812570D02*
X144266180Y-45764951D01*
X144266180Y-45764951D02*
X144313800Y-45717332D01*
X144313800Y-45717332D02*
X144361419Y-45622094D01*
X144361419Y-45622094D02*
X144361419Y-45431618D01*
X144361419Y-45431618D02*
X144313800Y-45336380D01*
X144313800Y-45336380D02*
X144266180Y-45288761D01*
X144266180Y-45288761D02*
X144170942Y-45241142D01*
X144170942Y-45241142D02*
X143980466Y-45241142D01*
X143980466Y-45241142D02*
X143885228Y-45288761D01*
X143885228Y-45288761D02*
X143837609Y-45336380D01*
X143837609Y-45336380D02*
X143789990Y-45431618D01*
X139933245Y-63252739D02*
X140504673Y-63252739D01*
X140218959Y-64252739D02*
X140218959Y-63252739D01*
X140838007Y-64252739D02*
X140838007Y-63252739D01*
X140838007Y-63252739D02*
X141218959Y-63252739D01*
X141218959Y-63252739D02*
X141314197Y-63300358D01*
X141314197Y-63300358D02*
X141361816Y-63347977D01*
X141361816Y-63347977D02*
X141409435Y-63443215D01*
X141409435Y-63443215D02*
X141409435Y-63586072D01*
X141409435Y-63586072D02*
X141361816Y-63681310D01*
X141361816Y-63681310D02*
X141314197Y-63728929D01*
X141314197Y-63728929D02*
X141218959Y-63776548D01*
X141218959Y-63776548D02*
X140838007Y-63776548D01*
X142361816Y-64252739D02*
X141790388Y-64252739D01*
X142076102Y-64252739D02*
X142076102Y-63252739D01*
X142076102Y-63252739D02*
X141980864Y-63395596D01*
X141980864Y-63395596D02*
X141885626Y-63490834D01*
X141885626Y-63490834D02*
X141790388Y-63538453D01*
X143314197Y-64252739D02*
X142742769Y-64252739D01*
X143028483Y-64252739D02*
X143028483Y-63252739D01*
X143028483Y-63252739D02*
X142933245Y-63395596D01*
X142933245Y-63395596D02*
X142838007Y-63490834D01*
X142838007Y-63490834D02*
X142742769Y-63538453D01*
X133201419Y-48622094D02*
X133201419Y-48050666D01*
X134201419Y-48336380D02*
X133201419Y-48336380D01*
X134201419Y-47717332D02*
X133201419Y-47717332D01*
X133201419Y-47717332D02*
X133201419Y-47336380D01*
X133201419Y-47336380D02*
X133249038Y-47241142D01*
X133249038Y-47241142D02*
X133296657Y-47193523D01*
X133296657Y-47193523D02*
X133391895Y-47145904D01*
X133391895Y-47145904D02*
X133534752Y-47145904D01*
X133534752Y-47145904D02*
X133629990Y-47193523D01*
X133629990Y-47193523D02*
X133677609Y-47241142D01*
X133677609Y-47241142D02*
X133725228Y-47336380D01*
X133725228Y-47336380D02*
X133725228Y-47717332D01*
X133201419Y-46812570D02*
X133201419Y-46193523D01*
X133201419Y-46193523D02*
X133582371Y-46526856D01*
X133582371Y-46526856D02*
X133582371Y-46383999D01*
X133582371Y-46383999D02*
X133629990Y-46288761D01*
X133629990Y-46288761D02*
X133677609Y-46241142D01*
X133677609Y-46241142D02*
X133772847Y-46193523D01*
X133772847Y-46193523D02*
X134010942Y-46193523D01*
X134010942Y-46193523D02*
X134106180Y-46241142D01*
X134106180Y-46241142D02*
X134153800Y-46288761D01*
X134153800Y-46288761D02*
X134201419Y-46383999D01*
X134201419Y-46383999D02*
X134201419Y-46669713D01*
X134201419Y-46669713D02*
X134153800Y-46764951D01*
X134153800Y-46764951D02*
X134106180Y-46812570D01*
X133296657Y-45812570D02*
X133249038Y-45764951D01*
X133249038Y-45764951D02*
X133201419Y-45669713D01*
X133201419Y-45669713D02*
X133201419Y-45431618D01*
X133201419Y-45431618D02*
X133249038Y-45336380D01*
X133249038Y-45336380D02*
X133296657Y-45288761D01*
X133296657Y-45288761D02*
X133391895Y-45241142D01*
X133391895Y-45241142D02*
X133487133Y-45241142D01*
X133487133Y-45241142D02*
X133629990Y-45288761D01*
X133629990Y-45288761D02*
X134201419Y-45860189D01*
X134201419Y-45860189D02*
X134201419Y-45241142D01*
X142413419Y-129781904D02*
X142413419Y-129210476D01*
X143413419Y-129496190D02*
X142413419Y-129496190D01*
X143413419Y-128877142D02*
X142413419Y-128877142D01*
X142413419Y-128877142D02*
X142413419Y-128496190D01*
X142413419Y-128496190D02*
X142461038Y-128400952D01*
X142461038Y-128400952D02*
X142508657Y-128353333D01*
X142508657Y-128353333D02*
X142603895Y-128305714D01*
X142603895Y-128305714D02*
X142746752Y-128305714D01*
X142746752Y-128305714D02*
X142841990Y-128353333D01*
X142841990Y-128353333D02*
X142889609Y-128400952D01*
X142889609Y-128400952D02*
X142937228Y-128496190D01*
X142937228Y-128496190D02*
X142937228Y-128877142D01*
X142746752Y-127448571D02*
X143413419Y-127448571D01*
X142365800Y-127686666D02*
X143080085Y-127924761D01*
X143080085Y-127924761D02*
X143080085Y-127305714D01*
X138281419Y-48622094D02*
X138281419Y-48050666D01*
X139281419Y-48336380D02*
X138281419Y-48336380D01*
X139281419Y-47717332D02*
X138281419Y-47717332D01*
X138281419Y-47717332D02*
X138281419Y-47336380D01*
X138281419Y-47336380D02*
X138329038Y-47241142D01*
X138329038Y-47241142D02*
X138376657Y-47193523D01*
X138376657Y-47193523D02*
X138471895Y-47145904D01*
X138471895Y-47145904D02*
X138614752Y-47145904D01*
X138614752Y-47145904D02*
X138709990Y-47193523D01*
X138709990Y-47193523D02*
X138757609Y-47241142D01*
X138757609Y-47241142D02*
X138805228Y-47336380D01*
X138805228Y-47336380D02*
X138805228Y-47717332D01*
X138281419Y-46812570D02*
X138281419Y-46193523D01*
X138281419Y-46193523D02*
X138662371Y-46526856D01*
X138662371Y-46526856D02*
X138662371Y-46383999D01*
X138662371Y-46383999D02*
X138709990Y-46288761D01*
X138709990Y-46288761D02*
X138757609Y-46241142D01*
X138757609Y-46241142D02*
X138852847Y-46193523D01*
X138852847Y-46193523D02*
X139090942Y-46193523D01*
X139090942Y-46193523D02*
X139186180Y-46241142D01*
X139186180Y-46241142D02*
X139233800Y-46288761D01*
X139233800Y-46288761D02*
X139281419Y-46383999D01*
X139281419Y-46383999D02*
X139281419Y-46669713D01*
X139281419Y-46669713D02*
X139233800Y-46764951D01*
X139233800Y-46764951D02*
X139186180Y-46812570D01*
X138281419Y-45574475D02*
X138281419Y-45479237D01*
X138281419Y-45479237D02*
X138329038Y-45383999D01*
X138329038Y-45383999D02*
X138376657Y-45336380D01*
X138376657Y-45336380D02*
X138471895Y-45288761D01*
X138471895Y-45288761D02*
X138662371Y-45241142D01*
X138662371Y-45241142D02*
X138900466Y-45241142D01*
X138900466Y-45241142D02*
X139090942Y-45288761D01*
X139090942Y-45288761D02*
X139186180Y-45336380D01*
X139186180Y-45336380D02*
X139233800Y-45383999D01*
X139233800Y-45383999D02*
X139281419Y-45479237D01*
X139281419Y-45479237D02*
X139281419Y-45574475D01*
X139281419Y-45574475D02*
X139233800Y-45669713D01*
X139233800Y-45669713D02*
X139186180Y-45717332D01*
X139186180Y-45717332D02*
X139090942Y-45764951D01*
X139090942Y-45764951D02*
X138900466Y-45812570D01*
X138900466Y-45812570D02*
X138662371Y-45812570D01*
X138662371Y-45812570D02*
X138471895Y-45764951D01*
X138471895Y-45764951D02*
X138376657Y-45717332D01*
X138376657Y-45717332D02*
X138329038Y-45669713D01*
X138329038Y-45669713D02*
X138281419Y-45574475D01*
X139933245Y-53092739D02*
X140504673Y-53092739D01*
X140218959Y-54092739D02*
X140218959Y-53092739D01*
X140838007Y-54092739D02*
X140838007Y-53092739D01*
X140838007Y-53092739D02*
X141218959Y-53092739D01*
X141218959Y-53092739D02*
X141314197Y-53140358D01*
X141314197Y-53140358D02*
X141361816Y-53187977D01*
X141361816Y-53187977D02*
X141409435Y-53283215D01*
X141409435Y-53283215D02*
X141409435Y-53426072D01*
X141409435Y-53426072D02*
X141361816Y-53521310D01*
X141361816Y-53521310D02*
X141314197Y-53568929D01*
X141314197Y-53568929D02*
X141218959Y-53616548D01*
X141218959Y-53616548D02*
X140838007Y-53616548D01*
X142361816Y-54092739D02*
X141790388Y-54092739D01*
X142076102Y-54092739D02*
X142076102Y-53092739D01*
X142076102Y-53092739D02*
X141980864Y-53235596D01*
X141980864Y-53235596D02*
X141885626Y-53330834D01*
X141885626Y-53330834D02*
X141790388Y-53378453D01*
X143218959Y-53426072D02*
X143218959Y-54092739D01*
X142980864Y-53045120D02*
X142742769Y-53759405D01*
X142742769Y-53759405D02*
X143361816Y-53759405D01*
X150981419Y-48622094D02*
X150981419Y-48050666D01*
X151981419Y-48336380D02*
X150981419Y-48336380D01*
X151981419Y-47717332D02*
X150981419Y-47717332D01*
X150981419Y-47717332D02*
X150981419Y-47336380D01*
X150981419Y-47336380D02*
X151029038Y-47241142D01*
X151029038Y-47241142D02*
X151076657Y-47193523D01*
X151076657Y-47193523D02*
X151171895Y-47145904D01*
X151171895Y-47145904D02*
X151314752Y-47145904D01*
X151314752Y-47145904D02*
X151409990Y-47193523D01*
X151409990Y-47193523D02*
X151457609Y-47241142D01*
X151457609Y-47241142D02*
X151505228Y-47336380D01*
X151505228Y-47336380D02*
X151505228Y-47717332D01*
X151076657Y-46764951D02*
X151029038Y-46717332D01*
X151029038Y-46717332D02*
X150981419Y-46622094D01*
X150981419Y-46622094D02*
X150981419Y-46383999D01*
X150981419Y-46383999D02*
X151029038Y-46288761D01*
X151029038Y-46288761D02*
X151076657Y-46241142D01*
X151076657Y-46241142D02*
X151171895Y-46193523D01*
X151171895Y-46193523D02*
X151267133Y-46193523D01*
X151267133Y-46193523D02*
X151409990Y-46241142D01*
X151409990Y-46241142D02*
X151981419Y-46812570D01*
X151981419Y-46812570D02*
X151981419Y-46193523D01*
X150981419Y-45288761D02*
X150981419Y-45764951D01*
X150981419Y-45764951D02*
X151457609Y-45812570D01*
X151457609Y-45812570D02*
X151409990Y-45764951D01*
X151409990Y-45764951D02*
X151362371Y-45669713D01*
X151362371Y-45669713D02*
X151362371Y-45431618D01*
X151362371Y-45431618D02*
X151409990Y-45336380D01*
X151409990Y-45336380D02*
X151457609Y-45288761D01*
X151457609Y-45288761D02*
X151552847Y-45241142D01*
X151552847Y-45241142D02*
X151790942Y-45241142D01*
X151790942Y-45241142D02*
X151886180Y-45288761D01*
X151886180Y-45288761D02*
X151933800Y-45336380D01*
X151933800Y-45336380D02*
X151981419Y-45431618D01*
X151981419Y-45431618D02*
X151981419Y-45669713D01*
X151981419Y-45669713D02*
X151933800Y-45764951D01*
X151933800Y-45764951D02*
X151886180Y-45812570D01*
X130661419Y-38970094D02*
X130661419Y-38398666D01*
X131661419Y-38684380D02*
X130661419Y-38684380D01*
X131661419Y-38065332D02*
X130661419Y-38065332D01*
X130661419Y-38065332D02*
X130661419Y-37684380D01*
X130661419Y-37684380D02*
X130709038Y-37589142D01*
X130709038Y-37589142D02*
X130756657Y-37541523D01*
X130756657Y-37541523D02*
X130851895Y-37493904D01*
X130851895Y-37493904D02*
X130994752Y-37493904D01*
X130994752Y-37493904D02*
X131089990Y-37541523D01*
X131089990Y-37541523D02*
X131137609Y-37589142D01*
X131137609Y-37589142D02*
X131185228Y-37684380D01*
X131185228Y-37684380D02*
X131185228Y-38065332D01*
X131661419Y-36541523D02*
X131661419Y-37112951D01*
X131661419Y-36827237D02*
X130661419Y-36827237D01*
X130661419Y-36827237D02*
X130804276Y-36922475D01*
X130804276Y-36922475D02*
X130899514Y-37017713D01*
X130899514Y-37017713D02*
X130947133Y-37112951D01*
X130661419Y-35684380D02*
X130661419Y-35874856D01*
X130661419Y-35874856D02*
X130709038Y-35970094D01*
X130709038Y-35970094D02*
X130756657Y-36017713D01*
X130756657Y-36017713D02*
X130899514Y-36112951D01*
X130899514Y-36112951D02*
X131089990Y-36160570D01*
X131089990Y-36160570D02*
X131470942Y-36160570D01*
X131470942Y-36160570D02*
X131566180Y-36112951D01*
X131566180Y-36112951D02*
X131613800Y-36065332D01*
X131613800Y-36065332D02*
X131661419Y-35970094D01*
X131661419Y-35970094D02*
X131661419Y-35779618D01*
X131661419Y-35779618D02*
X131613800Y-35684380D01*
X131613800Y-35684380D02*
X131566180Y-35636761D01*
X131566180Y-35636761D02*
X131470942Y-35589142D01*
X131470942Y-35589142D02*
X131232847Y-35589142D01*
X131232847Y-35589142D02*
X131137609Y-35636761D01*
X131137609Y-35636761D02*
X131089990Y-35684380D01*
X131089990Y-35684380D02*
X131042371Y-35779618D01*
X131042371Y-35779618D02*
X131042371Y-35970094D01*
X131042371Y-35970094D02*
X131089990Y-36065332D01*
X131089990Y-36065332D02*
X131137609Y-36112951D01*
X131137609Y-36112951D02*
X131232847Y-36160570D01*
X143361419Y-38970094D02*
X143361419Y-38398666D01*
X144361419Y-38684380D02*
X143361419Y-38684380D01*
X144361419Y-38065332D02*
X143361419Y-38065332D01*
X143361419Y-38065332D02*
X143361419Y-37684380D01*
X143361419Y-37684380D02*
X143409038Y-37589142D01*
X143409038Y-37589142D02*
X143456657Y-37541523D01*
X143456657Y-37541523D02*
X143551895Y-37493904D01*
X143551895Y-37493904D02*
X143694752Y-37493904D01*
X143694752Y-37493904D02*
X143789990Y-37541523D01*
X143789990Y-37541523D02*
X143837609Y-37589142D01*
X143837609Y-37589142D02*
X143885228Y-37684380D01*
X143885228Y-37684380D02*
X143885228Y-38065332D01*
X143456657Y-37112951D02*
X143409038Y-37065332D01*
X143409038Y-37065332D02*
X143361419Y-36970094D01*
X143361419Y-36970094D02*
X143361419Y-36731999D01*
X143361419Y-36731999D02*
X143409038Y-36636761D01*
X143409038Y-36636761D02*
X143456657Y-36589142D01*
X143456657Y-36589142D02*
X143551895Y-36541523D01*
X143551895Y-36541523D02*
X143647133Y-36541523D01*
X143647133Y-36541523D02*
X143789990Y-36589142D01*
X143789990Y-36589142D02*
X144361419Y-37160570D01*
X144361419Y-37160570D02*
X144361419Y-36541523D01*
X143361419Y-36208189D02*
X143361419Y-35589142D01*
X143361419Y-35589142D02*
X143742371Y-35922475D01*
X143742371Y-35922475D02*
X143742371Y-35779618D01*
X143742371Y-35779618D02*
X143789990Y-35684380D01*
X143789990Y-35684380D02*
X143837609Y-35636761D01*
X143837609Y-35636761D02*
X143932847Y-35589142D01*
X143932847Y-35589142D02*
X144170942Y-35589142D01*
X144170942Y-35589142D02*
X144266180Y-35636761D01*
X144266180Y-35636761D02*
X144313800Y-35684380D01*
X144313800Y-35684380D02*
X144361419Y-35779618D01*
X144361419Y-35779618D02*
X144361419Y-36065332D01*
X144361419Y-36065332D02*
X144313800Y-36160570D01*
X144313800Y-36160570D02*
X144266180Y-36208189D01*
X111103419Y-129933904D02*
X111103419Y-129362476D01*
X112103419Y-129648190D02*
X111103419Y-129648190D01*
X112103419Y-129029142D02*
X111103419Y-129029142D01*
X111103419Y-129029142D02*
X111103419Y-128648190D01*
X111103419Y-128648190D02*
X111151038Y-128552952D01*
X111151038Y-128552952D02*
X111198657Y-128505333D01*
X111198657Y-128505333D02*
X111293895Y-128457714D01*
X111293895Y-128457714D02*
X111436752Y-128457714D01*
X111436752Y-128457714D02*
X111531990Y-128505333D01*
X111531990Y-128505333D02*
X111579609Y-128552952D01*
X111579609Y-128552952D02*
X111627228Y-128648190D01*
X111627228Y-128648190D02*
X111627228Y-129029142D01*
X111103419Y-127552952D02*
X111103419Y-128029142D01*
X111103419Y-128029142D02*
X111579609Y-128076761D01*
X111579609Y-128076761D02*
X111531990Y-128029142D01*
X111531990Y-128029142D02*
X111484371Y-127933904D01*
X111484371Y-127933904D02*
X111484371Y-127695809D01*
X111484371Y-127695809D02*
X111531990Y-127600571D01*
X111531990Y-127600571D02*
X111579609Y-127552952D01*
X111579609Y-127552952D02*
X111674847Y-127505333D01*
X111674847Y-127505333D02*
X111912942Y-127505333D01*
X111912942Y-127505333D02*
X112008180Y-127552952D01*
X112008180Y-127552952D02*
X112055800Y-127600571D01*
X112055800Y-127600571D02*
X112103419Y-127695809D01*
X112103419Y-127695809D02*
X112103419Y-127933904D01*
X112103419Y-127933904D02*
X112055800Y-128029142D01*
X112055800Y-128029142D02*
X112008180Y-128076761D01*
X124007419Y-129781904D02*
X124007419Y-129210476D01*
X125007419Y-129496190D02*
X124007419Y-129496190D01*
X125007419Y-128877142D02*
X124007419Y-128877142D01*
X124007419Y-128877142D02*
X124007419Y-128496190D01*
X124007419Y-128496190D02*
X124055038Y-128400952D01*
X124055038Y-128400952D02*
X124102657Y-128353333D01*
X124102657Y-128353333D02*
X124197895Y-128305714D01*
X124197895Y-128305714D02*
X124340752Y-128305714D01*
X124340752Y-128305714D02*
X124435990Y-128353333D01*
X124435990Y-128353333D02*
X124483609Y-128400952D01*
X124483609Y-128400952D02*
X124531228Y-128496190D01*
X124531228Y-128496190D02*
X124531228Y-128877142D01*
X124102657Y-127924761D02*
X124055038Y-127877142D01*
X124055038Y-127877142D02*
X124007419Y-127781904D01*
X124007419Y-127781904D02*
X124007419Y-127543809D01*
X124007419Y-127543809D02*
X124055038Y-127448571D01*
X124055038Y-127448571D02*
X124102657Y-127400952D01*
X124102657Y-127400952D02*
X124197895Y-127353333D01*
X124197895Y-127353333D02*
X124293133Y-127353333D01*
X124293133Y-127353333D02*
X124435990Y-127400952D01*
X124435990Y-127400952D02*
X125007419Y-127972380D01*
X125007419Y-127972380D02*
X125007419Y-127353333D01*
X100943419Y-129933904D02*
X100943419Y-129362476D01*
X101943419Y-129648190D02*
X100943419Y-129648190D01*
X101943419Y-129029142D02*
X100943419Y-129029142D01*
X100943419Y-129029142D02*
X100943419Y-128648190D01*
X100943419Y-128648190D02*
X100991038Y-128552952D01*
X100991038Y-128552952D02*
X101038657Y-128505333D01*
X101038657Y-128505333D02*
X101133895Y-128457714D01*
X101133895Y-128457714D02*
X101276752Y-128457714D01*
X101276752Y-128457714D02*
X101371990Y-128505333D01*
X101371990Y-128505333D02*
X101419609Y-128552952D01*
X101419609Y-128552952D02*
X101467228Y-128648190D01*
X101467228Y-128648190D02*
X101467228Y-129029142D01*
X100943419Y-128124380D02*
X100943419Y-127457714D01*
X100943419Y-127457714D02*
X101943419Y-127886285D01*
X145901419Y-48622094D02*
X145901419Y-48050666D01*
X146901419Y-48336380D02*
X145901419Y-48336380D01*
X146901419Y-47717332D02*
X145901419Y-47717332D01*
X145901419Y-47717332D02*
X145901419Y-47336380D01*
X145901419Y-47336380D02*
X145949038Y-47241142D01*
X145949038Y-47241142D02*
X145996657Y-47193523D01*
X145996657Y-47193523D02*
X146091895Y-47145904D01*
X146091895Y-47145904D02*
X146234752Y-47145904D01*
X146234752Y-47145904D02*
X146329990Y-47193523D01*
X146329990Y-47193523D02*
X146377609Y-47241142D01*
X146377609Y-47241142D02*
X146425228Y-47336380D01*
X146425228Y-47336380D02*
X146425228Y-47717332D01*
X145996657Y-46764951D02*
X145949038Y-46717332D01*
X145949038Y-46717332D02*
X145901419Y-46622094D01*
X145901419Y-46622094D02*
X145901419Y-46383999D01*
X145901419Y-46383999D02*
X145949038Y-46288761D01*
X145949038Y-46288761D02*
X145996657Y-46241142D01*
X145996657Y-46241142D02*
X146091895Y-46193523D01*
X146091895Y-46193523D02*
X146187133Y-46193523D01*
X146187133Y-46193523D02*
X146329990Y-46241142D01*
X146329990Y-46241142D02*
X146901419Y-46812570D01*
X146901419Y-46812570D02*
X146901419Y-46193523D01*
X145901419Y-45860189D02*
X145901419Y-45193523D01*
X145901419Y-45193523D02*
X146901419Y-45622094D01*
X152281905Y-63212419D02*
X152853333Y-63212419D01*
X152567619Y-64212419D02*
X152567619Y-63212419D01*
X153186667Y-64212419D02*
X153186667Y-63212419D01*
X153186667Y-63212419D02*
X153567619Y-63212419D01*
X153567619Y-63212419D02*
X153662857Y-63260038D01*
X153662857Y-63260038D02*
X153710476Y-63307657D01*
X153710476Y-63307657D02*
X153758095Y-63402895D01*
X153758095Y-63402895D02*
X153758095Y-63545752D01*
X153758095Y-63545752D02*
X153710476Y-63640990D01*
X153710476Y-63640990D02*
X153662857Y-63688609D01*
X153662857Y-63688609D02*
X153567619Y-63736228D01*
X153567619Y-63736228D02*
X153186667Y-63736228D01*
X154091429Y-63212419D02*
X154710476Y-63212419D01*
X154710476Y-63212419D02*
X154377143Y-63593371D01*
X154377143Y-63593371D02*
X154520000Y-63593371D01*
X154520000Y-63593371D02*
X154615238Y-63640990D01*
X154615238Y-63640990D02*
X154662857Y-63688609D01*
X154662857Y-63688609D02*
X154710476Y-63783847D01*
X154710476Y-63783847D02*
X154710476Y-64021942D01*
X154710476Y-64021942D02*
X154662857Y-64117180D01*
X154662857Y-64117180D02*
X154615238Y-64164800D01*
X154615238Y-64164800D02*
X154520000Y-64212419D01*
X154520000Y-64212419D02*
X154234286Y-64212419D01*
X154234286Y-64212419D02*
X154139048Y-64164800D01*
X154139048Y-64164800D02*
X154091429Y-64117180D01*
X155567619Y-63212419D02*
X155377143Y-63212419D01*
X155377143Y-63212419D02*
X155281905Y-63260038D01*
X155281905Y-63260038D02*
X155234286Y-63307657D01*
X155234286Y-63307657D02*
X155139048Y-63450514D01*
X155139048Y-63450514D02*
X155091429Y-63640990D01*
X155091429Y-63640990D02*
X155091429Y-64021942D01*
X155091429Y-64021942D02*
X155139048Y-64117180D01*
X155139048Y-64117180D02*
X155186667Y-64164800D01*
X155186667Y-64164800D02*
X155281905Y-64212419D01*
X155281905Y-64212419D02*
X155472381Y-64212419D01*
X155472381Y-64212419D02*
X155567619Y-64164800D01*
X155567619Y-64164800D02*
X155615238Y-64117180D01*
X155615238Y-64117180D02*
X155662857Y-64021942D01*
X155662857Y-64021942D02*
X155662857Y-63783847D01*
X155662857Y-63783847D02*
X155615238Y-63688609D01*
X155615238Y-63688609D02*
X155567619Y-63640990D01*
X155567619Y-63640990D02*
X155472381Y-63593371D01*
X155472381Y-63593371D02*
X155281905Y-63593371D01*
X155281905Y-63593371D02*
X155186667Y-63640990D01*
X155186667Y-63640990D02*
X155139048Y-63688609D01*
X155139048Y-63688609D02*
X155091429Y-63783847D01*
X140821419Y-38970094D02*
X140821419Y-38398666D01*
X141821419Y-38684380D02*
X140821419Y-38684380D01*
X141821419Y-38065332D02*
X140821419Y-38065332D01*
X140821419Y-38065332D02*
X140821419Y-37684380D01*
X140821419Y-37684380D02*
X140869038Y-37589142D01*
X140869038Y-37589142D02*
X140916657Y-37541523D01*
X140916657Y-37541523D02*
X141011895Y-37493904D01*
X141011895Y-37493904D02*
X141154752Y-37493904D01*
X141154752Y-37493904D02*
X141249990Y-37541523D01*
X141249990Y-37541523D02*
X141297609Y-37589142D01*
X141297609Y-37589142D02*
X141345228Y-37684380D01*
X141345228Y-37684380D02*
X141345228Y-38065332D01*
X140916657Y-37112951D02*
X140869038Y-37065332D01*
X140869038Y-37065332D02*
X140821419Y-36970094D01*
X140821419Y-36970094D02*
X140821419Y-36731999D01*
X140821419Y-36731999D02*
X140869038Y-36636761D01*
X140869038Y-36636761D02*
X140916657Y-36589142D01*
X140916657Y-36589142D02*
X141011895Y-36541523D01*
X141011895Y-36541523D02*
X141107133Y-36541523D01*
X141107133Y-36541523D02*
X141249990Y-36589142D01*
X141249990Y-36589142D02*
X141821419Y-37160570D01*
X141821419Y-37160570D02*
X141821419Y-36541523D01*
X141154752Y-35684380D02*
X141821419Y-35684380D01*
X140773800Y-35922475D02*
X141488085Y-36160570D01*
X141488085Y-36160570D02*
X141488085Y-35541523D01*
X148441419Y-48622094D02*
X148441419Y-48050666D01*
X149441419Y-48336380D02*
X148441419Y-48336380D01*
X149441419Y-47717332D02*
X148441419Y-47717332D01*
X148441419Y-47717332D02*
X148441419Y-47336380D01*
X148441419Y-47336380D02*
X148489038Y-47241142D01*
X148489038Y-47241142D02*
X148536657Y-47193523D01*
X148536657Y-47193523D02*
X148631895Y-47145904D01*
X148631895Y-47145904D02*
X148774752Y-47145904D01*
X148774752Y-47145904D02*
X148869990Y-47193523D01*
X148869990Y-47193523D02*
X148917609Y-47241142D01*
X148917609Y-47241142D02*
X148965228Y-47336380D01*
X148965228Y-47336380D02*
X148965228Y-47717332D01*
X148536657Y-46764951D02*
X148489038Y-46717332D01*
X148489038Y-46717332D02*
X148441419Y-46622094D01*
X148441419Y-46622094D02*
X148441419Y-46383999D01*
X148441419Y-46383999D02*
X148489038Y-46288761D01*
X148489038Y-46288761D02*
X148536657Y-46241142D01*
X148536657Y-46241142D02*
X148631895Y-46193523D01*
X148631895Y-46193523D02*
X148727133Y-46193523D01*
X148727133Y-46193523D02*
X148869990Y-46241142D01*
X148869990Y-46241142D02*
X149441419Y-46812570D01*
X149441419Y-46812570D02*
X149441419Y-46193523D01*
X148441419Y-45336380D02*
X148441419Y-45526856D01*
X148441419Y-45526856D02*
X148489038Y-45622094D01*
X148489038Y-45622094D02*
X148536657Y-45669713D01*
X148536657Y-45669713D02*
X148679514Y-45764951D01*
X148679514Y-45764951D02*
X148869990Y-45812570D01*
X148869990Y-45812570D02*
X149250942Y-45812570D01*
X149250942Y-45812570D02*
X149346180Y-45764951D01*
X149346180Y-45764951D02*
X149393800Y-45717332D01*
X149393800Y-45717332D02*
X149441419Y-45622094D01*
X149441419Y-45622094D02*
X149441419Y-45431618D01*
X149441419Y-45431618D02*
X149393800Y-45336380D01*
X149393800Y-45336380D02*
X149346180Y-45288761D01*
X149346180Y-45288761D02*
X149250942Y-45241142D01*
X149250942Y-45241142D02*
X149012847Y-45241142D01*
X149012847Y-45241142D02*
X148917609Y-45288761D01*
X148917609Y-45288761D02*
X148869990Y-45336380D01*
X148869990Y-45336380D02*
X148822371Y-45431618D01*
X148822371Y-45431618D02*
X148822371Y-45622094D01*
X148822371Y-45622094D02*
X148869990Y-45717332D01*
X148869990Y-45717332D02*
X148917609Y-45764951D01*
X148917609Y-45764951D02*
X149012847Y-45812570D01*
X207907419Y-60661904D02*
X207907419Y-60090476D01*
X208907419Y-60376190D02*
X207907419Y-60376190D01*
X208907419Y-59757142D02*
X207907419Y-59757142D01*
X207907419Y-59757142D02*
X207907419Y-59376190D01*
X207907419Y-59376190D02*
X207955038Y-59280952D01*
X207955038Y-59280952D02*
X208002657Y-59233333D01*
X208002657Y-59233333D02*
X208097895Y-59185714D01*
X208097895Y-59185714D02*
X208240752Y-59185714D01*
X208240752Y-59185714D02*
X208335990Y-59233333D01*
X208335990Y-59233333D02*
X208383609Y-59280952D01*
X208383609Y-59280952D02*
X208431228Y-59376190D01*
X208431228Y-59376190D02*
X208431228Y-59757142D01*
X208907419Y-58709523D02*
X208907419Y-58519047D01*
X208907419Y-58519047D02*
X208859800Y-58423809D01*
X208859800Y-58423809D02*
X208812180Y-58376190D01*
X208812180Y-58376190D02*
X208669323Y-58280952D01*
X208669323Y-58280952D02*
X208478847Y-58233333D01*
X208478847Y-58233333D02*
X208097895Y-58233333D01*
X208097895Y-58233333D02*
X208002657Y-58280952D01*
X208002657Y-58280952D02*
X207955038Y-58328571D01*
X207955038Y-58328571D02*
X207907419Y-58423809D01*
X207907419Y-58423809D02*
X207907419Y-58614285D01*
X207907419Y-58614285D02*
X207955038Y-58709523D01*
X207955038Y-58709523D02*
X208002657Y-58757142D01*
X208002657Y-58757142D02*
X208097895Y-58804761D01*
X208097895Y-58804761D02*
X208335990Y-58804761D01*
X208335990Y-58804761D02*
X208431228Y-58757142D01*
X208431228Y-58757142D02*
X208478847Y-58709523D01*
X208478847Y-58709523D02*
X208526466Y-58614285D01*
X208526466Y-58614285D02*
X208526466Y-58423809D01*
X208526466Y-58423809D02*
X208478847Y-58328571D01*
X208478847Y-58328571D02*
X208431228Y-58280952D01*
X208431228Y-58280952D02*
X208335990Y-58233333D01*
X147493419Y-129781904D02*
X147493419Y-129210476D01*
X148493419Y-129496190D02*
X147493419Y-129496190D01*
X148493419Y-128877142D02*
X147493419Y-128877142D01*
X147493419Y-128877142D02*
X147493419Y-128496190D01*
X147493419Y-128496190D02*
X147541038Y-128400952D01*
X147541038Y-128400952D02*
X147588657Y-128353333D01*
X147588657Y-128353333D02*
X147683895Y-128305714D01*
X147683895Y-128305714D02*
X147826752Y-128305714D01*
X147826752Y-128305714D02*
X147921990Y-128353333D01*
X147921990Y-128353333D02*
X147969609Y-128400952D01*
X147969609Y-128400952D02*
X148017228Y-128496190D01*
X148017228Y-128496190D02*
X148017228Y-128877142D01*
X147493419Y-127972380D02*
X147493419Y-127353333D01*
X147493419Y-127353333D02*
X147874371Y-127686666D01*
X147874371Y-127686666D02*
X147874371Y-127543809D01*
X147874371Y-127543809D02*
X147921990Y-127448571D01*
X147921990Y-127448571D02*
X147969609Y-127400952D01*
X147969609Y-127400952D02*
X148064847Y-127353333D01*
X148064847Y-127353333D02*
X148302942Y-127353333D01*
X148302942Y-127353333D02*
X148398180Y-127400952D01*
X148398180Y-127400952D02*
X148445800Y-127448571D01*
X148445800Y-127448571D02*
X148493419Y-127543809D01*
X148493419Y-127543809D02*
X148493419Y-127829523D01*
X148493419Y-127829523D02*
X148445800Y-127924761D01*
X148445800Y-127924761D02*
X148398180Y-127972380D01*
X133201419Y-38970094D02*
X133201419Y-38398666D01*
X134201419Y-38684380D02*
X133201419Y-38684380D01*
X134201419Y-38065332D02*
X133201419Y-38065332D01*
X133201419Y-38065332D02*
X133201419Y-37684380D01*
X133201419Y-37684380D02*
X133249038Y-37589142D01*
X133249038Y-37589142D02*
X133296657Y-37541523D01*
X133296657Y-37541523D02*
X133391895Y-37493904D01*
X133391895Y-37493904D02*
X133534752Y-37493904D01*
X133534752Y-37493904D02*
X133629990Y-37541523D01*
X133629990Y-37541523D02*
X133677609Y-37589142D01*
X133677609Y-37589142D02*
X133725228Y-37684380D01*
X133725228Y-37684380D02*
X133725228Y-38065332D01*
X134201419Y-36541523D02*
X134201419Y-37112951D01*
X134201419Y-36827237D02*
X133201419Y-36827237D01*
X133201419Y-36827237D02*
X133344276Y-36922475D01*
X133344276Y-36922475D02*
X133439514Y-37017713D01*
X133439514Y-37017713D02*
X133487133Y-37112951D01*
X133201419Y-36208189D02*
X133201419Y-35541523D01*
X133201419Y-35541523D02*
X134201419Y-35970094D01*
X150034000Y-41838000D02*
X147934000Y-41838000D01*
X147934000Y-41838000D02*
X147934000Y-39738000D01*
X147934000Y-39738000D02*
X150034000Y-39738000D01*
X150034000Y-39738000D02*
X150034000Y-41838000D01*
X137334000Y-41838000D02*
X135234000Y-41838000D01*
X135234000Y-41838000D02*
X135234000Y-39738000D01*
X135234000Y-39738000D02*
X137334000Y-39738000D01*
X137334000Y-39738000D02*
X137334000Y-41838000D01*
X146531340Y-57225320D02*
X144431340Y-57225320D01*
X144431340Y-57225320D02*
X144431340Y-55125320D01*
X144431340Y-55125320D02*
X146531340Y-55125320D01*
X146531340Y-55125320D02*
X146531340Y-57225320D01*
X137334000Y-44378000D02*
X135234000Y-44378000D01*
X135234000Y-44378000D02*
X135234000Y-42278000D01*
X135234000Y-42278000D02*
X137334000Y-42278000D01*
X137334000Y-42278000D02*
X137334000Y-44378000D01*
X151260000Y-62280000D02*
X149160000Y-62280000D01*
X149160000Y-62280000D02*
X149160000Y-60180000D01*
X149160000Y-60180000D02*
X151260000Y-60180000D01*
X151260000Y-60180000D02*
X151260000Y-62280000D01*
X107616000Y-125912000D02*
X105516000Y-125912000D01*
X105516000Y-125912000D02*
X105516000Y-123812000D01*
X105516000Y-123812000D02*
X107616000Y-123812000D01*
X107616000Y-123812000D02*
X107616000Y-125912000D01*
X146531340Y-62305320D02*
X144431340Y-62305320D01*
X144431340Y-62305320D02*
X144431340Y-60205320D01*
X144431340Y-60205320D02*
X146531340Y-60205320D01*
X146531340Y-60205320D02*
X146531340Y-62305320D01*
X132254000Y-44378000D02*
X130154000Y-44378000D01*
X130154000Y-44378000D02*
X130154000Y-42278000D01*
X130154000Y-42278000D02*
X132254000Y-42278000D01*
X132254000Y-42278000D02*
X132254000Y-44378000D01*
X139874000Y-41838000D02*
X137774000Y-41838000D01*
X137774000Y-41838000D02*
X137774000Y-39738000D01*
X137774000Y-39738000D02*
X139874000Y-39738000D01*
X139874000Y-39738000D02*
X139874000Y-41838000D01*
X146531340Y-67385320D02*
X144431340Y-67385320D01*
X144431340Y-67385320D02*
X144431340Y-65285320D01*
X144431340Y-65285320D02*
X146531340Y-65285320D01*
X146531340Y-65285320D02*
X146531340Y-67385320D01*
X130680000Y-125760000D02*
X128580000Y-125760000D01*
X128580000Y-125760000D02*
X128580000Y-123660000D01*
X128580000Y-123660000D02*
X130680000Y-123660000D01*
X130680000Y-123660000D02*
X130680000Y-125760000D01*
X146531340Y-59765320D02*
X144431340Y-59765320D01*
X144431340Y-59765320D02*
X144431340Y-57665320D01*
X144431340Y-57665320D02*
X146531340Y-57665320D01*
X146531340Y-57665320D02*
X146531340Y-59765320D01*
X142414000Y-44378000D02*
X140314000Y-44378000D01*
X140314000Y-44378000D02*
X140314000Y-42278000D01*
X140314000Y-42278000D02*
X142414000Y-42278000D01*
X142414000Y-42278000D02*
X142414000Y-44378000D01*
X199340000Y-56640000D02*
X197240000Y-56640000D01*
X197240000Y-56640000D02*
X197240000Y-54540000D01*
X197240000Y-54540000D02*
X199340000Y-54540000D01*
X199340000Y-54540000D02*
X199340000Y-56640000D01*
X183860000Y-118690000D02*
X181760000Y-118690000D01*
X181760000Y-118690000D02*
X181760000Y-116590000D01*
X181760000Y-116590000D02*
X183860000Y-116590000D01*
X183860000Y-116590000D02*
X183860000Y-118690000D01*
X151260000Y-67360000D02*
X149160000Y-67360000D01*
X149160000Y-67360000D02*
X149160000Y-65260000D01*
X149160000Y-65260000D02*
X151260000Y-65260000D01*
X151260000Y-65260000D02*
X151260000Y-67360000D01*
X129714000Y-41838000D02*
X127614000Y-41838000D01*
X127614000Y-41838000D02*
X127614000Y-39738000D01*
X127614000Y-39738000D02*
X129714000Y-39738000D01*
X129714000Y-39738000D02*
X129714000Y-41838000D01*
X129714000Y-44378000D02*
X127614000Y-44378000D01*
X127614000Y-44378000D02*
X127614000Y-42278000D01*
X127614000Y-42278000D02*
X129714000Y-42278000D01*
X129714000Y-42278000D02*
X129714000Y-44378000D01*
X152574000Y-41838000D02*
X150474000Y-41838000D01*
X150474000Y-41838000D02*
X150474000Y-39738000D01*
X150474000Y-39738000D02*
X152574000Y-39738000D01*
X152574000Y-39738000D02*
X152574000Y-41838000D01*
X147494000Y-41838000D02*
X145394000Y-41838000D01*
X145394000Y-41838000D02*
X145394000Y-39738000D01*
X145394000Y-39738000D02*
X147494000Y-39738000D01*
X147494000Y-39738000D02*
X147494000Y-41838000D01*
X144954000Y-44378000D02*
X142854000Y-44378000D01*
X142854000Y-44378000D02*
X142854000Y-42278000D01*
X142854000Y-42278000D02*
X144954000Y-42278000D01*
X144954000Y-42278000D02*
X144954000Y-44378000D01*
X146531340Y-64845320D02*
X144431340Y-64845320D01*
X144431340Y-64845320D02*
X144431340Y-62745320D01*
X144431340Y-62745320D02*
X146531340Y-62745320D01*
X146531340Y-62745320D02*
X146531340Y-64845320D01*
X134794000Y-44378000D02*
X132694000Y-44378000D01*
X132694000Y-44378000D02*
X132694000Y-42278000D01*
X132694000Y-42278000D02*
X134794000Y-42278000D01*
X134794000Y-42278000D02*
X134794000Y-44378000D01*
X144006000Y-125760000D02*
X141906000Y-125760000D01*
X141906000Y-125760000D02*
X141906000Y-123660000D01*
X141906000Y-123660000D02*
X144006000Y-123660000D01*
X144006000Y-123660000D02*
X144006000Y-125760000D01*
X139874000Y-44378000D02*
X137774000Y-44378000D01*
X137774000Y-44378000D02*
X137774000Y-42278000D01*
X137774000Y-42278000D02*
X139874000Y-42278000D01*
X139874000Y-42278000D02*
X139874000Y-44378000D01*
X146531340Y-54685320D02*
X144431340Y-54685320D01*
X144431340Y-54685320D02*
X144431340Y-52585320D01*
X144431340Y-52585320D02*
X146531340Y-52585320D01*
X146531340Y-52585320D02*
X146531340Y-54685320D01*
X152574000Y-44378000D02*
X150474000Y-44378000D01*
X150474000Y-44378000D02*
X150474000Y-42278000D01*
X150474000Y-42278000D02*
X152574000Y-42278000D01*
X152574000Y-42278000D02*
X152574000Y-44378000D01*
X132254000Y-41838000D02*
X130154000Y-41838000D01*
X130154000Y-41838000D02*
X130154000Y-39738000D01*
X130154000Y-39738000D02*
X132254000Y-39738000D01*
X132254000Y-39738000D02*
X132254000Y-41838000D01*
X144954000Y-41838000D02*
X142854000Y-41838000D01*
X142854000Y-41838000D02*
X142854000Y-39738000D01*
X142854000Y-39738000D02*
X144954000Y-39738000D01*
X144954000Y-39738000D02*
X144954000Y-41838000D01*
X112696000Y-125912000D02*
X110596000Y-125912000D01*
X110596000Y-125912000D02*
X110596000Y-123812000D01*
X110596000Y-123812000D02*
X112696000Y-123812000D01*
X112696000Y-123812000D02*
X112696000Y-125912000D01*
X125600000Y-125760000D02*
X123500000Y-125760000D01*
X123500000Y-125760000D02*
X123500000Y-123660000D01*
X123500000Y-123660000D02*
X125600000Y-123660000D01*
X125600000Y-123660000D02*
X125600000Y-125760000D01*
X102536000Y-125912000D02*
X100436000Y-125912000D01*
X100436000Y-125912000D02*
X100436000Y-123812000D01*
X100436000Y-123812000D02*
X102536000Y-123812000D01*
X102536000Y-123812000D02*
X102536000Y-125912000D01*
X147494000Y-44378000D02*
X145394000Y-44378000D01*
X145394000Y-44378000D02*
X145394000Y-42278000D01*
X145394000Y-42278000D02*
X147494000Y-42278000D01*
X147494000Y-42278000D02*
X147494000Y-44378000D01*
X151260000Y-64820000D02*
X149160000Y-64820000D01*
X149160000Y-64820000D02*
X149160000Y-62720000D01*
X149160000Y-62720000D02*
X151260000Y-62720000D01*
X151260000Y-62720000D02*
X151260000Y-64820000D01*
X142414000Y-41838000D02*
X140314000Y-41838000D01*
X140314000Y-41838000D02*
X140314000Y-39738000D01*
X140314000Y-39738000D02*
X142414000Y-39738000D01*
X142414000Y-39738000D02*
X142414000Y-41838000D01*
X150034000Y-44378000D02*
X147934000Y-44378000D01*
X147934000Y-44378000D02*
X147934000Y-42278000D01*
X147934000Y-42278000D02*
X150034000Y-42278000D01*
X150034000Y-42278000D02*
X150034000Y-44378000D01*
X209500000Y-56640000D02*
X207400000Y-56640000D01*
X207400000Y-56640000D02*
X207400000Y-54540000D01*
X207400000Y-54540000D02*
X209500000Y-54540000D01*
X209500000Y-54540000D02*
X209500000Y-56640000D01*
X149086000Y-125760000D02*
X146986000Y-125760000D01*
X146986000Y-125760000D02*
X146986000Y-123660000D01*
X146986000Y-123660000D02*
X149086000Y-123660000D01*
X149086000Y-123660000D02*
X149086000Y-125760000D01*
X134794000Y-41838000D02*
X132694000Y-41838000D01*
X132694000Y-41838000D02*
X132694000Y-39738000D01*
X132694000Y-39738000D02*
X134794000Y-39738000D01*
X134794000Y-39738000D02*
X134794000Y-41838000D01*
%LPC*%
D13*
X209535000Y-133785000D03*
X209535000Y-43785000D03*
X89535000Y-43785000D03*
X89535000Y-133785000D03*
D14*
X148984000Y-40788000D03*
X136284000Y-40788000D03*
X145481340Y-56175320D03*
X136284000Y-43328000D03*
X150210000Y-61230000D03*
X106566000Y-124862000D03*
X145481340Y-61255320D03*
X131204000Y-43328000D03*
X138824000Y-40788000D03*
X145481340Y-66335320D03*
X129630000Y-124710000D03*
X145481340Y-58715320D03*
X141364000Y-43328000D03*
X198290000Y-55590000D03*
X182810000Y-117640000D03*
X150210000Y-66310000D03*
X128664000Y-40788000D03*
X128664000Y-43328000D03*
X151524000Y-40788000D03*
X146444000Y-40788000D03*
X143904000Y-43328000D03*
X145481340Y-63795320D03*
X133744000Y-43328000D03*
X142956000Y-124710000D03*
X138824000Y-43328000D03*
X145481340Y-53635320D03*
X151524000Y-43328000D03*
X131204000Y-40788000D03*
X143904000Y-40788000D03*
X111646000Y-124862000D03*
X124550000Y-124710000D03*
X101486000Y-124862000D03*
X146444000Y-43328000D03*
X150210000Y-63770000D03*
X141364000Y-40788000D03*
X148984000Y-43328000D03*
X208450000Y-55590000D03*
X148036000Y-124710000D03*
X133744000Y-40788000D03*
D15*
X113195000Y-100670000D03*
D16*
X113195000Y-98130000D03*
X110655000Y-100670000D03*
X110655000Y-98130000D03*
X108115000Y-100670000D03*
X108115000Y-98130000D03*
X105575000Y-100670000D03*
X105575000Y-98130000D03*
X103035000Y-100670000D03*
X103035000Y-98130000D03*
D15*
X209715000Y-84070000D03*
D16*
X209715000Y-86610000D03*
X209715000Y-89150000D03*
D15*
X90335000Y-72095000D03*
D16*
X90335000Y-74635000D03*
X92875000Y-72095000D03*
X92875000Y-74635000D03*
X95415000Y-72095000D03*
X95415000Y-74635000D03*
X97955000Y-72095000D03*
X97955000Y-74635000D03*
X100495000Y-72095000D03*
X100495000Y-74635000D03*
X103035000Y-72095000D03*
X103035000Y-74635000D03*
X105575000Y-72095000D03*
X105575000Y-74635000D03*
X108115000Y-72095000D03*
X108115000Y-74635000D03*
X110655000Y-72095000D03*
X110655000Y-74635000D03*
X113195000Y-72095000D03*
X113195000Y-74635000D03*
D15*
X113195000Y-87335000D03*
D16*
X110655000Y-87335000D03*
X108115000Y-87335000D03*
X105575000Y-87335000D03*
X103035000Y-87335000D03*
X100495000Y-87335000D03*
%LPD*%
M02*
