G04 #@! TF.GenerationSoftware,KiCad,Pcbnew,7.0.7-7.0.7~ubuntu22.04.1*
G04 #@! TF.CreationDate,2023-09-16T20:12:51-03:00*
G04 #@! TF.ProjectId,EQfixture,45516669-7874-4757-9265-2e6b69636164,rev?*
G04 #@! TF.SameCoordinates,Original*
G04 #@! TF.FileFunction,Soldermask,Bot*
G04 #@! TF.FilePolarity,Negative*
%FSLAX46Y46*%
G04 Gerber Fmt 4.6, Leading zero omitted, Abs format (unit mm)*
G04 Created by KiCad (PCBNEW 7.0.7-7.0.7~ubuntu22.04.1) date 2023-09-16 20:12:51*
%MOMM*%
%LPD*%
G01*
G04 APERTURE LIST*
G04 Aperture macros list*
%AMRoundRect*
0 Rectangle with rounded corners*
0 $1 Rounding radius*
0 $2 $3 $4 $5 $6 $7 $8 $9 X,Y pos of 4 corners*
0 Add a 4 corners polygon primitive as box body*
4,1,4,$2,$3,$4,$5,$6,$7,$8,$9,$2,$3,0*
0 Add four circle primitives for the rounded corners*
1,1,$1+$1,$2,$3*
1,1,$1+$1,$4,$5*
1,1,$1+$1,$6,$7*
1,1,$1+$1,$8,$9*
0 Add four rect primitives between the rounded corners*
20,1,$1+$1,$2,$3,$4,$5,0*
20,1,$1+$1,$4,$5,$6,$7,0*
20,1,$1+$1,$6,$7,$8,$9,0*
20,1,$1+$1,$8,$9,$2,$3,0*%
G04 Aperture macros list end*
%ADD10C,6.400000*%
%ADD11RoundRect,0.278871X-0.571129X-0.571129X0.571129X-0.571129X0.571129X0.571129X-0.571129X0.571129X0*%
%ADD12R,1.700000X1.700000*%
%ADD13O,1.700000X1.700000*%
G04 APERTURE END LIST*
D10*
X209535000Y-133785000D03*
X209535000Y-43785000D03*
X89535000Y-43785000D03*
X89535000Y-133785000D03*
D11*
X148984000Y-40788000D03*
X136284000Y-40788000D03*
X145481340Y-56175320D03*
X136284000Y-43328000D03*
X150210000Y-61230000D03*
X106566000Y-124862000D03*
X145481340Y-61255320D03*
X131204000Y-43328000D03*
X138824000Y-40788000D03*
X145481340Y-66335320D03*
X129630000Y-124710000D03*
X145481340Y-58715320D03*
X141364000Y-43328000D03*
X198290000Y-55590000D03*
X182810000Y-117640000D03*
X150210000Y-66310000D03*
X128664000Y-40788000D03*
X128664000Y-43328000D03*
X151524000Y-40788000D03*
X146444000Y-40788000D03*
X143904000Y-43328000D03*
X145481340Y-63795320D03*
X133744000Y-43328000D03*
X142956000Y-124710000D03*
X138824000Y-43328000D03*
X145481340Y-53635320D03*
X151524000Y-43328000D03*
X131204000Y-40788000D03*
X143904000Y-40788000D03*
X111646000Y-124862000D03*
X124550000Y-124710000D03*
X101486000Y-124862000D03*
X146444000Y-43328000D03*
X150210000Y-63770000D03*
X141364000Y-40788000D03*
X148984000Y-43328000D03*
X208450000Y-55590000D03*
X148036000Y-124710000D03*
X133744000Y-40788000D03*
D12*
X113195000Y-100670000D03*
D13*
X113195000Y-98130000D03*
X110655000Y-100670000D03*
X110655000Y-98130000D03*
X108115000Y-100670000D03*
X108115000Y-98130000D03*
X105575000Y-100670000D03*
X105575000Y-98130000D03*
X103035000Y-100670000D03*
X103035000Y-98130000D03*
D12*
X209715000Y-84070000D03*
D13*
X209715000Y-86610000D03*
X209715000Y-89150000D03*
D12*
X90335000Y-72095000D03*
D13*
X90335000Y-74635000D03*
X92875000Y-72095000D03*
X92875000Y-74635000D03*
X95415000Y-72095000D03*
X95415000Y-74635000D03*
X97955000Y-72095000D03*
X97955000Y-74635000D03*
X100495000Y-72095000D03*
X100495000Y-74635000D03*
X103035000Y-72095000D03*
X103035000Y-74635000D03*
X105575000Y-72095000D03*
X105575000Y-74635000D03*
X108115000Y-72095000D03*
X108115000Y-74635000D03*
X110655000Y-72095000D03*
X110655000Y-74635000D03*
X113195000Y-72095000D03*
X113195000Y-74635000D03*
D12*
X113195000Y-87335000D03*
D13*
X110655000Y-87335000D03*
X108115000Y-87335000D03*
X105575000Y-87335000D03*
X103035000Y-87335000D03*
X100495000Y-87335000D03*
M02*
