G04 #@! TF.GenerationSoftware,KiCad,Pcbnew,7.0.7-7.0.7~ubuntu22.04.1*
G04 #@! TF.CreationDate,2023-09-16T20:12:51-03:00*
G04 #@! TF.ProjectId,EQfixture,45516669-7874-4757-9265-2e6b69636164,rev?*
G04 #@! TF.SameCoordinates,Original*
G04 #@! TF.FileFunction,Legend,Bot*
G04 #@! TF.FilePolarity,Positive*
%FSLAX46Y46*%
G04 Gerber Fmt 4.6, Leading zero omitted, Abs format (unit mm)*
G04 Created by KiCad (PCBNEW 7.0.7-7.0.7~ubuntu22.04.1) date 2023-09-16 20:12:51*
%MOMM*%
%LPD*%
G01*
G04 APERTURE LIST*
G04 Aperture macros list*
%AMRoundRect*
0 Rectangle with rounded corners*
0 $1 Rounding radius*
0 $2 $3 $4 $5 $6 $7 $8 $9 X,Y pos of 4 corners*
0 Add a 4 corners polygon primitive as box body*
4,1,4,$2,$3,$4,$5,$6,$7,$8,$9,$2,$3,0*
0 Add four circle primitives for the rounded corners*
1,1,$1+$1,$2,$3*
1,1,$1+$1,$4,$5*
1,1,$1+$1,$6,$7*
1,1,$1+$1,$8,$9*
0 Add four rect primitives between the rounded corners*
20,1,$1+$1,$2,$3,$4,$5,0*
20,1,$1+$1,$4,$5,$6,$7,0*
20,1,$1+$1,$6,$7,$8,$9,0*
20,1,$1+$1,$8,$9,$2,$3,0*%
G04 Aperture macros list end*
%ADD10C,0.304800*%
%ADD11C,0.150000*%
%ADD12C,0.100000*%
%ADD13C,0.120000*%
%ADD14C,6.400000*%
%ADD15RoundRect,0.278871X-0.571129X-0.571129X0.571129X-0.571129X0.571129X0.571129X-0.571129X0.571129X0*%
%ADD16R,1.700000X1.700000*%
%ADD17O,1.700000X1.700000*%
G04 APERTURE END LIST*
D10*
X198974428Y-133490181D02*
X198974428Y-134578752D01*
X198974428Y-134578752D02*
X199046999Y-134796467D01*
X199046999Y-134796467D02*
X199192142Y-134941610D01*
X199192142Y-134941610D02*
X199409856Y-135014181D01*
X199409856Y-135014181D02*
X199554999Y-135014181D01*
X197522999Y-135014181D02*
X198248713Y-135014181D01*
X198248713Y-135014181D02*
X198248713Y-133490181D01*
X196144142Y-134869038D02*
X196216714Y-134941610D01*
X196216714Y-134941610D02*
X196434428Y-135014181D01*
X196434428Y-135014181D02*
X196579571Y-135014181D01*
X196579571Y-135014181D02*
X196797285Y-134941610D01*
X196797285Y-134941610D02*
X196942428Y-134796467D01*
X196942428Y-134796467D02*
X197014999Y-134651324D01*
X197014999Y-134651324D02*
X197087571Y-134361038D01*
X197087571Y-134361038D02*
X197087571Y-134143324D01*
X197087571Y-134143324D02*
X197014999Y-133853038D01*
X197014999Y-133853038D02*
X196942428Y-133707895D01*
X196942428Y-133707895D02*
X196797285Y-133562752D01*
X196797285Y-133562752D02*
X196579571Y-133490181D01*
X196579571Y-133490181D02*
X196434428Y-133490181D01*
X196434428Y-133490181D02*
X196216714Y-133562752D01*
X196216714Y-133562752D02*
X196144142Y-133635324D01*
X195055571Y-133490181D02*
X195055571Y-134578752D01*
X195055571Y-134578752D02*
X195128142Y-134796467D01*
X195128142Y-134796467D02*
X195273285Y-134941610D01*
X195273285Y-134941610D02*
X195490999Y-135014181D01*
X195490999Y-135014181D02*
X195636142Y-135014181D01*
X193604142Y-135014181D02*
X194329856Y-135014181D01*
X194329856Y-135014181D02*
X194329856Y-133490181D01*
X192225285Y-134869038D02*
X192297857Y-134941610D01*
X192297857Y-134941610D02*
X192515571Y-135014181D01*
X192515571Y-135014181D02*
X192660714Y-135014181D01*
X192660714Y-135014181D02*
X192878428Y-134941610D01*
X192878428Y-134941610D02*
X193023571Y-134796467D01*
X193023571Y-134796467D02*
X193096142Y-134651324D01*
X193096142Y-134651324D02*
X193168714Y-134361038D01*
X193168714Y-134361038D02*
X193168714Y-134143324D01*
X193168714Y-134143324D02*
X193096142Y-133853038D01*
X193096142Y-133853038D02*
X193023571Y-133707895D01*
X193023571Y-133707895D02*
X192878428Y-133562752D01*
X192878428Y-133562752D02*
X192660714Y-133490181D01*
X192660714Y-133490181D02*
X192515571Y-133490181D01*
X192515571Y-133490181D02*
X192297857Y-133562752D01*
X192297857Y-133562752D02*
X192225285Y-133635324D01*
X191136714Y-133490181D02*
X191136714Y-134578752D01*
X191136714Y-134578752D02*
X191209285Y-134796467D01*
X191209285Y-134796467D02*
X191354428Y-134941610D01*
X191354428Y-134941610D02*
X191572142Y-135014181D01*
X191572142Y-135014181D02*
X191717285Y-135014181D01*
X189685285Y-135014181D02*
X190410999Y-135014181D01*
X190410999Y-135014181D02*
X190410999Y-133490181D01*
X188306428Y-134869038D02*
X188379000Y-134941610D01*
X188379000Y-134941610D02*
X188596714Y-135014181D01*
X188596714Y-135014181D02*
X188741857Y-135014181D01*
X188741857Y-135014181D02*
X188959571Y-134941610D01*
X188959571Y-134941610D02*
X189104714Y-134796467D01*
X189104714Y-134796467D02*
X189177285Y-134651324D01*
X189177285Y-134651324D02*
X189249857Y-134361038D01*
X189249857Y-134361038D02*
X189249857Y-134143324D01*
X189249857Y-134143324D02*
X189177285Y-133853038D01*
X189177285Y-133853038D02*
X189104714Y-133707895D01*
X189104714Y-133707895D02*
X188959571Y-133562752D01*
X188959571Y-133562752D02*
X188741857Y-133490181D01*
X188741857Y-133490181D02*
X188596714Y-133490181D01*
X188596714Y-133490181D02*
X188379000Y-133562752D01*
X188379000Y-133562752D02*
X188306428Y-133635324D01*
X187217857Y-133490181D02*
X187217857Y-134578752D01*
X187217857Y-134578752D02*
X187290428Y-134796467D01*
X187290428Y-134796467D02*
X187435571Y-134941610D01*
X187435571Y-134941610D02*
X187653285Y-135014181D01*
X187653285Y-135014181D02*
X187798428Y-135014181D01*
X185766428Y-135014181D02*
X186492142Y-135014181D01*
X186492142Y-135014181D02*
X186492142Y-133490181D01*
X184387571Y-134869038D02*
X184460143Y-134941610D01*
X184460143Y-134941610D02*
X184677857Y-135014181D01*
X184677857Y-135014181D02*
X184823000Y-135014181D01*
X184823000Y-135014181D02*
X185040714Y-134941610D01*
X185040714Y-134941610D02*
X185185857Y-134796467D01*
X185185857Y-134796467D02*
X185258428Y-134651324D01*
X185258428Y-134651324D02*
X185331000Y-134361038D01*
X185331000Y-134361038D02*
X185331000Y-134143324D01*
X185331000Y-134143324D02*
X185258428Y-133853038D01*
X185258428Y-133853038D02*
X185185857Y-133707895D01*
X185185857Y-133707895D02*
X185040714Y-133562752D01*
X185040714Y-133562752D02*
X184823000Y-133490181D01*
X184823000Y-133490181D02*
X184677857Y-133490181D01*
X184677857Y-133490181D02*
X184460143Y-133562752D01*
X184460143Y-133562752D02*
X184387571Y-133635324D01*
D11*
X113528333Y-95044819D02*
X113528333Y-95759104D01*
X113528333Y-95759104D02*
X113575952Y-95901961D01*
X113575952Y-95901961D02*
X113671190Y-95997200D01*
X113671190Y-95997200D02*
X113814047Y-96044819D01*
X113814047Y-96044819D02*
X113909285Y-96044819D01*
X113099761Y-95140057D02*
X113052142Y-95092438D01*
X113052142Y-95092438D02*
X112956904Y-95044819D01*
X112956904Y-95044819D02*
X112718809Y-95044819D01*
X112718809Y-95044819D02*
X112623571Y-95092438D01*
X112623571Y-95092438D02*
X112575952Y-95140057D01*
X112575952Y-95140057D02*
X112528333Y-95235295D01*
X112528333Y-95235295D02*
X112528333Y-95330533D01*
X112528333Y-95330533D02*
X112575952Y-95473390D01*
X112575952Y-95473390D02*
X113147380Y-96044819D01*
X113147380Y-96044819D02*
X112528333Y-96044819D01*
X210048333Y-81194819D02*
X210048333Y-81909104D01*
X210048333Y-81909104D02*
X210095952Y-82051961D01*
X210095952Y-82051961D02*
X210191190Y-82147200D01*
X210191190Y-82147200D02*
X210334047Y-82194819D01*
X210334047Y-82194819D02*
X210429285Y-82194819D01*
X209143571Y-81528152D02*
X209143571Y-82194819D01*
X209381666Y-81147200D02*
X209619761Y-81861485D01*
X209619761Y-81861485D02*
X209000714Y-81861485D01*
X113608333Y-68284819D02*
X113608333Y-68999104D01*
X113608333Y-68999104D02*
X113655952Y-69141961D01*
X113655952Y-69141961D02*
X113751190Y-69237200D01*
X113751190Y-69237200D02*
X113894047Y-69284819D01*
X113894047Y-69284819D02*
X113989285Y-69284819D01*
X112608333Y-69284819D02*
X113179761Y-69284819D01*
X112894047Y-69284819D02*
X112894047Y-68284819D01*
X112894047Y-68284819D02*
X112989285Y-68427676D01*
X112989285Y-68427676D02*
X113084523Y-68522914D01*
X113084523Y-68522914D02*
X113179761Y-68570533D01*
X113603333Y-83524819D02*
X113603333Y-84239104D01*
X113603333Y-84239104D02*
X113650952Y-84381961D01*
X113650952Y-84381961D02*
X113746190Y-84477200D01*
X113746190Y-84477200D02*
X113889047Y-84524819D01*
X113889047Y-84524819D02*
X113984285Y-84524819D01*
X113222380Y-83524819D02*
X112603333Y-83524819D01*
X112603333Y-83524819D02*
X112936666Y-83905771D01*
X112936666Y-83905771D02*
X112793809Y-83905771D01*
X112793809Y-83905771D02*
X112698571Y-83953390D01*
X112698571Y-83953390D02*
X112650952Y-84001009D01*
X112650952Y-84001009D02*
X112603333Y-84096247D01*
X112603333Y-84096247D02*
X112603333Y-84334342D01*
X112603333Y-84334342D02*
X112650952Y-84429580D01*
X112650952Y-84429580D02*
X112698571Y-84477200D01*
X112698571Y-84477200D02*
X112793809Y-84524819D01*
X112793809Y-84524819D02*
X113079523Y-84524819D01*
X113079523Y-84524819D02*
X113174761Y-84477200D01*
X113174761Y-84477200D02*
X113222380Y-84429580D01*
D12*
X150034000Y-41838000D02*
X147934000Y-41838000D01*
X147934000Y-41838000D02*
X147934000Y-39738000D01*
X147934000Y-39738000D02*
X150034000Y-39738000D01*
X150034000Y-39738000D02*
X150034000Y-41838000D01*
X137334000Y-41838000D02*
X135234000Y-41838000D01*
X135234000Y-41838000D02*
X135234000Y-39738000D01*
X135234000Y-39738000D02*
X137334000Y-39738000D01*
X137334000Y-39738000D02*
X137334000Y-41838000D01*
X146531340Y-57225320D02*
X144431340Y-57225320D01*
X144431340Y-57225320D02*
X144431340Y-55125320D01*
X144431340Y-55125320D02*
X146531340Y-55125320D01*
X146531340Y-55125320D02*
X146531340Y-57225320D01*
X137334000Y-44378000D02*
X135234000Y-44378000D01*
X135234000Y-44378000D02*
X135234000Y-42278000D01*
X135234000Y-42278000D02*
X137334000Y-42278000D01*
X137334000Y-42278000D02*
X137334000Y-44378000D01*
X151260000Y-62280000D02*
X149160000Y-62280000D01*
X149160000Y-62280000D02*
X149160000Y-60180000D01*
X149160000Y-60180000D02*
X151260000Y-60180000D01*
X151260000Y-60180000D02*
X151260000Y-62280000D01*
X107616000Y-125912000D02*
X105516000Y-125912000D01*
X105516000Y-125912000D02*
X105516000Y-123812000D01*
X105516000Y-123812000D02*
X107616000Y-123812000D01*
X107616000Y-123812000D02*
X107616000Y-125912000D01*
X146531340Y-62305320D02*
X144431340Y-62305320D01*
X144431340Y-62305320D02*
X144431340Y-60205320D01*
X144431340Y-60205320D02*
X146531340Y-60205320D01*
X146531340Y-60205320D02*
X146531340Y-62305320D01*
X132254000Y-44378000D02*
X130154000Y-44378000D01*
X130154000Y-44378000D02*
X130154000Y-42278000D01*
X130154000Y-42278000D02*
X132254000Y-42278000D01*
X132254000Y-42278000D02*
X132254000Y-44378000D01*
X139874000Y-41838000D02*
X137774000Y-41838000D01*
X137774000Y-41838000D02*
X137774000Y-39738000D01*
X137774000Y-39738000D02*
X139874000Y-39738000D01*
X139874000Y-39738000D02*
X139874000Y-41838000D01*
X146531340Y-67385320D02*
X144431340Y-67385320D01*
X144431340Y-67385320D02*
X144431340Y-65285320D01*
X144431340Y-65285320D02*
X146531340Y-65285320D01*
X146531340Y-65285320D02*
X146531340Y-67385320D01*
X130680000Y-125760000D02*
X128580000Y-125760000D01*
X128580000Y-125760000D02*
X128580000Y-123660000D01*
X128580000Y-123660000D02*
X130680000Y-123660000D01*
X130680000Y-123660000D02*
X130680000Y-125760000D01*
X146531340Y-59765320D02*
X144431340Y-59765320D01*
X144431340Y-59765320D02*
X144431340Y-57665320D01*
X144431340Y-57665320D02*
X146531340Y-57665320D01*
X146531340Y-57665320D02*
X146531340Y-59765320D01*
X142414000Y-44378000D02*
X140314000Y-44378000D01*
X140314000Y-44378000D02*
X140314000Y-42278000D01*
X140314000Y-42278000D02*
X142414000Y-42278000D01*
X142414000Y-42278000D02*
X142414000Y-44378000D01*
X199340000Y-56640000D02*
X197240000Y-56640000D01*
X197240000Y-56640000D02*
X197240000Y-54540000D01*
X197240000Y-54540000D02*
X199340000Y-54540000D01*
X199340000Y-54540000D02*
X199340000Y-56640000D01*
X183860000Y-118690000D02*
X181760000Y-118690000D01*
X181760000Y-118690000D02*
X181760000Y-116590000D01*
X181760000Y-116590000D02*
X183860000Y-116590000D01*
X183860000Y-116590000D02*
X183860000Y-118690000D01*
X151260000Y-67360000D02*
X149160000Y-67360000D01*
X149160000Y-67360000D02*
X149160000Y-65260000D01*
X149160000Y-65260000D02*
X151260000Y-65260000D01*
X151260000Y-65260000D02*
X151260000Y-67360000D01*
X129714000Y-41838000D02*
X127614000Y-41838000D01*
X127614000Y-41838000D02*
X127614000Y-39738000D01*
X127614000Y-39738000D02*
X129714000Y-39738000D01*
X129714000Y-39738000D02*
X129714000Y-41838000D01*
X129714000Y-44378000D02*
X127614000Y-44378000D01*
X127614000Y-44378000D02*
X127614000Y-42278000D01*
X127614000Y-42278000D02*
X129714000Y-42278000D01*
X129714000Y-42278000D02*
X129714000Y-44378000D01*
X152574000Y-41838000D02*
X150474000Y-41838000D01*
X150474000Y-41838000D02*
X150474000Y-39738000D01*
X150474000Y-39738000D02*
X152574000Y-39738000D01*
X152574000Y-39738000D02*
X152574000Y-41838000D01*
X147494000Y-41838000D02*
X145394000Y-41838000D01*
X145394000Y-41838000D02*
X145394000Y-39738000D01*
X145394000Y-39738000D02*
X147494000Y-39738000D01*
X147494000Y-39738000D02*
X147494000Y-41838000D01*
X144954000Y-44378000D02*
X142854000Y-44378000D01*
X142854000Y-44378000D02*
X142854000Y-42278000D01*
X142854000Y-42278000D02*
X144954000Y-42278000D01*
X144954000Y-42278000D02*
X144954000Y-44378000D01*
X146531340Y-64845320D02*
X144431340Y-64845320D01*
X144431340Y-64845320D02*
X144431340Y-62745320D01*
X144431340Y-62745320D02*
X146531340Y-62745320D01*
X146531340Y-62745320D02*
X146531340Y-64845320D01*
X134794000Y-44378000D02*
X132694000Y-44378000D01*
X132694000Y-44378000D02*
X132694000Y-42278000D01*
X132694000Y-42278000D02*
X134794000Y-42278000D01*
X134794000Y-42278000D02*
X134794000Y-44378000D01*
X144006000Y-125760000D02*
X141906000Y-125760000D01*
X141906000Y-125760000D02*
X141906000Y-123660000D01*
X141906000Y-123660000D02*
X144006000Y-123660000D01*
X144006000Y-123660000D02*
X144006000Y-125760000D01*
X139874000Y-44378000D02*
X137774000Y-44378000D01*
X137774000Y-44378000D02*
X137774000Y-42278000D01*
X137774000Y-42278000D02*
X139874000Y-42278000D01*
X139874000Y-42278000D02*
X139874000Y-44378000D01*
X146531340Y-54685320D02*
X144431340Y-54685320D01*
X144431340Y-54685320D02*
X144431340Y-52585320D01*
X144431340Y-52585320D02*
X146531340Y-52585320D01*
X146531340Y-52585320D02*
X146531340Y-54685320D01*
X152574000Y-44378000D02*
X150474000Y-44378000D01*
X150474000Y-44378000D02*
X150474000Y-42278000D01*
X150474000Y-42278000D02*
X152574000Y-42278000D01*
X152574000Y-42278000D02*
X152574000Y-44378000D01*
X132254000Y-41838000D02*
X130154000Y-41838000D01*
X130154000Y-41838000D02*
X130154000Y-39738000D01*
X130154000Y-39738000D02*
X132254000Y-39738000D01*
X132254000Y-39738000D02*
X132254000Y-41838000D01*
X144954000Y-41838000D02*
X142854000Y-41838000D01*
X142854000Y-41838000D02*
X142854000Y-39738000D01*
X142854000Y-39738000D02*
X144954000Y-39738000D01*
X144954000Y-39738000D02*
X144954000Y-41838000D01*
X112696000Y-125912000D02*
X110596000Y-125912000D01*
X110596000Y-125912000D02*
X110596000Y-123812000D01*
X110596000Y-123812000D02*
X112696000Y-123812000D01*
X112696000Y-123812000D02*
X112696000Y-125912000D01*
X125600000Y-125760000D02*
X123500000Y-125760000D01*
X123500000Y-125760000D02*
X123500000Y-123660000D01*
X123500000Y-123660000D02*
X125600000Y-123660000D01*
X125600000Y-123660000D02*
X125600000Y-125760000D01*
X102536000Y-125912000D02*
X100436000Y-125912000D01*
X100436000Y-125912000D02*
X100436000Y-123812000D01*
X100436000Y-123812000D02*
X102536000Y-123812000D01*
X102536000Y-123812000D02*
X102536000Y-125912000D01*
X147494000Y-44378000D02*
X145394000Y-44378000D01*
X145394000Y-44378000D02*
X145394000Y-42278000D01*
X145394000Y-42278000D02*
X147494000Y-42278000D01*
X147494000Y-42278000D02*
X147494000Y-44378000D01*
X151260000Y-64820000D02*
X149160000Y-64820000D01*
X149160000Y-64820000D02*
X149160000Y-62720000D01*
X149160000Y-62720000D02*
X151260000Y-62720000D01*
X151260000Y-62720000D02*
X151260000Y-64820000D01*
X142414000Y-41838000D02*
X140314000Y-41838000D01*
X140314000Y-41838000D02*
X140314000Y-39738000D01*
X140314000Y-39738000D02*
X142414000Y-39738000D01*
X142414000Y-39738000D02*
X142414000Y-41838000D01*
X150034000Y-44378000D02*
X147934000Y-44378000D01*
X147934000Y-44378000D02*
X147934000Y-42278000D01*
X147934000Y-42278000D02*
X150034000Y-42278000D01*
X150034000Y-42278000D02*
X150034000Y-44378000D01*
X209500000Y-56640000D02*
X207400000Y-56640000D01*
X207400000Y-56640000D02*
X207400000Y-54540000D01*
X207400000Y-54540000D02*
X209500000Y-54540000D01*
X209500000Y-54540000D02*
X209500000Y-56640000D01*
X149086000Y-125760000D02*
X146986000Y-125760000D01*
X146986000Y-125760000D02*
X146986000Y-123660000D01*
X146986000Y-123660000D02*
X149086000Y-123660000D01*
X149086000Y-123660000D02*
X149086000Y-125760000D01*
X134794000Y-41838000D02*
X132694000Y-41838000D01*
X132694000Y-41838000D02*
X132694000Y-39738000D01*
X132694000Y-39738000D02*
X134794000Y-39738000D01*
X134794000Y-39738000D02*
X134794000Y-41838000D01*
D13*
X101705000Y-102000000D02*
X101705000Y-96800000D01*
X111925000Y-102000000D02*
X101705000Y-102000000D01*
X111925000Y-102000000D02*
X111925000Y-99400000D01*
X113195000Y-102000000D02*
X114525000Y-102000000D01*
X114525000Y-102000000D02*
X114525000Y-100670000D01*
X111925000Y-99400000D02*
X114525000Y-99400000D01*
X114525000Y-99400000D02*
X114525000Y-96800000D01*
X114525000Y-96800000D02*
X101705000Y-96800000D01*
X211045000Y-90480000D02*
X208385000Y-90480000D01*
X211045000Y-85340000D02*
X211045000Y-90480000D01*
X211045000Y-85340000D02*
X208385000Y-85340000D01*
X211045000Y-84070000D02*
X211045000Y-82740000D01*
X211045000Y-82740000D02*
X209715000Y-82740000D01*
X208385000Y-85340000D02*
X208385000Y-90480000D01*
X114525000Y-70765000D02*
X114525000Y-75965000D01*
X91605000Y-70765000D02*
X114525000Y-70765000D01*
X91605000Y-70765000D02*
X91605000Y-73365000D01*
X90335000Y-70765000D02*
X89005000Y-70765000D01*
X89005000Y-70765000D02*
X89005000Y-72095000D01*
X91605000Y-73365000D02*
X89005000Y-73365000D01*
X89005000Y-73365000D02*
X89005000Y-75965000D01*
X89005000Y-75965000D02*
X114525000Y-75965000D01*
X99165000Y-88665000D02*
X99165000Y-86005000D01*
X111925000Y-88665000D02*
X99165000Y-88665000D01*
X111925000Y-88665000D02*
X111925000Y-86005000D01*
X113195000Y-88665000D02*
X114525000Y-88665000D01*
X114525000Y-88665000D02*
X114525000Y-87335000D01*
X111925000Y-86005000D02*
X99165000Y-86005000D01*
%LPC*%
D14*
X209535000Y-133785000D03*
X209535000Y-43785000D03*
X89535000Y-43785000D03*
X89535000Y-133785000D03*
D15*
X148984000Y-40788000D03*
X136284000Y-40788000D03*
X145481340Y-56175320D03*
X136284000Y-43328000D03*
X150210000Y-61230000D03*
X106566000Y-124862000D03*
X145481340Y-61255320D03*
X131204000Y-43328000D03*
X138824000Y-40788000D03*
X145481340Y-66335320D03*
X129630000Y-124710000D03*
X145481340Y-58715320D03*
X141364000Y-43328000D03*
X198290000Y-55590000D03*
X182810000Y-117640000D03*
X150210000Y-66310000D03*
X128664000Y-40788000D03*
X128664000Y-43328000D03*
X151524000Y-40788000D03*
X146444000Y-40788000D03*
X143904000Y-43328000D03*
X145481340Y-63795320D03*
X133744000Y-43328000D03*
X142956000Y-124710000D03*
X138824000Y-43328000D03*
X145481340Y-53635320D03*
X151524000Y-43328000D03*
X131204000Y-40788000D03*
X143904000Y-40788000D03*
X111646000Y-124862000D03*
X124550000Y-124710000D03*
X101486000Y-124862000D03*
X146444000Y-43328000D03*
X150210000Y-63770000D03*
X141364000Y-40788000D03*
X148984000Y-43328000D03*
X208450000Y-55590000D03*
X148036000Y-124710000D03*
X133744000Y-40788000D03*
D16*
X113195000Y-100670000D03*
D17*
X113195000Y-98130000D03*
X110655000Y-100670000D03*
X110655000Y-98130000D03*
X108115000Y-100670000D03*
X108115000Y-98130000D03*
X105575000Y-100670000D03*
X105575000Y-98130000D03*
X103035000Y-100670000D03*
X103035000Y-98130000D03*
D16*
X209715000Y-84070000D03*
D17*
X209715000Y-86610000D03*
X209715000Y-89150000D03*
D16*
X90335000Y-72095000D03*
D17*
X90335000Y-74635000D03*
X92875000Y-72095000D03*
X92875000Y-74635000D03*
X95415000Y-72095000D03*
X95415000Y-74635000D03*
X97955000Y-72095000D03*
X97955000Y-74635000D03*
X100495000Y-72095000D03*
X100495000Y-74635000D03*
X103035000Y-72095000D03*
X103035000Y-74635000D03*
X105575000Y-72095000D03*
X105575000Y-74635000D03*
X108115000Y-72095000D03*
X108115000Y-74635000D03*
X110655000Y-72095000D03*
X110655000Y-74635000D03*
X113195000Y-72095000D03*
X113195000Y-74635000D03*
D16*
X113195000Y-87335000D03*
D17*
X110655000Y-87335000D03*
X108115000Y-87335000D03*
X105575000Y-87335000D03*
X103035000Y-87335000D03*
X100495000Y-87335000D03*
%LPD*%
M02*
