%TF.GenerationSoftware,KiCad,Pcbnew,7.0.7-7.0.7~ubuntu22.04.1*%
%TF.CreationDate,2023-09-16T20:13:10-03:00*%
%TF.ProjectId,EQfixture,45516669-7874-4757-9265-2e6b69636164,rev?*%
%TF.SameCoordinates,Original*%
%TF.FileFunction,Drillmap*%
%TF.FilePolarity,Positive*%
%FSLAX45Y45*%
G04 Gerber Fmt 4.5, Leading zero omitted, Abs format (unit mm)*
G04 Created by KiCad (PCBNEW 7.0.7-7.0.7~ubuntu22.04.1) date 2023-09-16 20:13:10*
%MOMM*%
%LPD*%
G01*
G04 APERTURE LIST*
%ADD10C,0.200000*%
%ADD11C,0.100000*%
%ADD12C,0.110000*%
%ADD13C,0.320000*%
G04 APERTURE END LIST*
D10*
X21618849Y-3428977D02*
G75*
G03*
X21521526Y-3331661I-97309J7D01*
G01*
X8417526Y-14470293D02*
X21521526Y-14470293D01*
X21521526Y-3331661D02*
X8417526Y-3331661D01*
X7841526Y-4171660D02*
G75*
G03*
X8320209Y-3692977I0J478683D01*
G01*
X22097526Y-13630292D02*
G75*
G03*
X21618842Y-14108977I4J-478688D01*
G01*
X8320209Y-3428977D02*
X8320209Y-3692977D01*
X22097526Y-13630293D02*
X22361526Y-13630293D01*
X22361526Y-13630292D02*
G75*
G03*
X22458842Y-13532977I4J97312D01*
G01*
X7480209Y-4268977D02*
X7480209Y-13532977D01*
X7841526Y-4171661D02*
X7577526Y-4171661D01*
X7577526Y-4171659D02*
G75*
G03*
X7480209Y-4268977I4J-97321D01*
G01*
X22361526Y-4171661D02*
X22097526Y-4171661D01*
X8320217Y-14372977D02*
G75*
G03*
X8417526Y-14470293I97323J7D01*
G01*
X8320209Y-14108977D02*
X8320209Y-14372977D01*
X22458842Y-13532977D02*
X22458842Y-4269877D01*
X22458849Y-4269877D02*
G75*
G03*
X22361526Y-4171656I-97309J907D01*
G01*
X21618842Y-14372977D02*
X21618842Y-14108977D01*
X8417526Y-3331659D02*
G75*
G03*
X8320209Y-3428977I4J-97321D01*
G01*
X21618842Y-3692977D02*
X21618842Y-3428977D01*
X21618849Y-3692977D02*
G75*
G03*
X22097526Y-4171661I478691J7D01*
G01*
X7480217Y-13532977D02*
G75*
G03*
X7577526Y-13630293I97323J7D01*
G01*
X7577526Y-13630293D02*
X7841526Y-13630293D01*
X8320217Y-14108977D02*
G75*
G03*
X7841526Y-13630293I-478677J7D01*
G01*
X21521526Y-14470292D02*
G75*
G03*
X21618842Y-14372977I4J97312D01*
G01*
D11*
X8983500Y-7159500D02*
X9083500Y-7259500D01*
X9083500Y-7159500D02*
X8983500Y-7259500D01*
X8983500Y-7413500D02*
X9083500Y-7513500D01*
X9083500Y-7413500D02*
X8983500Y-7513500D01*
X9237500Y-7159500D02*
X9337500Y-7259500D01*
X9337500Y-7159500D02*
X9237500Y-7259500D01*
X9237500Y-7413500D02*
X9337500Y-7513500D01*
X9337500Y-7413500D02*
X9237500Y-7513500D01*
X9491500Y-7159500D02*
X9591500Y-7259500D01*
X9591500Y-7159500D02*
X9491500Y-7259500D01*
X9491500Y-7413500D02*
X9591500Y-7513500D01*
X9591500Y-7413500D02*
X9491500Y-7513500D01*
X9745500Y-7159500D02*
X9845500Y-7259500D01*
X9845500Y-7159500D02*
X9745500Y-7259500D01*
X9745500Y-7413500D02*
X9845500Y-7513500D01*
X9845500Y-7413500D02*
X9745500Y-7513500D01*
X9999500Y-7159500D02*
X10099500Y-7259500D01*
X10099500Y-7159500D02*
X9999500Y-7259500D01*
X9999500Y-7413500D02*
X10099500Y-7513500D01*
X10099500Y-7413500D02*
X9999500Y-7513500D01*
X9999500Y-8683500D02*
X10099500Y-8783500D01*
X10099500Y-8683500D02*
X9999500Y-8783500D01*
X10253500Y-7159500D02*
X10353500Y-7259500D01*
X10353500Y-7159500D02*
X10253500Y-7259500D01*
X10253500Y-7413500D02*
X10353500Y-7513500D01*
X10353500Y-7413500D02*
X10253500Y-7513500D01*
X10253500Y-8683500D02*
X10353500Y-8783500D01*
X10353500Y-8683500D02*
X10253500Y-8783500D01*
X10253500Y-9763000D02*
X10353500Y-9863000D01*
X10353500Y-9763000D02*
X10253500Y-9863000D01*
X10253500Y-10017000D02*
X10353500Y-10117000D01*
X10353500Y-10017000D02*
X10253500Y-10117000D01*
X10507500Y-7159500D02*
X10607500Y-7259500D01*
X10607500Y-7159500D02*
X10507500Y-7259500D01*
X10507500Y-7413500D02*
X10607500Y-7513500D01*
X10607500Y-7413500D02*
X10507500Y-7513500D01*
X10507500Y-8683500D02*
X10607500Y-8783500D01*
X10607500Y-8683500D02*
X10507500Y-8783500D01*
X10507500Y-9763000D02*
X10607500Y-9863000D01*
X10607500Y-9763000D02*
X10507500Y-9863000D01*
X10507500Y-10017000D02*
X10607500Y-10117000D01*
X10607500Y-10017000D02*
X10507500Y-10117000D01*
X10761500Y-7159500D02*
X10861500Y-7259500D01*
X10861500Y-7159500D02*
X10761500Y-7259500D01*
X10761500Y-7413500D02*
X10861500Y-7513500D01*
X10861500Y-7413500D02*
X10761500Y-7513500D01*
X10761500Y-8683500D02*
X10861500Y-8783500D01*
X10861500Y-8683500D02*
X10761500Y-8783500D01*
X10761500Y-9763000D02*
X10861500Y-9863000D01*
X10861500Y-9763000D02*
X10761500Y-9863000D01*
X10761500Y-10017000D02*
X10861500Y-10117000D01*
X10861500Y-10017000D02*
X10761500Y-10117000D01*
X11015500Y-7159500D02*
X11115500Y-7259500D01*
X11115500Y-7159500D02*
X11015500Y-7259500D01*
X11015500Y-7413500D02*
X11115500Y-7513500D01*
X11115500Y-7413500D02*
X11015500Y-7513500D01*
X11015500Y-8683500D02*
X11115500Y-8783500D01*
X11115500Y-8683500D02*
X11015500Y-8783500D01*
X11015500Y-9763000D02*
X11115500Y-9863000D01*
X11115500Y-9763000D02*
X11015500Y-9863000D01*
X11015500Y-10017000D02*
X11115500Y-10117000D01*
X11115500Y-10017000D02*
X11015500Y-10117000D01*
X11269500Y-7159500D02*
X11369500Y-7259500D01*
X11369500Y-7159500D02*
X11269500Y-7259500D01*
X11269500Y-7413500D02*
X11369500Y-7513500D01*
X11369500Y-7413500D02*
X11269500Y-7513500D01*
X11269500Y-8683500D02*
X11369500Y-8783500D01*
X11369500Y-8683500D02*
X11269500Y-8783500D01*
X11269500Y-9763000D02*
X11369500Y-9863000D01*
X11369500Y-9763000D02*
X11269500Y-9863000D01*
X11269500Y-10017000D02*
X11369500Y-10117000D01*
X11369500Y-10017000D02*
X11269500Y-10117000D01*
X20921500Y-8357000D02*
X21021500Y-8457000D01*
X21021500Y-8357000D02*
X20921500Y-8457000D01*
X20921500Y-8611000D02*
X21021500Y-8711000D01*
X21021500Y-8611000D02*
X20921500Y-8711000D01*
X20921500Y-8865000D02*
X21021500Y-8965000D01*
X21021500Y-8865000D02*
X20921500Y-8965000D01*
D12*
X10203600Y-12486200D02*
G75*
G03*
X10203600Y-12486200I-55000J0D01*
G01*
X10711600Y-12486200D02*
G75*
G03*
X10711600Y-12486200I-55000J0D01*
G01*
X11219600Y-12486200D02*
G75*
G03*
X11219600Y-12486200I-55000J0D01*
G01*
X12510000Y-12471000D02*
G75*
G03*
X12510000Y-12471000I-55000J0D01*
G01*
X12921400Y-4078800D02*
G75*
G03*
X12921400Y-4078800I-55000J0D01*
G01*
X12921400Y-4332800D02*
G75*
G03*
X12921400Y-4332800I-55000J0D01*
G01*
X13018000Y-12471000D02*
G75*
G03*
X13018000Y-12471000I-55000J0D01*
G01*
X13175400Y-4078800D02*
G75*
G03*
X13175400Y-4078800I-55000J0D01*
G01*
X13175400Y-4332800D02*
G75*
G03*
X13175400Y-4332800I-55000J0D01*
G01*
X13429400Y-4078800D02*
G75*
G03*
X13429400Y-4078800I-55000J0D01*
G01*
X13429400Y-4332800D02*
G75*
G03*
X13429400Y-4332800I-55000J0D01*
G01*
X13683400Y-4078800D02*
G75*
G03*
X13683400Y-4078800I-55000J0D01*
G01*
X13683400Y-4332800D02*
G75*
G03*
X13683400Y-4332800I-55000J0D01*
G01*
X13937400Y-4078800D02*
G75*
G03*
X13937400Y-4078800I-55000J0D01*
G01*
X13937400Y-4332800D02*
G75*
G03*
X13937400Y-4332800I-55000J0D01*
G01*
X14191400Y-4078800D02*
G75*
G03*
X14191400Y-4078800I-55000J0D01*
G01*
X14191400Y-4332800D02*
G75*
G03*
X14191400Y-4332800I-55000J0D01*
G01*
X14350600Y-12471000D02*
G75*
G03*
X14350600Y-12471000I-55000J0D01*
G01*
X14445400Y-4078800D02*
G75*
G03*
X14445400Y-4078800I-55000J0D01*
G01*
X14445400Y-4332800D02*
G75*
G03*
X14445400Y-4332800I-55000J0D01*
G01*
X14603134Y-5363532D02*
G75*
G03*
X14603134Y-5363532I-55000J0D01*
G01*
X14603134Y-5617532D02*
G75*
G03*
X14603134Y-5617532I-55000J0D01*
G01*
X14603134Y-5871532D02*
G75*
G03*
X14603134Y-5871532I-55000J0D01*
G01*
X14603134Y-6125532D02*
G75*
G03*
X14603134Y-6125532I-55000J0D01*
G01*
X14603134Y-6379532D02*
G75*
G03*
X14603134Y-6379532I-55000J0D01*
G01*
X14603134Y-6633532D02*
G75*
G03*
X14603134Y-6633532I-55000J0D01*
G01*
X14699400Y-4078800D02*
G75*
G03*
X14699400Y-4078800I-55000J0D01*
G01*
X14699400Y-4332800D02*
G75*
G03*
X14699400Y-4332800I-55000J0D01*
G01*
X14858600Y-12471000D02*
G75*
G03*
X14858600Y-12471000I-55000J0D01*
G01*
X14953400Y-4078800D02*
G75*
G03*
X14953400Y-4078800I-55000J0D01*
G01*
X14953400Y-4332800D02*
G75*
G03*
X14953400Y-4332800I-55000J0D01*
G01*
X15076000Y-6123000D02*
G75*
G03*
X15076000Y-6123000I-55000J0D01*
G01*
X15076000Y-6377000D02*
G75*
G03*
X15076000Y-6377000I-55000J0D01*
G01*
X15076000Y-6631000D02*
G75*
G03*
X15076000Y-6631000I-55000J0D01*
G01*
X15207400Y-4078800D02*
G75*
G03*
X15207400Y-4078800I-55000J0D01*
G01*
X15207400Y-4332800D02*
G75*
G03*
X15207400Y-4332800I-55000J0D01*
G01*
X18336000Y-11764000D02*
G75*
G03*
X18336000Y-11764000I-55000J0D01*
G01*
X19884000Y-5559000D02*
G75*
G03*
X19884000Y-5559000I-55000J0D01*
G01*
X20900000Y-5559000D02*
G75*
G03*
X20900000Y-5559000I-55000J0D01*
G01*
D13*
X8953500Y-4218500D02*
X8953500Y-4538500D01*
X8793500Y-4378500D02*
X9113500Y-4378500D01*
X8953500Y-13218500D02*
X8953500Y-13538500D01*
X8793500Y-13378500D02*
X9113500Y-13378500D01*
X20953500Y-4218500D02*
X20953500Y-4538500D01*
X20793500Y-4378500D02*
X21113500Y-4378500D01*
X20953500Y-13218500D02*
X20953500Y-13538500D01*
X20793500Y-13378500D02*
X21113500Y-13378500D01*
D10*
X7730986Y-14791777D02*
X7730986Y-14591777D01*
X7730986Y-14591777D02*
X7778605Y-14591777D01*
X7778605Y-14591777D02*
X7807176Y-14601301D01*
X7807176Y-14601301D02*
X7826224Y-14620349D01*
X7826224Y-14620349D02*
X7835748Y-14639396D01*
X7835748Y-14639396D02*
X7845272Y-14677491D01*
X7845272Y-14677491D02*
X7845272Y-14706063D01*
X7845272Y-14706063D02*
X7835748Y-14744158D01*
X7835748Y-14744158D02*
X7826224Y-14763206D01*
X7826224Y-14763206D02*
X7807176Y-14782253D01*
X7807176Y-14782253D02*
X7778605Y-14791777D01*
X7778605Y-14791777D02*
X7730986Y-14791777D01*
X7930986Y-14791777D02*
X7930986Y-14658444D01*
X7930986Y-14696539D02*
X7940510Y-14677491D01*
X7940510Y-14677491D02*
X7950034Y-14667968D01*
X7950034Y-14667968D02*
X7969081Y-14658444D01*
X7969081Y-14658444D02*
X7988129Y-14658444D01*
X8054795Y-14791777D02*
X8054795Y-14658444D01*
X8054795Y-14591777D02*
X8045272Y-14601301D01*
X8045272Y-14601301D02*
X8054795Y-14610825D01*
X8054795Y-14610825D02*
X8064319Y-14601301D01*
X8064319Y-14601301D02*
X8054795Y-14591777D01*
X8054795Y-14591777D02*
X8054795Y-14610825D01*
X8178605Y-14791777D02*
X8159557Y-14782253D01*
X8159557Y-14782253D02*
X8150034Y-14763206D01*
X8150034Y-14763206D02*
X8150034Y-14591777D01*
X8283367Y-14791777D02*
X8264319Y-14782253D01*
X8264319Y-14782253D02*
X8254795Y-14763206D01*
X8254795Y-14763206D02*
X8254795Y-14591777D01*
X8511938Y-14791777D02*
X8511938Y-14591777D01*
X8511938Y-14591777D02*
X8578605Y-14734634D01*
X8578605Y-14734634D02*
X8645272Y-14591777D01*
X8645272Y-14591777D02*
X8645272Y-14791777D01*
X8826224Y-14791777D02*
X8826224Y-14687015D01*
X8826224Y-14687015D02*
X8816700Y-14667968D01*
X8816700Y-14667968D02*
X8797653Y-14658444D01*
X8797653Y-14658444D02*
X8759557Y-14658444D01*
X8759557Y-14658444D02*
X8740510Y-14667968D01*
X8826224Y-14782253D02*
X8807177Y-14791777D01*
X8807177Y-14791777D02*
X8759557Y-14791777D01*
X8759557Y-14791777D02*
X8740510Y-14782253D01*
X8740510Y-14782253D02*
X8730986Y-14763206D01*
X8730986Y-14763206D02*
X8730986Y-14744158D01*
X8730986Y-14744158D02*
X8740510Y-14725111D01*
X8740510Y-14725111D02*
X8759557Y-14715587D01*
X8759557Y-14715587D02*
X8807177Y-14715587D01*
X8807177Y-14715587D02*
X8826224Y-14706063D01*
X8921462Y-14658444D02*
X8921462Y-14858444D01*
X8921462Y-14667968D02*
X8940510Y-14658444D01*
X8940510Y-14658444D02*
X8978605Y-14658444D01*
X8978605Y-14658444D02*
X8997653Y-14667968D01*
X8997653Y-14667968D02*
X9007177Y-14677491D01*
X9007177Y-14677491D02*
X9016700Y-14696539D01*
X9016700Y-14696539D02*
X9016700Y-14753682D01*
X9016700Y-14753682D02*
X9007177Y-14772730D01*
X9007177Y-14772730D02*
X8997653Y-14782253D01*
X8997653Y-14782253D02*
X8978605Y-14791777D01*
X8978605Y-14791777D02*
X8940510Y-14791777D01*
X8940510Y-14791777D02*
X8921462Y-14782253D01*
X9102415Y-14772730D02*
X9111938Y-14782253D01*
X9111938Y-14782253D02*
X9102415Y-14791777D01*
X9102415Y-14791777D02*
X9092891Y-14782253D01*
X9092891Y-14782253D02*
X9102415Y-14772730D01*
X9102415Y-14772730D02*
X9102415Y-14791777D01*
X9102415Y-14667968D02*
X9111938Y-14677491D01*
X9111938Y-14677491D02*
X9102415Y-14687015D01*
X9102415Y-14687015D02*
X9092891Y-14677491D01*
X9092891Y-14677491D02*
X9102415Y-14667968D01*
X9102415Y-14667968D02*
X9102415Y-14687015D01*
D11*
X7370209Y-15070293D02*
X7470209Y-15170293D01*
X7470209Y-15070293D02*
X7370209Y-15170293D01*
D10*
X7835748Y-15211777D02*
X7721462Y-15211777D01*
X7778605Y-15211777D02*
X7778605Y-15011777D01*
X7778605Y-15011777D02*
X7759557Y-15040349D01*
X7759557Y-15040349D02*
X7740510Y-15059396D01*
X7740510Y-15059396D02*
X7721462Y-15068920D01*
X7921462Y-15192730D02*
X7930986Y-15202253D01*
X7930986Y-15202253D02*
X7921462Y-15211777D01*
X7921462Y-15211777D02*
X7911938Y-15202253D01*
X7911938Y-15202253D02*
X7921462Y-15192730D01*
X7921462Y-15192730D02*
X7921462Y-15211777D01*
X8054795Y-15011777D02*
X8073843Y-15011777D01*
X8073843Y-15011777D02*
X8092891Y-15021301D01*
X8092891Y-15021301D02*
X8102415Y-15030825D01*
X8102415Y-15030825D02*
X8111938Y-15049872D01*
X8111938Y-15049872D02*
X8121462Y-15087968D01*
X8121462Y-15087968D02*
X8121462Y-15135587D01*
X8121462Y-15135587D02*
X8111938Y-15173682D01*
X8111938Y-15173682D02*
X8102415Y-15192730D01*
X8102415Y-15192730D02*
X8092891Y-15202253D01*
X8092891Y-15202253D02*
X8073843Y-15211777D01*
X8073843Y-15211777D02*
X8054795Y-15211777D01*
X8054795Y-15211777D02*
X8035748Y-15202253D01*
X8035748Y-15202253D02*
X8026224Y-15192730D01*
X8026224Y-15192730D02*
X8016700Y-15173682D01*
X8016700Y-15173682D02*
X8007176Y-15135587D01*
X8007176Y-15135587D02*
X8007176Y-15087968D01*
X8007176Y-15087968D02*
X8016700Y-15049872D01*
X8016700Y-15049872D02*
X8026224Y-15030825D01*
X8026224Y-15030825D02*
X8035748Y-15021301D01*
X8035748Y-15021301D02*
X8054795Y-15011777D01*
X8245272Y-15011777D02*
X8264319Y-15011777D01*
X8264319Y-15011777D02*
X8283367Y-15021301D01*
X8283367Y-15021301D02*
X8292891Y-15030825D01*
X8292891Y-15030825D02*
X8302415Y-15049872D01*
X8302415Y-15049872D02*
X8311938Y-15087968D01*
X8311938Y-15087968D02*
X8311938Y-15135587D01*
X8311938Y-15135587D02*
X8302415Y-15173682D01*
X8302415Y-15173682D02*
X8292891Y-15192730D01*
X8292891Y-15192730D02*
X8283367Y-15202253D01*
X8283367Y-15202253D02*
X8264319Y-15211777D01*
X8264319Y-15211777D02*
X8245272Y-15211777D01*
X8245272Y-15211777D02*
X8226224Y-15202253D01*
X8226224Y-15202253D02*
X8216700Y-15192730D01*
X8216700Y-15192730D02*
X8207176Y-15173682D01*
X8207176Y-15173682D02*
X8197653Y-15135587D01*
X8197653Y-15135587D02*
X8197653Y-15087968D01*
X8197653Y-15087968D02*
X8207176Y-15049872D01*
X8207176Y-15049872D02*
X8216700Y-15030825D01*
X8216700Y-15030825D02*
X8226224Y-15021301D01*
X8226224Y-15021301D02*
X8245272Y-15011777D01*
X8435748Y-15011777D02*
X8454796Y-15011777D01*
X8454796Y-15011777D02*
X8473843Y-15021301D01*
X8473843Y-15021301D02*
X8483367Y-15030825D01*
X8483367Y-15030825D02*
X8492891Y-15049872D01*
X8492891Y-15049872D02*
X8502415Y-15087968D01*
X8502415Y-15087968D02*
X8502415Y-15135587D01*
X8502415Y-15135587D02*
X8492891Y-15173682D01*
X8492891Y-15173682D02*
X8483367Y-15192730D01*
X8483367Y-15192730D02*
X8473843Y-15202253D01*
X8473843Y-15202253D02*
X8454796Y-15211777D01*
X8454796Y-15211777D02*
X8435748Y-15211777D01*
X8435748Y-15211777D02*
X8416700Y-15202253D01*
X8416700Y-15202253D02*
X8407177Y-15192730D01*
X8407177Y-15192730D02*
X8397653Y-15173682D01*
X8397653Y-15173682D02*
X8388129Y-15135587D01*
X8388129Y-15135587D02*
X8388129Y-15087968D01*
X8388129Y-15087968D02*
X8397653Y-15049872D01*
X8397653Y-15049872D02*
X8407177Y-15030825D01*
X8407177Y-15030825D02*
X8416700Y-15021301D01*
X8416700Y-15021301D02*
X8435748Y-15011777D01*
X8588129Y-15211777D02*
X8588129Y-15078444D01*
X8588129Y-15097491D02*
X8597653Y-15087968D01*
X8597653Y-15087968D02*
X8616700Y-15078444D01*
X8616700Y-15078444D02*
X8645272Y-15078444D01*
X8645272Y-15078444D02*
X8664319Y-15087968D01*
X8664319Y-15087968D02*
X8673843Y-15107015D01*
X8673843Y-15107015D02*
X8673843Y-15211777D01*
X8673843Y-15107015D02*
X8683367Y-15087968D01*
X8683367Y-15087968D02*
X8702415Y-15078444D01*
X8702415Y-15078444D02*
X8730986Y-15078444D01*
X8730986Y-15078444D02*
X8750034Y-15087968D01*
X8750034Y-15087968D02*
X8759558Y-15107015D01*
X8759558Y-15107015D02*
X8759558Y-15211777D01*
X8854796Y-15211777D02*
X8854796Y-15078444D01*
X8854796Y-15097491D02*
X8864319Y-15087968D01*
X8864319Y-15087968D02*
X8883367Y-15078444D01*
X8883367Y-15078444D02*
X8911939Y-15078444D01*
X8911939Y-15078444D02*
X8930986Y-15087968D01*
X8930986Y-15087968D02*
X8940510Y-15107015D01*
X8940510Y-15107015D02*
X8940510Y-15211777D01*
X8940510Y-15107015D02*
X8950034Y-15087968D01*
X8950034Y-15087968D02*
X8969081Y-15078444D01*
X8969081Y-15078444D02*
X8997653Y-15078444D01*
X8997653Y-15078444D02*
X9016700Y-15087968D01*
X9016700Y-15087968D02*
X9026224Y-15107015D01*
X9026224Y-15107015D02*
X9026224Y-15211777D01*
X9416700Y-15002253D02*
X9245272Y-15259396D01*
X9673843Y-15011777D02*
X9692891Y-15011777D01*
X9692891Y-15011777D02*
X9711939Y-15021301D01*
X9711939Y-15021301D02*
X9721462Y-15030825D01*
X9721462Y-15030825D02*
X9730986Y-15049872D01*
X9730986Y-15049872D02*
X9740510Y-15087968D01*
X9740510Y-15087968D02*
X9740510Y-15135587D01*
X9740510Y-15135587D02*
X9730986Y-15173682D01*
X9730986Y-15173682D02*
X9721462Y-15192730D01*
X9721462Y-15192730D02*
X9711939Y-15202253D01*
X9711939Y-15202253D02*
X9692891Y-15211777D01*
X9692891Y-15211777D02*
X9673843Y-15211777D01*
X9673843Y-15211777D02*
X9654796Y-15202253D01*
X9654796Y-15202253D02*
X9645272Y-15192730D01*
X9645272Y-15192730D02*
X9635748Y-15173682D01*
X9635748Y-15173682D02*
X9626224Y-15135587D01*
X9626224Y-15135587D02*
X9626224Y-15087968D01*
X9626224Y-15087968D02*
X9635748Y-15049872D01*
X9635748Y-15049872D02*
X9645272Y-15030825D01*
X9645272Y-15030825D02*
X9654796Y-15021301D01*
X9654796Y-15021301D02*
X9673843Y-15011777D01*
X9826224Y-15192730D02*
X9835748Y-15202253D01*
X9835748Y-15202253D02*
X9826224Y-15211777D01*
X9826224Y-15211777D02*
X9816701Y-15202253D01*
X9816701Y-15202253D02*
X9826224Y-15192730D01*
X9826224Y-15192730D02*
X9826224Y-15211777D01*
X9959558Y-15011777D02*
X9978605Y-15011777D01*
X9978605Y-15011777D02*
X9997653Y-15021301D01*
X9997653Y-15021301D02*
X10007177Y-15030825D01*
X10007177Y-15030825D02*
X10016701Y-15049872D01*
X10016701Y-15049872D02*
X10026224Y-15087968D01*
X10026224Y-15087968D02*
X10026224Y-15135587D01*
X10026224Y-15135587D02*
X10016701Y-15173682D01*
X10016701Y-15173682D02*
X10007177Y-15192730D01*
X10007177Y-15192730D02*
X9997653Y-15202253D01*
X9997653Y-15202253D02*
X9978605Y-15211777D01*
X9978605Y-15211777D02*
X9959558Y-15211777D01*
X9959558Y-15211777D02*
X9940510Y-15202253D01*
X9940510Y-15202253D02*
X9930986Y-15192730D01*
X9930986Y-15192730D02*
X9921462Y-15173682D01*
X9921462Y-15173682D02*
X9911939Y-15135587D01*
X9911939Y-15135587D02*
X9911939Y-15087968D01*
X9911939Y-15087968D02*
X9921462Y-15049872D01*
X9921462Y-15049872D02*
X9930986Y-15030825D01*
X9930986Y-15030825D02*
X9940510Y-15021301D01*
X9940510Y-15021301D02*
X9959558Y-15011777D01*
X10092891Y-15011777D02*
X10216701Y-15011777D01*
X10216701Y-15011777D02*
X10150034Y-15087968D01*
X10150034Y-15087968D02*
X10178605Y-15087968D01*
X10178605Y-15087968D02*
X10197653Y-15097491D01*
X10197653Y-15097491D02*
X10207177Y-15107015D01*
X10207177Y-15107015D02*
X10216701Y-15126063D01*
X10216701Y-15126063D02*
X10216701Y-15173682D01*
X10216701Y-15173682D02*
X10207177Y-15192730D01*
X10207177Y-15192730D02*
X10197653Y-15202253D01*
X10197653Y-15202253D02*
X10178605Y-15211777D01*
X10178605Y-15211777D02*
X10121462Y-15211777D01*
X10121462Y-15211777D02*
X10102415Y-15202253D01*
X10102415Y-15202253D02*
X10092891Y-15192730D01*
X10311939Y-15211777D02*
X10350034Y-15211777D01*
X10350034Y-15211777D02*
X10369082Y-15202253D01*
X10369082Y-15202253D02*
X10378605Y-15192730D01*
X10378605Y-15192730D02*
X10397653Y-15164158D01*
X10397653Y-15164158D02*
X10407177Y-15126063D01*
X10407177Y-15126063D02*
X10407177Y-15049872D01*
X10407177Y-15049872D02*
X10397653Y-15030825D01*
X10397653Y-15030825D02*
X10388129Y-15021301D01*
X10388129Y-15021301D02*
X10369082Y-15011777D01*
X10369082Y-15011777D02*
X10330986Y-15011777D01*
X10330986Y-15011777D02*
X10311939Y-15021301D01*
X10311939Y-15021301D02*
X10302415Y-15030825D01*
X10302415Y-15030825D02*
X10292891Y-15049872D01*
X10292891Y-15049872D02*
X10292891Y-15097491D01*
X10292891Y-15097491D02*
X10302415Y-15116539D01*
X10302415Y-15116539D02*
X10311939Y-15126063D01*
X10311939Y-15126063D02*
X10330986Y-15135587D01*
X10330986Y-15135587D02*
X10369082Y-15135587D01*
X10369082Y-15135587D02*
X10388129Y-15126063D01*
X10388129Y-15126063D02*
X10397653Y-15116539D01*
X10397653Y-15116539D02*
X10407177Y-15097491D01*
X10578605Y-15078444D02*
X10578605Y-15211777D01*
X10530986Y-15002253D02*
X10483367Y-15145111D01*
X10483367Y-15145111D02*
X10607177Y-15145111D01*
X10673843Y-15011777D02*
X10673843Y-15049872D01*
X10750034Y-15011777D02*
X10750034Y-15049872D01*
X11045272Y-15287968D02*
X11035748Y-15278444D01*
X11035748Y-15278444D02*
X11016701Y-15249872D01*
X11016701Y-15249872D02*
X11007177Y-15230825D01*
X11007177Y-15230825D02*
X10997653Y-15202253D01*
X10997653Y-15202253D02*
X10988129Y-15154634D01*
X10988129Y-15154634D02*
X10988129Y-15116539D01*
X10988129Y-15116539D02*
X10997653Y-15068920D01*
X10997653Y-15068920D02*
X11007177Y-15040349D01*
X11007177Y-15040349D02*
X11016701Y-15021301D01*
X11016701Y-15021301D02*
X11035748Y-14992730D01*
X11035748Y-14992730D02*
X11045272Y-14983206D01*
X11102415Y-15011777D02*
X11226224Y-15011777D01*
X11226224Y-15011777D02*
X11159558Y-15087968D01*
X11159558Y-15087968D02*
X11188129Y-15087968D01*
X11188129Y-15087968D02*
X11207177Y-15097491D01*
X11207177Y-15097491D02*
X11216701Y-15107015D01*
X11216701Y-15107015D02*
X11226224Y-15126063D01*
X11226224Y-15126063D02*
X11226224Y-15173682D01*
X11226224Y-15173682D02*
X11216701Y-15192730D01*
X11216701Y-15192730D02*
X11207177Y-15202253D01*
X11207177Y-15202253D02*
X11188129Y-15211777D01*
X11188129Y-15211777D02*
X11130986Y-15211777D01*
X11130986Y-15211777D02*
X11111939Y-15202253D01*
X11111939Y-15202253D02*
X11102415Y-15192730D01*
X11321462Y-15211777D02*
X11359558Y-15211777D01*
X11359558Y-15211777D02*
X11378605Y-15202253D01*
X11378605Y-15202253D02*
X11388129Y-15192730D01*
X11388129Y-15192730D02*
X11407177Y-15164158D01*
X11407177Y-15164158D02*
X11416701Y-15126063D01*
X11416701Y-15126063D02*
X11416701Y-15049872D01*
X11416701Y-15049872D02*
X11407177Y-15030825D01*
X11407177Y-15030825D02*
X11397653Y-15021301D01*
X11397653Y-15021301D02*
X11378605Y-15011777D01*
X11378605Y-15011777D02*
X11340510Y-15011777D01*
X11340510Y-15011777D02*
X11321462Y-15021301D01*
X11321462Y-15021301D02*
X11311939Y-15030825D01*
X11311939Y-15030825D02*
X11302415Y-15049872D01*
X11302415Y-15049872D02*
X11302415Y-15097491D01*
X11302415Y-15097491D02*
X11311939Y-15116539D01*
X11311939Y-15116539D02*
X11321462Y-15126063D01*
X11321462Y-15126063D02*
X11340510Y-15135587D01*
X11340510Y-15135587D02*
X11378605Y-15135587D01*
X11378605Y-15135587D02*
X11397653Y-15126063D01*
X11397653Y-15126063D02*
X11407177Y-15116539D01*
X11407177Y-15116539D02*
X11416701Y-15097491D01*
X11654796Y-15211777D02*
X11654796Y-15011777D01*
X11740510Y-15211777D02*
X11740510Y-15107015D01*
X11740510Y-15107015D02*
X11730986Y-15087968D01*
X11730986Y-15087968D02*
X11711939Y-15078444D01*
X11711939Y-15078444D02*
X11683367Y-15078444D01*
X11683367Y-15078444D02*
X11664320Y-15087968D01*
X11664320Y-15087968D02*
X11654796Y-15097491D01*
X11864320Y-15211777D02*
X11845272Y-15202253D01*
X11845272Y-15202253D02*
X11835748Y-15192730D01*
X11835748Y-15192730D02*
X11826224Y-15173682D01*
X11826224Y-15173682D02*
X11826224Y-15116539D01*
X11826224Y-15116539D02*
X11835748Y-15097491D01*
X11835748Y-15097491D02*
X11845272Y-15087968D01*
X11845272Y-15087968D02*
X11864320Y-15078444D01*
X11864320Y-15078444D02*
X11892891Y-15078444D01*
X11892891Y-15078444D02*
X11911939Y-15087968D01*
X11911939Y-15087968D02*
X11921463Y-15097491D01*
X11921463Y-15097491D02*
X11930986Y-15116539D01*
X11930986Y-15116539D02*
X11930986Y-15173682D01*
X11930986Y-15173682D02*
X11921463Y-15192730D01*
X11921463Y-15192730D02*
X11911939Y-15202253D01*
X11911939Y-15202253D02*
X11892891Y-15211777D01*
X11892891Y-15211777D02*
X11864320Y-15211777D01*
X12045272Y-15211777D02*
X12026224Y-15202253D01*
X12026224Y-15202253D02*
X12016701Y-15183206D01*
X12016701Y-15183206D02*
X12016701Y-15011777D01*
X12197653Y-15202253D02*
X12178605Y-15211777D01*
X12178605Y-15211777D02*
X12140510Y-15211777D01*
X12140510Y-15211777D02*
X12121463Y-15202253D01*
X12121463Y-15202253D02*
X12111939Y-15183206D01*
X12111939Y-15183206D02*
X12111939Y-15107015D01*
X12111939Y-15107015D02*
X12121463Y-15087968D01*
X12121463Y-15087968D02*
X12140510Y-15078444D01*
X12140510Y-15078444D02*
X12178605Y-15078444D01*
X12178605Y-15078444D02*
X12197653Y-15087968D01*
X12197653Y-15087968D02*
X12207177Y-15107015D01*
X12207177Y-15107015D02*
X12207177Y-15126063D01*
X12207177Y-15126063D02*
X12111939Y-15145111D01*
X12283367Y-15202253D02*
X12302415Y-15211777D01*
X12302415Y-15211777D02*
X12340510Y-15211777D01*
X12340510Y-15211777D02*
X12359558Y-15202253D01*
X12359558Y-15202253D02*
X12369082Y-15183206D01*
X12369082Y-15183206D02*
X12369082Y-15173682D01*
X12369082Y-15173682D02*
X12359558Y-15154634D01*
X12359558Y-15154634D02*
X12340510Y-15145111D01*
X12340510Y-15145111D02*
X12311939Y-15145111D01*
X12311939Y-15145111D02*
X12292891Y-15135587D01*
X12292891Y-15135587D02*
X12283367Y-15116539D01*
X12283367Y-15116539D02*
X12283367Y-15107015D01*
X12283367Y-15107015D02*
X12292891Y-15087968D01*
X12292891Y-15087968D02*
X12311939Y-15078444D01*
X12311939Y-15078444D02*
X12340510Y-15078444D01*
X12340510Y-15078444D02*
X12359558Y-15087968D01*
X12435748Y-15287968D02*
X12445272Y-15278444D01*
X12445272Y-15278444D02*
X12464320Y-15249872D01*
X12464320Y-15249872D02*
X12473844Y-15230825D01*
X12473844Y-15230825D02*
X12483367Y-15202253D01*
X12483367Y-15202253D02*
X12492891Y-15154634D01*
X12492891Y-15154634D02*
X12492891Y-15116539D01*
X12492891Y-15116539D02*
X12483367Y-15068920D01*
X12483367Y-15068920D02*
X12473844Y-15040349D01*
X12473844Y-15040349D02*
X12464320Y-15021301D01*
X12464320Y-15021301D02*
X12445272Y-14992730D01*
X12445272Y-14992730D02*
X12435748Y-14983206D01*
D12*
X7470209Y-15384293D02*
G75*
G03*
X7470209Y-15384293I-55000J0D01*
G01*
D10*
X7835748Y-15475777D02*
X7721462Y-15475777D01*
X7778605Y-15475777D02*
X7778605Y-15275777D01*
X7778605Y-15275777D02*
X7759557Y-15304349D01*
X7759557Y-15304349D02*
X7740510Y-15323396D01*
X7740510Y-15323396D02*
X7721462Y-15332920D01*
X7921462Y-15456730D02*
X7930986Y-15466253D01*
X7930986Y-15466253D02*
X7921462Y-15475777D01*
X7921462Y-15475777D02*
X7911938Y-15466253D01*
X7911938Y-15466253D02*
X7921462Y-15456730D01*
X7921462Y-15456730D02*
X7921462Y-15475777D01*
X8121462Y-15475777D02*
X8007176Y-15475777D01*
X8064319Y-15475777D02*
X8064319Y-15275777D01*
X8064319Y-15275777D02*
X8045272Y-15304349D01*
X8045272Y-15304349D02*
X8026224Y-15323396D01*
X8026224Y-15323396D02*
X8007176Y-15332920D01*
X8245272Y-15275777D02*
X8264319Y-15275777D01*
X8264319Y-15275777D02*
X8283367Y-15285301D01*
X8283367Y-15285301D02*
X8292891Y-15294825D01*
X8292891Y-15294825D02*
X8302415Y-15313872D01*
X8302415Y-15313872D02*
X8311938Y-15351968D01*
X8311938Y-15351968D02*
X8311938Y-15399587D01*
X8311938Y-15399587D02*
X8302415Y-15437682D01*
X8302415Y-15437682D02*
X8292891Y-15456730D01*
X8292891Y-15456730D02*
X8283367Y-15466253D01*
X8283367Y-15466253D02*
X8264319Y-15475777D01*
X8264319Y-15475777D02*
X8245272Y-15475777D01*
X8245272Y-15475777D02*
X8226224Y-15466253D01*
X8226224Y-15466253D02*
X8216700Y-15456730D01*
X8216700Y-15456730D02*
X8207176Y-15437682D01*
X8207176Y-15437682D02*
X8197653Y-15399587D01*
X8197653Y-15399587D02*
X8197653Y-15351968D01*
X8197653Y-15351968D02*
X8207176Y-15313872D01*
X8207176Y-15313872D02*
X8216700Y-15294825D01*
X8216700Y-15294825D02*
X8226224Y-15285301D01*
X8226224Y-15285301D02*
X8245272Y-15275777D01*
X8435748Y-15275777D02*
X8454796Y-15275777D01*
X8454796Y-15275777D02*
X8473843Y-15285301D01*
X8473843Y-15285301D02*
X8483367Y-15294825D01*
X8483367Y-15294825D02*
X8492891Y-15313872D01*
X8492891Y-15313872D02*
X8502415Y-15351968D01*
X8502415Y-15351968D02*
X8502415Y-15399587D01*
X8502415Y-15399587D02*
X8492891Y-15437682D01*
X8492891Y-15437682D02*
X8483367Y-15456730D01*
X8483367Y-15456730D02*
X8473843Y-15466253D01*
X8473843Y-15466253D02*
X8454796Y-15475777D01*
X8454796Y-15475777D02*
X8435748Y-15475777D01*
X8435748Y-15475777D02*
X8416700Y-15466253D01*
X8416700Y-15466253D02*
X8407177Y-15456730D01*
X8407177Y-15456730D02*
X8397653Y-15437682D01*
X8397653Y-15437682D02*
X8388129Y-15399587D01*
X8388129Y-15399587D02*
X8388129Y-15351968D01*
X8388129Y-15351968D02*
X8397653Y-15313872D01*
X8397653Y-15313872D02*
X8407177Y-15294825D01*
X8407177Y-15294825D02*
X8416700Y-15285301D01*
X8416700Y-15285301D02*
X8435748Y-15275777D01*
X8588129Y-15475777D02*
X8588129Y-15342444D01*
X8588129Y-15361491D02*
X8597653Y-15351968D01*
X8597653Y-15351968D02*
X8616700Y-15342444D01*
X8616700Y-15342444D02*
X8645272Y-15342444D01*
X8645272Y-15342444D02*
X8664319Y-15351968D01*
X8664319Y-15351968D02*
X8673843Y-15371015D01*
X8673843Y-15371015D02*
X8673843Y-15475777D01*
X8673843Y-15371015D02*
X8683367Y-15351968D01*
X8683367Y-15351968D02*
X8702415Y-15342444D01*
X8702415Y-15342444D02*
X8730986Y-15342444D01*
X8730986Y-15342444D02*
X8750034Y-15351968D01*
X8750034Y-15351968D02*
X8759558Y-15371015D01*
X8759558Y-15371015D02*
X8759558Y-15475777D01*
X8854796Y-15475777D02*
X8854796Y-15342444D01*
X8854796Y-15361491D02*
X8864319Y-15351968D01*
X8864319Y-15351968D02*
X8883367Y-15342444D01*
X8883367Y-15342444D02*
X8911939Y-15342444D01*
X8911939Y-15342444D02*
X8930986Y-15351968D01*
X8930986Y-15351968D02*
X8940510Y-15371015D01*
X8940510Y-15371015D02*
X8940510Y-15475777D01*
X8940510Y-15371015D02*
X8950034Y-15351968D01*
X8950034Y-15351968D02*
X8969081Y-15342444D01*
X8969081Y-15342444D02*
X8997653Y-15342444D01*
X8997653Y-15342444D02*
X9016700Y-15351968D01*
X9016700Y-15351968D02*
X9026224Y-15371015D01*
X9026224Y-15371015D02*
X9026224Y-15475777D01*
X9416700Y-15266253D02*
X9245272Y-15523396D01*
X9673843Y-15275777D02*
X9692891Y-15275777D01*
X9692891Y-15275777D02*
X9711939Y-15285301D01*
X9711939Y-15285301D02*
X9721462Y-15294825D01*
X9721462Y-15294825D02*
X9730986Y-15313872D01*
X9730986Y-15313872D02*
X9740510Y-15351968D01*
X9740510Y-15351968D02*
X9740510Y-15399587D01*
X9740510Y-15399587D02*
X9730986Y-15437682D01*
X9730986Y-15437682D02*
X9721462Y-15456730D01*
X9721462Y-15456730D02*
X9711939Y-15466253D01*
X9711939Y-15466253D02*
X9692891Y-15475777D01*
X9692891Y-15475777D02*
X9673843Y-15475777D01*
X9673843Y-15475777D02*
X9654796Y-15466253D01*
X9654796Y-15466253D02*
X9645272Y-15456730D01*
X9645272Y-15456730D02*
X9635748Y-15437682D01*
X9635748Y-15437682D02*
X9626224Y-15399587D01*
X9626224Y-15399587D02*
X9626224Y-15351968D01*
X9626224Y-15351968D02*
X9635748Y-15313872D01*
X9635748Y-15313872D02*
X9645272Y-15294825D01*
X9645272Y-15294825D02*
X9654796Y-15285301D01*
X9654796Y-15285301D02*
X9673843Y-15275777D01*
X9826224Y-15456730D02*
X9835748Y-15466253D01*
X9835748Y-15466253D02*
X9826224Y-15475777D01*
X9826224Y-15475777D02*
X9816701Y-15466253D01*
X9816701Y-15466253D02*
X9826224Y-15456730D01*
X9826224Y-15456730D02*
X9826224Y-15475777D01*
X9959558Y-15275777D02*
X9978605Y-15275777D01*
X9978605Y-15275777D02*
X9997653Y-15285301D01*
X9997653Y-15285301D02*
X10007177Y-15294825D01*
X10007177Y-15294825D02*
X10016701Y-15313872D01*
X10016701Y-15313872D02*
X10026224Y-15351968D01*
X10026224Y-15351968D02*
X10026224Y-15399587D01*
X10026224Y-15399587D02*
X10016701Y-15437682D01*
X10016701Y-15437682D02*
X10007177Y-15456730D01*
X10007177Y-15456730D02*
X9997653Y-15466253D01*
X9997653Y-15466253D02*
X9978605Y-15475777D01*
X9978605Y-15475777D02*
X9959558Y-15475777D01*
X9959558Y-15475777D02*
X9940510Y-15466253D01*
X9940510Y-15466253D02*
X9930986Y-15456730D01*
X9930986Y-15456730D02*
X9921462Y-15437682D01*
X9921462Y-15437682D02*
X9911939Y-15399587D01*
X9911939Y-15399587D02*
X9911939Y-15351968D01*
X9911939Y-15351968D02*
X9921462Y-15313872D01*
X9921462Y-15313872D02*
X9930986Y-15294825D01*
X9930986Y-15294825D02*
X9940510Y-15285301D01*
X9940510Y-15285301D02*
X9959558Y-15275777D01*
X10197653Y-15342444D02*
X10197653Y-15475777D01*
X10150034Y-15266253D02*
X10102415Y-15409111D01*
X10102415Y-15409111D02*
X10226224Y-15409111D01*
X10283367Y-15275777D02*
X10407177Y-15275777D01*
X10407177Y-15275777D02*
X10340510Y-15351968D01*
X10340510Y-15351968D02*
X10369082Y-15351968D01*
X10369082Y-15351968D02*
X10388129Y-15361491D01*
X10388129Y-15361491D02*
X10397653Y-15371015D01*
X10397653Y-15371015D02*
X10407177Y-15390063D01*
X10407177Y-15390063D02*
X10407177Y-15437682D01*
X10407177Y-15437682D02*
X10397653Y-15456730D01*
X10397653Y-15456730D02*
X10388129Y-15466253D01*
X10388129Y-15466253D02*
X10369082Y-15475777D01*
X10369082Y-15475777D02*
X10311939Y-15475777D01*
X10311939Y-15475777D02*
X10292891Y-15466253D01*
X10292891Y-15466253D02*
X10283367Y-15456730D01*
X10473843Y-15275777D02*
X10597653Y-15275777D01*
X10597653Y-15275777D02*
X10530986Y-15351968D01*
X10530986Y-15351968D02*
X10559558Y-15351968D01*
X10559558Y-15351968D02*
X10578605Y-15361491D01*
X10578605Y-15361491D02*
X10588129Y-15371015D01*
X10588129Y-15371015D02*
X10597653Y-15390063D01*
X10597653Y-15390063D02*
X10597653Y-15437682D01*
X10597653Y-15437682D02*
X10588129Y-15456730D01*
X10588129Y-15456730D02*
X10578605Y-15466253D01*
X10578605Y-15466253D02*
X10559558Y-15475777D01*
X10559558Y-15475777D02*
X10502415Y-15475777D01*
X10502415Y-15475777D02*
X10483367Y-15466253D01*
X10483367Y-15466253D02*
X10473843Y-15456730D01*
X10673843Y-15275777D02*
X10673843Y-15313872D01*
X10750034Y-15275777D02*
X10750034Y-15313872D01*
X11045272Y-15551968D02*
X11035748Y-15542444D01*
X11035748Y-15542444D02*
X11016701Y-15513872D01*
X11016701Y-15513872D02*
X11007177Y-15494825D01*
X11007177Y-15494825D02*
X10997653Y-15466253D01*
X10997653Y-15466253D02*
X10988129Y-15418634D01*
X10988129Y-15418634D02*
X10988129Y-15380539D01*
X10988129Y-15380539D02*
X10997653Y-15332920D01*
X10997653Y-15332920D02*
X11007177Y-15304349D01*
X11007177Y-15304349D02*
X11016701Y-15285301D01*
X11016701Y-15285301D02*
X11035748Y-15256730D01*
X11035748Y-15256730D02*
X11045272Y-15247206D01*
X11102415Y-15275777D02*
X11226224Y-15275777D01*
X11226224Y-15275777D02*
X11159558Y-15351968D01*
X11159558Y-15351968D02*
X11188129Y-15351968D01*
X11188129Y-15351968D02*
X11207177Y-15361491D01*
X11207177Y-15361491D02*
X11216701Y-15371015D01*
X11216701Y-15371015D02*
X11226224Y-15390063D01*
X11226224Y-15390063D02*
X11226224Y-15437682D01*
X11226224Y-15437682D02*
X11216701Y-15456730D01*
X11216701Y-15456730D02*
X11207177Y-15466253D01*
X11207177Y-15466253D02*
X11188129Y-15475777D01*
X11188129Y-15475777D02*
X11130986Y-15475777D01*
X11130986Y-15475777D02*
X11111939Y-15466253D01*
X11111939Y-15466253D02*
X11102415Y-15456730D01*
X11321462Y-15475777D02*
X11359558Y-15475777D01*
X11359558Y-15475777D02*
X11378605Y-15466253D01*
X11378605Y-15466253D02*
X11388129Y-15456730D01*
X11388129Y-15456730D02*
X11407177Y-15428158D01*
X11407177Y-15428158D02*
X11416701Y-15390063D01*
X11416701Y-15390063D02*
X11416701Y-15313872D01*
X11416701Y-15313872D02*
X11407177Y-15294825D01*
X11407177Y-15294825D02*
X11397653Y-15285301D01*
X11397653Y-15285301D02*
X11378605Y-15275777D01*
X11378605Y-15275777D02*
X11340510Y-15275777D01*
X11340510Y-15275777D02*
X11321462Y-15285301D01*
X11321462Y-15285301D02*
X11311939Y-15294825D01*
X11311939Y-15294825D02*
X11302415Y-15313872D01*
X11302415Y-15313872D02*
X11302415Y-15361491D01*
X11302415Y-15361491D02*
X11311939Y-15380539D01*
X11311939Y-15380539D02*
X11321462Y-15390063D01*
X11321462Y-15390063D02*
X11340510Y-15399587D01*
X11340510Y-15399587D02*
X11378605Y-15399587D01*
X11378605Y-15399587D02*
X11397653Y-15390063D01*
X11397653Y-15390063D02*
X11407177Y-15380539D01*
X11407177Y-15380539D02*
X11416701Y-15361491D01*
X11654796Y-15475777D02*
X11654796Y-15275777D01*
X11740510Y-15475777D02*
X11740510Y-15371015D01*
X11740510Y-15371015D02*
X11730986Y-15351968D01*
X11730986Y-15351968D02*
X11711939Y-15342444D01*
X11711939Y-15342444D02*
X11683367Y-15342444D01*
X11683367Y-15342444D02*
X11664320Y-15351968D01*
X11664320Y-15351968D02*
X11654796Y-15361491D01*
X11864320Y-15475777D02*
X11845272Y-15466253D01*
X11845272Y-15466253D02*
X11835748Y-15456730D01*
X11835748Y-15456730D02*
X11826224Y-15437682D01*
X11826224Y-15437682D02*
X11826224Y-15380539D01*
X11826224Y-15380539D02*
X11835748Y-15361491D01*
X11835748Y-15361491D02*
X11845272Y-15351968D01*
X11845272Y-15351968D02*
X11864320Y-15342444D01*
X11864320Y-15342444D02*
X11892891Y-15342444D01*
X11892891Y-15342444D02*
X11911939Y-15351968D01*
X11911939Y-15351968D02*
X11921463Y-15361491D01*
X11921463Y-15361491D02*
X11930986Y-15380539D01*
X11930986Y-15380539D02*
X11930986Y-15437682D01*
X11930986Y-15437682D02*
X11921463Y-15456730D01*
X11921463Y-15456730D02*
X11911939Y-15466253D01*
X11911939Y-15466253D02*
X11892891Y-15475777D01*
X11892891Y-15475777D02*
X11864320Y-15475777D01*
X12045272Y-15475777D02*
X12026224Y-15466253D01*
X12026224Y-15466253D02*
X12016701Y-15447206D01*
X12016701Y-15447206D02*
X12016701Y-15275777D01*
X12197653Y-15466253D02*
X12178605Y-15475777D01*
X12178605Y-15475777D02*
X12140510Y-15475777D01*
X12140510Y-15475777D02*
X12121463Y-15466253D01*
X12121463Y-15466253D02*
X12111939Y-15447206D01*
X12111939Y-15447206D02*
X12111939Y-15371015D01*
X12111939Y-15371015D02*
X12121463Y-15351968D01*
X12121463Y-15351968D02*
X12140510Y-15342444D01*
X12140510Y-15342444D02*
X12178605Y-15342444D01*
X12178605Y-15342444D02*
X12197653Y-15351968D01*
X12197653Y-15351968D02*
X12207177Y-15371015D01*
X12207177Y-15371015D02*
X12207177Y-15390063D01*
X12207177Y-15390063D02*
X12111939Y-15409111D01*
X12283367Y-15466253D02*
X12302415Y-15475777D01*
X12302415Y-15475777D02*
X12340510Y-15475777D01*
X12340510Y-15475777D02*
X12359558Y-15466253D01*
X12359558Y-15466253D02*
X12369082Y-15447206D01*
X12369082Y-15447206D02*
X12369082Y-15437682D01*
X12369082Y-15437682D02*
X12359558Y-15418634D01*
X12359558Y-15418634D02*
X12340510Y-15409111D01*
X12340510Y-15409111D02*
X12311939Y-15409111D01*
X12311939Y-15409111D02*
X12292891Y-15399587D01*
X12292891Y-15399587D02*
X12283367Y-15380539D01*
X12283367Y-15380539D02*
X12283367Y-15371015D01*
X12283367Y-15371015D02*
X12292891Y-15351968D01*
X12292891Y-15351968D02*
X12311939Y-15342444D01*
X12311939Y-15342444D02*
X12340510Y-15342444D01*
X12340510Y-15342444D02*
X12359558Y-15351968D01*
X12435748Y-15551968D02*
X12445272Y-15542444D01*
X12445272Y-15542444D02*
X12464320Y-15513872D01*
X12464320Y-15513872D02*
X12473844Y-15494825D01*
X12473844Y-15494825D02*
X12483367Y-15466253D01*
X12483367Y-15466253D02*
X12492891Y-15418634D01*
X12492891Y-15418634D02*
X12492891Y-15380539D01*
X12492891Y-15380539D02*
X12483367Y-15332920D01*
X12483367Y-15332920D02*
X12473844Y-15304349D01*
X12473844Y-15304349D02*
X12464320Y-15285301D01*
X12464320Y-15285301D02*
X12445272Y-15256730D01*
X12445272Y-15256730D02*
X12435748Y-15247206D01*
X7370209Y-15548293D02*
X7370209Y-15748293D01*
X7270209Y-15648293D02*
X7470209Y-15648293D01*
X7711938Y-15539777D02*
X7835748Y-15539777D01*
X7835748Y-15539777D02*
X7769081Y-15615968D01*
X7769081Y-15615968D02*
X7797653Y-15615968D01*
X7797653Y-15615968D02*
X7816700Y-15625491D01*
X7816700Y-15625491D02*
X7826224Y-15635015D01*
X7826224Y-15635015D02*
X7835748Y-15654063D01*
X7835748Y-15654063D02*
X7835748Y-15701682D01*
X7835748Y-15701682D02*
X7826224Y-15720730D01*
X7826224Y-15720730D02*
X7816700Y-15730253D01*
X7816700Y-15730253D02*
X7797653Y-15739777D01*
X7797653Y-15739777D02*
X7740510Y-15739777D01*
X7740510Y-15739777D02*
X7721462Y-15730253D01*
X7721462Y-15730253D02*
X7711938Y-15720730D01*
X7921462Y-15720730D02*
X7930986Y-15730253D01*
X7930986Y-15730253D02*
X7921462Y-15739777D01*
X7921462Y-15739777D02*
X7911938Y-15730253D01*
X7911938Y-15730253D02*
X7921462Y-15720730D01*
X7921462Y-15720730D02*
X7921462Y-15739777D01*
X8007176Y-15558825D02*
X8016700Y-15549301D01*
X8016700Y-15549301D02*
X8035748Y-15539777D01*
X8035748Y-15539777D02*
X8083367Y-15539777D01*
X8083367Y-15539777D02*
X8102415Y-15549301D01*
X8102415Y-15549301D02*
X8111938Y-15558825D01*
X8111938Y-15558825D02*
X8121462Y-15577872D01*
X8121462Y-15577872D02*
X8121462Y-15596920D01*
X8121462Y-15596920D02*
X8111938Y-15625491D01*
X8111938Y-15625491D02*
X7997653Y-15739777D01*
X7997653Y-15739777D02*
X8121462Y-15739777D01*
X8245272Y-15539777D02*
X8264319Y-15539777D01*
X8264319Y-15539777D02*
X8283367Y-15549301D01*
X8283367Y-15549301D02*
X8292891Y-15558825D01*
X8292891Y-15558825D02*
X8302415Y-15577872D01*
X8302415Y-15577872D02*
X8311938Y-15615968D01*
X8311938Y-15615968D02*
X8311938Y-15663587D01*
X8311938Y-15663587D02*
X8302415Y-15701682D01*
X8302415Y-15701682D02*
X8292891Y-15720730D01*
X8292891Y-15720730D02*
X8283367Y-15730253D01*
X8283367Y-15730253D02*
X8264319Y-15739777D01*
X8264319Y-15739777D02*
X8245272Y-15739777D01*
X8245272Y-15739777D02*
X8226224Y-15730253D01*
X8226224Y-15730253D02*
X8216700Y-15720730D01*
X8216700Y-15720730D02*
X8207176Y-15701682D01*
X8207176Y-15701682D02*
X8197653Y-15663587D01*
X8197653Y-15663587D02*
X8197653Y-15615968D01*
X8197653Y-15615968D02*
X8207176Y-15577872D01*
X8207176Y-15577872D02*
X8216700Y-15558825D01*
X8216700Y-15558825D02*
X8226224Y-15549301D01*
X8226224Y-15549301D02*
X8245272Y-15539777D01*
X8435748Y-15539777D02*
X8454796Y-15539777D01*
X8454796Y-15539777D02*
X8473843Y-15549301D01*
X8473843Y-15549301D02*
X8483367Y-15558825D01*
X8483367Y-15558825D02*
X8492891Y-15577872D01*
X8492891Y-15577872D02*
X8502415Y-15615968D01*
X8502415Y-15615968D02*
X8502415Y-15663587D01*
X8502415Y-15663587D02*
X8492891Y-15701682D01*
X8492891Y-15701682D02*
X8483367Y-15720730D01*
X8483367Y-15720730D02*
X8473843Y-15730253D01*
X8473843Y-15730253D02*
X8454796Y-15739777D01*
X8454796Y-15739777D02*
X8435748Y-15739777D01*
X8435748Y-15739777D02*
X8416700Y-15730253D01*
X8416700Y-15730253D02*
X8407177Y-15720730D01*
X8407177Y-15720730D02*
X8397653Y-15701682D01*
X8397653Y-15701682D02*
X8388129Y-15663587D01*
X8388129Y-15663587D02*
X8388129Y-15615968D01*
X8388129Y-15615968D02*
X8397653Y-15577872D01*
X8397653Y-15577872D02*
X8407177Y-15558825D01*
X8407177Y-15558825D02*
X8416700Y-15549301D01*
X8416700Y-15549301D02*
X8435748Y-15539777D01*
X8588129Y-15739777D02*
X8588129Y-15606444D01*
X8588129Y-15625491D02*
X8597653Y-15615968D01*
X8597653Y-15615968D02*
X8616700Y-15606444D01*
X8616700Y-15606444D02*
X8645272Y-15606444D01*
X8645272Y-15606444D02*
X8664319Y-15615968D01*
X8664319Y-15615968D02*
X8673843Y-15635015D01*
X8673843Y-15635015D02*
X8673843Y-15739777D01*
X8673843Y-15635015D02*
X8683367Y-15615968D01*
X8683367Y-15615968D02*
X8702415Y-15606444D01*
X8702415Y-15606444D02*
X8730986Y-15606444D01*
X8730986Y-15606444D02*
X8750034Y-15615968D01*
X8750034Y-15615968D02*
X8759558Y-15635015D01*
X8759558Y-15635015D02*
X8759558Y-15739777D01*
X8854796Y-15739777D02*
X8854796Y-15606444D01*
X8854796Y-15625491D02*
X8864319Y-15615968D01*
X8864319Y-15615968D02*
X8883367Y-15606444D01*
X8883367Y-15606444D02*
X8911939Y-15606444D01*
X8911939Y-15606444D02*
X8930986Y-15615968D01*
X8930986Y-15615968D02*
X8940510Y-15635015D01*
X8940510Y-15635015D02*
X8940510Y-15739777D01*
X8940510Y-15635015D02*
X8950034Y-15615968D01*
X8950034Y-15615968D02*
X8969081Y-15606444D01*
X8969081Y-15606444D02*
X8997653Y-15606444D01*
X8997653Y-15606444D02*
X9016700Y-15615968D01*
X9016700Y-15615968D02*
X9026224Y-15635015D01*
X9026224Y-15635015D02*
X9026224Y-15739777D01*
X9416700Y-15530253D02*
X9245272Y-15787396D01*
X9673843Y-15539777D02*
X9692891Y-15539777D01*
X9692891Y-15539777D02*
X9711939Y-15549301D01*
X9711939Y-15549301D02*
X9721462Y-15558825D01*
X9721462Y-15558825D02*
X9730986Y-15577872D01*
X9730986Y-15577872D02*
X9740510Y-15615968D01*
X9740510Y-15615968D02*
X9740510Y-15663587D01*
X9740510Y-15663587D02*
X9730986Y-15701682D01*
X9730986Y-15701682D02*
X9721462Y-15720730D01*
X9721462Y-15720730D02*
X9711939Y-15730253D01*
X9711939Y-15730253D02*
X9692891Y-15739777D01*
X9692891Y-15739777D02*
X9673843Y-15739777D01*
X9673843Y-15739777D02*
X9654796Y-15730253D01*
X9654796Y-15730253D02*
X9645272Y-15720730D01*
X9645272Y-15720730D02*
X9635748Y-15701682D01*
X9635748Y-15701682D02*
X9626224Y-15663587D01*
X9626224Y-15663587D02*
X9626224Y-15615968D01*
X9626224Y-15615968D02*
X9635748Y-15577872D01*
X9635748Y-15577872D02*
X9645272Y-15558825D01*
X9645272Y-15558825D02*
X9654796Y-15549301D01*
X9654796Y-15549301D02*
X9673843Y-15539777D01*
X9826224Y-15720730D02*
X9835748Y-15730253D01*
X9835748Y-15730253D02*
X9826224Y-15739777D01*
X9826224Y-15739777D02*
X9816701Y-15730253D01*
X9816701Y-15730253D02*
X9826224Y-15720730D01*
X9826224Y-15720730D02*
X9826224Y-15739777D01*
X10026224Y-15739777D02*
X9911939Y-15739777D01*
X9969081Y-15739777D02*
X9969081Y-15539777D01*
X9969081Y-15539777D02*
X9950034Y-15568349D01*
X9950034Y-15568349D02*
X9930986Y-15587396D01*
X9930986Y-15587396D02*
X9911939Y-15596920D01*
X10102415Y-15558825D02*
X10111939Y-15549301D01*
X10111939Y-15549301D02*
X10130986Y-15539777D01*
X10130986Y-15539777D02*
X10178605Y-15539777D01*
X10178605Y-15539777D02*
X10197653Y-15549301D01*
X10197653Y-15549301D02*
X10207177Y-15558825D01*
X10207177Y-15558825D02*
X10216701Y-15577872D01*
X10216701Y-15577872D02*
X10216701Y-15596920D01*
X10216701Y-15596920D02*
X10207177Y-15625491D01*
X10207177Y-15625491D02*
X10092891Y-15739777D01*
X10092891Y-15739777D02*
X10216701Y-15739777D01*
X10388129Y-15539777D02*
X10350034Y-15539777D01*
X10350034Y-15539777D02*
X10330986Y-15549301D01*
X10330986Y-15549301D02*
X10321462Y-15558825D01*
X10321462Y-15558825D02*
X10302415Y-15587396D01*
X10302415Y-15587396D02*
X10292891Y-15625491D01*
X10292891Y-15625491D02*
X10292891Y-15701682D01*
X10292891Y-15701682D02*
X10302415Y-15720730D01*
X10302415Y-15720730D02*
X10311939Y-15730253D01*
X10311939Y-15730253D02*
X10330986Y-15739777D01*
X10330986Y-15739777D02*
X10369082Y-15739777D01*
X10369082Y-15739777D02*
X10388129Y-15730253D01*
X10388129Y-15730253D02*
X10397653Y-15720730D01*
X10397653Y-15720730D02*
X10407177Y-15701682D01*
X10407177Y-15701682D02*
X10407177Y-15654063D01*
X10407177Y-15654063D02*
X10397653Y-15635015D01*
X10397653Y-15635015D02*
X10388129Y-15625491D01*
X10388129Y-15625491D02*
X10369082Y-15615968D01*
X10369082Y-15615968D02*
X10330986Y-15615968D01*
X10330986Y-15615968D02*
X10311939Y-15625491D01*
X10311939Y-15625491D02*
X10302415Y-15635015D01*
X10302415Y-15635015D02*
X10292891Y-15654063D01*
X10530986Y-15539777D02*
X10550034Y-15539777D01*
X10550034Y-15539777D02*
X10569082Y-15549301D01*
X10569082Y-15549301D02*
X10578605Y-15558825D01*
X10578605Y-15558825D02*
X10588129Y-15577872D01*
X10588129Y-15577872D02*
X10597653Y-15615968D01*
X10597653Y-15615968D02*
X10597653Y-15663587D01*
X10597653Y-15663587D02*
X10588129Y-15701682D01*
X10588129Y-15701682D02*
X10578605Y-15720730D01*
X10578605Y-15720730D02*
X10569082Y-15730253D01*
X10569082Y-15730253D02*
X10550034Y-15739777D01*
X10550034Y-15739777D02*
X10530986Y-15739777D01*
X10530986Y-15739777D02*
X10511939Y-15730253D01*
X10511939Y-15730253D02*
X10502415Y-15720730D01*
X10502415Y-15720730D02*
X10492891Y-15701682D01*
X10492891Y-15701682D02*
X10483367Y-15663587D01*
X10483367Y-15663587D02*
X10483367Y-15615968D01*
X10483367Y-15615968D02*
X10492891Y-15577872D01*
X10492891Y-15577872D02*
X10502415Y-15558825D01*
X10502415Y-15558825D02*
X10511939Y-15549301D01*
X10511939Y-15549301D02*
X10530986Y-15539777D01*
X10673843Y-15539777D02*
X10673843Y-15577872D01*
X10750034Y-15539777D02*
X10750034Y-15577872D01*
X11045272Y-15815968D02*
X11035748Y-15806444D01*
X11035748Y-15806444D02*
X11016701Y-15777872D01*
X11016701Y-15777872D02*
X11007177Y-15758825D01*
X11007177Y-15758825D02*
X10997653Y-15730253D01*
X10997653Y-15730253D02*
X10988129Y-15682634D01*
X10988129Y-15682634D02*
X10988129Y-15644539D01*
X10988129Y-15644539D02*
X10997653Y-15596920D01*
X10997653Y-15596920D02*
X11007177Y-15568349D01*
X11007177Y-15568349D02*
X11016701Y-15549301D01*
X11016701Y-15549301D02*
X11035748Y-15520730D01*
X11035748Y-15520730D02*
X11045272Y-15511206D01*
X11207177Y-15606444D02*
X11207177Y-15739777D01*
X11159558Y-15530253D02*
X11111939Y-15673111D01*
X11111939Y-15673111D02*
X11235748Y-15673111D01*
X11464320Y-15739777D02*
X11464320Y-15539777D01*
X11550034Y-15739777D02*
X11550034Y-15635015D01*
X11550034Y-15635015D02*
X11540510Y-15615968D01*
X11540510Y-15615968D02*
X11521463Y-15606444D01*
X11521463Y-15606444D02*
X11492891Y-15606444D01*
X11492891Y-15606444D02*
X11473843Y-15615968D01*
X11473843Y-15615968D02*
X11464320Y-15625491D01*
X11673843Y-15739777D02*
X11654796Y-15730253D01*
X11654796Y-15730253D02*
X11645272Y-15720730D01*
X11645272Y-15720730D02*
X11635748Y-15701682D01*
X11635748Y-15701682D02*
X11635748Y-15644539D01*
X11635748Y-15644539D02*
X11645272Y-15625491D01*
X11645272Y-15625491D02*
X11654796Y-15615968D01*
X11654796Y-15615968D02*
X11673843Y-15606444D01*
X11673843Y-15606444D02*
X11702415Y-15606444D01*
X11702415Y-15606444D02*
X11721463Y-15615968D01*
X11721463Y-15615968D02*
X11730986Y-15625491D01*
X11730986Y-15625491D02*
X11740510Y-15644539D01*
X11740510Y-15644539D02*
X11740510Y-15701682D01*
X11740510Y-15701682D02*
X11730986Y-15720730D01*
X11730986Y-15720730D02*
X11721463Y-15730253D01*
X11721463Y-15730253D02*
X11702415Y-15739777D01*
X11702415Y-15739777D02*
X11673843Y-15739777D01*
X11854796Y-15739777D02*
X11835748Y-15730253D01*
X11835748Y-15730253D02*
X11826224Y-15711206D01*
X11826224Y-15711206D02*
X11826224Y-15539777D01*
X12007177Y-15730253D02*
X11988129Y-15739777D01*
X11988129Y-15739777D02*
X11950034Y-15739777D01*
X11950034Y-15739777D02*
X11930986Y-15730253D01*
X11930986Y-15730253D02*
X11921463Y-15711206D01*
X11921463Y-15711206D02*
X11921463Y-15635015D01*
X11921463Y-15635015D02*
X11930986Y-15615968D01*
X11930986Y-15615968D02*
X11950034Y-15606444D01*
X11950034Y-15606444D02*
X11988129Y-15606444D01*
X11988129Y-15606444D02*
X12007177Y-15615968D01*
X12007177Y-15615968D02*
X12016701Y-15635015D01*
X12016701Y-15635015D02*
X12016701Y-15654063D01*
X12016701Y-15654063D02*
X11921463Y-15673111D01*
X12092891Y-15730253D02*
X12111939Y-15739777D01*
X12111939Y-15739777D02*
X12150034Y-15739777D01*
X12150034Y-15739777D02*
X12169082Y-15730253D01*
X12169082Y-15730253D02*
X12178605Y-15711206D01*
X12178605Y-15711206D02*
X12178605Y-15701682D01*
X12178605Y-15701682D02*
X12169082Y-15682634D01*
X12169082Y-15682634D02*
X12150034Y-15673111D01*
X12150034Y-15673111D02*
X12121463Y-15673111D01*
X12121463Y-15673111D02*
X12102415Y-15663587D01*
X12102415Y-15663587D02*
X12092891Y-15644539D01*
X12092891Y-15644539D02*
X12092891Y-15635015D01*
X12092891Y-15635015D02*
X12102415Y-15615968D01*
X12102415Y-15615968D02*
X12121463Y-15606444D01*
X12121463Y-15606444D02*
X12150034Y-15606444D01*
X12150034Y-15606444D02*
X12169082Y-15615968D01*
X12245272Y-15815968D02*
X12254796Y-15806444D01*
X12254796Y-15806444D02*
X12273844Y-15777872D01*
X12273844Y-15777872D02*
X12283367Y-15758825D01*
X12283367Y-15758825D02*
X12292891Y-15730253D01*
X12292891Y-15730253D02*
X12302415Y-15682634D01*
X12302415Y-15682634D02*
X12302415Y-15644539D01*
X12302415Y-15644539D02*
X12292891Y-15596920D01*
X12292891Y-15596920D02*
X12283367Y-15568349D01*
X12283367Y-15568349D02*
X12273844Y-15549301D01*
X12273844Y-15549301D02*
X12254796Y-15520730D01*
X12254796Y-15520730D02*
X12245272Y-15511206D01*
M02*
