G04 #@! TF.GenerationSoftware,KiCad,Pcbnew,7.0.7-7.0.7~ubuntu22.04.1*
G04 #@! TF.CreationDate,2023-09-16T20:12:51-03:00*
G04 #@! TF.ProjectId,EQfixture,45516669-7874-4757-9265-2e6b69636164,rev?*
G04 #@! TF.SameCoordinates,Original*
G04 #@! TF.FileFunction,Copper,L2,Bot*
G04 #@! TF.FilePolarity,Positive*
%FSLAX46Y46*%
G04 Gerber Fmt 4.6, Leading zero omitted, Abs format (unit mm)*
G04 Created by KiCad (PCBNEW 7.0.7-7.0.7~ubuntu22.04.1) date 2023-09-16 20:12:51*
%MOMM*%
%LPD*%
G01*
G04 APERTURE LIST*
G04 Aperture macros list*
%AMRoundRect*
0 Rectangle with rounded corners*
0 $1 Rounding radius*
0 $2 $3 $4 $5 $6 $7 $8 $9 X,Y pos of 4 corners*
0 Add a 4 corners polygon primitive as box body*
4,1,4,$2,$3,$4,$5,$6,$7,$8,$9,$2,$3,0*
0 Add four circle primitives for the rounded corners*
1,1,$1+$1,$2,$3*
1,1,$1+$1,$4,$5*
1,1,$1+$1,$6,$7*
1,1,$1+$1,$8,$9*
0 Add four rect primitives between the rounded corners*
20,1,$1+$1,$2,$3,$4,$5,0*
20,1,$1+$1,$4,$5,$6,$7,0*
20,1,$1+$1,$6,$7,$8,$9,0*
20,1,$1+$1,$8,$9,$2,$3,0*%
G04 Aperture macros list end*
G04 #@! TA.AperFunction,ComponentPad*
%ADD10C,6.400000*%
G04 #@! TD*
G04 #@! TA.AperFunction,ComponentPad*
%ADD11RoundRect,0.278871X-0.571129X-0.571129X0.571129X-0.571129X0.571129X0.571129X-0.571129X0.571129X0*%
G04 #@! TD*
G04 #@! TA.AperFunction,ComponentPad*
%ADD12R,1.700000X1.700000*%
G04 #@! TD*
G04 #@! TA.AperFunction,ComponentPad*
%ADD13O,1.700000X1.700000*%
G04 #@! TD*
G04 #@! TA.AperFunction,Conductor*
%ADD14C,1.016000*%
G04 #@! TD*
G04 #@! TA.AperFunction,Conductor*
%ADD15C,0.250000*%
G04 #@! TD*
G04 #@! TA.AperFunction,Conductor*
%ADD16C,0.762000*%
G04 #@! TD*
G04 #@! TA.AperFunction,Conductor*
%ADD17C,0.304800*%
G04 #@! TD*
G04 #@! TA.AperFunction,Conductor*
%ADD18C,0.508000*%
G04 #@! TD*
G04 APERTURE END LIST*
D10*
X209535000Y-133785000D03*
X209535000Y-43785000D03*
X89535000Y-43785000D03*
X89535000Y-133785000D03*
D11*
X148984000Y-40788000D03*
X136284000Y-40788000D03*
X145481340Y-56175320D03*
X136284000Y-43328000D03*
X150210000Y-61230000D03*
X106566000Y-124862000D03*
X145481340Y-61255320D03*
X131204000Y-43328000D03*
X138824000Y-40788000D03*
X145481340Y-66335320D03*
X129630000Y-124710000D03*
X145481340Y-58715320D03*
X141364000Y-43328000D03*
X198290000Y-55590000D03*
X182810000Y-117640000D03*
X150210000Y-66310000D03*
X128664000Y-40788000D03*
X128664000Y-43328000D03*
X151524000Y-40788000D03*
X146444000Y-40788000D03*
X143904000Y-43328000D03*
X145481340Y-63795320D03*
X133744000Y-43328000D03*
X142956000Y-124710000D03*
X138824000Y-43328000D03*
X145481340Y-53635320D03*
X151524000Y-43328000D03*
X131204000Y-40788000D03*
X143904000Y-40788000D03*
X111646000Y-124862000D03*
X124550000Y-124710000D03*
X101486000Y-124862000D03*
X146444000Y-43328000D03*
X150210000Y-63770000D03*
X141364000Y-40788000D03*
X148984000Y-43328000D03*
X208450000Y-55590000D03*
X148036000Y-124710000D03*
X133744000Y-40788000D03*
D12*
X113195000Y-100670000D03*
D13*
X113195000Y-98130000D03*
X110655000Y-100670000D03*
X110655000Y-98130000D03*
X108115000Y-100670000D03*
X108115000Y-98130000D03*
X105575000Y-100670000D03*
X105575000Y-98130000D03*
X103035000Y-100670000D03*
X103035000Y-98130000D03*
D12*
X209715000Y-84070000D03*
D13*
X209715000Y-86610000D03*
X209715000Y-89150000D03*
D12*
X90335000Y-72095000D03*
D13*
X90335000Y-74635000D03*
X92875000Y-72095000D03*
X92875000Y-74635000D03*
X95415000Y-72095000D03*
X95415000Y-74635000D03*
X97955000Y-72095000D03*
X97955000Y-74635000D03*
X100495000Y-72095000D03*
X100495000Y-74635000D03*
X103035000Y-72095000D03*
X103035000Y-74635000D03*
X105575000Y-72095000D03*
X105575000Y-74635000D03*
X108115000Y-72095000D03*
X108115000Y-74635000D03*
X110655000Y-72095000D03*
X110655000Y-74635000D03*
X113195000Y-72095000D03*
X113195000Y-74635000D03*
D12*
X113195000Y-87335000D03*
D13*
X110655000Y-87335000D03*
X108115000Y-87335000D03*
X105575000Y-87335000D03*
X103035000Y-87335000D03*
X100495000Y-87335000D03*
D14*
X138824000Y-40788000D02*
X138824000Y-37144000D01*
X138824000Y-37144000D02*
X138780000Y-37100000D01*
D15*
X138824000Y-40788000D02*
X138595000Y-40559000D01*
D16*
X100495000Y-74635000D02*
X100495000Y-77175000D01*
D17*
X91605000Y-73365000D02*
X90335000Y-74635000D01*
X105132000Y-40788000D02*
X91605000Y-54315000D01*
X91605000Y-54315000D02*
X91605000Y-73365000D01*
X128664000Y-40788000D02*
X105132000Y-40788000D01*
X94145000Y-73365000D02*
X92875000Y-74635000D01*
X131204000Y-40788000D02*
X129919800Y-42072200D01*
X94145000Y-54315000D02*
X94145000Y-73365000D01*
X106387800Y-42072200D02*
X94145000Y-54315000D01*
X129919800Y-42072200D02*
X106387800Y-42072200D01*
X96685000Y-54315000D02*
X96685000Y-73365000D01*
X131674130Y-45425000D02*
X105575000Y-45425000D01*
X132473600Y-44625530D02*
X131674130Y-45425000D01*
X133744000Y-40788000D02*
X132473600Y-42058400D01*
X105575000Y-45425000D02*
X96685000Y-54315000D01*
X132473600Y-42058400D02*
X132473600Y-44625530D01*
X96685000Y-73365000D02*
X95415000Y-74635000D01*
X106845000Y-46695000D02*
X133515000Y-46695000D01*
X135013600Y-45196400D02*
X135013600Y-42058400D01*
X99225000Y-54315000D02*
X106845000Y-46695000D01*
X97955000Y-74635000D02*
X99225000Y-73365000D01*
X135013600Y-42058400D02*
X136284000Y-40788000D01*
X133515000Y-46695000D02*
X135013600Y-45196400D01*
X99225000Y-73365000D02*
X99225000Y-54315000D01*
X137007500Y-47965000D02*
X140093600Y-44878900D01*
X104305000Y-73365000D02*
X104305000Y-51775000D01*
X140093600Y-42058400D02*
X141364000Y-40788000D01*
X104305000Y-51775000D02*
X108115000Y-47965000D01*
X108115000Y-47965000D02*
X137007500Y-47965000D01*
X103035000Y-74635000D02*
X104305000Y-73365000D01*
X140093600Y-44878900D02*
X140093600Y-42058400D01*
X106845000Y-51775000D02*
X109385000Y-49235000D01*
X142633600Y-42058400D02*
X143904000Y-40788000D01*
X105575000Y-74635000D02*
X106845000Y-73365000D01*
X138595000Y-49235000D02*
X142633600Y-45196400D01*
X106845000Y-73365000D02*
X106845000Y-51775000D01*
X109385000Y-49235000D02*
X138595000Y-49235000D01*
X142633600Y-45196400D02*
X142633600Y-42058400D01*
X108115000Y-74635000D02*
X109385000Y-73365000D01*
X139915800Y-50505000D02*
X145173600Y-45247200D01*
X109385000Y-73365000D02*
X109385000Y-51775000D01*
X110655000Y-50505000D02*
X139915800Y-50505000D01*
X145173600Y-45247200D02*
X145173600Y-42058400D01*
X145173600Y-42058400D02*
X146444000Y-40788000D01*
X109385000Y-51775000D02*
X110655000Y-50505000D01*
X141135000Y-51775000D02*
X147713600Y-45196400D01*
X111925000Y-73365000D02*
X111925000Y-53045000D01*
X147713600Y-42058400D02*
X148984000Y-40788000D01*
X111925000Y-53045000D02*
X113195000Y-51775000D01*
X110655000Y-74635000D02*
X111925000Y-73365000D01*
X147713600Y-45196400D02*
X147713600Y-42058400D01*
X113195000Y-51775000D02*
X141135000Y-51775000D01*
X114465000Y-54315000D02*
X141665500Y-54315000D01*
X113195000Y-72095000D02*
X113195000Y-55585000D01*
X113195000Y-55585000D02*
X114465000Y-54315000D01*
X141701000Y-54279500D02*
X141701000Y-54245000D01*
X141701000Y-54245000D02*
X151524000Y-44422000D01*
X151524000Y-44422000D02*
X151524000Y-43328000D01*
X141665500Y-54315000D02*
X141701000Y-54279500D01*
D18*
X87795000Y-72095000D02*
X85255000Y-74635000D01*
X87795000Y-87335000D02*
X100495000Y-87335000D01*
X85255000Y-74635000D02*
X85255000Y-84795000D01*
X90335000Y-72095000D02*
X87795000Y-72095000D01*
X85255000Y-84795000D02*
X87795000Y-87335000D01*
G04 #@! TA.AperFunction,Conductor*
G36*
X215217946Y-33317341D02*
G01*
X215218793Y-33317414D01*
X215260746Y-33321079D01*
X215382087Y-33333015D01*
X215401996Y-33336635D01*
X215467065Y-33354062D01*
X215557110Y-33381367D01*
X215573496Y-33387635D01*
X215639174Y-33418254D01*
X215642159Y-33419745D01*
X215723430Y-33463177D01*
X215729771Y-33467072D01*
X215794260Y-33512221D01*
X215798026Y-33515077D01*
X215798085Y-33515126D01*
X215867958Y-33572463D01*
X215872470Y-33576552D01*
X215928492Y-33632569D01*
X215932581Y-33637081D01*
X215989979Y-33707018D01*
X215992840Y-33710789D01*
X216037991Y-33775269D01*
X216041881Y-33781602D01*
X216085316Y-33862864D01*
X216086814Y-33865861D01*
X216117431Y-33931520D01*
X216123708Y-33947927D01*
X216151012Y-34037943D01*
X216156380Y-34057980D01*
X216168432Y-34102965D01*
X216172064Y-34122953D01*
X216184478Y-34249563D01*
X216187684Y-34286240D01*
X216187920Y-34291642D01*
X216187919Y-36941677D01*
X216187994Y-36942431D01*
X216187997Y-37138788D01*
X216209396Y-37383351D01*
X216213038Y-37462080D01*
X216217552Y-37476558D01*
X216224436Y-37555233D01*
X216224437Y-37555233D01*
X216249110Y-37695160D01*
X216272544Y-37828052D01*
X216281410Y-37891608D01*
X216285503Y-37901541D01*
X216297031Y-37966914D01*
X216378558Y-38271169D01*
X216388459Y-38313262D01*
X216391304Y-38318737D01*
X216405229Y-38370702D01*
X216529440Y-38711965D01*
X216533336Y-38723586D01*
X216534111Y-38724798D01*
X216548210Y-38763532D01*
X216548210Y-38763533D01*
X216724873Y-39142385D01*
X216724874Y-39142386D01*
X216724875Y-39142388D01*
X216903764Y-39452232D01*
X216933895Y-39504421D01*
X217173661Y-39846844D01*
X217173665Y-39846849D01*
X217428529Y-40150587D01*
X217442366Y-40167078D01*
X217442365Y-40167078D01*
X217737961Y-40462679D01*
X218058190Y-40731389D01*
X218400622Y-40971168D01*
X218525753Y-41043415D01*
X218762647Y-41180191D01*
X219141508Y-41356866D01*
X219141508Y-41356865D01*
X219141510Y-41356866D01*
X219180231Y-41370960D01*
X219181149Y-41371635D01*
X219192991Y-41375604D01*
X219372378Y-41440900D01*
X219534330Y-41499849D01*
X219534329Y-41499849D01*
X219586286Y-41513772D01*
X219590446Y-41516307D01*
X219633811Y-41526507D01*
X219879981Y-41592474D01*
X219938124Y-41608055D01*
X219983968Y-41616139D01*
X220003488Y-41619581D01*
X220011088Y-41623348D01*
X220076954Y-41632537D01*
X220298368Y-41671585D01*
X220349804Y-41680656D01*
X220384596Y-41683700D01*
X220428432Y-41687536D01*
X220439628Y-41691916D01*
X220521683Y-41695697D01*
X220687974Y-41710250D01*
X220766237Y-41717100D01*
X220766258Y-41717100D01*
X220950492Y-41717104D01*
X220950499Y-41717106D01*
X223613034Y-41717106D01*
X223618458Y-41717343D01*
X223657359Y-41720762D01*
X223783091Y-41733174D01*
X223803148Y-41736839D01*
X223868358Y-41754412D01*
X223959073Y-41782092D01*
X223975542Y-41788431D01*
X224041420Y-41819350D01*
X224044387Y-41820843D01*
X224126185Y-41864862D01*
X224132507Y-41868774D01*
X224197141Y-41914372D01*
X224200900Y-41917248D01*
X224271120Y-41975347D01*
X224275641Y-41979479D01*
X224331653Y-42036007D01*
X224335744Y-42040566D01*
X224393177Y-42111293D01*
X224396035Y-42115103D01*
X224441022Y-42180128D01*
X224444902Y-42186530D01*
X224488142Y-42268678D01*
X224489637Y-42271717D01*
X224502297Y-42299347D01*
X224519922Y-42337814D01*
X224526119Y-42354364D01*
X224552972Y-42445346D01*
X224569931Y-42510661D01*
X224573419Y-42530794D01*
X224584850Y-42658781D01*
X224587713Y-42695199D01*
X224587901Y-42700681D01*
X224587450Y-42745794D01*
X224587921Y-42750270D01*
X224587921Y-135327066D01*
X224587685Y-135332471D01*
X224583945Y-135375227D01*
X224571997Y-135496565D01*
X224568370Y-135516504D01*
X224550934Y-135581579D01*
X224523636Y-135671574D01*
X224517357Y-135687985D01*
X224486739Y-135753647D01*
X224485227Y-135756672D01*
X224441813Y-135837897D01*
X224437917Y-135844239D01*
X224392761Y-135908726D01*
X224389900Y-135912498D01*
X224332524Y-135982410D01*
X224328435Y-135986922D01*
X224272410Y-136042945D01*
X224267900Y-136047033D01*
X224197991Y-136104406D01*
X224194218Y-136107268D01*
X224129728Y-136152423D01*
X224123386Y-136156319D01*
X224042135Y-136199746D01*
X224039110Y-136201258D01*
X223973485Y-136231858D01*
X223957076Y-136238135D01*
X223867052Y-136265442D01*
X223801984Y-136282874D01*
X223782054Y-136286500D01*
X223661665Y-136298362D01*
X223617793Y-136302199D01*
X223612389Y-136302435D01*
X221026632Y-136302435D01*
X221026584Y-136302421D01*
X220975256Y-136302421D01*
X220766241Y-136302422D01*
X220766236Y-136302423D01*
X220519549Y-136324007D01*
X220441744Y-136327605D01*
X220427425Y-136332068D01*
X220426854Y-136332118D01*
X220349789Y-136338861D01*
X220307988Y-136346231D01*
X220074578Y-136387389D01*
X220012158Y-136396097D01*
X220002392Y-136400118D01*
X219977715Y-136404469D01*
X219938101Y-136411455D01*
X219640150Y-136491293D01*
X219631125Y-136493712D01*
X219590426Y-136503284D01*
X219585130Y-136506036D01*
X219553208Y-136514590D01*
X219534308Y-136519655D01*
X219534305Y-136519656D01*
X219534304Y-136519656D01*
X219189799Y-136645046D01*
X219180037Y-136648318D01*
X219179006Y-136648975D01*
X219141480Y-136662634D01*
X218762609Y-136839307D01*
X218400578Y-137048328D01*
X218400579Y-137048327D01*
X218058147Y-137288101D01*
X218058141Y-137288106D01*
X217913349Y-137409602D01*
X217737910Y-137556813D01*
X217737911Y-137556813D01*
X217737906Y-137556817D01*
X217590109Y-137704613D01*
X217442314Y-137852409D01*
X217442315Y-137852409D01*
X217442308Y-137852416D01*
X217288322Y-138035928D01*
X217173598Y-138172651D01*
X217173599Y-138172651D01*
X216933824Y-138515085D01*
X216933821Y-138515089D01*
X216933821Y-138515090D01*
X216724823Y-138877085D01*
X216724800Y-138877124D01*
X216724799Y-138877125D01*
X216636284Y-139066946D01*
X216548129Y-139255993D01*
X216534467Y-139293528D01*
X216533897Y-139294301D01*
X216530544Y-139304305D01*
X216405150Y-139648821D01*
X216391532Y-139699641D01*
X216389081Y-139703662D01*
X216379215Y-139745612D01*
X216296953Y-140052610D01*
X216296953Y-140052611D01*
X216285614Y-140116914D01*
X216281915Y-140124375D01*
X216272889Y-140189079D01*
X216224359Y-140464303D01*
X216218534Y-140530875D01*
X216217565Y-140541952D01*
X216213258Y-140552960D01*
X216209507Y-140634050D01*
X216187922Y-140880749D01*
X216187922Y-140880750D01*
X216187921Y-141079669D01*
X216187920Y-141079683D01*
X216187920Y-143727074D01*
X216187684Y-143732480D01*
X216183950Y-143775161D01*
X216171997Y-143896563D01*
X216168370Y-143916504D01*
X216150934Y-143981579D01*
X216123636Y-144071574D01*
X216117357Y-144087985D01*
X216086739Y-144153647D01*
X216085227Y-144156672D01*
X216041813Y-144237897D01*
X216037917Y-144244239D01*
X215992761Y-144308726D01*
X215989900Y-144312498D01*
X215932524Y-144382410D01*
X215928435Y-144386922D01*
X215872410Y-144442945D01*
X215867900Y-144447033D01*
X215797991Y-144504406D01*
X215794218Y-144507268D01*
X215729728Y-144552423D01*
X215723386Y-144556319D01*
X215642135Y-144599746D01*
X215639110Y-144601258D01*
X215573485Y-144631858D01*
X215557076Y-144638135D01*
X215467052Y-144665442D01*
X215401984Y-144682874D01*
X215382054Y-144686500D01*
X215261665Y-144698362D01*
X215217793Y-144702199D01*
X215212389Y-144702435D01*
X84227119Y-144702435D01*
X84227116Y-144702434D01*
X84177975Y-144702434D01*
X84172559Y-144702197D01*
X84129728Y-144698444D01*
X84008473Y-144686484D01*
X83988537Y-144682854D01*
X83923478Y-144665414D01*
X83833469Y-144638100D01*
X83817064Y-144631821D01*
X83751434Y-144601210D01*
X83748413Y-144599699D01*
X83708178Y-144578189D01*
X83667173Y-144556268D01*
X83660839Y-144552376D01*
X83596361Y-144507221D01*
X83592591Y-144504360D01*
X83545694Y-144465870D01*
X83522668Y-144446971D01*
X83518164Y-144442887D01*
X83496117Y-144420838D01*
X83462151Y-144386869D01*
X83458083Y-144382382D01*
X83400689Y-144312442D01*
X83397829Y-144308673D01*
X83384988Y-144290334D01*
X83352674Y-144244183D01*
X83348790Y-144237858D01*
X83305371Y-144156627D01*
X83303859Y-144153603D01*
X83298837Y-144142833D01*
X83273245Y-144087953D01*
X83266972Y-144071558D01*
X83239671Y-143981572D01*
X83222216Y-143916435D01*
X83218593Y-143896547D01*
X83207077Y-143780155D01*
X83202903Y-143732480D01*
X83202827Y-143731612D01*
X83202592Y-143726218D01*
X83202592Y-141141206D01*
X83202665Y-141140957D01*
X83202666Y-141089770D01*
X83202669Y-140880748D01*
X83180959Y-140632575D01*
X83177393Y-140555423D01*
X83172968Y-140541220D01*
X83166239Y-140464293D01*
X83117416Y-140187393D01*
X83108824Y-140125785D01*
X83104855Y-140116144D01*
X83093652Y-140052607D01*
X83010884Y-139743702D01*
X83001548Y-139704009D01*
X82998863Y-139698837D01*
X82985455Y-139648795D01*
X82859251Y-139302047D01*
X82856408Y-139293567D01*
X82855837Y-139292670D01*
X82847127Y-139268740D01*
X82842477Y-139255961D01*
X82842477Y-139255962D01*
X82665806Y-138877087D01*
X82456779Y-138515042D01*
X82456779Y-138515043D01*
X82217001Y-138172606D01*
X82217000Y-138172605D01*
X81948283Y-137852365D01*
X81948283Y-137852364D01*
X81800480Y-137704564D01*
X81652680Y-137556766D01*
X81332436Y-137288055D01*
X81332437Y-137288055D01*
X80989994Y-137048280D01*
X80989994Y-137048281D01*
X80989990Y-137048278D01*
X80627950Y-136839261D01*
X80627947Y-136839259D01*
X80249074Y-136662596D01*
X80212353Y-136649231D01*
X80211678Y-136648734D01*
X80202932Y-136645802D01*
X79856232Y-136519623D01*
X79806186Y-136506214D01*
X79802258Y-136503820D01*
X79761273Y-136494181D01*
X79452430Y-136411434D01*
X79419539Y-136405635D01*
X79388883Y-136400230D01*
X79381509Y-136396576D01*
X79317593Y-136387661D01*
X79092023Y-136347893D01*
X79040734Y-136338851D01*
X79040731Y-136338850D01*
X79040727Y-136338850D01*
X79040726Y-136338850D01*
X78963762Y-136332118D01*
X78952883Y-136327862D01*
X78872465Y-136324133D01*
X78653891Y-136305018D01*
X78624278Y-136302428D01*
X78624276Y-136302428D01*
X78415256Y-136302434D01*
X78363402Y-136302434D01*
X78363393Y-136302435D01*
X75827119Y-136302435D01*
X75827116Y-136302434D01*
X75777975Y-136302434D01*
X75772559Y-136302197D01*
X75729728Y-136298444D01*
X75608473Y-136286484D01*
X75588537Y-136282854D01*
X75523478Y-136265414D01*
X75433469Y-136238100D01*
X75417064Y-136231821D01*
X75351434Y-136201210D01*
X75348413Y-136199699D01*
X75308178Y-136178189D01*
X75267173Y-136156268D01*
X75260839Y-136152376D01*
X75196361Y-136107221D01*
X75192591Y-136104360D01*
X75145694Y-136065870D01*
X75122668Y-136046971D01*
X75118164Y-136042887D01*
X75096117Y-136020838D01*
X75062151Y-135986869D01*
X75058083Y-135982382D01*
X75000689Y-135912442D01*
X74997829Y-135908673D01*
X74984988Y-135890334D01*
X74952674Y-135844183D01*
X74948790Y-135837858D01*
X74905371Y-135756627D01*
X74903859Y-135753603D01*
X74898837Y-135742833D01*
X74873245Y-135687953D01*
X74866972Y-135671558D01*
X74839671Y-135581572D01*
X74822216Y-135516435D01*
X74818593Y-135496547D01*
X74807077Y-135380155D01*
X74802902Y-135332471D01*
X74802827Y-135331612D01*
X74802592Y-135326218D01*
X74802592Y-133785000D01*
X85829422Y-133785000D01*
X85849722Y-134172339D01*
X85910397Y-134555427D01*
X85910397Y-134555429D01*
X86010788Y-134930094D01*
X86149787Y-135292197D01*
X86325877Y-135637793D01*
X86537122Y-135963082D01*
X86706401Y-136172124D01*
X86781219Y-136264516D01*
X87055484Y-136538781D01*
X87055488Y-136538784D01*
X87356917Y-136782877D01*
X87682206Y-136994122D01*
X87682211Y-136994125D01*
X88027806Y-137170214D01*
X88389913Y-137309214D01*
X88764567Y-137409602D01*
X89147662Y-137470278D01*
X89513576Y-137489455D01*
X89534999Y-137490578D01*
X89535000Y-137490578D01*
X89535001Y-137490578D01*
X89555300Y-137489514D01*
X89922338Y-137470278D01*
X90305433Y-137409602D01*
X90680087Y-137309214D01*
X91042194Y-137170214D01*
X91387789Y-136994125D01*
X91713084Y-136782876D01*
X92014516Y-136538781D01*
X92288781Y-136264516D01*
X92532876Y-135963084D01*
X92744125Y-135637789D01*
X92920214Y-135292194D01*
X93059214Y-134930087D01*
X93159602Y-134555433D01*
X93220278Y-134172338D01*
X93240578Y-133785000D01*
X205829422Y-133785000D01*
X205849722Y-134172339D01*
X205910397Y-134555427D01*
X205910397Y-134555429D01*
X206010788Y-134930094D01*
X206149787Y-135292197D01*
X206325877Y-135637793D01*
X206537122Y-135963082D01*
X206706401Y-136172124D01*
X206781219Y-136264516D01*
X207055484Y-136538781D01*
X207055488Y-136538784D01*
X207356917Y-136782877D01*
X207682206Y-136994122D01*
X207682211Y-136994125D01*
X208027806Y-137170214D01*
X208389913Y-137309214D01*
X208764567Y-137409602D01*
X209147662Y-137470278D01*
X209513576Y-137489455D01*
X209534999Y-137490578D01*
X209535000Y-137490578D01*
X209535001Y-137490578D01*
X209555300Y-137489514D01*
X209922338Y-137470278D01*
X210305433Y-137409602D01*
X210680087Y-137309214D01*
X211042194Y-137170214D01*
X211387789Y-136994125D01*
X211713084Y-136782876D01*
X212014516Y-136538781D01*
X212288781Y-136264516D01*
X212532876Y-135963084D01*
X212744125Y-135637789D01*
X212920214Y-135292194D01*
X213059214Y-134930087D01*
X213159602Y-134555433D01*
X213220278Y-134172338D01*
X213240578Y-133785000D01*
X213220278Y-133397662D01*
X213159602Y-133014567D01*
X213059214Y-132639913D01*
X212920214Y-132277806D01*
X212744125Y-131932211D01*
X212532876Y-131606916D01*
X212288781Y-131305484D01*
X212014516Y-131031219D01*
X211713084Y-130787124D01*
X211713082Y-130787122D01*
X211387793Y-130575877D01*
X211042197Y-130399787D01*
X210680094Y-130260788D01*
X210680087Y-130260786D01*
X210305433Y-130160398D01*
X210305429Y-130160397D01*
X210305428Y-130160397D01*
X209922339Y-130099722D01*
X209535001Y-130079422D01*
X209534999Y-130079422D01*
X209147660Y-130099722D01*
X208764572Y-130160397D01*
X208764570Y-130160397D01*
X208389905Y-130260788D01*
X208027802Y-130399787D01*
X207682206Y-130575877D01*
X207356917Y-130787122D01*
X207055488Y-131031215D01*
X207055480Y-131031222D01*
X206781222Y-131305480D01*
X206781215Y-131305488D01*
X206537122Y-131606917D01*
X206325877Y-131932206D01*
X206149787Y-132277802D01*
X206010788Y-132639905D01*
X205910397Y-133014570D01*
X205910397Y-133014572D01*
X205849722Y-133397660D01*
X205829422Y-133784999D01*
X205829422Y-133785000D01*
X93240578Y-133785000D01*
X93220278Y-133397662D01*
X93159602Y-133014567D01*
X93059214Y-132639913D01*
X92920214Y-132277806D01*
X92744125Y-131932211D01*
X92532876Y-131606916D01*
X92288781Y-131305484D01*
X92014516Y-131031219D01*
X91713084Y-130787124D01*
X91713082Y-130787122D01*
X91387793Y-130575877D01*
X91042197Y-130399787D01*
X90680094Y-130260788D01*
X90680087Y-130260786D01*
X90305433Y-130160398D01*
X90305429Y-130160397D01*
X90305428Y-130160397D01*
X89922339Y-130099722D01*
X89535001Y-130079422D01*
X89534999Y-130079422D01*
X89147660Y-130099722D01*
X88764572Y-130160397D01*
X88764570Y-130160397D01*
X88389905Y-130260788D01*
X88027802Y-130399787D01*
X87682206Y-130575877D01*
X87356917Y-130787122D01*
X87055488Y-131031215D01*
X87055480Y-131031222D01*
X86781222Y-131305480D01*
X86781215Y-131305488D01*
X86537122Y-131606917D01*
X86325877Y-131932206D01*
X86149787Y-132277802D01*
X86010788Y-132639905D01*
X85910397Y-133014570D01*
X85910397Y-133014572D01*
X85849722Y-133397660D01*
X85829422Y-133784999D01*
X85829422Y-133785000D01*
X74802592Y-133785000D01*
X74802592Y-125476908D01*
X100135500Y-125476908D01*
X100150230Y-125607647D01*
X100150233Y-125607660D01*
X100208236Y-125773421D01*
X100208237Y-125773425D01*
X100301678Y-125922134D01*
X100425866Y-126046322D01*
X100481134Y-126081049D01*
X100574574Y-126139762D01*
X100574578Y-126139763D01*
X100740339Y-126197766D01*
X100740345Y-126197767D01*
X100740347Y-126197768D01*
X100740348Y-126197768D01*
X100740352Y-126197769D01*
X100828456Y-126207695D01*
X100871092Y-126212499D01*
X100871095Y-126212500D01*
X100871098Y-126212500D01*
X102100905Y-126212500D01*
X102100906Y-126212499D01*
X102166277Y-126205133D01*
X102231647Y-126197769D01*
X102231649Y-126197768D01*
X102231653Y-126197768D01*
X102231656Y-126197766D01*
X102231660Y-126197766D01*
X102319396Y-126167065D01*
X102397425Y-126139762D01*
X102546134Y-126046322D01*
X102670322Y-125922134D01*
X102763762Y-125773425D01*
X102816949Y-125621425D01*
X102821766Y-125607660D01*
X102821769Y-125607647D01*
X102836499Y-125476908D01*
X105215500Y-125476908D01*
X105230230Y-125607647D01*
X105230233Y-125607660D01*
X105288236Y-125773421D01*
X105288237Y-125773425D01*
X105381678Y-125922134D01*
X105505866Y-126046322D01*
X105561134Y-126081049D01*
X105654574Y-126139762D01*
X105654578Y-126139763D01*
X105820339Y-126197766D01*
X105820345Y-126197767D01*
X105820347Y-126197768D01*
X105820348Y-126197768D01*
X105820352Y-126197769D01*
X105908456Y-126207695D01*
X105951092Y-126212499D01*
X105951095Y-126212500D01*
X105951098Y-126212500D01*
X107180905Y-126212500D01*
X107180906Y-126212499D01*
X107246277Y-126205133D01*
X107311647Y-126197769D01*
X107311649Y-126197768D01*
X107311653Y-126197768D01*
X107311656Y-126197766D01*
X107311660Y-126197766D01*
X107399396Y-126167065D01*
X107477425Y-126139762D01*
X107626134Y-126046322D01*
X107750322Y-125922134D01*
X107843762Y-125773425D01*
X107896949Y-125621425D01*
X107901766Y-125607660D01*
X107901769Y-125607647D01*
X107916499Y-125476908D01*
X110295500Y-125476908D01*
X110310230Y-125607647D01*
X110310233Y-125607660D01*
X110368236Y-125773421D01*
X110368237Y-125773425D01*
X110461678Y-125922133D01*
X110461678Y-125922134D01*
X110585866Y-126046322D01*
X110641134Y-126081049D01*
X110734574Y-126139762D01*
X110734578Y-126139763D01*
X110900339Y-126197766D01*
X110900345Y-126197767D01*
X110900347Y-126197768D01*
X110900348Y-126197768D01*
X110900352Y-126197769D01*
X110988456Y-126207695D01*
X111031092Y-126212499D01*
X111031095Y-126212500D01*
X111031098Y-126212500D01*
X112260905Y-126212500D01*
X112260906Y-126212499D01*
X112326277Y-126205133D01*
X112391647Y-126197769D01*
X112391649Y-126197768D01*
X112391653Y-126197768D01*
X112391656Y-126197766D01*
X112391660Y-126197766D01*
X112479396Y-126167065D01*
X112557425Y-126139762D01*
X112706134Y-126046322D01*
X112830322Y-125922134D01*
X112923762Y-125773425D01*
X112976949Y-125621425D01*
X112981766Y-125607660D01*
X112981769Y-125607647D01*
X112996499Y-125476908D01*
X112996500Y-125476904D01*
X112996500Y-125324908D01*
X123199500Y-125324908D01*
X123214230Y-125455647D01*
X123214233Y-125455660D01*
X123272236Y-125621421D01*
X123272237Y-125621425D01*
X123365677Y-125770133D01*
X123365678Y-125770134D01*
X123489866Y-125894322D01*
X123534129Y-125922134D01*
X123638574Y-125987762D01*
X123638578Y-125987763D01*
X123804339Y-126045766D01*
X123804345Y-126045767D01*
X123804347Y-126045768D01*
X123804348Y-126045768D01*
X123804352Y-126045769D01*
X123892456Y-126055695D01*
X123935092Y-126060499D01*
X123935095Y-126060500D01*
X123935098Y-126060500D01*
X125164905Y-126060500D01*
X125164906Y-126060499D01*
X125230277Y-126053133D01*
X125295647Y-126045769D01*
X125295649Y-126045768D01*
X125295653Y-126045768D01*
X125295656Y-126045766D01*
X125295660Y-126045766D01*
X125383396Y-126015065D01*
X125461425Y-125987762D01*
X125610134Y-125894322D01*
X125734322Y-125770134D01*
X125827762Y-125621425D01*
X125885768Y-125455653D01*
X125900499Y-125324908D01*
X128279500Y-125324908D01*
X128294230Y-125455647D01*
X128294233Y-125455660D01*
X128352236Y-125621421D01*
X128352237Y-125621425D01*
X128445678Y-125770133D01*
X128445678Y-125770134D01*
X128569866Y-125894322D01*
X128614129Y-125922134D01*
X128718574Y-125987762D01*
X128718578Y-125987763D01*
X128884339Y-126045766D01*
X128884345Y-126045767D01*
X128884347Y-126045768D01*
X128884348Y-126045768D01*
X128884352Y-126045769D01*
X128972456Y-126055695D01*
X129015092Y-126060499D01*
X129015095Y-126060500D01*
X129015098Y-126060500D01*
X130244905Y-126060500D01*
X130244906Y-126060499D01*
X130310277Y-126053133D01*
X130375647Y-126045769D01*
X130375649Y-126045768D01*
X130375653Y-126045768D01*
X130375656Y-126045766D01*
X130375660Y-126045766D01*
X130463396Y-126015065D01*
X130541425Y-125987762D01*
X130690134Y-125894322D01*
X130814322Y-125770134D01*
X130907762Y-125621425D01*
X130965768Y-125455653D01*
X130980499Y-125324908D01*
X141605500Y-125324908D01*
X141620230Y-125455647D01*
X141620233Y-125455660D01*
X141678236Y-125621421D01*
X141678237Y-125621425D01*
X141771678Y-125770133D01*
X141771678Y-125770134D01*
X141895866Y-125894322D01*
X141940129Y-125922134D01*
X142044574Y-125987762D01*
X142044578Y-125987763D01*
X142210339Y-126045766D01*
X142210345Y-126045767D01*
X142210347Y-126045768D01*
X142210348Y-126045768D01*
X142210352Y-126045769D01*
X142298456Y-126055695D01*
X142341092Y-126060499D01*
X142341095Y-126060500D01*
X142341098Y-126060500D01*
X143570905Y-126060500D01*
X143570906Y-126060499D01*
X143636277Y-126053133D01*
X143701647Y-126045769D01*
X143701649Y-126045768D01*
X143701653Y-126045768D01*
X143701656Y-126045766D01*
X143701660Y-126045766D01*
X143789396Y-126015065D01*
X143867425Y-125987762D01*
X144016134Y-125894322D01*
X144140322Y-125770134D01*
X144233762Y-125621425D01*
X144291768Y-125455653D01*
X144306499Y-125324908D01*
X146685500Y-125324908D01*
X146700230Y-125455647D01*
X146700233Y-125455660D01*
X146758236Y-125621421D01*
X146758237Y-125621425D01*
X146851677Y-125770133D01*
X146851678Y-125770134D01*
X146975866Y-125894322D01*
X147020129Y-125922134D01*
X147124574Y-125987762D01*
X147124578Y-125987763D01*
X147290339Y-126045766D01*
X147290345Y-126045767D01*
X147290347Y-126045768D01*
X147290348Y-126045768D01*
X147290352Y-126045769D01*
X147378456Y-126055695D01*
X147421092Y-126060499D01*
X147421095Y-126060500D01*
X147421098Y-126060500D01*
X148650905Y-126060500D01*
X148650906Y-126060499D01*
X148716277Y-126053133D01*
X148781647Y-126045769D01*
X148781649Y-126045768D01*
X148781653Y-126045768D01*
X148781656Y-126045766D01*
X148781660Y-126045766D01*
X148869396Y-126015065D01*
X148947425Y-125987762D01*
X149096134Y-125894322D01*
X149220322Y-125770134D01*
X149313762Y-125621425D01*
X149371768Y-125455653D01*
X149386500Y-125324902D01*
X149386500Y-124095098D01*
X149371768Y-123964347D01*
X149371767Y-123964345D01*
X149371766Y-123964339D01*
X149313763Y-123798578D01*
X149313762Y-123798574D01*
X149220321Y-123649865D01*
X149096134Y-123525678D01*
X148947425Y-123432237D01*
X148947421Y-123432236D01*
X148781660Y-123374233D01*
X148781647Y-123374230D01*
X148650908Y-123359500D01*
X148650902Y-123359500D01*
X147421098Y-123359500D01*
X147421091Y-123359500D01*
X147290352Y-123374230D01*
X147290339Y-123374233D01*
X147124578Y-123432236D01*
X147124574Y-123432237D01*
X146975865Y-123525678D01*
X146851678Y-123649865D01*
X146758237Y-123798574D01*
X146758236Y-123798578D01*
X146700233Y-123964339D01*
X146700230Y-123964352D01*
X146685500Y-124095091D01*
X146685500Y-125324908D01*
X144306499Y-125324908D01*
X144306500Y-125324902D01*
X144306500Y-124095098D01*
X144291768Y-123964347D01*
X144291767Y-123964345D01*
X144291766Y-123964339D01*
X144233763Y-123798578D01*
X144233762Y-123798574D01*
X144140321Y-123649865D01*
X144016134Y-123525678D01*
X143867425Y-123432237D01*
X143867421Y-123432236D01*
X143701660Y-123374233D01*
X143701647Y-123374230D01*
X143570908Y-123359500D01*
X143570902Y-123359500D01*
X142341098Y-123359500D01*
X142341091Y-123359500D01*
X142210352Y-123374230D01*
X142210339Y-123374233D01*
X142044578Y-123432236D01*
X142044574Y-123432237D01*
X141895865Y-123525678D01*
X141771678Y-123649865D01*
X141678237Y-123798574D01*
X141678236Y-123798578D01*
X141620233Y-123964339D01*
X141620230Y-123964352D01*
X141605500Y-124095091D01*
X141605500Y-125324908D01*
X130980499Y-125324908D01*
X130980500Y-125324902D01*
X130980500Y-124095098D01*
X130965768Y-123964347D01*
X130965767Y-123964345D01*
X130965766Y-123964339D01*
X130907763Y-123798578D01*
X130907762Y-123798574D01*
X130814321Y-123649865D01*
X130690134Y-123525678D01*
X130541425Y-123432237D01*
X130541421Y-123432236D01*
X130375660Y-123374233D01*
X130375647Y-123374230D01*
X130244908Y-123359500D01*
X130244902Y-123359500D01*
X129015098Y-123359500D01*
X129015091Y-123359500D01*
X128884352Y-123374230D01*
X128884339Y-123374233D01*
X128718578Y-123432236D01*
X128718574Y-123432237D01*
X128569865Y-123525678D01*
X128445678Y-123649865D01*
X128352237Y-123798574D01*
X128352236Y-123798578D01*
X128294233Y-123964339D01*
X128294230Y-123964352D01*
X128279500Y-124095091D01*
X128279500Y-125324908D01*
X125900499Y-125324908D01*
X125900500Y-125324902D01*
X125900500Y-124095098D01*
X125885768Y-123964347D01*
X125885767Y-123964345D01*
X125885766Y-123964339D01*
X125827763Y-123798578D01*
X125827762Y-123798574D01*
X125734321Y-123649865D01*
X125610134Y-123525678D01*
X125461425Y-123432237D01*
X125461421Y-123432236D01*
X125295660Y-123374233D01*
X125295647Y-123374230D01*
X125164908Y-123359500D01*
X125164902Y-123359500D01*
X123935098Y-123359500D01*
X123935091Y-123359500D01*
X123804352Y-123374230D01*
X123804339Y-123374233D01*
X123638578Y-123432236D01*
X123638574Y-123432237D01*
X123489865Y-123525678D01*
X123365678Y-123649865D01*
X123272237Y-123798574D01*
X123272236Y-123798578D01*
X123214233Y-123964339D01*
X123214230Y-123964352D01*
X123199500Y-124095091D01*
X123199500Y-125324908D01*
X112996500Y-125324908D01*
X112996500Y-124247095D01*
X112996499Y-124247091D01*
X112981769Y-124116352D01*
X112981766Y-124116339D01*
X112923763Y-123950578D01*
X112923762Y-123950574D01*
X112830321Y-123801865D01*
X112706134Y-123677678D01*
X112557425Y-123584237D01*
X112557421Y-123584236D01*
X112391660Y-123526233D01*
X112391647Y-123526230D01*
X112260908Y-123511500D01*
X112260902Y-123511500D01*
X111031098Y-123511500D01*
X111031091Y-123511500D01*
X110900352Y-123526230D01*
X110900339Y-123526233D01*
X110734578Y-123584236D01*
X110734574Y-123584237D01*
X110585865Y-123677678D01*
X110461678Y-123801865D01*
X110368237Y-123950574D01*
X110368236Y-123950578D01*
X110310233Y-124116339D01*
X110310230Y-124116352D01*
X110295500Y-124247091D01*
X110295500Y-125476908D01*
X107916499Y-125476908D01*
X107916500Y-125476904D01*
X107916500Y-124247095D01*
X107916499Y-124247091D01*
X107901769Y-124116352D01*
X107901766Y-124116339D01*
X107843763Y-123950578D01*
X107843762Y-123950574D01*
X107750321Y-123801865D01*
X107626134Y-123677678D01*
X107477425Y-123584237D01*
X107477421Y-123584236D01*
X107311660Y-123526233D01*
X107311647Y-123526230D01*
X107180908Y-123511500D01*
X107180902Y-123511500D01*
X105951098Y-123511500D01*
X105951091Y-123511500D01*
X105820352Y-123526230D01*
X105820339Y-123526233D01*
X105654578Y-123584236D01*
X105654574Y-123584237D01*
X105505865Y-123677678D01*
X105381678Y-123801865D01*
X105288237Y-123950574D01*
X105288236Y-123950578D01*
X105230233Y-124116339D01*
X105230230Y-124116352D01*
X105215500Y-124247091D01*
X105215500Y-125476908D01*
X102836499Y-125476908D01*
X102836500Y-125476904D01*
X102836500Y-124247095D01*
X102836499Y-124247091D01*
X102821769Y-124116352D01*
X102821766Y-124116339D01*
X102763763Y-123950578D01*
X102763762Y-123950574D01*
X102670321Y-123801865D01*
X102546134Y-123677678D01*
X102397425Y-123584237D01*
X102397421Y-123584236D01*
X102231660Y-123526233D01*
X102231647Y-123526230D01*
X102100908Y-123511500D01*
X102100902Y-123511500D01*
X100871098Y-123511500D01*
X100871091Y-123511500D01*
X100740352Y-123526230D01*
X100740339Y-123526233D01*
X100574578Y-123584236D01*
X100574574Y-123584237D01*
X100425865Y-123677678D01*
X100301678Y-123801865D01*
X100208237Y-123950574D01*
X100208236Y-123950578D01*
X100150233Y-124116339D01*
X100150230Y-124116352D01*
X100135500Y-124247091D01*
X100135500Y-125476908D01*
X74802592Y-125476908D01*
X74802592Y-118254908D01*
X181459500Y-118254908D01*
X181474230Y-118385647D01*
X181474233Y-118385660D01*
X181532236Y-118551421D01*
X181532237Y-118551425D01*
X181625678Y-118700134D01*
X181749866Y-118824322D01*
X181805133Y-118859049D01*
X181898574Y-118917762D01*
X181898578Y-118917763D01*
X182064339Y-118975766D01*
X182064345Y-118975767D01*
X182064347Y-118975768D01*
X182064348Y-118975768D01*
X182064352Y-118975769D01*
X182152456Y-118985695D01*
X182195092Y-118990499D01*
X182195095Y-118990500D01*
X182195098Y-118990500D01*
X183424905Y-118990500D01*
X183424906Y-118990499D01*
X183490277Y-118983133D01*
X183555647Y-118975769D01*
X183555649Y-118975768D01*
X183555653Y-118975768D01*
X183555656Y-118975766D01*
X183555660Y-118975766D01*
X183643396Y-118945065D01*
X183721425Y-118917762D01*
X183870134Y-118824322D01*
X183994322Y-118700134D01*
X184087762Y-118551425D01*
X184145768Y-118385653D01*
X184160500Y-118254902D01*
X184160500Y-117025098D01*
X184145768Y-116894347D01*
X184145767Y-116894345D01*
X184145766Y-116894339D01*
X184087763Y-116728578D01*
X184087762Y-116728574D01*
X183994321Y-116579865D01*
X183870134Y-116455678D01*
X183721425Y-116362237D01*
X183721421Y-116362236D01*
X183555660Y-116304233D01*
X183555647Y-116304230D01*
X183424908Y-116289500D01*
X183424902Y-116289500D01*
X182195098Y-116289500D01*
X182195091Y-116289500D01*
X182064352Y-116304230D01*
X182064339Y-116304233D01*
X181898578Y-116362236D01*
X181898574Y-116362237D01*
X181749865Y-116455678D01*
X181625678Y-116579865D01*
X181532237Y-116728574D01*
X181532236Y-116728578D01*
X181474233Y-116894339D01*
X181474230Y-116894352D01*
X181459500Y-117025091D01*
X181459500Y-118254908D01*
X74802592Y-118254908D01*
X74802592Y-100670000D01*
X101679341Y-100670000D01*
X101699936Y-100905403D01*
X101699938Y-100905413D01*
X101761094Y-101133655D01*
X101761096Y-101133659D01*
X101761097Y-101133663D01*
X101765000Y-101142032D01*
X101860965Y-101347830D01*
X101860967Y-101347834D01*
X101969281Y-101502521D01*
X101996505Y-101541401D01*
X102163599Y-101708495D01*
X102260384Y-101776265D01*
X102357165Y-101844032D01*
X102357167Y-101844033D01*
X102357170Y-101844035D01*
X102571337Y-101943903D01*
X102799592Y-102005063D01*
X102976034Y-102020500D01*
X103034999Y-102025659D01*
X103035000Y-102025659D01*
X103035001Y-102025659D01*
X103093966Y-102020500D01*
X103270408Y-102005063D01*
X103498663Y-101943903D01*
X103712830Y-101844035D01*
X103906401Y-101708495D01*
X104073495Y-101541401D01*
X104203424Y-101355842D01*
X104258002Y-101312217D01*
X104327500Y-101305023D01*
X104389855Y-101336546D01*
X104406575Y-101355842D01*
X104536500Y-101541395D01*
X104536505Y-101541401D01*
X104703599Y-101708495D01*
X104800384Y-101776265D01*
X104897165Y-101844032D01*
X104897167Y-101844033D01*
X104897170Y-101844035D01*
X105111337Y-101943903D01*
X105339592Y-102005063D01*
X105516034Y-102020500D01*
X105574999Y-102025659D01*
X105575000Y-102025659D01*
X105575001Y-102025659D01*
X105633966Y-102020500D01*
X105810408Y-102005063D01*
X106038663Y-101943903D01*
X106252830Y-101844035D01*
X106446401Y-101708495D01*
X106613495Y-101541401D01*
X106743424Y-101355842D01*
X106798002Y-101312217D01*
X106867500Y-101305023D01*
X106929855Y-101336546D01*
X106946575Y-101355842D01*
X107076500Y-101541395D01*
X107076505Y-101541401D01*
X107243599Y-101708495D01*
X107340384Y-101776265D01*
X107437165Y-101844032D01*
X107437167Y-101844033D01*
X107437170Y-101844035D01*
X107651337Y-101943903D01*
X107879592Y-102005063D01*
X108056034Y-102020500D01*
X108114999Y-102025659D01*
X108115000Y-102025659D01*
X108115001Y-102025659D01*
X108173966Y-102020500D01*
X108350408Y-102005063D01*
X108578663Y-101943903D01*
X108792830Y-101844035D01*
X108986401Y-101708495D01*
X109153495Y-101541401D01*
X109283424Y-101355842D01*
X109338002Y-101312217D01*
X109407500Y-101305023D01*
X109469855Y-101336546D01*
X109486575Y-101355842D01*
X109616500Y-101541395D01*
X109616505Y-101541401D01*
X109783599Y-101708495D01*
X109880384Y-101776265D01*
X109977165Y-101844032D01*
X109977167Y-101844033D01*
X109977170Y-101844035D01*
X110191337Y-101943903D01*
X110419592Y-102005063D01*
X110596034Y-102020500D01*
X110654999Y-102025659D01*
X110655000Y-102025659D01*
X110655001Y-102025659D01*
X110713966Y-102020500D01*
X110890408Y-102005063D01*
X111118663Y-101943903D01*
X111332830Y-101844035D01*
X111526401Y-101708495D01*
X111648329Y-101586566D01*
X111709648Y-101553084D01*
X111779340Y-101558068D01*
X111835274Y-101599939D01*
X111852189Y-101630917D01*
X111901202Y-101762328D01*
X111901206Y-101762335D01*
X111987452Y-101877544D01*
X111987455Y-101877547D01*
X112102664Y-101963793D01*
X112102671Y-101963797D01*
X112237517Y-102014091D01*
X112237516Y-102014091D01*
X112244444Y-102014835D01*
X112297127Y-102020500D01*
X114092872Y-102020499D01*
X114152483Y-102014091D01*
X114287331Y-101963796D01*
X114402546Y-101877546D01*
X114488796Y-101762331D01*
X114539091Y-101627483D01*
X114545500Y-101567873D01*
X114545499Y-99772128D01*
X114539091Y-99712517D01*
X114537810Y-99709083D01*
X114488797Y-99577671D01*
X114488793Y-99577664D01*
X114402547Y-99462455D01*
X114402544Y-99462452D01*
X114287335Y-99376206D01*
X114287328Y-99376202D01*
X114155917Y-99327189D01*
X114099983Y-99285318D01*
X114075566Y-99219853D01*
X114090418Y-99151580D01*
X114111563Y-99123332D01*
X114233495Y-99001401D01*
X114369035Y-98807830D01*
X114468903Y-98593663D01*
X114530063Y-98365408D01*
X114550659Y-98130000D01*
X114530063Y-97894592D01*
X114468903Y-97666337D01*
X114369035Y-97452171D01*
X114363731Y-97444595D01*
X114233494Y-97258597D01*
X114066402Y-97091506D01*
X114066395Y-97091501D01*
X113872834Y-96955967D01*
X113872830Y-96955965D01*
X113872829Y-96955964D01*
X113658663Y-96856097D01*
X113658659Y-96856096D01*
X113658655Y-96856094D01*
X113430413Y-96794938D01*
X113430403Y-96794936D01*
X113195001Y-96774341D01*
X113194999Y-96774341D01*
X112959596Y-96794936D01*
X112959586Y-96794938D01*
X112731344Y-96856094D01*
X112731335Y-96856098D01*
X112517171Y-96955964D01*
X112517169Y-96955965D01*
X112323597Y-97091505D01*
X112156508Y-97258594D01*
X112026574Y-97444159D01*
X111971997Y-97487784D01*
X111902498Y-97494976D01*
X111840144Y-97463454D01*
X111823424Y-97444158D01*
X111693494Y-97258597D01*
X111526402Y-97091506D01*
X111526395Y-97091501D01*
X111332834Y-96955967D01*
X111332830Y-96955965D01*
X111332830Y-96955964D01*
X111118663Y-96856097D01*
X111118659Y-96856096D01*
X111118655Y-96856094D01*
X110890413Y-96794938D01*
X110890403Y-96794936D01*
X110655001Y-96774341D01*
X110654999Y-96774341D01*
X110419596Y-96794936D01*
X110419586Y-96794938D01*
X110191344Y-96856094D01*
X110191335Y-96856098D01*
X109977171Y-96955964D01*
X109977169Y-96955965D01*
X109783597Y-97091505D01*
X109616508Y-97258594D01*
X109486269Y-97444595D01*
X109431692Y-97488219D01*
X109362193Y-97495412D01*
X109299839Y-97463890D01*
X109283119Y-97444594D01*
X109153113Y-97258926D01*
X109153108Y-97258920D01*
X108986082Y-97091894D01*
X108792578Y-96956399D01*
X108578492Y-96856570D01*
X108578486Y-96856567D01*
X108365000Y-96799364D01*
X108365000Y-97517698D01*
X108345315Y-97584737D01*
X108292511Y-97630492D01*
X108223355Y-97640436D01*
X108150766Y-97630000D01*
X108150763Y-97630000D01*
X108079237Y-97630000D01*
X108079233Y-97630000D01*
X108006644Y-97640436D01*
X107937486Y-97630492D01*
X107884683Y-97584736D01*
X107864999Y-97517698D01*
X107864999Y-96799364D01*
X107651513Y-96856567D01*
X107651507Y-96856570D01*
X107437422Y-96956399D01*
X107437420Y-96956400D01*
X107243926Y-97091886D01*
X107243920Y-97091891D01*
X107076891Y-97258920D01*
X107076890Y-97258922D01*
X106946880Y-97444595D01*
X106892303Y-97488219D01*
X106822804Y-97495412D01*
X106760450Y-97463890D01*
X106743730Y-97444594D01*
X106613494Y-97258597D01*
X106446402Y-97091506D01*
X106446395Y-97091501D01*
X106252834Y-96955967D01*
X106252830Y-96955965D01*
X106252829Y-96955964D01*
X106038663Y-96856097D01*
X106038659Y-96856096D01*
X106038655Y-96856094D01*
X105810413Y-96794938D01*
X105810403Y-96794936D01*
X105575001Y-96774341D01*
X105574999Y-96774341D01*
X105339596Y-96794936D01*
X105339586Y-96794938D01*
X105111344Y-96856094D01*
X105111335Y-96856098D01*
X104897171Y-96955964D01*
X104897169Y-96955965D01*
X104703597Y-97091505D01*
X104536505Y-97258597D01*
X104406575Y-97444158D01*
X104351998Y-97487783D01*
X104282500Y-97494977D01*
X104220145Y-97463454D01*
X104203425Y-97444158D01*
X104073494Y-97258597D01*
X103906402Y-97091506D01*
X103906395Y-97091501D01*
X103712834Y-96955967D01*
X103712830Y-96955965D01*
X103712830Y-96955964D01*
X103498663Y-96856097D01*
X103498659Y-96856096D01*
X103498655Y-96856094D01*
X103270413Y-96794938D01*
X103270403Y-96794936D01*
X103035001Y-96774341D01*
X103034999Y-96774341D01*
X102799596Y-96794936D01*
X102799586Y-96794938D01*
X102571344Y-96856094D01*
X102571335Y-96856098D01*
X102357171Y-96955964D01*
X102357169Y-96955965D01*
X102163597Y-97091505D01*
X101996505Y-97258597D01*
X101860965Y-97452169D01*
X101860964Y-97452171D01*
X101761098Y-97666335D01*
X101761094Y-97666344D01*
X101699938Y-97894586D01*
X101699936Y-97894596D01*
X101679341Y-98129999D01*
X101679341Y-98130000D01*
X101699936Y-98365403D01*
X101699938Y-98365413D01*
X101761094Y-98593655D01*
X101761096Y-98593659D01*
X101761097Y-98593663D01*
X101840801Y-98764588D01*
X101860965Y-98807830D01*
X101860967Y-98807834D01*
X101969281Y-98962521D01*
X101996504Y-99001400D01*
X101996506Y-99001402D01*
X102163597Y-99168493D01*
X102163603Y-99168498D01*
X102349158Y-99298425D01*
X102392783Y-99353002D01*
X102399977Y-99422500D01*
X102368454Y-99484855D01*
X102349158Y-99501575D01*
X102163597Y-99631505D01*
X101996505Y-99798597D01*
X101860965Y-99992169D01*
X101860964Y-99992171D01*
X101761098Y-100206335D01*
X101761094Y-100206344D01*
X101699938Y-100434586D01*
X101699936Y-100434596D01*
X101679341Y-100669999D01*
X101679341Y-100670000D01*
X74802592Y-100670000D01*
X74802592Y-89150000D01*
X208359341Y-89150000D01*
X208379936Y-89385403D01*
X208379938Y-89385413D01*
X208441094Y-89613655D01*
X208441096Y-89613659D01*
X208441097Y-89613663D01*
X208540964Y-89827829D01*
X208540965Y-89827830D01*
X208540967Y-89827834D01*
X208649281Y-89982521D01*
X208676505Y-90021401D01*
X208843599Y-90188495D01*
X208940384Y-90256264D01*
X209037165Y-90324032D01*
X209037167Y-90324033D01*
X209037170Y-90324035D01*
X209251337Y-90423903D01*
X209479592Y-90485063D01*
X209667918Y-90501539D01*
X209714999Y-90505659D01*
X209715000Y-90505659D01*
X209715001Y-90505659D01*
X209754234Y-90502226D01*
X209950408Y-90485063D01*
X210178663Y-90423903D01*
X210392830Y-90324035D01*
X210586401Y-90188495D01*
X210753495Y-90021401D01*
X210889035Y-89827830D01*
X210988903Y-89613663D01*
X211050063Y-89385408D01*
X211070659Y-89150000D01*
X211050063Y-88914592D01*
X210988903Y-88686337D01*
X210889035Y-88472171D01*
X210819941Y-88373493D01*
X210753494Y-88278597D01*
X210586402Y-88111506D01*
X210586401Y-88111505D01*
X210418844Y-87994180D01*
X210400405Y-87981269D01*
X210356781Y-87926692D01*
X210349588Y-87857193D01*
X210381110Y-87794839D01*
X210400405Y-87778119D01*
X210586082Y-87648105D01*
X210753105Y-87481082D01*
X210888600Y-87287578D01*
X210988429Y-87073492D01*
X210988432Y-87073486D01*
X211045636Y-86860000D01*
X210328347Y-86860000D01*
X210261308Y-86840315D01*
X210215553Y-86787511D01*
X210205609Y-86718353D01*
X210209369Y-86701067D01*
X210215000Y-86681888D01*
X210215000Y-86538111D01*
X210209369Y-86518933D01*
X210209370Y-86449064D01*
X210247145Y-86390286D01*
X210310701Y-86361262D01*
X210328347Y-86360000D01*
X211045636Y-86360000D01*
X211045635Y-86359999D01*
X210988432Y-86146513D01*
X210988429Y-86146507D01*
X210888600Y-85932422D01*
X210888599Y-85932420D01*
X210753113Y-85738926D01*
X210753108Y-85738920D01*
X210631053Y-85616865D01*
X210597568Y-85555542D01*
X210602552Y-85485850D01*
X210644424Y-85429917D01*
X210675400Y-85413002D01*
X210807331Y-85363796D01*
X210922546Y-85277546D01*
X211008796Y-85162331D01*
X211059091Y-85027483D01*
X211065500Y-84967873D01*
X211065499Y-83172128D01*
X211059091Y-83112517D01*
X211008796Y-82977669D01*
X211008795Y-82977668D01*
X211008793Y-82977664D01*
X210922547Y-82862455D01*
X210922544Y-82862452D01*
X210807335Y-82776206D01*
X210807328Y-82776202D01*
X210672482Y-82725908D01*
X210672483Y-82725908D01*
X210612883Y-82719501D01*
X210612881Y-82719500D01*
X210612873Y-82719500D01*
X210612864Y-82719500D01*
X208817129Y-82719500D01*
X208817123Y-82719501D01*
X208757516Y-82725908D01*
X208622671Y-82776202D01*
X208622664Y-82776206D01*
X208507455Y-82862452D01*
X208507452Y-82862455D01*
X208421206Y-82977664D01*
X208421202Y-82977671D01*
X208370908Y-83112517D01*
X208364501Y-83172116D01*
X208364501Y-83172123D01*
X208364500Y-83172135D01*
X208364500Y-84967870D01*
X208364501Y-84967876D01*
X208370908Y-85027483D01*
X208421202Y-85162328D01*
X208421206Y-85162335D01*
X208507452Y-85277544D01*
X208507455Y-85277547D01*
X208622664Y-85363793D01*
X208622671Y-85363797D01*
X208622674Y-85363798D01*
X208754598Y-85413002D01*
X208810531Y-85454873D01*
X208834949Y-85520337D01*
X208820098Y-85588610D01*
X208798947Y-85616865D01*
X208676886Y-85738926D01*
X208541400Y-85932420D01*
X208541399Y-85932422D01*
X208441570Y-86146507D01*
X208441567Y-86146513D01*
X208384364Y-86359999D01*
X208384364Y-86360000D01*
X209101653Y-86360000D01*
X209168692Y-86379685D01*
X209214447Y-86432489D01*
X209224391Y-86501647D01*
X209220631Y-86518933D01*
X209215000Y-86538111D01*
X209215000Y-86681888D01*
X209220631Y-86701067D01*
X209220630Y-86770936D01*
X209182855Y-86829714D01*
X209119299Y-86858738D01*
X209101653Y-86860000D01*
X208384364Y-86860000D01*
X208441567Y-87073486D01*
X208441570Y-87073492D01*
X208541399Y-87287578D01*
X208676894Y-87481082D01*
X208843917Y-87648105D01*
X209029595Y-87778119D01*
X209073219Y-87832696D01*
X209080412Y-87902195D01*
X209048890Y-87964549D01*
X209029595Y-87981269D01*
X208843594Y-88111508D01*
X208676505Y-88278597D01*
X208540965Y-88472169D01*
X208540964Y-88472171D01*
X208441098Y-88686335D01*
X208441094Y-88686344D01*
X208379938Y-88914586D01*
X208379936Y-88914596D01*
X208359341Y-89149999D01*
X208359341Y-89150000D01*
X74802592Y-89150000D01*
X74802592Y-84772908D01*
X84495684Y-84772908D01*
X84500264Y-84825241D01*
X84500500Y-84830648D01*
X84500500Y-84838946D01*
X84504325Y-84871674D01*
X84511056Y-84948610D01*
X84512516Y-84955677D01*
X84512464Y-84955687D01*
X84514123Y-84963167D01*
X84514174Y-84963155D01*
X84515839Y-84970180D01*
X84542247Y-85042740D01*
X84566535Y-85116034D01*
X84569586Y-85122575D01*
X84569536Y-85122598D01*
X84572876Y-85129497D01*
X84572925Y-85129473D01*
X84576165Y-85135925D01*
X84618599Y-85200444D01*
X84659131Y-85266156D01*
X84663611Y-85271822D01*
X84663569Y-85271855D01*
X84668401Y-85277786D01*
X84668443Y-85277752D01*
X84673081Y-85283280D01*
X84673085Y-85283285D01*
X84701166Y-85309778D01*
X84729247Y-85336272D01*
X87216234Y-87823258D01*
X87228016Y-87836891D01*
X87242461Y-87856294D01*
X87282706Y-87890064D01*
X87286696Y-87893720D01*
X87292559Y-87899583D01*
X87318419Y-87920031D01*
X87377477Y-87969587D01*
X87377573Y-87969667D01*
X87377577Y-87969669D01*
X87383607Y-87973635D01*
X87383576Y-87973680D01*
X87390038Y-87977797D01*
X87390067Y-87977751D01*
X87396204Y-87981537D01*
X87396207Y-87981538D01*
X87396208Y-87981539D01*
X87466199Y-88014176D01*
X87535189Y-88048824D01*
X87535194Y-88048825D01*
X87541979Y-88051295D01*
X87541960Y-88051347D01*
X87549188Y-88053859D01*
X87549206Y-88053808D01*
X87556057Y-88056077D01*
X87556060Y-88056079D01*
X87631677Y-88071692D01*
X87706812Y-88089500D01*
X87706821Y-88089500D01*
X87713985Y-88090338D01*
X87713978Y-88090391D01*
X87721595Y-88091169D01*
X87721600Y-88091116D01*
X87728789Y-88091745D01*
X87728792Y-88091744D01*
X87728793Y-88091745D01*
X87805947Y-88089500D01*
X99310099Y-88089500D01*
X99377138Y-88109185D01*
X99411674Y-88142376D01*
X99456505Y-88206401D01*
X99623599Y-88373495D01*
X99720384Y-88441264D01*
X99817165Y-88509032D01*
X99817167Y-88509033D01*
X99817170Y-88509035D01*
X100031337Y-88608903D01*
X100259592Y-88670063D01*
X100436034Y-88685500D01*
X100494999Y-88690659D01*
X100495000Y-88690659D01*
X100495001Y-88690659D01*
X100534234Y-88687226D01*
X100730408Y-88670063D01*
X100958663Y-88608903D01*
X101172830Y-88509035D01*
X101366401Y-88373495D01*
X101533495Y-88206401D01*
X101663424Y-88020842D01*
X101718002Y-87977217D01*
X101787500Y-87970023D01*
X101849855Y-88001546D01*
X101866575Y-88020842D01*
X101996281Y-88206082D01*
X101996505Y-88206401D01*
X102163599Y-88373495D01*
X102260384Y-88441264D01*
X102357165Y-88509032D01*
X102357167Y-88509033D01*
X102357170Y-88509035D01*
X102571337Y-88608903D01*
X102799592Y-88670063D01*
X102976034Y-88685500D01*
X103034999Y-88690659D01*
X103035000Y-88690659D01*
X103035001Y-88690659D01*
X103074234Y-88687226D01*
X103270408Y-88670063D01*
X103498663Y-88608903D01*
X103712830Y-88509035D01*
X103906401Y-88373495D01*
X104073495Y-88206401D01*
X104203424Y-88020842D01*
X104258002Y-87977217D01*
X104327500Y-87970023D01*
X104389855Y-88001546D01*
X104406575Y-88020842D01*
X104536281Y-88206082D01*
X104536505Y-88206401D01*
X104703599Y-88373495D01*
X104800384Y-88441264D01*
X104897165Y-88509032D01*
X104897167Y-88509033D01*
X104897170Y-88509035D01*
X105111337Y-88608903D01*
X105339592Y-88670063D01*
X105516034Y-88685500D01*
X105574999Y-88690659D01*
X105575000Y-88690659D01*
X105575001Y-88690659D01*
X105614234Y-88687226D01*
X105810408Y-88670063D01*
X106038663Y-88608903D01*
X106252830Y-88509035D01*
X106446401Y-88373495D01*
X106613495Y-88206401D01*
X106743730Y-88020405D01*
X106798307Y-87976781D01*
X106867805Y-87969587D01*
X106930160Y-88001110D01*
X106946879Y-88020405D01*
X107076890Y-88206078D01*
X107243917Y-88373105D01*
X107437421Y-88508600D01*
X107651507Y-88608429D01*
X107651516Y-88608433D01*
X107864999Y-88665633D01*
X107864999Y-87947301D01*
X107884683Y-87880262D01*
X107937487Y-87834507D01*
X108006646Y-87824563D01*
X108013380Y-87825531D01*
X108079237Y-87835000D01*
X108079238Y-87835000D01*
X108150762Y-87835000D01*
X108150763Y-87835000D01*
X108223353Y-87824563D01*
X108292512Y-87834507D01*
X108345315Y-87880262D01*
X108365000Y-87947301D01*
X108365000Y-88665633D01*
X108578483Y-88608433D01*
X108578492Y-88608429D01*
X108792578Y-88508600D01*
X108986082Y-88373105D01*
X109153105Y-88206082D01*
X109283119Y-88020405D01*
X109337696Y-87976781D01*
X109407195Y-87969588D01*
X109469549Y-88001110D01*
X109486269Y-88020405D01*
X109616505Y-88206401D01*
X109783599Y-88373495D01*
X109880384Y-88441264D01*
X109977165Y-88509032D01*
X109977167Y-88509033D01*
X109977170Y-88509035D01*
X110191337Y-88608903D01*
X110419592Y-88670063D01*
X110596034Y-88685500D01*
X110654999Y-88690659D01*
X110655000Y-88690659D01*
X110655001Y-88690659D01*
X110694234Y-88687226D01*
X110890408Y-88670063D01*
X111118663Y-88608903D01*
X111332830Y-88509035D01*
X111526401Y-88373495D01*
X111648329Y-88251566D01*
X111709648Y-88218084D01*
X111779340Y-88223068D01*
X111835274Y-88264939D01*
X111852189Y-88295917D01*
X111901202Y-88427328D01*
X111901206Y-88427335D01*
X111987452Y-88542544D01*
X111987455Y-88542547D01*
X112102664Y-88628793D01*
X112102671Y-88628797D01*
X112237517Y-88679091D01*
X112237516Y-88679091D01*
X112244444Y-88679835D01*
X112297127Y-88685500D01*
X114092872Y-88685499D01*
X114152483Y-88679091D01*
X114287331Y-88628796D01*
X114402546Y-88542546D01*
X114488796Y-88427331D01*
X114539091Y-88292483D01*
X114545500Y-88232873D01*
X114545499Y-86437128D01*
X114539091Y-86377517D01*
X114537810Y-86374083D01*
X114488797Y-86242671D01*
X114488793Y-86242664D01*
X114402547Y-86127455D01*
X114402544Y-86127452D01*
X114287335Y-86041206D01*
X114287328Y-86041202D01*
X114152482Y-85990908D01*
X114152483Y-85990908D01*
X114092883Y-85984501D01*
X114092881Y-85984500D01*
X114092873Y-85984500D01*
X114092864Y-85984500D01*
X112297129Y-85984500D01*
X112297123Y-85984501D01*
X112237516Y-85990908D01*
X112102671Y-86041202D01*
X112102664Y-86041206D01*
X111987455Y-86127452D01*
X111987452Y-86127455D01*
X111901206Y-86242664D01*
X111901203Y-86242669D01*
X111852189Y-86374083D01*
X111810317Y-86430016D01*
X111744853Y-86454433D01*
X111676580Y-86439581D01*
X111648326Y-86418430D01*
X111526402Y-86296506D01*
X111526395Y-86296501D01*
X111332834Y-86160967D01*
X111332830Y-86160965D01*
X111301825Y-86146507D01*
X111118663Y-86061097D01*
X111118659Y-86061096D01*
X111118655Y-86061094D01*
X110890413Y-85999938D01*
X110890403Y-85999936D01*
X110655001Y-85979341D01*
X110654999Y-85979341D01*
X110419596Y-85999936D01*
X110419586Y-85999938D01*
X110191344Y-86061094D01*
X110191335Y-86061098D01*
X109977171Y-86160964D01*
X109977169Y-86160965D01*
X109783597Y-86296505D01*
X109616508Y-86463594D01*
X109486269Y-86649595D01*
X109431692Y-86693219D01*
X109362193Y-86700412D01*
X109299839Y-86668890D01*
X109283119Y-86649594D01*
X109153113Y-86463926D01*
X109153108Y-86463920D01*
X108986082Y-86296894D01*
X108792578Y-86161399D01*
X108578492Y-86061570D01*
X108578486Y-86061567D01*
X108365000Y-86004364D01*
X108365000Y-86722698D01*
X108345315Y-86789737D01*
X108292511Y-86835492D01*
X108223355Y-86845436D01*
X108150766Y-86835000D01*
X108150763Y-86835000D01*
X108079237Y-86835000D01*
X108079233Y-86835000D01*
X108006644Y-86845436D01*
X107937486Y-86835492D01*
X107884683Y-86789736D01*
X107864999Y-86722698D01*
X107864999Y-86004364D01*
X107651513Y-86061567D01*
X107651507Y-86061570D01*
X107437422Y-86161399D01*
X107437420Y-86161400D01*
X107243926Y-86296886D01*
X107243920Y-86296891D01*
X107076891Y-86463920D01*
X107076890Y-86463922D01*
X106946880Y-86649595D01*
X106892303Y-86693219D01*
X106822804Y-86700412D01*
X106760450Y-86668890D01*
X106743730Y-86649594D01*
X106613494Y-86463597D01*
X106446402Y-86296506D01*
X106446395Y-86296501D01*
X106252834Y-86160967D01*
X106252830Y-86160965D01*
X106221825Y-86146507D01*
X106038663Y-86061097D01*
X106038659Y-86061096D01*
X106038655Y-86061094D01*
X105810413Y-85999938D01*
X105810403Y-85999936D01*
X105575001Y-85979341D01*
X105574999Y-85979341D01*
X105339596Y-85999936D01*
X105339586Y-85999938D01*
X105111344Y-86061094D01*
X105111335Y-86061098D01*
X104897171Y-86160964D01*
X104897169Y-86160965D01*
X104703597Y-86296505D01*
X104536508Y-86463594D01*
X104406574Y-86649159D01*
X104351997Y-86692784D01*
X104282498Y-86699976D01*
X104220144Y-86668454D01*
X104203424Y-86649158D01*
X104073494Y-86463597D01*
X103906402Y-86296506D01*
X103906395Y-86296501D01*
X103712834Y-86160967D01*
X103712830Y-86160965D01*
X103681825Y-86146507D01*
X103498663Y-86061097D01*
X103498659Y-86061096D01*
X103498655Y-86061094D01*
X103270413Y-85999938D01*
X103270403Y-85999936D01*
X103035001Y-85979341D01*
X103034999Y-85979341D01*
X102799596Y-85999936D01*
X102799586Y-85999938D01*
X102571344Y-86061094D01*
X102571335Y-86061098D01*
X102357171Y-86160964D01*
X102357169Y-86160965D01*
X102163597Y-86296505D01*
X101996505Y-86463597D01*
X101866575Y-86649158D01*
X101811998Y-86692783D01*
X101742500Y-86699977D01*
X101680145Y-86668454D01*
X101663425Y-86649158D01*
X101533494Y-86463597D01*
X101366402Y-86296506D01*
X101366395Y-86296501D01*
X101172834Y-86160967D01*
X101172830Y-86160965D01*
X101141825Y-86146507D01*
X100958663Y-86061097D01*
X100958659Y-86061096D01*
X100958655Y-86061094D01*
X100730413Y-85999938D01*
X100730403Y-85999936D01*
X100495001Y-85979341D01*
X100494999Y-85979341D01*
X100259596Y-85999936D01*
X100259586Y-85999938D01*
X100031344Y-86061094D01*
X100031335Y-86061098D01*
X99817171Y-86160964D01*
X99817169Y-86160965D01*
X99623597Y-86296505D01*
X99456506Y-86463597D01*
X99456505Y-86463599D01*
X99411674Y-86527624D01*
X99357096Y-86571249D01*
X99310099Y-86580500D01*
X88158886Y-86580500D01*
X88091847Y-86560815D01*
X88071205Y-86544181D01*
X86045819Y-84518794D01*
X86012334Y-84457471D01*
X86009500Y-84431113D01*
X86009500Y-74998886D01*
X86029185Y-74931847D01*
X86045819Y-74911205D01*
X88071205Y-72885819D01*
X88132528Y-72852334D01*
X88158886Y-72849500D01*
X88860501Y-72849500D01*
X88927540Y-72869185D01*
X88973295Y-72921989D01*
X88984501Y-72973500D01*
X88984501Y-72992876D01*
X88990908Y-73052483D01*
X89041202Y-73187328D01*
X89041206Y-73187335D01*
X89127452Y-73302544D01*
X89127455Y-73302547D01*
X89242664Y-73388793D01*
X89242671Y-73388797D01*
X89374081Y-73437810D01*
X89430015Y-73479681D01*
X89454432Y-73545145D01*
X89439580Y-73613418D01*
X89418430Y-73641673D01*
X89296503Y-73763600D01*
X89160965Y-73957169D01*
X89160964Y-73957171D01*
X89061098Y-74171335D01*
X89061094Y-74171344D01*
X88999938Y-74399586D01*
X88999936Y-74399596D01*
X88979341Y-74634999D01*
X88979341Y-74635000D01*
X88999936Y-74870403D01*
X88999938Y-74870413D01*
X89061094Y-75098655D01*
X89061096Y-75098659D01*
X89061097Y-75098663D01*
X89140801Y-75269588D01*
X89160965Y-75312830D01*
X89160967Y-75312834D01*
X89269281Y-75467521D01*
X89296505Y-75506401D01*
X89463599Y-75673495D01*
X89560384Y-75741264D01*
X89657165Y-75809032D01*
X89657167Y-75809033D01*
X89657170Y-75809035D01*
X89871337Y-75908903D01*
X90099592Y-75970063D01*
X90287918Y-75986539D01*
X90334999Y-75990659D01*
X90335000Y-75990659D01*
X90335001Y-75990659D01*
X90374234Y-75987226D01*
X90570408Y-75970063D01*
X90798663Y-75908903D01*
X91012830Y-75809035D01*
X91206401Y-75673495D01*
X91373495Y-75506401D01*
X91503424Y-75320842D01*
X91558002Y-75277217D01*
X91627500Y-75270023D01*
X91689855Y-75301546D01*
X91706575Y-75320842D01*
X91836500Y-75506395D01*
X91836505Y-75506401D01*
X92003599Y-75673495D01*
X92100384Y-75741264D01*
X92197165Y-75809032D01*
X92197167Y-75809033D01*
X92197170Y-75809035D01*
X92411337Y-75908903D01*
X92639592Y-75970063D01*
X92827918Y-75986539D01*
X92874999Y-75990659D01*
X92875000Y-75990659D01*
X92875001Y-75990659D01*
X92914234Y-75987226D01*
X93110408Y-75970063D01*
X93338663Y-75908903D01*
X93552830Y-75809035D01*
X93746401Y-75673495D01*
X93913495Y-75506401D01*
X94043424Y-75320842D01*
X94098002Y-75277217D01*
X94167500Y-75270023D01*
X94229855Y-75301546D01*
X94246575Y-75320842D01*
X94376500Y-75506395D01*
X94376505Y-75506401D01*
X94543599Y-75673495D01*
X94640384Y-75741265D01*
X94737165Y-75809032D01*
X94737167Y-75809033D01*
X94737170Y-75809035D01*
X94951337Y-75908903D01*
X95179592Y-75970063D01*
X95367918Y-75986539D01*
X95414999Y-75990659D01*
X95415000Y-75990659D01*
X95415001Y-75990659D01*
X95454234Y-75987226D01*
X95650408Y-75970063D01*
X95878663Y-75908903D01*
X96092830Y-75809035D01*
X96286401Y-75673495D01*
X96453495Y-75506401D01*
X96583424Y-75320842D01*
X96638002Y-75277217D01*
X96707500Y-75270023D01*
X96769855Y-75301546D01*
X96786575Y-75320842D01*
X96916500Y-75506395D01*
X96916505Y-75506401D01*
X97083599Y-75673495D01*
X97180384Y-75741265D01*
X97277165Y-75809032D01*
X97277167Y-75809033D01*
X97277170Y-75809035D01*
X97491337Y-75908903D01*
X97719592Y-75970063D01*
X97907918Y-75986539D01*
X97954999Y-75990659D01*
X97955000Y-75990659D01*
X97955001Y-75990659D01*
X97994234Y-75987226D01*
X98190408Y-75970063D01*
X98418663Y-75908903D01*
X98632830Y-75809035D01*
X98826401Y-75673495D01*
X98993495Y-75506401D01*
X99123730Y-75320405D01*
X99178307Y-75276781D01*
X99247805Y-75269587D01*
X99310160Y-75301110D01*
X99326879Y-75320405D01*
X99456890Y-75506078D01*
X99623917Y-75673105D01*
X99817421Y-75808600D01*
X100031507Y-75908429D01*
X100031516Y-75908433D01*
X100245000Y-75965634D01*
X100245000Y-75247301D01*
X100264685Y-75180262D01*
X100317489Y-75134507D01*
X100386647Y-75124563D01*
X100459237Y-75135000D01*
X100459238Y-75135000D01*
X100530762Y-75135000D01*
X100530763Y-75135000D01*
X100603353Y-75124563D01*
X100672512Y-75134507D01*
X100725315Y-75180262D01*
X100745000Y-75247301D01*
X100745000Y-75965633D01*
X100958483Y-75908433D01*
X100958492Y-75908429D01*
X101172578Y-75808600D01*
X101366082Y-75673105D01*
X101533105Y-75506082D01*
X101663119Y-75320405D01*
X101717696Y-75276781D01*
X101787195Y-75269588D01*
X101849549Y-75301110D01*
X101866269Y-75320405D01*
X101996505Y-75506401D01*
X102163599Y-75673495D01*
X102260384Y-75741265D01*
X102357165Y-75809032D01*
X102357167Y-75809033D01*
X102357170Y-75809035D01*
X102571337Y-75908903D01*
X102799592Y-75970063D01*
X102987918Y-75986539D01*
X103034999Y-75990659D01*
X103035000Y-75990659D01*
X103035001Y-75990659D01*
X103074234Y-75987226D01*
X103270408Y-75970063D01*
X103498663Y-75908903D01*
X103712830Y-75809035D01*
X103906401Y-75673495D01*
X104073495Y-75506401D01*
X104203424Y-75320842D01*
X104258002Y-75277217D01*
X104327500Y-75270023D01*
X104389855Y-75301546D01*
X104406575Y-75320842D01*
X104536500Y-75506395D01*
X104536505Y-75506401D01*
X104703599Y-75673495D01*
X104800384Y-75741265D01*
X104897165Y-75809032D01*
X104897167Y-75809033D01*
X104897170Y-75809035D01*
X105111337Y-75908903D01*
X105339592Y-75970063D01*
X105527918Y-75986539D01*
X105574999Y-75990659D01*
X105575000Y-75990659D01*
X105575001Y-75990659D01*
X105614234Y-75987226D01*
X105810408Y-75970063D01*
X106038663Y-75908903D01*
X106252830Y-75809035D01*
X106446401Y-75673495D01*
X106613495Y-75506401D01*
X106743424Y-75320842D01*
X106798002Y-75277217D01*
X106867500Y-75270023D01*
X106929855Y-75301546D01*
X106946575Y-75320842D01*
X107076500Y-75506395D01*
X107076505Y-75506401D01*
X107243599Y-75673495D01*
X107340384Y-75741265D01*
X107437165Y-75809032D01*
X107437167Y-75809033D01*
X107437170Y-75809035D01*
X107651337Y-75908903D01*
X107879592Y-75970063D01*
X108067918Y-75986539D01*
X108114999Y-75990659D01*
X108115000Y-75990659D01*
X108115001Y-75990659D01*
X108154234Y-75987226D01*
X108350408Y-75970063D01*
X108578663Y-75908903D01*
X108792830Y-75809035D01*
X108986401Y-75673495D01*
X109153495Y-75506401D01*
X109283424Y-75320842D01*
X109338002Y-75277217D01*
X109407500Y-75270023D01*
X109469855Y-75301546D01*
X109486575Y-75320842D01*
X109616500Y-75506395D01*
X109616505Y-75506401D01*
X109783599Y-75673495D01*
X109880384Y-75741265D01*
X109977165Y-75809032D01*
X109977167Y-75809033D01*
X109977170Y-75809035D01*
X110191337Y-75908903D01*
X110419592Y-75970063D01*
X110607918Y-75986539D01*
X110654999Y-75990659D01*
X110655000Y-75990659D01*
X110655001Y-75990659D01*
X110694234Y-75987226D01*
X110890408Y-75970063D01*
X111118663Y-75908903D01*
X111332830Y-75809035D01*
X111526401Y-75673495D01*
X111693495Y-75506401D01*
X111823730Y-75320405D01*
X111878307Y-75276781D01*
X111947805Y-75269587D01*
X112010160Y-75301110D01*
X112026879Y-75320405D01*
X112156890Y-75506078D01*
X112323917Y-75673105D01*
X112517421Y-75808600D01*
X112731507Y-75908429D01*
X112731516Y-75908433D01*
X112945000Y-75965634D01*
X112945000Y-75247301D01*
X112964685Y-75180262D01*
X113017489Y-75134507D01*
X113086647Y-75124563D01*
X113159237Y-75135000D01*
X113159238Y-75135000D01*
X113230762Y-75135000D01*
X113230763Y-75135000D01*
X113303353Y-75124563D01*
X113372512Y-75134507D01*
X113425315Y-75180262D01*
X113445000Y-75247301D01*
X113445000Y-75965634D01*
X113658483Y-75908433D01*
X113658492Y-75908429D01*
X113872578Y-75808600D01*
X114066082Y-75673105D01*
X114233105Y-75506082D01*
X114368600Y-75312578D01*
X114468429Y-75098492D01*
X114468432Y-75098486D01*
X114525636Y-74885000D01*
X113808347Y-74885000D01*
X113741308Y-74865315D01*
X113695553Y-74812511D01*
X113685609Y-74743353D01*
X113689369Y-74726067D01*
X113695000Y-74706888D01*
X113695000Y-74563111D01*
X113689369Y-74543933D01*
X113689370Y-74474064D01*
X113727145Y-74415286D01*
X113790701Y-74386262D01*
X113808347Y-74385000D01*
X114525636Y-74385000D01*
X114525635Y-74384999D01*
X114468432Y-74171513D01*
X114468429Y-74171507D01*
X114368600Y-73957422D01*
X114368599Y-73957420D01*
X114233113Y-73763926D01*
X114233108Y-73763920D01*
X114066078Y-73596890D01*
X113880405Y-73466879D01*
X113836780Y-73412302D01*
X113829588Y-73342804D01*
X113861110Y-73280449D01*
X113880406Y-73263730D01*
X113880842Y-73263425D01*
X114066401Y-73133495D01*
X114233495Y-72966401D01*
X114369035Y-72772830D01*
X114468903Y-72558663D01*
X114530063Y-72330408D01*
X114550659Y-72095000D01*
X114530063Y-71859592D01*
X114468903Y-71631337D01*
X114369035Y-71417171D01*
X114368330Y-71416163D01*
X114233494Y-71223597D01*
X114066402Y-71056506D01*
X114066396Y-71056501D01*
X113900776Y-70940533D01*
X113857151Y-70885956D01*
X113847899Y-70838963D01*
X113847899Y-55906801D01*
X113867584Y-55839763D01*
X113884218Y-55819121D01*
X114699121Y-55004219D01*
X114760444Y-54970734D01*
X114786802Y-54967900D01*
X141579732Y-54967900D01*
X141595779Y-54969671D01*
X141595802Y-54969434D01*
X141603562Y-54970166D01*
X141603569Y-54970168D01*
X141675745Y-54967900D01*
X141706575Y-54967900D01*
X141713877Y-54966977D01*
X141719694Y-54966518D01*
X141768448Y-54964987D01*
X141788949Y-54959030D01*
X141807976Y-54955089D01*
X141829160Y-54952414D01*
X141874500Y-54934461D01*
X141880028Y-54932570D01*
X141888775Y-54930028D01*
X141926859Y-54918965D01*
X141945230Y-54908100D01*
X141962696Y-54899543D01*
X141982537Y-54891688D01*
X142021997Y-54863016D01*
X142026863Y-54859820D01*
X142068848Y-54834992D01*
X142083943Y-54819895D01*
X142098724Y-54807272D01*
X142115993Y-54794726D01*
X142138246Y-54767824D01*
X142140795Y-54764933D01*
X142169916Y-54733923D01*
X142191715Y-54712125D01*
X142196238Y-54706291D01*
X142200002Y-54701883D01*
X142233405Y-54666315D01*
X142243686Y-54647613D01*
X142254367Y-54631353D01*
X142267445Y-54614494D01*
X142267658Y-54614001D01*
X142268260Y-54613115D01*
X142271418Y-54607776D01*
X142271753Y-54607974D01*
X142293780Y-54575558D01*
X143919159Y-52950179D01*
X143980482Y-52916695D01*
X144050174Y-52921679D01*
X144106107Y-52963551D01*
X144130524Y-53029015D01*
X144130840Y-53037861D01*
X144130840Y-54250228D01*
X144145570Y-54380967D01*
X144145573Y-54380980D01*
X144203576Y-54546741D01*
X144203577Y-54546745D01*
X144297018Y-54695454D01*
X144419203Y-54817639D01*
X144452688Y-54878962D01*
X144447704Y-54948654D01*
X144419203Y-54993001D01*
X144297018Y-55115185D01*
X144203577Y-55263894D01*
X144203576Y-55263898D01*
X144145573Y-55429659D01*
X144145570Y-55429672D01*
X144130840Y-55560411D01*
X144130840Y-56790228D01*
X144145570Y-56920967D01*
X144145573Y-56920980D01*
X144203576Y-57086741D01*
X144203577Y-57086745D01*
X144297018Y-57235454D01*
X144419203Y-57357639D01*
X144452688Y-57418962D01*
X144447704Y-57488654D01*
X144419203Y-57533001D01*
X144297018Y-57655185D01*
X144203577Y-57803894D01*
X144203576Y-57803898D01*
X144145573Y-57969659D01*
X144145570Y-57969672D01*
X144130840Y-58100411D01*
X144130840Y-59330228D01*
X144145570Y-59460967D01*
X144145573Y-59460980D01*
X144203576Y-59626741D01*
X144203577Y-59626745D01*
X144297018Y-59775454D01*
X144419557Y-59897993D01*
X144453042Y-59959316D01*
X144448058Y-60029008D01*
X144419557Y-60073355D01*
X144297412Y-60195499D01*
X144204032Y-60344114D01*
X144146063Y-60509777D01*
X144146061Y-60509786D01*
X144131340Y-60640446D01*
X144131340Y-61005320D01*
X144814384Y-61005320D01*
X144881423Y-61025005D01*
X144927178Y-61077809D01*
X144938095Y-61137783D01*
X144937781Y-61142365D01*
X144937781Y-61142367D01*
X144927463Y-61293206D01*
X144937801Y-61342953D01*
X144940531Y-61356092D01*
X144934897Y-61425734D01*
X144892506Y-61481275D01*
X144826817Y-61505081D01*
X144819124Y-61505320D01*
X144131341Y-61505320D01*
X144131341Y-61870194D01*
X144146061Y-62000852D01*
X144146063Y-62000862D01*
X144204032Y-62166525D01*
X144297412Y-62315140D01*
X144419557Y-62437285D01*
X144453042Y-62498608D01*
X144448058Y-62568300D01*
X144419557Y-62612647D01*
X144297018Y-62735185D01*
X144203577Y-62883894D01*
X144203576Y-62883898D01*
X144145573Y-63049659D01*
X144145570Y-63049672D01*
X144130840Y-63180411D01*
X144130840Y-64410228D01*
X144145570Y-64540967D01*
X144145573Y-64540980D01*
X144203576Y-64706741D01*
X144203577Y-64706745D01*
X144281108Y-64830134D01*
X144297018Y-64855454D01*
X144419205Y-64977641D01*
X144452688Y-65038960D01*
X144447704Y-65108652D01*
X144419204Y-65153000D01*
X144297017Y-65275187D01*
X144203577Y-65423894D01*
X144203576Y-65423898D01*
X144145573Y-65589659D01*
X144145570Y-65589672D01*
X144130840Y-65720411D01*
X144130840Y-66950228D01*
X144145570Y-67080967D01*
X144145573Y-67080980D01*
X144203576Y-67246741D01*
X144203577Y-67246745D01*
X144281108Y-67370134D01*
X144297018Y-67395454D01*
X144421206Y-67519642D01*
X144476473Y-67554369D01*
X144569914Y-67613082D01*
X144569918Y-67613083D01*
X144735679Y-67671086D01*
X144735685Y-67671087D01*
X144735687Y-67671088D01*
X144735688Y-67671088D01*
X144735692Y-67671089D01*
X144823796Y-67681015D01*
X144866432Y-67685819D01*
X144866435Y-67685820D01*
X144866438Y-67685820D01*
X146096245Y-67685820D01*
X146096246Y-67685819D01*
X146161617Y-67678453D01*
X146226987Y-67671089D01*
X146226989Y-67671088D01*
X146226993Y-67671088D01*
X146226996Y-67671086D01*
X146227000Y-67671086D01*
X146314736Y-67640385D01*
X146392765Y-67613082D01*
X146541474Y-67519642D01*
X146665662Y-67395454D01*
X146759102Y-67246745D01*
X146817108Y-67080973D01*
X146831840Y-66950222D01*
X146831840Y-66924908D01*
X148859500Y-66924908D01*
X148874230Y-67055647D01*
X148874233Y-67055660D01*
X148932236Y-67221421D01*
X148932237Y-67221425D01*
X149025677Y-67370133D01*
X149025678Y-67370134D01*
X149149866Y-67494322D01*
X149190161Y-67519641D01*
X149298574Y-67587762D01*
X149298578Y-67587763D01*
X149464339Y-67645766D01*
X149464345Y-67645767D01*
X149464347Y-67645768D01*
X149464348Y-67645768D01*
X149464352Y-67645769D01*
X149552456Y-67655695D01*
X149595092Y-67660499D01*
X149595095Y-67660500D01*
X149595098Y-67660500D01*
X150824905Y-67660500D01*
X150824906Y-67660499D01*
X150890277Y-67653133D01*
X150955647Y-67645769D01*
X150955649Y-67645768D01*
X150955653Y-67645768D01*
X150955656Y-67645766D01*
X150955660Y-67645766D01*
X151043396Y-67615065D01*
X151121425Y-67587762D01*
X151270134Y-67494322D01*
X151394322Y-67370134D01*
X151487762Y-67221425D01*
X151536908Y-67080973D01*
X151545766Y-67055660D01*
X151545769Y-67055647D01*
X151560499Y-66924908D01*
X151560500Y-66924904D01*
X151560500Y-65695095D01*
X151560499Y-65695091D01*
X151545769Y-65564352D01*
X151545766Y-65564339D01*
X151487763Y-65398578D01*
X151487762Y-65398574D01*
X151410232Y-65275187D01*
X151394322Y-65249866D01*
X151272137Y-65127681D01*
X151238652Y-65066358D01*
X151243636Y-64996666D01*
X151272137Y-64952319D01*
X151272136Y-64952318D01*
X151394322Y-64830134D01*
X151487762Y-64681425D01*
X151536908Y-64540973D01*
X151545766Y-64515660D01*
X151545769Y-64515647D01*
X151560499Y-64384908D01*
X151560500Y-64384904D01*
X151560500Y-63155095D01*
X151560499Y-63155091D01*
X151545769Y-63024352D01*
X151545766Y-63024339D01*
X151487763Y-62858578D01*
X151487762Y-62858574D01*
X151429049Y-62765134D01*
X151394322Y-62709866D01*
X151271782Y-62587326D01*
X151238298Y-62526004D01*
X151243282Y-62456312D01*
X151271783Y-62411965D01*
X151393927Y-62289820D01*
X151487307Y-62141205D01*
X151545276Y-61975542D01*
X151545278Y-61975533D01*
X151559999Y-61844873D01*
X151560000Y-61844869D01*
X151560000Y-61480000D01*
X150876956Y-61480000D01*
X150809917Y-61460315D01*
X150764162Y-61407511D01*
X150753245Y-61347537D01*
X150754392Y-61330772D01*
X150763877Y-61192114D01*
X150750809Y-61129227D01*
X150756443Y-61059586D01*
X150798834Y-61004045D01*
X150864523Y-60980239D01*
X150872216Y-60980000D01*
X151559999Y-60980000D01*
X151559999Y-60615133D01*
X151559998Y-60615125D01*
X151545278Y-60484467D01*
X151545276Y-60484457D01*
X151487307Y-60318794D01*
X151393927Y-60170179D01*
X151269820Y-60046072D01*
X151121205Y-59952692D01*
X150955542Y-59894723D01*
X150955533Y-59894721D01*
X150824873Y-59880000D01*
X150460000Y-59880000D01*
X150460000Y-60565347D01*
X150440315Y-60632386D01*
X150387511Y-60678141D01*
X150318353Y-60688085D01*
X150302547Y-60684749D01*
X150285598Y-60680000D01*
X150285596Y-60680000D01*
X150172378Y-60680000D01*
X150172376Y-60680000D01*
X150100884Y-60689826D01*
X150031789Y-60679453D01*
X149979270Y-60633371D01*
X149960000Y-60566981D01*
X149960000Y-59880000D01*
X149595133Y-59880000D01*
X149595125Y-59880001D01*
X149464467Y-59894721D01*
X149464457Y-59894723D01*
X149298794Y-59952692D01*
X149150179Y-60046072D01*
X149026072Y-60170179D01*
X148932692Y-60318794D01*
X148874723Y-60484457D01*
X148874721Y-60484466D01*
X148860000Y-60615126D01*
X148860000Y-60980000D01*
X149543044Y-60980000D01*
X149610083Y-60999685D01*
X149655838Y-61052489D01*
X149666755Y-61112463D01*
X149666441Y-61117045D01*
X149666441Y-61117047D01*
X149656123Y-61267886D01*
X149661384Y-61293203D01*
X149669191Y-61330772D01*
X149663557Y-61400414D01*
X149621166Y-61455955D01*
X149555477Y-61479761D01*
X149547784Y-61480000D01*
X148860001Y-61480000D01*
X148860001Y-61844874D01*
X148874721Y-61975532D01*
X148874723Y-61975542D01*
X148932692Y-62141205D01*
X149026072Y-62289820D01*
X149148216Y-62411964D01*
X149181701Y-62473287D01*
X149176717Y-62542979D01*
X149148217Y-62587326D01*
X149025677Y-62709867D01*
X148932237Y-62858574D01*
X148932236Y-62858578D01*
X148874233Y-63024339D01*
X148874230Y-63024352D01*
X148859500Y-63155091D01*
X148859500Y-64384908D01*
X148874230Y-64515647D01*
X148874233Y-64515660D01*
X148932236Y-64681421D01*
X148932237Y-64681425D01*
X149025678Y-64830134D01*
X149147863Y-64952319D01*
X149181348Y-65013642D01*
X149176364Y-65083334D01*
X149147863Y-65127681D01*
X149025678Y-65249865D01*
X148932237Y-65398574D01*
X148932236Y-65398578D01*
X148874233Y-65564339D01*
X148874230Y-65564352D01*
X148859500Y-65695091D01*
X148859500Y-66924908D01*
X146831840Y-66924908D01*
X146831840Y-65720418D01*
X146817108Y-65589667D01*
X146817107Y-65589665D01*
X146817106Y-65589659D01*
X146759103Y-65423898D01*
X146759102Y-65423894D01*
X146712382Y-65349540D01*
X146665662Y-65275186D01*
X146543476Y-65152999D01*
X146509992Y-65091677D01*
X146514976Y-65021985D01*
X146543473Y-64977642D01*
X146665662Y-64855454D01*
X146759102Y-64706745D01*
X146817108Y-64540973D01*
X146831840Y-64410222D01*
X146831840Y-63180418D01*
X146817108Y-63049667D01*
X146817107Y-63049665D01*
X146817106Y-63049659D01*
X146759103Y-62883898D01*
X146759102Y-62883894D01*
X146665661Y-62735185D01*
X146543123Y-62612647D01*
X146509638Y-62551324D01*
X146514622Y-62481632D01*
X146543123Y-62437285D01*
X146665267Y-62315140D01*
X146758647Y-62166525D01*
X146816616Y-62000862D01*
X146816618Y-62000853D01*
X146831339Y-61870193D01*
X146831340Y-61870189D01*
X146831340Y-61505320D01*
X146148296Y-61505320D01*
X146081257Y-61485635D01*
X146035502Y-61432831D01*
X146024585Y-61372857D01*
X146026317Y-61347537D01*
X146035217Y-61217434D01*
X146022149Y-61154547D01*
X146027783Y-61084906D01*
X146070174Y-61029365D01*
X146135863Y-61005559D01*
X146143556Y-61005320D01*
X146831339Y-61005320D01*
X146831339Y-60640453D01*
X146831338Y-60640445D01*
X146816618Y-60509787D01*
X146816616Y-60509777D01*
X146758647Y-60344114D01*
X146665267Y-60195499D01*
X146543123Y-60073355D01*
X146509638Y-60012032D01*
X146514622Y-59942340D01*
X146543123Y-59897993D01*
X146561116Y-59880000D01*
X146665662Y-59775454D01*
X146759102Y-59626745D01*
X146817108Y-59460973D01*
X146831840Y-59330222D01*
X146831840Y-58100418D01*
X146817108Y-57969667D01*
X146817107Y-57969665D01*
X146817106Y-57969659D01*
X146759103Y-57803898D01*
X146759102Y-57803894D01*
X146712382Y-57729540D01*
X146665662Y-57655186D01*
X146543476Y-57532999D01*
X146509992Y-57471677D01*
X146514976Y-57401985D01*
X146543473Y-57357642D01*
X146665662Y-57235454D01*
X146759102Y-57086745D01*
X146786405Y-57008716D01*
X146817106Y-56920980D01*
X146817109Y-56920967D01*
X146831839Y-56790228D01*
X146831840Y-56790224D01*
X146831840Y-56204908D01*
X196939500Y-56204908D01*
X196954230Y-56335647D01*
X196954233Y-56335660D01*
X197012236Y-56501421D01*
X197012237Y-56501425D01*
X197105481Y-56649820D01*
X197105678Y-56650134D01*
X197229866Y-56774322D01*
X197285134Y-56809049D01*
X197378574Y-56867762D01*
X197378578Y-56867763D01*
X197544339Y-56925766D01*
X197544345Y-56925767D01*
X197544347Y-56925768D01*
X197544348Y-56925768D01*
X197544352Y-56925769D01*
X197632456Y-56935695D01*
X197675092Y-56940499D01*
X197675095Y-56940500D01*
X197675098Y-56940500D01*
X198904905Y-56940500D01*
X198904906Y-56940499D01*
X198970277Y-56933133D01*
X199035647Y-56925769D01*
X199035649Y-56925768D01*
X199035653Y-56925768D01*
X199035656Y-56925766D01*
X199035660Y-56925766D01*
X199123396Y-56895065D01*
X199201425Y-56867762D01*
X199350134Y-56774322D01*
X199474322Y-56650134D01*
X199567762Y-56501425D01*
X199625768Y-56335653D01*
X199640500Y-56204902D01*
X199640500Y-55340000D01*
X207100000Y-55340000D01*
X207783044Y-55340000D01*
X207850083Y-55359685D01*
X207895838Y-55412489D01*
X207906755Y-55472463D01*
X207906441Y-55477045D01*
X207906441Y-55477047D01*
X207896123Y-55627886D01*
X207909191Y-55690772D01*
X207903557Y-55760414D01*
X207861166Y-55815955D01*
X207795477Y-55839761D01*
X207787784Y-55840000D01*
X207100001Y-55840000D01*
X207100001Y-56204874D01*
X207114721Y-56335532D01*
X207114723Y-56335542D01*
X207172692Y-56501205D01*
X207266072Y-56649820D01*
X207390179Y-56773927D01*
X207538794Y-56867307D01*
X207704457Y-56925276D01*
X207704466Y-56925278D01*
X207835128Y-56939999D01*
X208199999Y-56939999D01*
X208199999Y-56254652D01*
X208219683Y-56187613D01*
X208272487Y-56141858D01*
X208341646Y-56131914D01*
X208357453Y-56135250D01*
X208374404Y-56140000D01*
X208374406Y-56140000D01*
X208487622Y-56140000D01*
X208559116Y-56130173D01*
X208628210Y-56140545D01*
X208680729Y-56186627D01*
X208700000Y-56253018D01*
X208700000Y-56939999D01*
X209064867Y-56939999D01*
X209064874Y-56939998D01*
X209195532Y-56925278D01*
X209195542Y-56925276D01*
X209361205Y-56867307D01*
X209509820Y-56773927D01*
X209633927Y-56649820D01*
X209727307Y-56501205D01*
X209785276Y-56335542D01*
X209785278Y-56335533D01*
X209799999Y-56204873D01*
X209800000Y-56204869D01*
X209800000Y-55840000D01*
X209116956Y-55840000D01*
X209049917Y-55820315D01*
X209004162Y-55767511D01*
X208993245Y-55707537D01*
X208994392Y-55690772D01*
X209003877Y-55552114D01*
X208990809Y-55489227D01*
X208996443Y-55419586D01*
X209038834Y-55364045D01*
X209104523Y-55340239D01*
X209112216Y-55340000D01*
X209799999Y-55340000D01*
X209799999Y-54975132D01*
X209799998Y-54975125D01*
X209785278Y-54844467D01*
X209785276Y-54844457D01*
X209727307Y-54678794D01*
X209633927Y-54530179D01*
X209509820Y-54406072D01*
X209361205Y-54312692D01*
X209195542Y-54254723D01*
X209195533Y-54254721D01*
X209064873Y-54240000D01*
X208700000Y-54240000D01*
X208700000Y-54925347D01*
X208680315Y-54992386D01*
X208627511Y-55038141D01*
X208558353Y-55048085D01*
X208542547Y-55044749D01*
X208525598Y-55040000D01*
X208525596Y-55040000D01*
X208412378Y-55040000D01*
X208412376Y-55040000D01*
X208340884Y-55049826D01*
X208271789Y-55039453D01*
X208219270Y-54993371D01*
X208200000Y-54926981D01*
X208200000Y-54240000D01*
X207835133Y-54240000D01*
X207835125Y-54240001D01*
X207704467Y-54254721D01*
X207704457Y-54254723D01*
X207538794Y-54312692D01*
X207390179Y-54406072D01*
X207266072Y-54530179D01*
X207172692Y-54678794D01*
X207114723Y-54844457D01*
X207114721Y-54844466D01*
X207100000Y-54975126D01*
X207100000Y-55340000D01*
X199640500Y-55340000D01*
X199640500Y-54975098D01*
X199627873Y-54863026D01*
X199625769Y-54844352D01*
X199625766Y-54844339D01*
X199567763Y-54678578D01*
X199567762Y-54678574D01*
X199499390Y-54569762D01*
X199474322Y-54529866D01*
X199350134Y-54405678D01*
X199350134Y-54405677D01*
X199201425Y-54312237D01*
X199201421Y-54312236D01*
X199035660Y-54254233D01*
X199035647Y-54254230D01*
X198904908Y-54239500D01*
X198904902Y-54239500D01*
X197675098Y-54239500D01*
X197675091Y-54239500D01*
X197544352Y-54254230D01*
X197544339Y-54254233D01*
X197378578Y-54312236D01*
X197378574Y-54312237D01*
X197229865Y-54405678D01*
X197105678Y-54529865D01*
X197012237Y-54678574D01*
X197012236Y-54678578D01*
X196954233Y-54844339D01*
X196954230Y-54844352D01*
X196939500Y-54975091D01*
X196939500Y-56204908D01*
X146831840Y-56204908D01*
X146831840Y-55560415D01*
X146831839Y-55560411D01*
X146830904Y-55552116D01*
X146823819Y-55489228D01*
X146817109Y-55429672D01*
X146817106Y-55429659D01*
X146759103Y-55263898D01*
X146759102Y-55263894D01*
X146693411Y-55159348D01*
X146665662Y-55115186D01*
X146543476Y-54992999D01*
X146509992Y-54931677D01*
X146514976Y-54861985D01*
X146543473Y-54817642D01*
X146665662Y-54695454D01*
X146759102Y-54546745D01*
X146786405Y-54468716D01*
X146817106Y-54380980D01*
X146817109Y-54380967D01*
X146826870Y-54294328D01*
X146831840Y-54250222D01*
X146831840Y-53020418D01*
X146820715Y-52921679D01*
X146817109Y-52889672D01*
X146817106Y-52889659D01*
X146759103Y-52723898D01*
X146759102Y-52723894D01*
X146665661Y-52575185D01*
X146541474Y-52450998D01*
X146392765Y-52357557D01*
X146392761Y-52357556D01*
X146227000Y-52299553D01*
X146226987Y-52299550D01*
X146096248Y-52284820D01*
X146096242Y-52284820D01*
X144883881Y-52284820D01*
X144816842Y-52265135D01*
X144771087Y-52212331D01*
X144761143Y-52143173D01*
X144790168Y-52079617D01*
X144796200Y-52073139D01*
X148359728Y-48509611D01*
X151925021Y-44944317D01*
X151937620Y-44934225D01*
X151937468Y-44934041D01*
X151943477Y-44929068D01*
X151943482Y-44929066D01*
X151992916Y-44876423D01*
X152014715Y-44854625D01*
X152019238Y-44848792D01*
X152023012Y-44844373D01*
X152056405Y-44808815D01*
X152066686Y-44790111D01*
X152077357Y-44773865D01*
X152090445Y-44756995D01*
X152095138Y-44746149D01*
X152139825Y-44692441D01*
X152195057Y-44672173D01*
X152269648Y-44663769D01*
X152269651Y-44663768D01*
X152269653Y-44663768D01*
X152269655Y-44663767D01*
X152269660Y-44663766D01*
X152385481Y-44623238D01*
X152435425Y-44605762D01*
X152584134Y-44512322D01*
X152708322Y-44388134D01*
X152801762Y-44239425D01*
X152859768Y-44073653D01*
X152874500Y-43942902D01*
X152874500Y-43785000D01*
X205829422Y-43785000D01*
X205849722Y-44172339D01*
X205884218Y-44390137D01*
X205910398Y-44555433D01*
X206010512Y-44929066D01*
X206010788Y-44930094D01*
X206149787Y-45292197D01*
X206325877Y-45637793D01*
X206537122Y-45963082D01*
X206646041Y-46097585D01*
X206781219Y-46264516D01*
X207055484Y-46538781D01*
X207055488Y-46538784D01*
X207356917Y-46782877D01*
X207682206Y-46994122D01*
X207682211Y-46994125D01*
X208027806Y-47170214D01*
X208389913Y-47309214D01*
X208764567Y-47409602D01*
X209147662Y-47470278D01*
X209513576Y-47489455D01*
X209534999Y-47490578D01*
X209535000Y-47490578D01*
X209535001Y-47490578D01*
X209555300Y-47489514D01*
X209922338Y-47470278D01*
X210305433Y-47409602D01*
X210680087Y-47309214D01*
X211042194Y-47170214D01*
X211387789Y-46994125D01*
X211713084Y-46782876D01*
X212014516Y-46538781D01*
X212288781Y-46264516D01*
X212532876Y-45963084D01*
X212744125Y-45637789D01*
X212920214Y-45292194D01*
X213059214Y-44930087D01*
X213159602Y-44555433D01*
X213220278Y-44172338D01*
X213240578Y-43785000D01*
X213220278Y-43397662D01*
X213159602Y-43014567D01*
X213059214Y-42639913D01*
X212920214Y-42277806D01*
X212744125Y-41932211D01*
X212744122Y-41932206D01*
X212532877Y-41606917D01*
X212387520Y-41427417D01*
X212288781Y-41305484D01*
X212014516Y-41031219D01*
X211940358Y-40971167D01*
X211713082Y-40787122D01*
X211387793Y-40575877D01*
X211042197Y-40399787D01*
X210680094Y-40260788D01*
X210680087Y-40260786D01*
X210305433Y-40160398D01*
X210305429Y-40160397D01*
X210305428Y-40160397D01*
X209922339Y-40099722D01*
X209535001Y-40079422D01*
X209534999Y-40079422D01*
X209147660Y-40099722D01*
X208764572Y-40160397D01*
X208764570Y-40160397D01*
X208389905Y-40260788D01*
X208027802Y-40399787D01*
X207682206Y-40575877D01*
X207356917Y-40787122D01*
X207055488Y-41031215D01*
X207055480Y-41031222D01*
X206781222Y-41305480D01*
X206781215Y-41305488D01*
X206537122Y-41606917D01*
X206325877Y-41932206D01*
X206149787Y-42277802D01*
X206010788Y-42639905D01*
X205910397Y-43014570D01*
X205910397Y-43014572D01*
X205849722Y-43397660D01*
X205829422Y-43784999D01*
X205829422Y-43785000D01*
X152874500Y-43785000D01*
X152874500Y-42713098D01*
X152859768Y-42582347D01*
X152859767Y-42582345D01*
X152859766Y-42582339D01*
X152801763Y-42416578D01*
X152801762Y-42416574D01*
X152717572Y-42282587D01*
X152708322Y-42267866D01*
X152585782Y-42145326D01*
X152552298Y-42084004D01*
X152557282Y-42014312D01*
X152585783Y-41969965D01*
X152707927Y-41847820D01*
X152801307Y-41699205D01*
X152859276Y-41533542D01*
X152859278Y-41533533D01*
X152873999Y-41402873D01*
X152874000Y-41402869D01*
X152874000Y-41038000D01*
X152190956Y-41038000D01*
X152123917Y-41018315D01*
X152078162Y-40965511D01*
X152067245Y-40905537D01*
X152067559Y-40900953D01*
X152077877Y-40750114D01*
X152064809Y-40687227D01*
X152070443Y-40617586D01*
X152112834Y-40562045D01*
X152178523Y-40538239D01*
X152186216Y-40538000D01*
X152873999Y-40538000D01*
X152873999Y-40173133D01*
X152873998Y-40173125D01*
X152859278Y-40042467D01*
X152859276Y-40042457D01*
X152801307Y-39876794D01*
X152707927Y-39728179D01*
X152583820Y-39604072D01*
X152435205Y-39510692D01*
X152269542Y-39452723D01*
X152269533Y-39452721D01*
X152138873Y-39438000D01*
X151774000Y-39438000D01*
X151774000Y-40123347D01*
X151754315Y-40190386D01*
X151701511Y-40236141D01*
X151632353Y-40246085D01*
X151616547Y-40242749D01*
X151599598Y-40238000D01*
X151599596Y-40238000D01*
X151486378Y-40238000D01*
X151486376Y-40238000D01*
X151414884Y-40247826D01*
X151345789Y-40237453D01*
X151293270Y-40191371D01*
X151274000Y-40124981D01*
X151274000Y-39438000D01*
X150909133Y-39438000D01*
X150909125Y-39438001D01*
X150778467Y-39452721D01*
X150778457Y-39452723D01*
X150612794Y-39510692D01*
X150464179Y-39604072D01*
X150342035Y-39726217D01*
X150280712Y-39759702D01*
X150211020Y-39754718D01*
X150166673Y-39726217D01*
X150044134Y-39603678D01*
X149895425Y-39510237D01*
X149895421Y-39510236D01*
X149729660Y-39452233D01*
X149729647Y-39452230D01*
X149598908Y-39437500D01*
X149598902Y-39437500D01*
X148369098Y-39437500D01*
X148369091Y-39437500D01*
X148238352Y-39452230D01*
X148238339Y-39452233D01*
X148072578Y-39510236D01*
X148072574Y-39510237D01*
X147923867Y-39603677D01*
X147801681Y-39725863D01*
X147740358Y-39759347D01*
X147670666Y-39754363D01*
X147626319Y-39725863D01*
X147575515Y-39675059D01*
X147504134Y-39603678D01*
X147473757Y-39584591D01*
X147355425Y-39510237D01*
X147355421Y-39510236D01*
X147189660Y-39452233D01*
X147189647Y-39452230D01*
X147058908Y-39437500D01*
X147058902Y-39437500D01*
X145829098Y-39437500D01*
X145829091Y-39437500D01*
X145698352Y-39452230D01*
X145698339Y-39452233D01*
X145532578Y-39510236D01*
X145532574Y-39510237D01*
X145383867Y-39603677D01*
X145261681Y-39725863D01*
X145200358Y-39759347D01*
X145130666Y-39754363D01*
X145086319Y-39725863D01*
X145035515Y-39675059D01*
X144964134Y-39603678D01*
X144933757Y-39584591D01*
X144815425Y-39510237D01*
X144815421Y-39510236D01*
X144649660Y-39452233D01*
X144649647Y-39452230D01*
X144518908Y-39437500D01*
X144518902Y-39437500D01*
X143289098Y-39437500D01*
X143289091Y-39437500D01*
X143158352Y-39452230D01*
X143158339Y-39452233D01*
X142992578Y-39510236D01*
X142992574Y-39510237D01*
X142843867Y-39603677D01*
X142721681Y-39725863D01*
X142660358Y-39759347D01*
X142590666Y-39754363D01*
X142546319Y-39725863D01*
X142495515Y-39675059D01*
X142424134Y-39603678D01*
X142393757Y-39584591D01*
X142275425Y-39510237D01*
X142275421Y-39510236D01*
X142109660Y-39452233D01*
X142109647Y-39452230D01*
X141978908Y-39437500D01*
X141978902Y-39437500D01*
X140749098Y-39437500D01*
X140749091Y-39437500D01*
X140618352Y-39452230D01*
X140618339Y-39452233D01*
X140452578Y-39510236D01*
X140452574Y-39510237D01*
X140303867Y-39603677D01*
X140181327Y-39726217D01*
X140120004Y-39759701D01*
X140050312Y-39754717D01*
X140005965Y-39726217D01*
X139883818Y-39604071D01*
X139735205Y-39510692D01*
X139569542Y-39452723D01*
X139569533Y-39452721D01*
X139438873Y-39438000D01*
X139074000Y-39438000D01*
X139074000Y-40123347D01*
X139054315Y-40190386D01*
X139001511Y-40236141D01*
X138932353Y-40246085D01*
X138916547Y-40242749D01*
X138899598Y-40238000D01*
X138899596Y-40238000D01*
X138786378Y-40238000D01*
X138786376Y-40238000D01*
X138714884Y-40247826D01*
X138645789Y-40237453D01*
X138593270Y-40191371D01*
X138574000Y-40124981D01*
X138574000Y-39438000D01*
X138209133Y-39438000D01*
X138209125Y-39438001D01*
X138078467Y-39452721D01*
X138078457Y-39452723D01*
X137912794Y-39510692D01*
X137764179Y-39604072D01*
X137642035Y-39726217D01*
X137580712Y-39759702D01*
X137511020Y-39754718D01*
X137466673Y-39726217D01*
X137344134Y-39603678D01*
X137195425Y-39510237D01*
X137195421Y-39510236D01*
X137029660Y-39452233D01*
X137029647Y-39452230D01*
X136898908Y-39437500D01*
X136898902Y-39437500D01*
X135669098Y-39437500D01*
X135669091Y-39437500D01*
X135538352Y-39452230D01*
X135538339Y-39452233D01*
X135372578Y-39510236D01*
X135372574Y-39510237D01*
X135223867Y-39603677D01*
X135101681Y-39725863D01*
X135040358Y-39759347D01*
X134970666Y-39754363D01*
X134926319Y-39725863D01*
X134875515Y-39675059D01*
X134804134Y-39603678D01*
X134773757Y-39584591D01*
X134655425Y-39510237D01*
X134655421Y-39510236D01*
X134489660Y-39452233D01*
X134489647Y-39452230D01*
X134358908Y-39437500D01*
X134358902Y-39437500D01*
X133129098Y-39437500D01*
X133129091Y-39437500D01*
X132998352Y-39452230D01*
X132998339Y-39452233D01*
X132832578Y-39510236D01*
X132832574Y-39510237D01*
X132683867Y-39603677D01*
X132561680Y-39725863D01*
X132500356Y-39759347D01*
X132430665Y-39754362D01*
X132386318Y-39725862D01*
X132264134Y-39603678D01*
X132115425Y-39510237D01*
X132115421Y-39510236D01*
X131949660Y-39452233D01*
X131949647Y-39452230D01*
X131818908Y-39437500D01*
X131818902Y-39437500D01*
X130589098Y-39437500D01*
X130589091Y-39437500D01*
X130458352Y-39452230D01*
X130458339Y-39452233D01*
X130292578Y-39510236D01*
X130292574Y-39510237D01*
X130143867Y-39603677D01*
X130021681Y-39725863D01*
X129960358Y-39759347D01*
X129890666Y-39754363D01*
X129846319Y-39725863D01*
X129795515Y-39675059D01*
X129724134Y-39603678D01*
X129693757Y-39584591D01*
X129575425Y-39510237D01*
X129575421Y-39510236D01*
X129409660Y-39452233D01*
X129409647Y-39452230D01*
X129278908Y-39437500D01*
X129278902Y-39437500D01*
X128049098Y-39437500D01*
X128049091Y-39437500D01*
X127918352Y-39452230D01*
X127918339Y-39452233D01*
X127752578Y-39510236D01*
X127752574Y-39510237D01*
X127603865Y-39603678D01*
X127479678Y-39727865D01*
X127386238Y-39876573D01*
X127386161Y-39876794D01*
X127328232Y-40042347D01*
X127328231Y-40042349D01*
X127325933Y-40048919D01*
X127323772Y-40048162D01*
X127294945Y-40099683D01*
X127233279Y-40132532D01*
X127208175Y-40135100D01*
X105217768Y-40135100D01*
X105201720Y-40133328D01*
X105201698Y-40133566D01*
X105193932Y-40132832D01*
X105193931Y-40132832D01*
X105121755Y-40135100D01*
X105090922Y-40135100D01*
X105083615Y-40136022D01*
X105077796Y-40136480D01*
X105029051Y-40138012D01*
X105029050Y-40138013D01*
X105008552Y-40143967D01*
X104989514Y-40147909D01*
X104968349Y-40150584D01*
X104968342Y-40150585D01*
X104968340Y-40150586D01*
X104968338Y-40150586D01*
X104968337Y-40150587D01*
X104922999Y-40168536D01*
X104917473Y-40170428D01*
X104870639Y-40184035D01*
X104870637Y-40184036D01*
X104852266Y-40194900D01*
X104834804Y-40203455D01*
X104814966Y-40211310D01*
X104814965Y-40211311D01*
X104814964Y-40211311D01*
X104814963Y-40211312D01*
X104806881Y-40217183D01*
X104775510Y-40239974D01*
X104770630Y-40243180D01*
X104728649Y-40268009D01*
X104713560Y-40283098D01*
X104698772Y-40295729D01*
X104681508Y-40308273D01*
X104681503Y-40308277D01*
X104650422Y-40345847D01*
X104646490Y-40350169D01*
X91203976Y-53792682D01*
X91191378Y-53802776D01*
X91191530Y-53802960D01*
X91185519Y-53807933D01*
X91136083Y-53860576D01*
X91114284Y-53882375D01*
X91109769Y-53888196D01*
X91105977Y-53892635D01*
X91072596Y-53928182D01*
X91072594Y-53928186D01*
X91062313Y-53946885D01*
X91051638Y-53963136D01*
X91038557Y-53980001D01*
X91038552Y-53980009D01*
X91019185Y-54024761D01*
X91016616Y-54030005D01*
X90993123Y-54072741D01*
X90987814Y-54093416D01*
X90981515Y-54111812D01*
X90973042Y-54131392D01*
X90973040Y-54131400D01*
X90965412Y-54179564D01*
X90964227Y-54185286D01*
X90952100Y-54232513D01*
X90952100Y-54253861D01*
X90950573Y-54273260D01*
X90947236Y-54294327D01*
X90947236Y-54294328D01*
X90951825Y-54342875D01*
X90952100Y-54348713D01*
X90952100Y-70620500D01*
X90932415Y-70687539D01*
X90879611Y-70733294D01*
X90828100Y-70744500D01*
X89437129Y-70744500D01*
X89437123Y-70744501D01*
X89377516Y-70750908D01*
X89242671Y-70801202D01*
X89242664Y-70801206D01*
X89127455Y-70887452D01*
X89127452Y-70887455D01*
X89041206Y-71002664D01*
X89041202Y-71002671D01*
X88990908Y-71137517D01*
X88984501Y-71197116D01*
X88984500Y-71197135D01*
X88984500Y-71216500D01*
X88964815Y-71283539D01*
X88912011Y-71329294D01*
X88860500Y-71340500D01*
X87858994Y-71340500D01*
X87841022Y-71339191D01*
X87817093Y-71335686D01*
X87817089Y-71335685D01*
X87771992Y-71339631D01*
X87764763Y-71340264D01*
X87759361Y-71340500D01*
X87751053Y-71340500D01*
X87718292Y-71344329D01*
X87641391Y-71351057D01*
X87634317Y-71352518D01*
X87634306Y-71352465D01*
X87626825Y-71354124D01*
X87626838Y-71354176D01*
X87619817Y-71355839D01*
X87573658Y-71372638D01*
X87547246Y-71382252D01*
X87522963Y-71390298D01*
X87473965Y-71406535D01*
X87467417Y-71409589D01*
X87467394Y-71409541D01*
X87460507Y-71412875D01*
X87460531Y-71412922D01*
X87454076Y-71416163D01*
X87389555Y-71458598D01*
X87323849Y-71499127D01*
X87318179Y-71503611D01*
X87318146Y-71503569D01*
X87312214Y-71508401D01*
X87312248Y-71508442D01*
X87306717Y-71513082D01*
X87253728Y-71569247D01*
X84766742Y-74056232D01*
X84753113Y-74068011D01*
X84733706Y-74082459D01*
X84699939Y-74122700D01*
X84696295Y-74126678D01*
X84690419Y-74132555D01*
X84669972Y-74158414D01*
X84620334Y-74217570D01*
X84616366Y-74223605D01*
X84616322Y-74223576D01*
X84612209Y-74230031D01*
X84612254Y-74230059D01*
X84608459Y-74236211D01*
X84575827Y-74306191D01*
X84541176Y-74375188D01*
X84538704Y-74381979D01*
X84538655Y-74381961D01*
X84536141Y-74389193D01*
X84536191Y-74389210D01*
X84533920Y-74396062D01*
X84518304Y-74471688D01*
X84500498Y-74546818D01*
X84499661Y-74553987D01*
X84499607Y-74553980D01*
X84498830Y-74561596D01*
X84498883Y-74561601D01*
X84498253Y-74568790D01*
X84500500Y-74645981D01*
X84500500Y-84731000D01*
X84499191Y-84748969D01*
X84495684Y-84772908D01*
X74802592Y-84772908D01*
X74802592Y-43785000D01*
X85829422Y-43785000D01*
X85849722Y-44172339D01*
X85884218Y-44390137D01*
X85910398Y-44555433D01*
X86010512Y-44929066D01*
X86010788Y-44930094D01*
X86149787Y-45292197D01*
X86325877Y-45637793D01*
X86537122Y-45963082D01*
X86646041Y-46097585D01*
X86781219Y-46264516D01*
X87055484Y-46538781D01*
X87055488Y-46538784D01*
X87356917Y-46782877D01*
X87682206Y-46994122D01*
X87682211Y-46994125D01*
X88027806Y-47170214D01*
X88389913Y-47309214D01*
X88764567Y-47409602D01*
X89147662Y-47470278D01*
X89513576Y-47489455D01*
X89534999Y-47490578D01*
X89535000Y-47490578D01*
X89535001Y-47490578D01*
X89555300Y-47489514D01*
X89922338Y-47470278D01*
X90305433Y-47409602D01*
X90680087Y-47309214D01*
X91042194Y-47170214D01*
X91387789Y-46994125D01*
X91713084Y-46782876D01*
X92014516Y-46538781D01*
X92288781Y-46264516D01*
X92532876Y-45963084D01*
X92744125Y-45637789D01*
X92920214Y-45292194D01*
X93059214Y-44930087D01*
X93159602Y-44555433D01*
X93220278Y-44172338D01*
X93240578Y-43785000D01*
X93220278Y-43397662D01*
X93159602Y-43014567D01*
X93059214Y-42639913D01*
X92920214Y-42277806D01*
X92744125Y-41932211D01*
X92744122Y-41932206D01*
X92532877Y-41606917D01*
X92387520Y-41427417D01*
X92288781Y-41305484D01*
X92014516Y-41031219D01*
X91940358Y-40971167D01*
X91713082Y-40787122D01*
X91387793Y-40575877D01*
X91042197Y-40399787D01*
X90680094Y-40260788D01*
X90680087Y-40260786D01*
X90305433Y-40160398D01*
X90305429Y-40160397D01*
X90305428Y-40160397D01*
X89922339Y-40099722D01*
X89535001Y-40079422D01*
X89534999Y-40079422D01*
X89147660Y-40099722D01*
X88764572Y-40160397D01*
X88764570Y-40160397D01*
X88389905Y-40260788D01*
X88027802Y-40399787D01*
X87682206Y-40575877D01*
X87356917Y-40787122D01*
X87055488Y-41031215D01*
X87055480Y-41031222D01*
X86781222Y-41305480D01*
X86781215Y-41305488D01*
X86537122Y-41606917D01*
X86325877Y-41932206D01*
X86149787Y-42277802D01*
X86010788Y-42639905D01*
X85910397Y-43014570D01*
X85910397Y-43014572D01*
X85849722Y-43397660D01*
X85829422Y-43784999D01*
X85829422Y-43785000D01*
X74802592Y-43785000D01*
X74802592Y-42692479D01*
X74802828Y-42687071D01*
X74806568Y-42644333D01*
X74818526Y-42522954D01*
X74822149Y-42503045D01*
X74839587Y-42437969D01*
X74866894Y-42347956D01*
X74873165Y-42331567D01*
X74903805Y-42265862D01*
X74905271Y-42262927D01*
X74948733Y-42181617D01*
X74952597Y-42175329D01*
X74997784Y-42110796D01*
X75000607Y-42107075D01*
X75058006Y-42037134D01*
X75062089Y-42032629D01*
X75063432Y-42031286D01*
X75118130Y-41976587D01*
X75122616Y-41972521D01*
X75192582Y-41915100D01*
X75196280Y-41912295D01*
X75260833Y-41867093D01*
X75267096Y-41863246D01*
X75348395Y-41819788D01*
X75351394Y-41818290D01*
X75355666Y-41816298D01*
X75417038Y-41787677D01*
X75433442Y-41781400D01*
X75523444Y-41754094D01*
X75588524Y-41736654D01*
X75608441Y-41733030D01*
X75730754Y-41720986D01*
X75768774Y-41717658D01*
X75772394Y-41717342D01*
X75777801Y-41717106D01*
X78427165Y-41717106D01*
X78427207Y-41717102D01*
X78624276Y-41717102D01*
X78870548Y-41695556D01*
X78948529Y-41691951D01*
X78962875Y-41687478D01*
X79040724Y-41680668D01*
X79315470Y-41632223D01*
X79378103Y-41623486D01*
X79387893Y-41619453D01*
X79452412Y-41608077D01*
X79730582Y-41533542D01*
X79758909Y-41525952D01*
X79799830Y-41516327D01*
X79805156Y-41513560D01*
X79856200Y-41499883D01*
X79856199Y-41499884D01*
X79943153Y-41468235D01*
X80200120Y-41374706D01*
X80210200Y-41371327D01*
X80211255Y-41370653D01*
X80249035Y-41356903D01*
X80249046Y-41356898D01*
X80249046Y-41356899D01*
X80627905Y-41180234D01*
X80627905Y-41180233D01*
X80627980Y-41180190D01*
X80989940Y-40971213D01*
X80989940Y-40971212D01*
X80989945Y-40971210D01*
X81332379Y-40731435D01*
X81332379Y-40731436D01*
X81601089Y-40505960D01*
X81652614Y-40462726D01*
X81948213Y-40167127D01*
X82021806Y-40079422D01*
X82216923Y-39846892D01*
X82216922Y-39846892D01*
X82216923Y-39846891D01*
X82387224Y-39603677D01*
X82456698Y-39504458D01*
X82495067Y-39438001D01*
X82665720Y-39142421D01*
X82665721Y-39142419D01*
X82665722Y-39142419D01*
X82842387Y-38763560D01*
X82842466Y-38763342D01*
X82856136Y-38725784D01*
X82856727Y-38724981D01*
X82860198Y-38714624D01*
X82985369Y-38370721D01*
X82999046Y-38319676D01*
X83001514Y-38315626D01*
X83011444Y-38273407D01*
X83093566Y-37966926D01*
X83104940Y-37902419D01*
X83108651Y-37894932D01*
X83117707Y-37830014D01*
X83129893Y-37760908D01*
X83166158Y-37555238D01*
X83172968Y-37477395D01*
X83177288Y-37466350D01*
X83181045Y-37385075D01*
X83202592Y-37138790D01*
X83202592Y-36929770D01*
X83202592Y-36929270D01*
X83202592Y-34292475D01*
X83202828Y-34287069D01*
X83202901Y-34286240D01*
X83206575Y-34244252D01*
X83218526Y-34122954D01*
X83222149Y-34103045D01*
X83239587Y-34037972D01*
X83239593Y-34037954D01*
X83266894Y-33947956D01*
X83273165Y-33931567D01*
X83303804Y-33865863D01*
X83305271Y-33862927D01*
X83348733Y-33781617D01*
X83352597Y-33775329D01*
X83397789Y-33710790D01*
X83400607Y-33707075D01*
X83458006Y-33637134D01*
X83462089Y-33632629D01*
X83462149Y-33632569D01*
X83518130Y-33576587D01*
X83522616Y-33572521D01*
X83592582Y-33515100D01*
X83596280Y-33512295D01*
X83660833Y-33467093D01*
X83667096Y-33463246D01*
X83748395Y-33419788D01*
X83751394Y-33418290D01*
X83782213Y-33403918D01*
X83817038Y-33387677D01*
X83833442Y-33381400D01*
X83923444Y-33354094D01*
X83988524Y-33336654D01*
X84008441Y-33333030D01*
X84130754Y-33320986D01*
X84168774Y-33317658D01*
X84172394Y-33317342D01*
X84177801Y-33317106D01*
X215212549Y-33317106D01*
X215217946Y-33317341D01*
G37*
G04 #@! TD.AperFunction*
M02*
